<svg xmlns="http://www.w3.org/2000/svg" width="17" height="17"><path fill="#777" d="M15.179 0H1.821A1.821 1.821 0 000 1.821v13.358A1.821 1.821 0 001.821 17h13.358A1.821 1.821 0 0017 15.179V1.821A1.821 1.821 0 0015.179 0zm.607 15.179a.608.608 0 01-.607.607H1.821a.608.608 0 01-.607-.607V1.821a.608.608 0 01.607-.607h13.358a.608.608 0 01.607.607zM13.357 3.643H3.643a1.214 1.214 0 00-1.214 1.214v7.286a1.214 1.214 0 001.214 1.214h9.714a1.214 1.214 0 001.214-1.214V4.857a1.214 1.214 0 00-1.214-1.214zm0 1.214v1.285c-.536.441-1.388 1.126-3.116 2.5-.4.316-1.181 1.075-1.731 1.075h-.02c-.55 0-1.335-.758-1.731-1.075a221.203 221.203 0 01-3.116-2.5V4.857zm-9.714 7.286V7.707c.535.431 1.276 1.023 2.361 1.884a4.4 4.4 0 002.486 1.338h.02A4.4 4.4 0 0011 9.59a426.745 426.745 0 002.36-1.883v4.436z"/></svg>