<svg xmlns="http://www.w3.org/2000/svg" width="23.852" height="19.081"><path d="M23.328 10.95l-7.607 7.607a1.789 1.789 0 01-2.53 0l-.066-.066.843-.843.066.066a.6.6 0 00.843 0l7.607-7.607a.6.6 0 000-.843l-7.9-7.9a.592.592 0 00-.422-.175h-.729L12.245 0h1.921a1.789 1.789 0 011.265.524l7.9 7.9a1.789 1.789 0 01-.003 2.526zM9.4 1.193H1.789a.6.6 0 00-.6.6V9.4a.592.592 0 00.175.422l7.9 7.9a.6.6 0 00.843 0l7.607-7.607a.6.6 0 000-.843l-7.9-7.9a.592.592 0 00-.414-.179M9.4 0a1.789 1.789 0 011.265.524l7.9 7.9a1.789 1.789 0 010 2.53l-7.615 7.603a1.789 1.789 0 01-2.53 0l-7.9-7.9A1.789 1.789 0 010 9.4V1.789A1.789 1.789 0 011.789 0zM5.367 4.621a.745.745 0 10.745.745.746.746 0 00-.745-.745m0-1.044a1.789 1.789 0 11-1.789 1.79 1.789 1.789 0 011.789-1.789z" fill="#777"/></svg>