<svg xmlns="http://www.w3.org/2000/svg" width="35.233" height="21.826"><defs><clipPath id="a"><path data-name="Rectangle 383" fill="none" stroke="#757575" d="M0 0h35.233v21.826H0z"/></clipPath></defs><g data-name="Group 559" clip-path="url(#a)"><path data-name="Path 143" d="M25.812 13.148h1.49m-17.133 5.214a2.98 2.98 0 10-2.981 2.981 2.981 2.981 0 002.981-2.981zm21.6 0a2.979 2.979 0 10-2.981 2.981 2.979 2.979 0 002.982-2.981zM14.638.483v6.705H9.425V.483M4.209 18.362H.483V.483H22.83v17.879H11.657M28.788 7.188h-2.232v3.724h4.469V9.426zm2.979 11.174h2.979V9.426l-4.469-4.471h-7.45m0 13.408h2.981" fill="none" stroke="#757575"/></g></svg>