<svg xmlns="http://www.w3.org/2000/svg" width="30.237" height="29.164"><path fill="none" stroke="#303c42" stroke-linecap="round" stroke-linejoin="round" stroke-miterlimit="10" d="M29.541 28.467c-.847-1.232-2.159-2.916-3.608-3.384l-2.157-.7a5.478 5.478 0 01-2.834-2.1l-.328-.477H19.24l-.687-2.664a7.278 7.278 0 002.061-4c.923 0 1.374-3.475 1.374-4s-.24-1.661-1.034-1.661a4.483 4.483 0 001.034-3l.687-.666c0-2.442-2.518-5.327-6.869-5.327-3.091 0-4.121 1.332-4.121 1.332a3.586 3.586 0 00-2.747 3.33c0 1.443-.09 3.908.347 4.332-.794 0-1.034 1.141-1.034 1.661s.451 4 1.374 4a7.278 7.278 0 002.061 4l-.691 2.667H9.624l-.328.477a5.478 5.478 0 01-2.834 2.1l-2.157.7c-1.449.468-2.762 2.154-3.609 3.386"/></svg>