<svg xmlns="http://www.w3.org/2000/svg" width="11.618" height="11.618"><path data-name="pencil-alt" d="M11.192 1.276l-.85-.851a1.452 1.452 0 00-2.054 0l-8 8-.289 2.588a.545.545 0 00.6.6l2.6-.286 8-8a1.452 1.452 0 000-2.054zM3.737 7.881a.363.363 0 00.513 0l4.1-4.1.682.682-5.084 5.084v-.788H2.859V7.67H2.07l5.085-5.085.682.682-4.1 4.1a.363.363 0 000 .513zm-.875 2.752l-1.339.149-.687-.683.148-1.344.45-.45h.788v1.094h1.091v.788zm7.817-7.817L9.546 3.95 7.668 2.072 8.799.939a.726.726 0 011.027 0l.851.851a.726.726 0 010 1.027z" fill="#977d2e"/></svg>