<svg xmlns="http://www.w3.org/2000/svg" width="142" height="58"><defs><clipPath id="a"><path data-name="Rectangle 553" transform="translate(-.025 -.251)" fill="none" d="M0 0h142v58H0z"/></clipPath></defs><g data-name="Group 885"><g data-name="Group 884" transform="translate(.025 .251)" clip-path="url(#a)" fill="#896a21"><path data-name="Path 190" d="M75.814 16.145L70.059 0h-3.991l7.362 20.656a.438.438 0 00.826-.035z"/><path data-name="Path 191" d="M81.378.077L81.35 0h-6.283l2.791 7.831a.435.435 0 00.417.3.431.431 0 00.422-.33z"/><path data-name="Path 192" d="M66.969 16.145L61.214 0h-3.989l7.349 20.612a.437.437 0 00.832.044z"/></g></g><path data-name="Path 193" d="M120.428 29.647h-13.67v27.322h13.67v-3.9h-9.743v-7.81h9.743v-3.9h-9.743V33.55h9.743z" fill="#5d5c5c"/><g data-name="Group 887"><g data-name="Group 886" transform="translate(.025 .251)" clip-path="url(#a)" fill="#5d5c5c"><path data-name="Path 194" d="M141.897 56.075l-6.848-10.1a8.221 8.221 0 005.412-7.864 8.03 8.03 0 00-7.781-8.257h-8.819v26.875h3.621V33.692h5.2a4.423 4.423 0 010 8.831h-3.717a.374.374 0 00-.362.385.392.392 0 00.069.224l9.215 13.6h3.749a.374.374 0 00.362-.385.392.392 0 00-.105-.27"/><path data-name="Path 195" d="M32.742 29.854L25.817 47.18l-5.233-13.089-1.552-3.89-.2-.488a.4.4 0 00-.736 0l-.31.772-.381.956-1.062 2.65-5.23 13.087-6.925-17.324H-.054l10.796 27.007a.4.4 0 00.743-.011l1.747-4.368 5.232-13.081 5.232 13.089 1.75 4.376a.4.4 0 00.74 0l1.75-4.376 9.046-22.631z"/><path data-name="Path 196" d="M99.465 29.854v16.747L86.681 29.64l-.009-.013a.371.371 0 00-.672.231v26.873h3.742V39.972L102.5 56.901l.081.1a.362.362 0 00.253.106.38.38 0 00.374-.383v-26.87z"/><path data-name="Path 197" d="M60.479 48.958h17.869a10.845 10.845 0 01-17.873 0m-15.146-3.455h-4.881l2.44-6.379zm38.112.394a.441.441 0 00-.42-.4H58.985a10 10 0 01-.246-2.212 10.522 10.522 0 0110.674-10.359 10.76 10.76 0 018.635 4.275h3.94a.391.391 0 00.394-.385.383.383 0 00-.049-.183 14.683 14.683 0 00-12.921-7.547 14.422 14.422 0 00-14.633 14.205 13.871 13.871 0 00.178 2.212h-5.386l-6.313-15.789a.4.4 0 00-.736 0h-.006l-1.75 4.376-9.047 22.636h4.241l3.1-7.772h7.646l3.111 7.772h4.241l-3.107-7.772h5.048a14.825 14.825 0 0025.61 2.16l.036-.042c.023-.033.041-.066.064-.1l.023-.033a10.193 10.193 0 001.693-4.922c0-.057.023-.077.017-.123"/></g></g></svg>