<svg xmlns="http://www.w3.org/2000/svg" width="26.2" height="26.2"><circle cx="12.5" cy="12.5" r="12.5" fill="none" stroke="#777" stroke-linecap="round" stroke-linejoin="round" stroke-miterlimit="10" stroke-width="1.2" transform="translate(.6 .6)"/><path fill="#777" d="M9.586 11.441a.762.762 0 10.762.762.76.76 0 00-.762-.762zm4.063 0a.762.762 0 10.762.762.76.76 0 00-.762-.762zm4.063 0a.762.762 0 10.762.762.76.76 0 00-.762-.762zM13.649 5.6c-4.489 0-8.127 2.956-8.127 6.6a5.836 5.836 0 001.679 4.01 8.056 8.056 0 01-1.473 2.326.762.762 0 00.558 1.286 7.7 7.7 0 004.416-1.47 9.8 9.8 0 002.949.454c4.489 0 8.127-2.956 8.127-6.6S18.138 5.6 13.649 5.6zm0 12.19a8.756 8.756 0 01-2.641-.406l-.483-.152-.413.292a6.85 6.85 0 01-3.257 1.257 8.564 8.564 0 001.3-2.21l.225-.594-.435-.463A4.8 4.8 0 016.538 12.2c0-3.079 3.19-5.587 7.111-5.587S20.76 9.121 20.76 12.2s-3.191 5.59-7.111 5.59z"/></svg>