<svg xmlns="http://www.w3.org/2000/svg" width="17.03" height="17.03"><path d="M16.4 11.685l-3.6-1.547a1.043 1.043 0 00-1.214.3l-1.467 1.793a11.642 11.642 0 01-5.313-5.313L6.6 5.451a1.043 1.043 0 00.3-1.214L5.348.629a1.042 1.042 0 00-1.191-.6L.8.802A1.033 1.033 0 000 1.813 15.214 15.214 0 0015.217 17.03a1.039 1.039 0 001.015-.808l.768-3.35a1.038 1.038 0 00-.6-1.187zm-1.2 4.28A14.145 14.145 0 011.067 1.836l3.313-.765 1.53 3.572-2.421 1.979a12.853 12.853 0 006.922 6.922l1.979-2.421 3.572 1.53z" fill="#777"/></svg>