<svg xmlns="http://www.w3.org/2000/svg" width="20.394" height="19.37"><g data-name="Group 596" fill="#777"><path data-name="Path 152" d="M10.2.796a.4.4 0 11.39-.321.4.4 0 01-.39.321z"/><path data-name="Path 153" d="M20.394 9.173a1.777 1.777 0 00-1.248-1.694 1.774 1.774 0 00-1.574-3.076 1.774 1.774 0 00-2.326-2.588A7.929 7.929 0 0012.082.226a.4.4 0 00-.189.774 7.129 7.129 0 012.774 1.371 1.774 1.774 0 001.916 2.687 1.785 1.785 0 00-.215.376 1.773 1.773 0 00.944 2.323q.082.035.167.061a1.772 1.772 0 00.23 2.875 1.785 1.785 0 00-.418.113 1.772 1.772 0 00-.841 2.574 1.8 1.8 0 00-.3-.024 1.773 1.773 0 00-1.72 2.2 1.773 1.773 0 00-2.7.727 1.8 1.8 0 00-.092.282 1.772 1.772 0 00-2.964.115 1.785 1.785 0 00-.113-.418 1.773 1.773 0 00-2.31-.975 1.794 1.794 0 00-.264.134 1.775 1.775 0 00-2.176-2.016 1.786 1.786 0 00.214-.374 1.773 1.773 0 00-.944-2.323 1.8 1.8 0 00-.281-.091 1.772 1.772 0 00.026-2.87 1.8 1.8 0 00.277-.087 1.773 1.773 0 00.975-2.31 1.794 1.794 0 00-.134-.264 1.788 1.788 0 00.295.024 1.772 1.772 0 001.487-2.74A7.13 7.13 0 018.5.997a.4.4 0 10-.189-.774 7.93 7.93 0 00-3.158 1.588 1.774 1.774 0 00-2.418 2.454A1.774 1.774 0 001.386 7.44a1.773 1.773 0 00-.022 3.457 1.774 1.774 0 001.459 3.166 1.774 1.774 0 002.349 2.574 1.774 1.774 0 003.269 1.207 1.774 1.774 0 003.481.16 1.774 1.774 0 003.166-1.459 1.774 1.774 0 002.575-2.348 1.752 1.752 0 00.294.025 1.774 1.774 0 00.913-3.295 1.776 1.776 0 001.524-1.754zM3.55 2.647a.977.977 0 110 1.381.974.974 0 010-1.381zM1.537 5.638a.977.977 0 11.52 1.28.97.97 0 01-.52-1.28zM.8 9.173a.977.977 0 11.977.977.978.978 0 01-.977-.977zm1.96 4.075a.977.977 0 11.532-.525.978.978 0 01-.532.525zm.789 2.571a.977.977 0 111.381 0 .978.978 0 01-1.381 0zm4.27 1.493a.977.977 0 11.005-.748.978.978 0 01-.004.749zm2.376 1.26a.977.977 0 11.977-.977.978.978 0 01-.977.977zm5.266-14.545a.977.977 0 111.381 0 .978.978 0 01-1.381 0zM17.1 6.491a.977.977 0 11.525.532.971.971 0 01-.525-.532zm-2.833 10.866a.977.977 0 11.005-.748.97.97 0 01-.005.748zm2.577-1.537a.976.976 0 110-1.381.978.978 0 010 1.381zm2.013-2.991a.977.977 0 110-.748.97.97 0 010 .748zm-.237-2.679a.977.977 0 11.977-.977.978.978 0 01-.977.977z"/></g></svg>