<svg xmlns="http://www.w3.org/2000/svg" width="30" height="30"><g fill="#fff" stroke="#777"><path d="M0 0h30v30H0z" stroke="none"/><path fill="none" d="M.5.5h29v29H.5z"/></g><path fill="#777" d="M16.412 19.336l-2.475 2.475a4.063 4.063 0 01-5.746-5.745l2.475-2.476q.054-.054.11-.106a.375.375 0 01.632.259q.009.225.038.45a.377.377 0 01-.106.316l-2.353 2.352a2.938 2.938 0 004.155 4.155l2.475-2.475.011-.011a2.938 2.938 0 00-.874-4.741.377.377 0 01-.223-.365 1.944 1.944 0 01.088-.477.372.372 0 01.5-.228 4.063 4.063 0 011.3 6.617zm-2.822-2.923a4.038 4.038 0 001.3.871.372.372 0 00.5-.228 1.944 1.944 0 00.088-.477.377.377 0 00-.223-.365 2.938 2.938 0 01-.874-4.741l.011-.011 2.469-2.475a2.938 2.938 0 014.155 4.155l-2.353 2.353a.377.377 0 00-.106.316q.029.224.038.45a.375.375 0 00.632.259q.056-.052.11-.106l2.474-2.477a4.063 4.063 0 10-5.745-5.746l-2.476 2.475a4.068 4.068 0 000 5.746z"/></svg>