<svg xmlns="http://www.w3.org/2000/svg" width="32.4" height="23.49"><path fill="#977d2e" d="M6.66 23.49a4.4 4.4 0 01-2.25-.63 12.163 12.163 0 01-3.33-3.375A9.161 9.161 0 010 14.67q0-3.87 3.6-8.505T14.4 0v1.89q-9.36 2.43-9.36 9.45a5.652 5.652 0 003.06 4.95l2.61 1.62v1.17l-1.53 2.43q-1.26 1.98-2.52 1.98zm18 0a4.4 4.4 0 01-2.25-.63 12.162 12.162 0 01-3.33-3.375A9.161 9.161 0 0118 14.67q0-3.87 3.6-8.505T32.4 0v1.89q-9.36 2.43-9.36 9.45a5.652 5.652 0 003.06 4.95l2.61 1.62v1.17l-1.53 2.43q-1.26 1.98-2.52 1.98z"/></svg>