<svg xmlns="http://www.w3.org/2000/svg" width="30" height="30"><g fill="#fff" stroke="#777"><path d="M0 0h30v30H0z" stroke="none"/><path fill="none" d="M.5.5h29v29H.5z"/></g><path fill="#777" d="M21.619 9h-14A1.571 1.571 0 006 10.522v9.134a1.571 1.571 0 001.616 1.522h14a1.571 1.571 0 001.616-1.522v-9.134A1.571 1.571 0 0021.619 9zm-14 1.015h14a.525.525 0 01.539.507v1.313c-.737.587-1.791 1.4-5.069 3.847-.569.425-1.69 1.449-2.471 1.437-.781.013-1.905-1.012-2.471-1.437-3.279-2.451-4.332-3.26-5.069-3.847v-1.313a.525.525 0 01.538-.507zm14 10.148h-14a.525.525 0 01-.539-.507v-6.5c.767.593 1.979 1.51 4.4 3.32.69.52 1.909 1.665 3.141 1.659 1.225.009 2.434-1.126 3.141-1.659a410.317 410.317 0 004.4-3.32v6.5a.525.525 0 01-.543.507z"/></svg>