<svg xmlns="http://www.w3.org/2000/svg" width="14.697" height="16.75"><defs><style>.cls-1{fill:#333}</style></defs><g id="ico_delete_filter" transform="translate(-31.388)"><path id="Pfad_100" d="M42.177 0a3.913 3.913 0 00-3.746 2.792h-6.312a.731.731 0 00-.6 1.149l4.245 5.792a.769.769 0 01.136.437v5.813a.767.767 0 001.226.614l1.884-1.424a1.122 1.122 0 00.45-.9V10.17a.769.769 0 01.136-.437l1.521-2.076A3.9 3.9 0 1042.177 0zM38.8 9.158a1.745 1.745 0 00-.322 1.012c0 4.465.024 4.158-.055 4.216l-1.542 1.165V10.17a1.746 1.746 0 00-.315-1l-3.951-5.397h5.658a3.9 3.9 0 001.92 3.487zm3.376-2.337A2.92 2.92 0 1145.1 3.9a2.926 2.926 0 01-2.923 2.921z" class="cls-1"/><path id="Pfad_101" d="M320.477 76.037a.491.491 0 00-.694 0l-.582.581-.583-.581a.491.491 0 00-.693.695l.581.58-.581.58a.491.491 0 00.693.695l.583-.581.582.581a.491.491 0 00.693-.695l-.581-.58.581-.58a.491.491 0 00.001-.695z" class="cls-1" transform="translate(-277.023 -73.41)"/></g></svg>