<svg xmlns="http://www.w3.org/2000/svg" width="12.267" height="12.267"><path fill="#977d2e" d="M7.216 9.457l-1.9 1.9a3.115 3.115 0 01-4.4-4.4l1.9-1.9q.042-.042.085-.082a.288.288 0 01.484.2q.007.173.029.345a.289.289 0 01-.081.242l-1.8 1.8a2.252 2.252 0 003.185 3.185l1.9-1.9.009-.009a2.252 2.252 0 00-.682-3.636.289.289 0 01-.171-.28 1.49 1.49 0 01.068-.366.285.285 0 01.381-.174 3.115 3.115 0 01.993 5.073zM5.052 7.216a3.1 3.1 0 00.993.668.285.285 0 00.381-.174 1.49 1.49 0 00.068-.366.289.289 0 00-.171-.28 2.252 2.252 0 01-.67-3.634l.009-.009 1.9-1.9a2.252 2.252 0 013.185 3.185l-1.8 1.8a.289.289 0 00-.081.242q.022.172.029.345a.288.288 0 00.484.2q.043-.04.085-.082l1.9-1.9a3.115 3.115 0 00-4.4-4.4l-1.9 1.9a3.118 3.118 0 00-.012 4.405z"/></svg>