<svg xmlns="http://www.w3.org/2000/svg" width="17" height="11"><path fill="#777" d="M8.499 6.417a1.834 1.834 0 100-3.667c-.03 0-.055.007-.084.008a1.332 1.332 0 01-.326 1.427 1.433 1.433 0 01-1.47.317c0 .029-.009.054-.009.082a1.862 1.862 0 001.889 1.833zm8.4-1.335a9.479 9.479 0 00-16.795 0 .9.9 0 000 .836 9.479 9.479 0 0016.795 0 .9.9 0 000-.836zM8.499.917a3.668 3.668 0 110 7.333 3.668 3.668 0 110-7.333zm0 9.167A8.536 8.536 0 01.944 5.5a8.578 8.578 0 013.83-3.7 4.458 4.458 0 00-1 2.788 4.654 4.654 0 004.725 4.579 4.654 4.654 0 004.722-4.583 4.458 4.458 0 00-1-2.788 8.578 8.578 0 013.83 3.7 8.536 8.536 0 01-7.552 4.587z"/></svg>