<svg xmlns="http://www.w3.org/2000/svg" width="22.857" height="10.666"><path data-name="ico_bracelet" d="M20.093 1.134A25.652 25.652 0 0013.736.065a40.634 40.634 0 00-4.616 0 25.656 25.656 0 00-6.357 1.069C.929 1.75 0 2.522 0 3.427v3.809c0 .818.767 1.531 2.278 2.118a21.127 21.127 0 005.3 1.123 39.543 39.543 0 007.7 0 21.119 21.119 0 005.3-1.123c1.512-.587 2.278-1.3 2.278-2.118V3.427c.001-.905-.929-1.676-2.763-2.293zM15.2 5.911a38.786 38.786 0 01-7.542 0 25.567 25.567 0 01-3.491-.578 28.325 28.325 0 015-.7 39.888 39.888 0 014.527 0 28.362 28.362 0 015 .7 25.565 25.565 0 01-3.494.578zm-3.39-2.1V.766c.513 0 1.023.019 1.524.044v3.047a41.007 41.007 0 00-3.809 0V.81a38.06 38.06 0 011.524-.043v3.045zm-8.8-1.952a24.206 24.206 0 015.755-1v3.034a25.166 25.166 0 00-5.956 1.032C1.526 4.466.765 3.908.765 3.425c-.003-.509.835-1.096 2.241-1.568zM.765 7.24v-2.5a6.644 6.644 0 001.917.956 21.929 21.929 0 004.559.939v3.043a19.578 19.578 0 01-4.684-1.03C1.432 8.209.762 7.683.762 7.237zM8 9.753V6.709c1.105.1 2.256.148 3.429.148s2.324-.05 3.429-.148v3.044c-1.1.1-2.255.151-3.429.151S9.1 9.853 8 9.753zm14.1-2.515c0 .446-.67.972-1.792 1.408a19.581 19.581 0 01-4.684 1.03V6.633a21.931 21.931 0 004.559-.939 6.636 6.636 0 001.917-.956zM20.056 4.93A25.169 25.169 0 0014.1 3.893V.847a24.21 24.21 0 015.755 1c1.405.472 2.245 1.06 2.245 1.571 0 .495-.766 1.053-2.049 1.512z" fill="#777"/></svg>