<svg xmlns="http://www.w3.org/2000/svg" width="18.371" height="18.371"><path data-name="info-circle" d="M9.186 1.185a8 8 0 11-8 8 8 8 0 018-8m0-1.185a9.186 9.186 0 109.186 9.186A9.187 9.187 0 009.186 0zM7.852 12.741H8.3V8.3h-.444a.444.444 0 01-.444-.444v-.3a.444.444 0 01.444-.444H9.63a.444.444 0 01.444.444v5.185h.444a.444.444 0 01.444.444v.3a.444.444 0 01-.444.444H7.852a.444.444 0 01-.444-.444v-.3a.444.444 0 01.444-.444zm1.333-8.889a1.185 1.185 0 101.185 1.185 1.185 1.185 0 00-1.184-1.185z" fill="#757575"/></svg>