<svg xmlns="http://www.w3.org/2000/svg" width="17.51" height="17.506"><path fill="#757575" d="M8.757 4.265a4.481 4.481 0 00-4.488 4.492 4.481 4.481 0 004.488 4.488 4.481 4.481 0 004.488-4.488 4.481 4.481 0 00-4.488-4.492zm0 7.406a2.923 2.923 0 01-2.918-2.914 2.921 2.921 0 012.918-2.918 2.921 2.921 0 012.921 2.918 2.923 2.923 0 01-2.921 2.914zm5.719-7.59a1.047 1.047 0 00-1.047-1.047 1.047 1.047 0 00-1.051 1.047 1.044 1.044 0 001.047 1.047 1.044 1.044 0 001.053-1.047zm2.973 1.063a5.181 5.181 0 00-1.414-3.668A5.215 5.215 0 0012.366.057c-1.445-.082-5.777-.082-7.223 0a5.207 5.207 0 00-3.668 1.41A5.2 5.2 0 00.061 5.135c-.082 1.445-.082 5.777 0 7.223a5.181 5.181 0 001.417 3.672 5.221 5.221 0 003.668 1.414c1.445.082 5.777.082 7.223 0a5.181 5.181 0 003.665-1.414 5.215 5.215 0 001.414-3.668c.082-1.445.082-5.773 0-7.218zm-1.871 8.769a2.954 2.954 0 01-1.661 1.664c-1.152.457-3.887.352-5.16.352s-4.012.1-5.16-.352a2.954 2.954 0 01-1.664-1.664c-.455-1.156-.355-3.886-.355-5.156s-.1-4.012.352-5.16a2.954 2.954 0 011.664-1.664c1.152-.457 3.887-.352 5.16-.352s4.012-.1 5.16.352a2.954 2.954 0 011.664 1.66c.457 1.152.352 3.887.352 5.16s.108 4.012-.352 5.16z"/></svg>