<svg xmlns="http://www.w3.org/2000/svg" width="20.753" height="16.91"><defs><style>.cls-1{fill:#777}</style></defs><g id="ico_jewellery_type" transform="translate(0 -72)"><g id="Gruppe_192" transform="translate(0 72)"><g id="Gruppe_191"><path id="Pfad_38" d="M14.886 79.564l1.03-1.03-.961-.961L16.7 75.83a.616.616 0 000-.742L13.61 72H7.143l-3.089 3.089a.616.616 0 000 .742L5.8 77.573l-.961.961 1.03 1.03A10.342 10.342 0 000 88.91h.769a9.578 9.578 0 015.912-8.869l.53-.221-1.287-1.287.417-.417 1.52 1.52.212-.054a9.171 9.171 0 011.2-.218 9.841 9.841 0 011.656-.047q.276.016.554.047a9.02 9.02 0 011.2.218l.212.054 1.52-1.52.418.417-1.287 1.287.53.221a9.577 9.577 0 015.913 8.868h.769a10.342 10.342 0 00-5.872-9.345zm-1.594-6.8l2.308 2.31h-2.359l-2.018-2.306zm-2.915.2l1.843 2.106H8.533zm-2.915-.2h2.067l-2.017 2.31H5.155zm1.187 5.909q-.282.047-.55.108l-1.758-1.752-1.186-1.186h2.28l.489 1.119.748 1.711zm2.638-.1h-.1c-.267-.02-.534-.035-.8-.035h-.019c-.264 0-.53.014-.8.035h-.1l-1.194-2.73h4.205zm3.126-1.544l-1.756 1.756q-.269-.061-.55-.108l-.025-.005.748-1.711.489-1.118H15.6z" class="cls-1" transform="translate(0 -72)"/></g></g><g id="Gruppe_194" transform="translate(1.58 80.069)"><g id="Gruppe_193"><path id="Pfad_39" d="M42.818 240.046a7.614 7.614 0 00-.621-.057 7.7 7.7 0 00-1.038.008c-.2.012-.408.032-.612.056a8.861 8.861 0 00-7.666 8.762h.769a8.089 8.089 0 016.994-8c.184-.022.373-.04.572-.053a6.92 6.92 0 01.94-.007c.189.011.375.025.563.052a8.074 8.074 0 017.072 8.008h.769a8.842 8.842 0 00-7.742-8.769z" class="cls-1" transform="translate(-32.88 -239.976)"/></g></g></g></svg>