<svg xmlns="http://www.w3.org/2000/svg" width="31.261" height="20.206"><defs><clipPath id="a"><path data-name="Rectangle 379" fill="#777" d="M0 0h31.261v20.206H0z"/></clipPath></defs><g data-name="Group 553" clip-path="url(#a)" fill="#777"><path data-name="Path 116" d="M14.113 19.209h7.26l-1.954-4.847a.312.312 0 00-.289-.194h-2.803a.267.267 0 00-.248.17zm7.967.958h-8.673a.476.476 0 01-.4-.212.49.49 0 01-.048-.444l2.231-5.53a1.218 1.218 0 011.134-.767h2.807a1.262 1.262 0 011.175.79l2.219 5.506a.479.479 0 01-.444.656"/><path data-name="Path 117" d="M13.411 20.166H.48a.479.479 0 01-.444-.656l2.178-5.4a1.422 1.422 0 011.327-.9h12.79a.477.477 0 110 .955H3.54a.48.48 0 00-.441.3l-1.912 4.743h12.224a.479.479 0 010 .958"/><path data-name="Path 118" d="M22.818 19.182l7.26.06-1.912-4.862a.307.307 0 00-.286-.2l-2.807-.024a.269.269 0 00-.248.167zm7.964 1.023l-8.677-.075a.474.474 0 01-.394-.212.479.479 0 01-.045-.447l2.276-5.512a1.215 1.215 0 011.142-.755l2.807.021a1.265 1.265 0 011.166.805l2.172 5.521a.477.477 0 01-.444.653"/><path data-name="Path 119" d="M25.076 14.155l-3.675-.027a.479.479 0 110-.958l3.675.027a.479.479 0 010 .958"/><path data-name="Path 120" d="M26.631 14.099a.481.481 0 01-.444-.3l-2.216-5.506a.312.312 0 00-.289-.194h-2.808a.264.264 0 00-.248.17l-1.733 4.3a.48.48 0 01-.889-.358l1.736-4.3a1.218 1.218 0 011.134-.767h2.807a1.262 1.262 0 011.175.79l2.219 5.506a.481.481 0 01-.444.656"/><path data-name="Path 121" d="M5.595 12.679a.481.481 0 01-.444-.656l1.6-3.982a1.431 1.431 0 011.33-.895h12.793a.477.477 0 110 .955H8.086a.481.481 0 00-.444.3l-1.6 3.982a.481.481 0 01-.444.3"/><path data-name="Path 122" d="M28.581 4.032a.477.477 0 01-.481-.477v-.072a.477.477 0 11.955 0v.072a.477.477 0 01-.477.477"/><path data-name="Path 123" d="M28.581 6.549a.477.477 0 01-.477-.477V6a.477.477 0 11.955 0v.072a.477.477 0 01-.477.477"/><path data-name="Path 124" d="M27.359 5.255h-.072a.479.479 0 010-.958h.072a.479.479 0 010 .958"/><path data-name="Path 125" d="M29.876 5.255h-.072a.479.479 0 010-.958h.072a.479.479 0 010 .958"/><path data-name="Path 126" d="M2.32 5.815a.477.477 0 01-.477-.475v-.072a.477.477 0 11.955 0v.072a.477.477 0 01-.477.477"/><path data-name="Path 127" d="M2.32 8.333a.477.477 0 01-.477-.477v-.072a.477.477 0 11.955 0v.072a.477.477 0 01-.477.477"/><path data-name="Path 128" d="M1.097 7.039h-.072a.479.479 0 010-.958h.072a.479.479 0 010 .958"/><path data-name="Path 129" d="M3.615 7.039h-.072a.479.479 0 010-.958h.072a.479.479 0 010 .958"/><path data-name="Path 130" d="M8.405 1.028a.477.477 0 01-.477-.477V.479a.477.477 0 11.955 0v.072a.477.477 0 01-.477.477"/><path data-name="Path 131" d="M8.405 3.545a.477.477 0 01-.477-.477v-.072a.477.477 0 11.955 0v.072a.477.477 0 01-.477.477"/><path data-name="Path 132" d="M7.182 2.251H7.11a.479.479 0 010-.958h.072a.479.479 0 010 .958"/><path data-name="Path 133" d="M9.701 2.251h-.072a.479.479 0 010-.958h.072a.479.479 0 010 .958"/></g></svg>