<svg xmlns="http://www.w3.org/2000/svg" id="ico_sicher" width="58" height="58"><defs><style>.cls-2{fill:#777}</style></defs><g id="Pfad_146" fill="none" stroke="none"><path d="M29 0A29 29 0 110 29 29 29 0 0129 0z"/><path fill="#777" d="M29 1A27.919 27.919 0 009.201 9.201 27.919 27.919 0 001 29a27.919 27.919 0 008.201 19.799A27.919 27.919 0 0029 57a27.919 27.919 0 0019.799-8.201A27.919 27.919 0 0057 29a27.919 27.919 0 00-8.201-19.799A27.919 27.919 0 0029 1m0-1c16.016 0 29 12.984 29 29S45.016 58 29 58 0 45.016 0 29 12.984 0 29 0z"/></g><path id="Pfad_83" d="M26.235 32.34H3.952A3.958 3.958 0 000 36.293v12.829a3.957 3.957 0 003.953 3.953h11.811v3.46a2.182 2.182 0 002.18 2.179h6.57a2.181 2.181 0 002.179-2.179v-3.489a3.957 3.957 0 003.5-3.924V36.293a3.957 3.957 0 00-3.958-3.953zm-.7 24.2a1.026 1.026 0 01-1.025 1.025h-6.57a1.026 1.026 0 01-1.026-1.025v-6.158h8.621v6.153zm-6.66-7.307V47.04a2.354 2.354 0 014.7 0v2.188zm10.156-.106a2.8 2.8 0 01-2.342 2.753v-2.07a.576.576 0 00-.577-.577h-1.381V47.04a3.506 3.506 0 00-7.006 0v2.188h-1.384a.576.576 0 00-.577.577v2.116H3.953a2.8 2.8 0 01-2.8-2.8v-7.778h27.88zm0-8.933H1.154v-1.973h27.88v1.969zm0-3.122H1.154v-.774a2.8 2.8 0 012.8-2.8h22.281a2.8 2.8 0 012.8 2.8z" class="cls-2" transform="translate(13.906 -14.866)"/><path id="Pfad_84" d="M59.272 308.352h9.2a.577.577 0 000-1.153h-9.2a.577.577 0 000 1.153z" class="cls-2" transform="translate(-41.328 -273.52)"/><path id="Pfad_85" d="M329.8 355.011v1.289a.577.577 0 101.153 0v-1.287a1.858 1.858 0 10-1.153 0zm.577-2.463a.705.705 0 11-.7.705.706.706 0 01.7-.705z" class="cls-2" transform="translate(-295.243 -315.109)"/></svg>