<svg xmlns="http://www.w3.org/2000/svg" width="58" height="58"><g fill="none"><path d="M29 0A29 29 0 110 29 29 29 0 0129 0z"/><path fill="#777" d="M29 1A27.919 27.919 0 009.201 9.201 27.919 27.919 0 001 29a27.919 27.919 0 008.201 19.799A27.919 27.919 0 0029 57a27.919 27.919 0 0019.799-8.201A27.919 27.919 0 0057 29a27.919 27.919 0 00-8.201-19.799A27.919 27.919 0 0029 1m0-1c16.016 0 29 12.984 29 29S45.016 58 29 58 0 45.016 0 29 12.984 0 29 0z"/></g><path fill="none" stroke="#777" stroke-miterlimit="10" d="M31.056 42.968H27.34V22.533h3.716zm0-15.483h8.668v15.483H18.67V27.485h8.67m3.716 0h10.527v-4.952H16.816v4.952H27.34m7.934-4.967h-6.077l4.282-3.157.006-.006.253-.191.011-.006.032-.019a1.851 1.851 0 01.566-.217 1.893 1.893 0 012.242 1.436 1.847 1.847 0 01-1.315 2.16zm-6.077 0h-6.075a1.847 1.847 0 01-1.315-2.161 1.893 1.893 0 012.242-1.436 1.851 1.851 0 01.566.217l.032.019.264.2.006.006zm-1.738-5.467l.006.013 1.731 5.454m5.038-3.785a2.194 2.194 0 01-.315.3l-.138.1-.032.019-.011.006a1.466 1.466 0 00-.253.191l-.006.006-3.4 2.508.838-4.707.064-.2.019-.049a1.791 1.791 0 01.3-.508 1.914 1.914 0 012.657-.279 1.839 1.839 0 01.277 2.613zm-9.619.4l.032.019.011.006.253.191m2.5-2.41a1.858 1.858 0 00-.308-.545 1.914 1.914 0 00-2.657-.279 1.842 1.842 0 00-.285 2.614 2.19 2.19 0 00.455.4l.032.019.011.006m6.322-2.219a1.8 1.8 0 00.106-.619 1.889 1.889 0 00-3.778 0 1.751 1.751 0 00.151.725l.006.013"/><path fill="none" d="M16.345 14h25.706v29.434H16.345z"/></svg>