<svg xmlns="http://www.w3.org/2000/svg" width="58" height="58"><g fill="none"><path d="M29 0A29 29 0 110 29 29 29 0 0129 0z"/><path fill="#777" d="M29 1A27.919 27.919 0 009.201 9.201 27.919 27.919 0 001 29a27.919 27.919 0 008.201 19.799A27.919 27.919 0 0029 57a27.919 27.919 0 0019.799-8.201A27.919 27.919 0 0057 29a27.919 27.919 0 00-8.201-19.799A27.919 27.919 0 0029 1m0-1c16.016 0 29 12.984 29 29S45.016 58 29 58 0 45.016 0 29 12.984 0 29 0z"/></g><path fill="none" stroke="#777" stroke-miterlimit="10" d="M36.811 31.148h1.49m-17.133 5.214a2.98 2.98 0 10-2.981 2.981 2.981 2.981 0 002.981-2.981zm21.6 0a2.979 2.979 0 10-2.981 2.981 2.979 2.979 0 002.982-2.981zM25.637 18.483v6.705h-5.213v-6.705m-5.216 17.879h-3.726V18.483h22.347v17.879H22.656m17.131-11.174h-2.232v3.724h4.469v-1.486zm2.979 11.174h2.979v-8.936l-4.469-4.471h-7.45m0 13.408h2.981"/></svg>