<svg xmlns="http://www.w3.org/2000/svg" id="ico_geschaefte" width="58" height="58"><defs><style>.cls-2{fill:#7e7d7d}</style></defs><g id="Pfad_148" fill="none" stroke="none"><path d="M29 0A29 29 0 110 29 29 29 0 0129 0z"/><path fill="#777" d="M29 1A27.919 27.919 0 009.201 9.201 27.919 27.919 0 001 29a27.919 27.919 0 008.201 19.799A27.919 27.919 0 0029 57a27.919 27.919 0 0019.799-8.201A27.919 27.919 0 0057 29a27.919 27.919 0 00-8.201-19.799A27.919 27.919 0 0029 1m0-1c16.016 0 29 12.984 29 29S45.016 58 29 58 0 45.016 0 29 12.984 0 29 0z"/></g><path id="Pfad_141" d="M101.578 45.34a5.324 5.324 0 105.17 5.323 5.253 5.253 0 00-5.17-5.323m-.01 23.237c-2.128-2.325-10.327-11.689-10.327-17.922a10.337 10.337 0 1120.662 0c0 6.121-8.209 15.575-10.335 17.922" class="cls-2" transform="translate(-72.551 -25.295)"/><path id="Pfad_142" d="M101.985 55.7a4.636 4.636 0 114.482-4.632 4.559 4.559 0 01-4.482 4.632m0-16a11.2 11.2 0 00-11.028 11.361C90.957 58.551 101.98 70 101.98 70S113 58.417 113 51.061A11.2 11.2 0 00101.98 39.7m0 17.377a6.012 6.012 0 10-5.858-6.009 5.945 5.945 0 005.858 6.009m0-16a9.429 9.429 0 016.8 2.908 10.093 10.093 0 012.84 7.074c0 2.711-1.809 6.651-5.233 11.393a71.882 71.882 0 01-4.418 5.5 70.075 70.075 0 01-4.405-5.452c-3.421-4.717-5.228-8.674-5.228-11.439a10.091 10.091 0 012.838-7.074 9.43 9.43 0 016.806-2.908" class="cls-2" transform="translate(-72.957 -25.7)"/></svg>