<svg xmlns="http://www.w3.org/2000/svg" width="24.097" height="22.005"><defs><style>.cls-1{fill:none;stroke:#777;stroke-linecap:round;stroke-linejoin:round;stroke-miterlimit:10}</style></defs><g id="ico_price" transform="translate(.097 -.995)"><g id="XMLID_1459_"><path id="XMLID_1458_" d="M22 22.5H5A1.5 1.5 0 013.5 21V10A1.5 1.5 0 015 8.5h17a1.5 1.5 0 011.5 1.5v11a1.5 1.5 0 01-1.5 1.5z" class="cls-1"/><path id="XMLID_1453_" d="M18.937 16.5a1.59 1.59 0 00-.937.307 1.59 1.59 0 00-.937-.307 1.5 1.5 0 100 3 1.59 1.59 0 00.937-.307 1.59 1.59 0 00.938.307 1.5 1.5 0 100-3z" class="cls-1"/></g><g id="XMLID_1461_"><g id="XMLID_1439_"><path id="XMLID_1462_" d="M12.069 8.5l7.022-4.088-.99-1.73L8.108 8.5" class="cls-1"/><path id="XMLID_1460_" d="M3.5 11.183L.947 12.669l.99 1.73 1.563-.91" class="cls-1"/></g><path id="XMLID_1438_" d="M21.432 8.5l-3.578-6.251a1.479 1.479 0 00-2.03-.549L1.243 10.19A1.5 1.5 0 00.7 12.237l2.8 4.892" class="cls-1"/></g><path id="XMLID_1457_" d="M0 0h5" class="cls-1" transform="translate(6.5 16.5)"/><path id="XMLID_1463_" d="M0 0h7" class="cls-1" transform="translate(6.5 19.5)"/></g></svg>