<svg xmlns="http://www.w3.org/2000/svg" width="26.2" height="26.2"><defs><style>.cls-2{fill:none;stroke-linecap:round;stroke-linejoin:round;stroke-miterlimit:10;stroke:#6f6f6f}</style></defs><g id="ico_contact" transform="translate(-1306.4 -928.4)"><g id="ui_interface_user_user_interface_question" transform="translate(1306.477 928.18)"><circle id="Ellipse_16" cx="12.5" cy="12.5" r="12.5" fill="none" stroke="#777" stroke-linecap="round" stroke-linejoin="round" stroke-miterlimit="10" stroke-width="1.2" transform="translate(.523 .82)"/></g><g id="XMLID_1441_" transform="translate(1311.42 932)"><path id="XMLID_1378_" d="M14.6 14.646H1.483a.983.983 0 01-.983-.983v-9.18a.983.983 0 01.983-.983H14.6a.983.983 0 01.983.983v9.179a.983.983 0 01-.983.984z" class="cls-2"/><path id="XMLID_1377_" d="M.94 3.94s5 4.576 6.556 5.98a.984.984 0 001.391 0c1.558-1.4 6.556-5.98 6.556-5.98" class="cls-2" transform="translate(-.151 -.151)"/><path id="XMLID_1375_" d="M20.04 17.285S16.307 13.7 14.288 12" class="cls-2" transform="translate(-4.748 -2.927)"/><path id="XMLID_1373_" d="M6.691 12C4.672 13.7.94 17.285.94 17.285" class="cls-2" transform="translate(-.151 -2.927)"/></g></g></svg>