<svg xmlns="http://www.w3.org/2000/svg" id="ico_ring" width="31.418" height="25.6"><defs><style>.cls-1{fill:#777}</style></defs><g id="Gruppe_192"><g id="Gruppe_191"><path id="Pfad_38" d="M22.536 83.451l1.56-1.56-1.455-1.455 2.637-2.636a.933.933 0 000-1.123L20.6 72h-9.79l-4.672 4.676a.933.933 0 000 1.123l2.637 2.637-1.452 1.455 1.56 1.56A15.657 15.657 0 000 97.6h1.164a14.5 14.5 0 018.951-13.426l.8-.334-1.947-1.949.632-.632 2.3 2.3.321-.081a13.885 13.885 0 011.814-.329 14.9 14.9 0 012.507-.071q.417.024.838.071a13.653 13.653 0 011.814.329l.321.081 2.3-2.3.633.632L20.5 83.84l.8.334A14.5 14.5 0 0130.255 97.6h1.164a15.657 15.657 0 00-8.883-14.149zm-2.413-10.287l3.491 3.491h-3.568l-3.055-3.491zm-4.414.3l2.79 3.189h-5.581zm-4.414-.3h3.131l-3.055 3.491H7.8zm1.8 8.945q-.427.072-.833.163L9.6 79.614l-1.8-1.8h3.451L12 79.512l1.133 2.59zm3.993-.158c-.051 0-.1 0-.152-.007-.4-.031-.808-.053-1.211-.053h-.029c-.4 0-.8.022-1.207.052-.052 0-.1 0-.154.007l-1.807-4.133h6.366zm4.733-2.337l-2.659 2.659q-.407-.093-.832-.163l-.04-.01 1.133-2.59.74-1.693h3.451z" class="cls-1" transform="translate(0 -72)"/></g></g><g id="Gruppe_194" transform="translate(2.391 12.216)"><g id="Gruppe_193"><path id="Pfad_39" d="M47.925 240.082a11.259 11.259 0 00-.941-.086 11.646 11.646 0 00-1.571.012c-.308.018-.617.048-.927.086a13.414 13.414 0 00-11.606 13.265h1.164a12.247 12.247 0 0110.589-12.112c.279-.034.565-.061.866-.08a10.476 10.476 0 011.423-.01c.287.016.568.038.853.078a12.224 12.224 0 0110.705 12.124h1.164a13.385 13.385 0 00-11.719-13.277z" class="cls-1" transform="translate(-32.88 -239.976)"/></g></g></svg>