<svg xmlns="http://www.w3.org/2000/svg" width="34.352" height="16.03"><path fill="#777" d="M30.2 1.705A38.552 38.552 0 0020.646.098a61.069 61.069 0 00-6.937 0 38.558 38.558 0 00-9.554 1.607C1.4 2.631 0 3.793 0 5.152v5.725c0 1.23 1.152 2.3 3.423 3.183a31.751 31.751 0 007.97 1.688 59.429 59.429 0 0011.566 0 31.741 31.741 0 007.969-1.688c2.272-.882 3.424-1.953 3.424-3.183V5.152c0-1.359-1.398-2.521-4.152-3.447zm-7.354 7.178a58.291 58.291 0 01-11.335 0 38.423 38.423 0 01-5.246-.869 42.57 42.57 0 017.512-1.048 59.946 59.946 0 016.8 0 42.624 42.624 0 017.512 1.048 38.421 38.421 0 01-5.245.869zm-5.1-3.159V1.148c.771.007 1.537.029 2.29.065v4.58a61.41 61.41 0 00-5.725 0V1.214c.753-.036 1.52-.058 2.29-.065v4.576zM4.518 2.793a36.379 36.379 0 018.65-1.51v4.578a37.822 37.822 0 00-8.951 1.552c-1.928-.69-3.072-1.528-3.072-2.257 0-.773 1.261-1.656 3.373-2.363zM1.145 10.88V7.123a9.986 9.986 0 002.882 1.436 32.956 32.956 0 006.851 1.412v4.573a29.425 29.425 0 01-7.04-1.551c-1.686-.655-2.693-1.446-2.693-2.116zm10.878 3.78v-4.575c1.661.148 3.391.223 5.153.223s3.492-.075 5.153-.223v4.575c-1.659.15-3.389.228-5.153.228s-3.494-.08-5.153-.231zm21.183-3.78c0 .67-1.007 1.461-2.693 2.116a29.428 29.428 0 01-7.04 1.548V9.971a32.96 32.96 0 006.851-1.412 9.973 9.973 0 002.882-1.436zm-3.072-3.468a37.825 37.825 0 00-8.951-1.551V1.284a36.385 36.385 0 018.65 1.51c2.112.71 3.373 1.593 3.373 2.362 0 .725-1.144 1.563-3.072 2.253z"/></svg>