<svg xmlns="http://www.w3.org/2000/svg" width="50" height="50"><g fill="#fff" stroke="#6f6f6f" opacity=".9"><rect width="50" height="50" rx="3" stroke="none"/><rect width="49" height="49" x=".5" y=".5" fill="none" rx="2.5"/></g><path fill="#898989" d="M29.521 17.718h-1.08a1.075 1.075 0 00-.965.594L26.281 20.7l-1.195-2.389a1.075 1.075 0 00-.965-.594h-1.08a1.083 1.083 0 00-1.075 1.083v7.019a.541.541 0 00.54.54h1.08a.541.541 0 00.54-.54v-4.6l1.674 3.766a.539.539 0 00.965 0l1.674-3.766v4.6a.541.541 0 00.54.54h1.08a.541.541 0 00.54-.54V18.8a1.073 1.073 0 00-1.078-1.082zm-11.379 2.869a.346.346 0 01-.142-.256c0-.209.3-.445.7-.445h.83a.542.542 0 00.54-.54v-1.08a.541.541 0 00-.54-.54h-.821a2.744 2.744 0 00-2.862 2.604 2.507 2.507 0 00.9 1.9l1.476 1.27a.346.346 0 01.142.256c0 .209-.3.445-.7.445h-.83a.542.542 0 00-.54.54v1.08a.541.541 0 00.54.54h.831a2.744 2.744 0 002.862-2.605 2.507 2.507 0 00-.9-1.9l-1.486-1.269zm16.2 0a.346.346 0 01-.142-.256c0-.209.3-.445.7-.445h.83a.541.541 0 00.54-.54v-1.08a.541.541 0 00-.54-.54h-.83a2.744 2.744 0 00-2.862 2.605 2.507 2.507 0 00.9 1.9l1.476 1.269a.346.346 0 01.142.256c0 .209-.3.445-.7.445h-.823a.542.542 0 00-.54.54v1.08a.541.541 0 00.54.54h.83a2.744 2.744 0 002.862-2.605 2.507 2.507 0 00-.9-1.9l-1.485-1.269zM26.281 8C16.738 8 9.004 14.283 9.004 22.038a12.406 12.406 0 003.57 8.524A17.126 17.126 0 019.443 35.5a1.62 1.62 0 001.174 2.733 16.375 16.375 0 009.388-3.125 20.922 20.922 0 006.276.965c9.543 0 17.277-6.283 17.277-14.038S35.824 8 26.281 8zm0 25.916a18.615 18.615 0 01-5.615-.864l-1.026-.324-.877.621a14.563 14.563 0 01-6.924 2.673 18.206 18.206 0 002.754-4.7l.479-1.262-.925-.985a10.223 10.223 0 01-2.981-7.037c0-6.546 6.783-11.878 15.118-11.878s15.122 5.331 15.122 11.878-6.79 11.878-15.125 11.878z"/></svg>