<svg xmlns="http://www.w3.org/2000/svg" width="50" height="50"><g fill="#fff" stroke="#6f6f6f" opacity=".9"><rect width="50" height="50" rx="3" stroke="none"/><rect width="49" height="49" x=".5" y=".5" fill="none" rx="2.5"/></g><path fill="#898989" d="M34.806 15.069a13.879 13.879 0 00-21.837 16.744L11 39l7.356-1.931a13.833 13.833 0 006.631 1.688h.006a13.787 13.787 0 009.813-23.687zm-9.813 21.35a11.512 11.512 0 01-5.875-1.606l-.419-.25-4.362 1.143L15.5 31.45l-.275-.437a11.555 11.555 0 1121.431-6.131 11.661 11.661 0 01-11.662 11.537zm6.325-8.638c-.344-.175-2.05-1.013-2.369-1.125s-.55-.175-.781.175-.894 1.125-1.1 1.362-.406.263-.75.088a9.437 9.437 0 01-4.718-4.125c-.356-.612.356-.569 1.019-1.894a.642.642 0 00-.031-.606c-.087-.175-.781-1.881-1.069-2.575-.281-.675-.569-.581-.781-.594s-.431-.012-.663-.012a1.284 1.284 0 00-.925.431 3.9 3.9 0 00-1.213 2.894 6.792 6.792 0 001.413 3.588 15.492 15.492 0 005.925 5.237c2.2.95 3.062 1.031 4.162.869a3.551 3.551 0 002.337-1.65 2.9 2.9 0 00.2-1.65c-.08-.156-.312-.244-.655-.413z"/></svg>