<svg xmlns="http://www.w3.org/2000/svg" width="15.233" height="17.409" viewBox="0 0 15.233 17.409">
    <path fill="#977d2e" d="M10.881 11.289v.272a.409.409 0 0 1-.408.408H8.161v2.312a.409.409 0 0 1-.408.408h-.272a.409.409 0 0 1-.408-.408v-2.312H4.76a.409.409 0 0 1-.408-.408v-.272a.409.409 0 0 1 .408-.408h2.312V8.569a.409.409 0 0 1 .408-.408h.272a.409.409 0 0 1 .408.408v2.312h2.312a.409.409 0 0 1 .409.408zm4.352-7.481v11.969a1.633 1.633 0 0 1-1.633 1.632H1.632A1.633 1.633 0 0 1 0 15.777V3.808a1.633 1.633 0 0 1 1.632-1.632h1.632V.408A.409.409 0 0 1 3.672 0h.272a.409.409 0 0 1 .408.408v1.768h6.528V.408A.409.409 0 0 1 11.289 0h.272a.409.409 0 0 1 .408.408v1.768H13.6a1.633 1.633 0 0 1 1.633 1.632zm-14.145 0V5.44h13.057V3.808a.546.546 0 0 0-.544-.544H1.632a.546.546 0 0 0-.544.544zm13.057 11.969V6.528H1.088v9.249a.546.546 0 0 0 .544.544H13.6a.546.546 0 0 0 .545-.544z"/>
</svg>
