<svg xmlns="http://www.w3.org/2000/svg" width="28" height="28" viewBox="0 0 28 28">
  <path id="arrow_right" d="M12.113-16.942a.434.434,0,0,0-.618.016.437.437,0,0,0,.021.619L17.735-10.5,11.517-4.692a.428.428,0,0,0-.142.317.439.439,0,0,0,.118.3.437.437,0,0,0,.618.021l6.562-6.125a.45.45,0,0,0,0-.639ZM14-24.5a14,14,0,0,0-14,14,14,14,0,0,0,14,14,14,14,0,0,0,14-14A14,14,0,0,0,14-24.5ZM14,2.625A13.142,13.142,0,0,1,.875-10.5,13.142,13.142,0,0,1,14-23.625,13.142,13.142,0,0,1,27.125-10.5,13.142,13.142,0,0,1,14,2.625Z" transform="translate(0 24.5)" fill="#fff"/>
</svg>
