<svg xmlns="http://www.w3.org/2000/svg" width="28" height="28" viewBox="0 0 28 28">
  <path id="arrow_left" d="M12.113-4.058a.434.434,0,0,1-.618-.016.437.437,0,0,1,.021-.619L17.735-10.5l-6.218-5.808a.428.428,0,0,1-.142-.317.439.439,0,0,1,.118-.3.437.437,0,0,1,.618-.021l6.562,6.125a.45.45,0,0,1,0,.639ZM14,3.5a14,14,0,0,1-14-14,14,14,0,0,1,14-14,14,14,0,0,1,14,14A14,14,0,0,1,14,3.5Zm0-27.125A13.142,13.142,0,0,0,.875-10.5,13.142,13.142,0,0,0,14,2.625,13.142,13.142,0,0,0,27.125-10.5,13.142,13.142,0,0,0,14-23.625Z" transform="translate(28 3.5) rotate(180)" fill="#fff"/>
</svg>
