<svg xmlns="http://www.w3.org/2000/svg" width="15.812" height="21" viewBox="0 0 15.812 21">
  <g id="ico_warenkorb" transform="translate(0.067 0.5)">
    <g id="XMLID_1396_" transform="translate(0.433)">
      <path id="XMLID_1399_" d="M18.312,5.5H3.5V20.446A1.334,1.334,0,0,0,4.807,21.8h12.2a1.334,1.334,0,0,0,1.307-1.359Z" transform="translate(-3.5 -1.804)" fill="none" stroke="#977d2e" stroke-linecap="round" stroke-linejoin="round" stroke-width="1"/>
      <path id="XMLID_1399_2" data-name="XMLID_1399_" d="M16.263,5.5H3.5V18.378a1.149,1.149,0,0,0,1.126,1.171H15.137a1.149,1.149,0,0,0,1.126-1.171Z" transform="translate(-2.475 -0.676)" fill="#977d2e"/>
      <path id="XMLID_1397_" d="M7.5,5.674V1.609C7.5,1,8.164.5,8.983.5h5.933C15.735.5,16.4,1,16.4,1.609V5.674" transform="translate(-4.543 -0.5)" fill="none" stroke="#977d2e" stroke-linecap="round" stroke-linejoin="round" stroke-width="1"/>
    </g>
  </g>
</svg>
