<svg xmlns="http://www.w3.org/2000/svg" width="17" height="17" viewBox="0 0 17 17">
    <path fill="#777" d="M15.179 32H1.821A1.821 1.821 0 0 0 0 33.821v13.358A1.821 1.821 0 0 0 1.821 49h13.358A1.821 1.821 0 0 0 17 47.179V33.821A1.821 1.821 0 0 0 15.179 32zm.607 15.179a.608.608 0 0 1-.607.607H1.821a.608.608 0 0 1-.607-.607V33.821a.608.608 0 0 1 .607-.607h13.358a.608.608 0 0 1 .607.607zm-2.429-11.536H3.643a1.214 1.214 0 0 0-1.214 1.214v7.286a1.214 1.214 0 0 0 1.214 1.214h9.714a1.214 1.214 0 0 0 1.214-1.214v-7.286a1.214 1.214 0 0 0-1.214-1.214zm0 1.214v1.285c-.536.441-1.388 1.126-3.116 2.5-.4.316-1.181 1.075-1.731 1.075h-.02c-.55 0-1.335-.758-1.731-1.075-1.728-1.372-2.58-2.056-3.116-2.5v-1.285zm-9.714 7.286v-4.436c.535.431 1.276 1.023 2.361 1.884a4.4 4.4 0 0 0 2.486 1.338h.02A4.4 4.4 0 0 0 11 41.59c1.085-.861 1.825-1.452 2.36-1.883v4.436z" transform="translate(0 -32)"/>
</svg>
