<svg xmlns="http://www.w3.org/2000/svg" width="23.852" height="19.081" viewBox="0 0 23.852 19.081">
  <path id="ico_brand" d="M23.328,10.95l-7.607,7.607a1.789,1.789,0,0,1-2.53,0l-.066-.066.843-.843.066.066a.6.6,0,0,0,.843,0l7.607-7.607a.6.6,0,0,0,0-.843l-7.9-7.9a.592.592,0,0,0-.422-.175h-.729L12.245,0h1.921a1.789,1.789,0,0,1,1.265.524l7.9,7.9A1.789,1.789,0,0,1,23.328,10.95ZM9.4,1.193H1.789a.6.6,0,0,0-.6.6V9.4a.592.592,0,0,0,.175.422l7.9,7.9a.6.6,0,0,0,.843,0l7.607-7.607a.6.6,0,0,0,0-.843l-7.9-7.9A.592.592,0,0,0,9.4,1.193M9.4,0a1.789,1.789,0,0,1,1.265.524l7.9,7.9a1.789,1.789,0,0,1,0,2.53L10.95,18.557a1.789,1.789,0,0,1-2.53,0l-7.9-7.9A1.789,1.789,0,0,1,0,9.4V1.789A1.789,1.789,0,0,1,1.789,0ZM5.367,4.621a.745.745,0,1,0,.745.745.746.746,0,0,0-.745-.745m0-1.044A1.789,1.789,0,1,1,3.578,5.367,1.789,1.789,0,0,1,5.367,3.578Z" fill="#777"/>
</svg>
