<svg id="calendar-plus" xmlns="http://www.w3.org/2000/svg" width="15.233" height="17.409" viewBox="0 0 15.233 17.409">
  <path id="calendar-plus-2" data-name="calendar-plus" d="M10.881,11.289v.272a.409.409,0,0,1-.408.408H8.161v2.312a.409.409,0,0,1-.408.408H7.481a.409.409,0,0,1-.408-.408V11.969H4.76a.409.409,0,0,1-.408-.408v-.272a.409.409,0,0,1,.408-.408H7.072V8.569a.409.409,0,0,1,.408-.408h.272a.409.409,0,0,1,.408.408v2.312h2.312A.409.409,0,0,1,10.881,11.289Zm4.352-7.481V15.777A1.633,1.633,0,0,1,13.6,17.409H1.632A1.633,1.633,0,0,1,0,15.777V3.808A1.633,1.633,0,0,1,1.632,2.176H3.264V.408A.409.409,0,0,1,3.672,0h.272a.409.409,0,0,1,.408.408V2.176h6.528V.408A.409.409,0,0,1,11.289,0h.272a.409.409,0,0,1,.408.408V2.176H13.6A1.633,1.633,0,0,1,15.233,3.808Zm-14.145,0V5.44H14.145V3.808a.546.546,0,0,0-.544-.544H1.632A.546.546,0,0,0,1.088,3.808ZM14.145,15.777V6.528H1.088v9.249a.546.546,0,0,0,.544.544H13.6A.546.546,0,0,0,14.145,15.777Z" fill="#777"/>
</svg>
