<svg id="clock" xmlns="http://www.w3.org/2000/svg" width="17.409" height="17.409" viewBox="0 0 17.409 17.409">
  <path id="clock-2" data-name="clock" d="M16.7,8a8.7,8.7,0,1,0,8.7,8.7A8.7,8.7,0,0,0,16.7,8Zm7.581,8.7A7.581,7.581,0,1,1,16.7,9.123,7.581,7.581,0,0,1,24.286,16.7ZM19.06,19.8l-2.85-2.071a.424.424,0,0,1-.172-.34v-5.6a.422.422,0,0,1,.421-.421h.491a.422.422,0,0,1,.421.421v5.135l2.474,1.8a.421.421,0,0,1,.091.59l-.288.4A.424.424,0,0,1,19.06,19.8Z" transform="translate(-8 -8)" fill="#777"/>
</svg>
