<svg xmlns="http://www.w3.org/2000/svg" width="23.523" height="22.787" viewBox="0 0 23.523 22.787">
    <defs>
        <style>
            .cls-1{fill:#777}
        </style>
    </defs>
    <g id="ico_collection" transform="translate(0 -8.017)">
        <path id="Pfad_169" d="M268.144 26.35l-2.368-2.21a.345.345 0 0 0-.235-.093h-6.314a.344.344 0 0 0-.235.093l-2.368 2.21a.345.345 0 0 0-.041.459l5.524 7.366a.345.345 0 0 0 .551 0l5.524-7.366a.345.345 0 0 0-.038-.459zm-4.928-1.613h1.848l-.458 1.39zm.546 1.521h-2.756l1.378-1.378zm-3.6-.13l-.458-1.39h1.849zm-.683.13h-1.745l1.335-1.246zm.227.689l1.694 5.133-3.85-5.133zm4.485 1.538a.345.345 0 0 0-.435.219l-1.373 4.163-1.952-5.921h3.9l-.094.284a.345.345 0 1 0 .655.216l.165-.5h2.158l-3.85 5.133 1.042-3.16a.345.345 0 0 0-.214-.434zm1.1-2.227l.411-1.246 1.335 1.246z" class="cls-1" transform="translate(-244.731 -15.295)"/>
        <path id="Pfad_170" d="M16.2 16.946l4.788 2.762a.345.345 0 0 0 .344 0l4.788-2.762a.345.345 0 0 0 .172-.3v-5.523a.345.345 0 0 0-.172-.3l-4.783-2.76a.345.345 0 0 0-.344 0L16.2 10.825a.345.345 0 0 0-.172.3v5.524a.345.345 0 0 0 .172.297zm2.016-.963l2.6 1.5v1.33l-3.752-2.165zm3.289 1.5l2.6-1.5 1.152.665-3.752 2.165v-1.33zm2.946-2.1v-.766a.345.345 0 0 0-.689 0v.763l-2.6 1.5-2.6-1.5v-3l2.6-1.5 2.6 1.5v.763a.345.345 0 1 0 .689 0v-.766l1.152-.665v4.335zm-.346-3.6l-2.6-1.5V8.958l3.752 2.165zm-3.289-1.5l-2.6 1.5-1.152-.665 3.756-2.16zm-2.946 2.1v3l-1.152.665v-4.33z" class="cls-1" transform="translate(-15.295)"/>
        <path id="Pfad_171" d="M6.171 280.737a.345.345 0 0 0-.6 0l-5.525 9.576a.345.345 0 0 0 .3.517H11.4a.345.345 0 0 0 .3-.517zm-.671 3.554l-2.444 4.233-1.776 1.034 4.22-7.309zm-2.02 4.782a.343.343 0 0 0 .125-.126l2.268-3.929 1.97 3.412H5.132a.345.345 0 1 0 0 .689h3.213l1.716 1.021H1.647zm5.214-.548l-2.507-4.342v-2.042l4.3 7.451z" class="cls-1" transform="translate(0 -260.027)"/>
        <path id="Pfad_172" d="M280.87 280.666a.345.345 0 0 0-.244-.1h-5.893a.344.344 0 0 0-.244.1l-1.841 1.841a.344.344 0 0 0-.1.244v5.893a.344.344 0 0 0 .1.244l1.841 1.842a.345.345 0 0 0 .244.1h5.893a.345.345 0 0 0 .244-.1l1.841-1.841a.345.345 0 0 0 .1-.244v-5.893a.345.345 0 0 0-.1-.244zm-.267 7.265v-4.467h1.521v4.467zm-.689 2.21h-4.467v-1.521h4.467zm-4.467-2.21v-4.467h2.6a.345.345 0 0 0 0-.689h-2.6v-1.521h4.467v1.521h-.392a.345.345 0 0 0 0 .689h.392v4.467zm-2.21-4.467h1.521v4.467h-1.521zm8.768-.689h-1.4v-1.4zm-7.247-1.4v1.4h-1.4zm-1.4 7.247h1.4v1.4zm7.247 1.4v-1.4H282z" class="cls-1" transform="translate(-260.026 -260.027)"/>
    </g>
</svg>
