<svg xmlns="http://www.w3.org/2000/svg" width="15" height="15" viewBox="0 0 15 15">
    <path fill="#777" d="M14.446 10.3L11.27 8.935a.919.919 0 0 0-1.07.265l-1.291 1.574A10.254 10.254 0 0 1 4.233 6.1l1.579-1.293a.918.918 0 0 0 .261-1.069L4.711.559a.918.918 0 0 0-1.049-.53L.709.711A.91.91 0 0 0 0 1.6 13.4 13.4 0 0 0 13.4 15a.915.915 0 0 0 .894-.712l.679-2.95a.914.914 0 0 0-.53-1.046zm-1.061 3.771A12.459 12.459 0 0 1 .94 1.622L3.858.948l1.348 3.147-2.133 1.743a11.321 11.321 0 0 0 6.1 6.1l1.74-2.138 3.146 1.348z" transform="translate(0 -.005)"/>
</svg>
