<svg id="pencil-alt" xmlns="http://www.w3.org/2000/svg" width="11.618" height="11.618" viewBox="0 0 11.618 11.618">
  <path id="pencil-alt-2" data-name="pencil-alt" d="M11.193,1.277,10.343.426a1.452,1.452,0,0,0-2.054,0l-8,8L0,11.014a.545.545,0,0,0,.6.6L3.2,11.328l8-8a1.452,1.452,0,0,0,0-2.054ZM3.738,7.882a.363.363,0,0,0,.513,0l4.1-4.1.682.682L3.949,9.548V8.76H2.86V7.671H2.071L7.156,2.586l.682.682-4.1,4.1a.363.363,0,0,0,0,.513Zm-.875,2.752-1.339.149L.837,10.1.985,8.756l.45-.45h.788V9.4H3.314v.788ZM10.68,2.817,9.547,3.951,7.669,2.073,8.8.94a.726.726,0,0,1,1.027,0l.851.851a.726.726,0,0,1,0,1.027Z" transform="translate(-0.001 -0.001)" fill="#977d2e"/>
</svg>
