<svg id="email-logo" xmlns="http://www.w3.org/2000/svg" xmlns:xlink="http://www.w3.org/1999/xlink" width="142" height="58" viewBox="0 0 142 58">
  <defs>
    <clipPath id="clip-path">
      <rect id="Rectangle_553" data-name="Rectangle 553" width="142" height="58" transform="translate(-0.025 -0.251)" fill="none"/>
    </clipPath>
  </defs>
  <g id="Group_885" data-name="Group 885" transform="translate(0.025 0.251)">
    <g id="Group_884" data-name="Group 884" transform="translate(0)" clip-path="url(#clip-path)">
      <path id="Path_190" data-name="Path 190" d="M45.484,16.145,39.729,0H35.738L43.1,20.656h0a.438.438,0,0,0,.826-.035Z" transform="translate(30.33 0)" fill="#896a21"/>
      <path id="Path_191" data-name="Path 191" d="M46.843.077,46.815,0H40.532l2.791,7.831h0a.435.435,0,0,0,.417.3.431.431,0,0,0,.422-.33Z" transform="translate(34.535 0)" fill="#896a21"/>
      <path id="Path_192" data-name="Path 192" d="M40.771,16.145,35.016,0H31.027l7.349,20.612a.437.437,0,0,0,.832.044h0Z" transform="translate(26.198 0)" fill="#896a21"/>
    </g>
  </g>
  <path id="Path_193" data-name="Path 193" d="M71.029,16.278H57.359V43.6H71.029V39.7H61.286V31.89h9.743v-3.9H61.286V20.181h9.743Z" transform="translate(49.399 13.369)" fill="#5d5c5c"/>
  <g id="Group_887" data-name="Group 887" transform="translate(0.025 0.251)">
    <g id="Group_886" data-name="Group 886" transform="translate(0)" clip-path="url(#clip-path)">
      <path id="Path_194" data-name="Path 194" d="M84.561,42.5,77.713,32.4a8.221,8.221,0,0,0,5.412-7.864,8.03,8.03,0,0,0-7.781-8.257H66.525V43.154h3.621V20.117h5.2a4.423,4.423,0,0,1,0,8.831H71.629a.374.374,0,0,0-.362.385.392.392,0,0,0,.069.224l0,0,9.215,13.6H84.3a.374.374,0,0,0,.362-.385.392.392,0,0,0-.105-.27" transform="translate(57.336 13.575)" fill="#5d5c5c"/>
      <path id="Path_195" data-name="Path 195" d="M33.31,16.453,26.385,33.779,21.152,20.69,19.6,16.8l-.2-.488h0a.4.4,0,0,0-.736,0h0l-.31.772-.381.956L16.911,20.69l-5.23,13.087L4.756,16.453H.514L11.31,43.46h0a.4.4,0,0,0,.743-.011L13.8,39.081h0L19.032,26l5.232,13.089,1.75,4.376a.4.4,0,0,0,.74,0h0l1.75-4.376,9.046-22.631Z" transform="translate(-0.568 13.401)" fill="#5d5c5c"/>
      <path id="Path_196" data-name="Path 196" d="M59.823,16.453V33.2L47.039,16.239l0,0-.009-.013h0a.371.371,0,0,0-.672.231V43.33H50.1V26.571L62.858,43.5v0l.081.1a.362.362,0,0,0,.253.106.38.38,0,0,0,.374-.383V16.453Z" transform="translate(39.642 13.401)" fill="#5d5c5c"/>
      <path id="Path_197" data-name="Path 197" d="M46.2,35.732H64.069a10.845,10.845,0,0,1-17.873,0M31.05,32.277H26.169l2.44-6.379Zm38.112.394a.441.441,0,0,0-.42-.4l-.015,0H57.178l0,0H44.706a10,10,0,0,1-.246-2.212A10.522,10.522,0,0,1,55.134,19.7a10.76,10.76,0,0,1,8.635,4.275h3.94a.391.391,0,0,0,.394-.385.383.383,0,0,0-.049-.183h0a14.683,14.683,0,0,0-12.921-7.547A14.422,14.422,0,0,0,40.5,30.065a13.871,13.871,0,0,0,.178,2.212H35.292L28.979,16.488a.4.4,0,0,0-.736,0h-.006l-1.75,4.376h0L17.44,43.5h4.241l3.1-7.772h7.646L35.538,43.5h4.241l-3.107-7.772h5.048a14.825,14.825,0,0,0,25.61,2.16l.036-.042c.023-.033.041-.066.064-.1l.023-.033v0a10.193,10.193,0,0,0,1.693-4.922c0-.057.023-.077.017-.123" transform="translate(14.279 13.226)" fill="#5d5c5c"/>
    </g>
  </g>
</svg>
