<svg xmlns="http://www.w3.org/2000/svg" width="24" height="22" viewBox="0 0 24 22">
  <g id="ui_interface_user_user_interface_attention_2_" data-name="ui; interface; user; user interface; attention (2)" transform="translate(0.5 0.5)">
    <path id="XMLID_1427_" d="M23.331,20.122c-2.437-5-7.44-13.272-9.877-17.72a1.624,1.624,0,0,0-2.91,0C8.108,6.85,3.105,15.124.669,20.122a1.634,1.634,0,0,0-.169.719A1.651,1.651,0,0,0,2.144,22.5H21.856A1.651,1.651,0,0,0,23.5,20.841,1.634,1.634,0,0,0,23.331,20.122Z" transform="translate(-0.5 -1.5)" fill="none" stroke="#ce5c4f" stroke-linecap="round" stroke-linejoin="round" stroke-miterlimit="10" stroke-width="1"/>
    <line id="Line_321" data-name="Line 321" y1="10" transform="translate(11.5 5)" fill="none" stroke="#ce5c4f" stroke-linecap="round" stroke-linejoin="round" stroke-miterlimit="10" stroke-width="1"/>
    <circle id="Ellipse_64" data-name="Ellipse 64" cx="0.5" cy="0.5" r="0.5" transform="translate(11 17.5)" fill="#ce5c4f"/>
  </g>
</svg>
