<svg id="gems" xmlns="http://www.w3.org/2000/svg" width="23.523" height="22.787" viewBox="0 0 23.523 22.787">
  <path id="Path_169" data-name="Path 169" d="M268.144,26.35l-2.368-2.21a.345.345,0,0,0-.235-.093h-6.314a.344.344,0,0,0-.235.093l-2.368,2.21a.345.345,0,0,0-.041.459l5.524,7.366a.345.345,0,0,0,.551,0l5.524-7.366A.345.345,0,0,0,268.144,26.35Zm-4.928-1.613h1.848l-.458,1.39Zm.546,1.521h-2.756l1.378-1.378Zm-3.6-.13-.458-1.39h1.849Zm-.683.13h-1.745l1.335-1.246Zm.227.689L261.4,32.08l-3.85-5.133Zm4.485,1.538a.345.345,0,0,0-.435.219l-1.373,4.163-1.952-5.921h3.9l-.094.284a.345.345,0,1,0,.655.216l.165-.5h2.158l-3.85,5.133,1.042-3.16A.345.345,0,0,0,264.193,28.485Zm1.1-2.227.411-1.246,1.335,1.246Z" transform="translate(-244.73 -23.311)" fill="#777"/>
  <path id="Path_170" data-name="Path 170" d="M16.2,16.946l4.788,2.762a.345.345,0,0,0,.344,0l4.788-2.762a.345.345,0,0,0,.172-.3V11.123a.345.345,0,0,0-.172-.3L21.337,8.063a.345.345,0,0,0-.344,0L16.2,10.825a.345.345,0,0,0-.172.3v5.524A.345.345,0,0,0,16.2,16.946Zm2.016-.963,2.6,1.5v1.33l-3.752-2.165Zm3.289,1.5,2.6-1.5,1.152.665-3.752,2.165v-1.33Zm2.946-2.1v-.766a.345.345,0,0,0-.689,0v.763l-2.6,1.5-2.6-1.5v-3l2.6-1.5,2.6,1.5v.763a.345.345,0,1,0,.689,0v-.766l1.152-.665v4.335Zm-.346-3.6-2.6-1.5V8.958l3.752,2.165Zm-3.289-1.5-2.6,1.5-1.152-.665L20.82,8.958Zm-2.946,2.1v3l-1.152.665V11.718Z" transform="translate(-15.295 -8.017)" fill="#777"/>
  <path id="Path_171" data-name="Path 171" d="M6.171,280.737a.345.345,0,0,0-.6,0L.046,290.313a.345.345,0,0,0,.3.517H11.4a.345.345,0,0,0,.3-.517ZM5.5,284.291l-2.444,4.233-1.776,1.034,4.22-7.309ZM3.48,289.073a.343.343,0,0,0,.125-.126h0l2.268-3.929,1.97,3.412H5.132a.345.345,0,1,0,0,.689H8.345l1.716,1.021H1.647Zm5.214-.548-2.507-4.342v-2.042l4.3,7.451Z" transform="translate(0 -268.043)" fill="#777"/>
  <path id="Path_172" data-name="Path 172" d="M280.87,280.666a.345.345,0,0,0-.244-.1h-5.893a.344.344,0,0,0-.244.1l-1.841,1.841a.344.344,0,0,0-.1.244v5.893a.344.344,0,0,0,.1.244l1.841,1.842a.345.345,0,0,0,.244.1h5.893a.345.345,0,0,0,.244-.1l1.841-1.841a.345.345,0,0,0,.1-.244v-5.893a.345.345,0,0,0-.1-.244Zm-.267,7.265v-4.467h1.521v4.467Zm-.689,2.21h-4.467V288.62h4.467Zm-4.467-2.21v-4.467h2.6a.345.345,0,0,0,0-.689h-2.6v-1.521h4.467v1.521h-.392a.345.345,0,0,0,0,.689h.392v4.467Zm-2.21-4.467h1.521v4.467h-1.521Zm8.768-.689h-1.4v-1.4Zm-7.247-1.4v1.4h-1.4Zm-1.4,7.247h1.4v1.4Zm7.247,1.4v-1.4H282Z" transform="translate(-260.025 -268.043)" fill="#777"/>
</svg>
