<svg xmlns="http://www.w3.org/2000/svg" width="208" height="71" viewBox="0 0 208 71">
    <defs>
        <style>
            .cls-1,.cls-2{fill:#777}.cls-2{font-size:14px;font-family:NunitoSans-Regular,Nunito Sans}
        </style>
    </defs>
    <g id="Gruppe_597" transform="translate(-1026 -979)">
        <g id="ico_ring" transform="translate(1026 981)">
            <g id="Gruppe_192">
                <g id="Gruppe_191">
                    <path id="Pfad_38" d="M14.995 79.619l1.038-1.038-.968-.968 1.755-1.755a.621.621 0 0 0 0-.747L13.71 72H7.2l-3.116 3.111a.621.621 0 0 0 0 .747l1.755 1.755-.968.968 1.038 1.038A10.418 10.418 0 0 0 0 89.034h.774A9.648 9.648 0 0 1 6.73 80.1l.534-.222-1.3-1.3.42-.42 1.531 1.531.213-.054a9.239 9.239 0 0 1 1.207-.219 9.912 9.912 0 0 1 1.668-.047q.278.016.558.047a9.085 9.085 0 0 1 1.207.219l.213.054 1.531-1.531.421.42-1.3 1.3.534.222a9.647 9.647 0 0 1 5.956 8.933h.774a10.418 10.418 0 0 0-5.902-9.414zm-1.605-6.845l2.322 2.326h-2.374l-2.032-2.323zm-2.937.2l1.856 2.126H8.6zm-2.937-.2H9.6L7.567 75.1H5.193zm1.2 5.952q-.284.048-.554.109l-1.774-1.769-1.195-1.195h2.3L7.982 77l.754 1.723zm2.657-.105h-.1c-.269-.021-.538-.035-.806-.035h-.019c-.266 0-.534.014-.8.035h-.1l-1.2-2.75h4.236zm3.149-1.555l-1.769 1.769q-.271-.062-.554-.109l-.025-.005.749-1.721.492-1.127h2.3z" class="cls-1" transform="translate(0 -72)"/>
                </g>
            </g>
            <g id="Gruppe_194" transform="translate(1.591 8.129)">
                <g id="Gruppe_193">
                    <path id="Pfad_39" d="M42.891 240.047c-.2-.029-.412-.045-.626-.057a7.752 7.752 0 0 0-1.045.008c-.205.012-.411.032-.617.057a8.926 8.926 0 0 0-7.723 8.826h.774a8.149 8.149 0 0 1 7.045-8.059c.186-.022.376-.041.576-.053a6.972 6.972 0 0 1 .947-.007c.191.011.378.026.568.052a8.134 8.134 0 0 1 7.124 8.067h.774a8.906 8.906 0 0 0-7.797-8.834z" class="cls-1" transform="translate(-32.88 -239.976)"/>
                </g>
            </g>
        </g>
        <g id="ico_necklace" transform="translate(1195 979)">
            <g id="Gruppe_596">
                <path id="Pfad_152" d="M246.509 13.645a.4.4 0 1 1 .39-.321.4.4 0 0 1-.39.321z" class="cls-1" transform="translate(-236.309 -12.849)"/>
                <path id="Pfad_153" d="M20.394 27.176a1.777 1.777 0 0 0-1.248-1.694 1.774 1.774 0 0 0-1.574-3.076 1.774 1.774 0 0 0-2.326-2.588 7.929 7.929 0 0 0-3.164-1.589.4.4 0 0 0-.189.774 7.129 7.129 0 0 1 2.774 1.371 1.774 1.774 0 0 0 1.916 2.687 1.785 1.785 0 0 0-.215.376 1.773 1.773 0 0 0 .944 2.323q.082.035.167.061a1.772 1.772 0 0 0 .23 2.875 1.785 1.785 0 0 0-.418.113 1.772 1.772 0 0 0-.841 2.574 1.8 1.8 0 0 0-.3-.024 1.773 1.773 0 0 0-1.72 2.2 1.773 1.773 0 0 0-2.7.727 1.8 1.8 0 0 0-.092.282 1.772 1.772 0 0 0-2.964.115 1.785 1.785 0 0 0-.113-.418 1.773 1.773 0 0 0-2.31-.975 1.794 1.794 0 0 0-.264.134 1.775 1.775 0 0 0-2.176-2.016 1.786 1.786 0 0 0 .214-.374 1.773 1.773 0 0 0-.944-2.323 1.8 1.8 0 0 0-.281-.091 1.772 1.772 0 0 0 .026-2.87 1.8 1.8 0 0 0 .277-.087 1.773 1.773 0 0 0 .975-2.31 1.794 1.794 0 0 0-.134-.264 1.788 1.788 0 0 0 .295.024 1.772 1.772 0 0 0 1.487-2.74A7.13 7.13 0 0 1 8.5 19a.4.4 0 1 0-.189-.774 7.93 7.93 0 0 0-3.158 1.588 1.774 1.774 0 0 0-2.418 2.454 1.774 1.774 0 0 0-1.349 3.175 1.773 1.773 0 0 0-.022 3.457 1.774 1.774 0 0 0 1.459 3.166 1.774 1.774 0 0 0 2.349 2.574 1.774 1.774 0 0 0 3.269 1.207 1.774 1.774 0 0 0 3.481.16 1.774 1.774 0 0 0 3.166-1.459 1.774 1.774 0 0 0 2.575-2.348 1.752 1.752 0 0 0 .294.025 1.774 1.774 0 0 0 .913-3.295 1.776 1.776 0 0 0 1.524-1.754zM3.55 20.65a.977.977 0 1 1 0 1.381.974.974 0 0 1 0-1.381zm-2.013 2.991a.977.977 0 1 1 .52 1.28.97.97 0 0 1-.52-1.28zM.8 27.176a.977.977 0 1 1 .977.977.978.978 0 0 1-.977-.977zm1.96 4.075a.977.977 0 1 1 .532-.525.978.978 0 0 1-.532.525zm.789 2.571a.977.977 0 1 1 1.381 0 .978.978 0 0 1-1.381 0zm4.27 1.493a.977.977 0 1 1 .005-.748.978.978 0 0 1-.004.749zm2.376 1.26a.977.977 0 1 1 .977-.977.978.978 0 0 1-.977.977zm5.266-14.545a.977.977 0 1 1 1.381 0 .978.978 0 0 1-1.381 0zm1.639 2.464a.977.977 0 1 1 .525.532.971.971 0 0 1-.525-.532zM14.267 35.36a.977.977 0 1 1 .005-.748.97.97 0 0 1-.005.748zm2.577-1.537a.976.976 0 1 1 0-1.381.978.978 0 0 1 0 1.381zm2.013-2.991a.977.977 0 1 1 0-.748.97.97 0 0 1 0 .748zm-.237-2.679a.977.977 0 1 1 .977-.977.978.978 0 0 1-.977.977z" class="cls-1" transform="translate(0 -18.003)"/>
            </g>
        </g>
        <g id="ico_earrings" transform="translate(1028 1028)">
            <path id="Pfad_154" d="M61.482 48.719v-3.482h-1.309v-1.492a1.923 1.923 0 1 0-2.537-1.822h1.227a.7.7 0 1 1 .7.7h-.614v2.618h-1.312v3.482a2.57 2.57 0 0 0-.39 2.851A9.235 9.235 0 0 0 56 55.669a3.559 3.559 0 0 0 7.119 0 9.234 9.234 0 0 0-1.247-4.1 2.57 2.57 0 0 0-.39-2.85zm-3.273 1.714a1.35 1.35 0 1 1 1.35 1.35 1.352 1.352 0 0 1-1.35-1.351zm2.046-3.968v1.487a2.564 2.564 0 0 0-1.391 0v-1.488zm-.082 11.455v-2.251h-1.227v2.249a2.336 2.336 0 0 1-1.718-2.249 7.978 7.978 0 0 1 .876-3.111 2.569 2.569 0 0 0 2.912 0 7.978 7.978 0 0 1 .876 3.111 2.336 2.336 0 0 1-1.719 2.25z" class="cls-1" transform="translate(-56 -38.363)"/>
            <path id="Pfad_155" d="M285.872 11.569a2.57 2.57 0 0 0-.39-2.851V5.237h-1.309V3.745a1.923 1.923 0 1 0-2.537-1.822h1.227a.7.7 0 1 1 .7.7h-.614v2.614h-1.309v3.482a2.57 2.57 0 0 0-.39 2.851 9.234 9.234 0 0 0-1.247 4.1 3.559 3.559 0 0 0 7.119 0 9.234 9.234 0 0 0-1.25-4.101zm-3.663-1.137a1.35 1.35 0 1 1 1.35 1.35 1.352 1.352 0 0 1-1.35-1.35zm2.046-3.968v1.487a2.564 2.564 0 0 0-1.391 0V6.464zm-.082 11.455v-2.25h-1.227v2.249a2.336 2.336 0 0 1-1.718-2.249 7.977 7.977 0 0 1 .876-3.111 2.569 2.569 0 0 0 2.912 0 7.977 7.977 0 0 1 .876 3.111 2.336 2.336 0 0 1-1.719 2.25z" class="cls-1" transform="translate(-270.836)"/>
        </g>
        <text id="_12_" class="cls-2" transform="translate(1056 995)">
            <tspan x="0" y="0">12</tspan>
        </text>
        <text id="_4" class="cls-2" transform="translate(1225 993)">
            <tspan x="0" y="0">4</tspan>
        </text>
        <text id="_4-2" class="cls-2" transform="translate(1056 1045)">
            <tspan x="0" y="0">4</tspan>
        </text>
        <text id="_2" class="cls-2" transform="translate(1225 1045)">
            <tspan x="0" y="0">2</tspan>
        </text>
        <path id="ico_bracelet" d="M36.093 145.141a25.652 25.652 0 0 0-6.357-1.069 40.634 40.634 0 0 0-4.616 0 25.656 25.656 0 0 0-6.357 1.069c-1.834.616-2.763 1.388-2.763 2.293v3.809c0 .818.767 1.531 2.278 2.118a21.127 21.127 0 0 0 5.3 1.123 39.543 39.543 0 0 0 7.7 0 21.119 21.119 0 0 0 5.3-1.123c1.512-.587 2.278-1.3 2.278-2.118v-3.809c.001-.905-.929-1.676-2.763-2.293zm-4.893 4.777a38.786 38.786 0 0 1-7.542 0 25.567 25.567 0 0 1-3.491-.578 28.325 28.325 0 0 1 5-.7 39.888 39.888 0 0 1 4.527 0 28.362 28.362 0 0 1 5 .7 25.565 25.565 0 0 1-3.494.578zm-3.39-2.1v-3.045c.513 0 1.023.019 1.524.044v3.047c-1.251-.059-2.558-.059-3.809 0v-3.047c.5-.024 1.011-.039 1.524-.043v3.045zm-8.8-1.952a24.206 24.206 0 0 1 5.755-1v3.034a25.166 25.166 0 0 0-5.956 1.032c-1.283-.459-2.044-1.017-2.044-1.5-.003-.509.835-1.096 2.241-1.568zm-2.245 5.381v-2.5a6.644 6.644 0 0 0 1.917.956 21.929 21.929 0 0 0 4.559.939v3.043a19.578 19.578 0 0 1-4.684-1.03c-1.125-.439-1.795-.965-1.795-1.411zM24 153.76v-3.044c1.105.1 2.256.148 3.429.148s2.324-.05 3.429-.148v3.044c-1.1.1-2.255.151-3.429.151S25.1 153.86 24 153.76zm14.1-2.515c0 .446-.67.972-1.792 1.408a19.581 19.581 0 0 1-4.684 1.03v-3.043a21.931 21.931 0 0 0 4.559-.939 6.636 6.636 0 0 0 1.917-.956zm-2.044-2.308A25.169 25.169 0 0 0 30.1 147.9v-3.046a24.21 24.21 0 0 1 5.755 1c1.405.472 2.245 1.06 2.245 1.571 0 .495-.766 1.053-2.049 1.512z" class="cls-1" transform="translate(1177.776 891.286)"/>
    </g>
</svg>
