<svg xmlns="http://www.w3.org/2000/svg" width="26.424" height="28.846" viewBox="0 0 26.424 28.846">
    <defs>
        <style>
            .cls-1{fill:none;stroke:#303c42;stroke-linecap:round;stroke-linejoin:round;stroke-miterlimit:10}
        </style>
    </defs>
    <g id="ico_guest" transform="translate(.5 .5)">
        <path id="XMLID_1306_" d="M1.5 2.5h1.665a1.816 1.816 0 0 1 1.743 1.308l3.856 13.22-2.127 2.659a1.344 1.344 0 0 0-.295.84 1.344 1.344 0 0 0 1.344 1.344H24.5" class="cls-1" transform="translate(-1.5 -.079)"/>
        <path id="XMLID_1343_" d="M7.5 16.607h12.165a1.816 1.816 0 0 0 1.643-1.043l4.224-8.976a1.344 1.344 0 0 0 .128-.572v-.172A1.344 1.344 0 0 0 24.316 4.5H20.7" class="cls-1" transform="translate(-.236 .343)"/>
        <path id="XMLID_1337_" d="M4.864 0L0 0" class="cls-1" transform="translate(3.733 4.843)"/>
        <circle id="XMLID_1302_" cx="1.816" cy="1.816" r="1.816" class="cls-1" transform="translate(4.843 24.214)"/>
        <circle id="XMLID_1304_" cx="1.816" cy="1.816" r="1.816" class="cls-1" transform="translate(19.371 24.214)"/>
        <g id="XMLID_1330_" transform="translate(8.475)">
            <circle id="XMLID_1331_" cx="6.053" cy="6.053" r="6.053" class="cls-1"/>
        </g>
        <path id="XMLID_1329_" d="M0 0L4.843 0" class="cls-1" transform="translate(12.107 6.053)"/>
        <path id="XMLID_1328_" d="M0 0L0 4.843" class="cls-1" transform="translate(14.528 3.632)"/>
    </g>
</svg>
