<svg xmlns="http://www.w3.org/2000/svg" width="16.283" height="20.865" viewBox="0 0 16.283 20.865">
  <g id="ico_earrings" transform="translate(0 0)">
    <path id="Path_154" data-name="Path 154" d="M61.482,48.719V45.237H60.173V43.745a1.923,1.923,0,1,0-2.537-1.822h1.227a.7.7,0,1,1,.7.7h-.614v2.618H57.637v3.482a2.57,2.57,0,0,0-.39,2.851A9.235,9.235,0,0,0,56,55.669a3.559,3.559,0,0,0,7.119,0,9.234,9.234,0,0,0-1.247-4.1A2.57,2.57,0,0,0,61.482,48.719Zm-3.273,1.714a1.35,1.35,0,1,1,1.35,1.35A1.352,1.352,0,0,1,58.209,50.432Zm2.046-3.968v1.487a2.564,2.564,0,0,0-1.391,0V46.464Zm-.082,11.455V55.669H58.946v2.249a2.336,2.336,0,0,1-1.718-2.249,7.978,7.978,0,0,1,.876-3.111,2.569,2.569,0,0,0,2.912,0,7.978,7.978,0,0,1,.876,3.111A2.336,2.336,0,0,1,60.173,57.919Z" transform="translate(-56 -38.363)" fill="#777"/>
    <path id="Path_155" data-name="Path 155" d="M285.872,11.569a2.57,2.57,0,0,0-.39-2.851V5.237h-1.309V3.745a1.923,1.923,0,1,0-2.537-1.822h1.227a.7.7,0,1,1,.7.7h-.614V5.237h-1.309V8.719a2.57,2.57,0,0,0-.39,2.851,9.234,9.234,0,0,0-1.247,4.1,3.559,3.559,0,0,0,7.119,0A9.234,9.234,0,0,0,285.872,11.569Zm-3.663-1.137a1.35,1.35,0,1,1,1.35,1.35,1.352,1.352,0,0,1-1.35-1.35Zm2.046-3.968V7.951a2.564,2.564,0,0,0-1.391,0V6.464Zm-.082,11.455V15.669h-1.227v2.249a2.336,2.336,0,0,1-1.718-2.249,7.977,7.977,0,0,1,.876-3.111,2.569,2.569,0,0,0,2.912,0,7.977,7.977,0,0,1,.876,3.111A2.336,2.336,0,0,1,284.173,17.919Z" transform="translate(-270.836 0)" fill="#777"/>
  </g>
</svg>
