<svg xmlns="http://www.w3.org/2000/svg" width="17" height="11" viewBox="0 0 17 11">
    <path fill="#777" d="M8.5 70.417a1.834 1.834 0 1 0 0-3.667c-.03 0-.055.007-.084.008a1.332 1.332 0 0 1-.326 1.427 1.433 1.433 0 0 1-1.47.317c0 .029-.009.054-.009.082A1.862 1.862 0 0 0 8.5 70.417zm8.4-1.335a9.479 9.479 0 0 0-16.795 0 .9.9 0 0 0 0 .836 9.479 9.479 0 0 0 16.795 0 .9.9 0 0 0 0-.836zm-8.4-4.165a3.668 3.668 0 1 1 0 7.333 3.668 3.668 0 1 1 0-7.333zm0 9.167A8.536 8.536 0 0 1 .945 69.5a8.578 8.578 0 0 1 3.83-3.7 4.458 4.458 0 0 0-1 2.788A4.654 4.654 0 0 0 8.5 73.167a4.654 4.654 0 0 0 4.722-4.583 4.458 4.458 0 0 0-1-2.788 8.578 8.578 0 0 1 3.83 3.7A8.536 8.536 0 0 1 8.5 74.083z" transform="translate(-.001 -64)"/>
</svg>
