<svg xmlns="http://www.w3.org/2000/svg" width="12.267" height="12.267" viewBox="0 0 12.267 12.267">
    <path fill="#977d2e" d="M7.215 9.455l-1.9 1.9a3.115 3.115 0 0 1-4.4-4.4l1.9-1.9q.042-.042.085-.082a.288.288 0 0 1 .484.2q.007.173.029.345a.289.289 0 0 1-.081.242l-1.8 1.8a2.252 2.252 0 0 0 3.185 3.185l1.9-1.9.009-.009A2.252 2.252 0 0 0 5.944 5.2a.289.289 0 0 1-.171-.28 1.49 1.49 0 0 1 .068-.366.285.285 0 0 1 .381-.174 3.115 3.115 0 0 1 .993 5.073zM5.051 7.214a3.1 3.1 0 0 0 .993.668.285.285 0 0 0 .381-.174 1.49 1.49 0 0 0 .068-.366.289.289 0 0 0-.171-.28 2.252 2.252 0 0 1-.67-3.634l.009-.009 1.9-1.9a2.252 2.252 0 0 1 3.185 3.185l-1.8 1.8a.289.289 0 0 0-.081.242q.022.172.029.345a.288.288 0 0 0 .484.2q.043-.04.085-.082l1.9-1.9a3.115 3.115 0 0 0-4.4-4.4l-1.9 1.9a3.118 3.118 0 0 0-.012 4.405z" transform="translate(.001 .002)"/>
</svg>
