<svg id="ico_bracelet" xmlns="http://www.w3.org/2000/svg" width="22.857" height="10.666" viewBox="0 0 22.857 10.666">
  <path id="ico_bracelet-2" data-name="ico_bracelet" d="M36.093,145.141a25.652,25.652,0,0,0-6.357-1.069,40.634,40.634,0,0,0-4.616,0,25.656,25.656,0,0,0-6.357,1.069c-1.834.616-2.763,1.388-2.763,2.293v3.809c0,.818.767,1.531,2.278,2.118a21.127,21.127,0,0,0,5.3,1.123,39.543,39.543,0,0,0,7.7,0,21.119,21.119,0,0,0,5.3-1.123c1.512-.587,2.278-1.3,2.278-2.118v-3.809C38.857,146.529,37.927,145.758,36.093,145.141ZM31.2,149.918a38.786,38.786,0,0,1-7.542,0,25.567,25.567,0,0,1-3.491-.578,28.325,28.325,0,0,1,5-.7,39.888,39.888,0,0,1,4.527,0,28.362,28.362,0,0,1,5,.7A25.565,25.565,0,0,1,31.2,149.918Zm-3.39-2.1v-3.045c.513,0,1.023.019,1.524.044v3.047c-1.251-.059-2.558-.059-3.809,0v-3.047c.5-.024,1.011-.039,1.524-.043v3.045Zm-8.8-1.952a24.206,24.206,0,0,1,5.755-1V147.9a25.166,25.166,0,0,0-5.956,1.032c-1.283-.459-2.044-1.017-2.044-1.5C16.762,146.923,17.6,146.336,19.006,145.864Zm-2.245,5.381v-2.5a6.644,6.644,0,0,0,1.917.956,21.929,21.929,0,0,0,4.559.939v3.043a19.578,19.578,0,0,1-4.684-1.03C17.432,152.216,16.762,151.69,16.762,151.244ZM24,153.76v-3.044c1.105.1,2.256.148,3.429.148s2.324-.05,3.429-.148v3.044c-1.1.1-2.255.151-3.429.151S25.1,153.86,24,153.76Zm14.1-2.515c0,.446-.67.972-1.792,1.408a19.581,19.581,0,0,1-4.684,1.03v-3.043a21.931,21.931,0,0,0,4.559-.939,6.636,6.636,0,0,0,1.917-.956Zm-2.044-2.308A25.169,25.169,0,0,0,30.1,147.9v-3.046a24.21,24.21,0,0,1,5.755,1c1.405.472,2.245,1.06,2.245,1.571C38.1,147.92,37.334,148.478,36.051,148.937Z" transform="translate(-16 -144.007)" fill="#777"/>
</svg>
