<svg xmlns="http://www.w3.org/2000/svg" width="17.03" height="17.03" viewBox="0 0 17.03 17.03">
  <path id="phone-alt" d="M16.4,11.69,12.8,10.143a1.043,1.043,0,0,0-1.214.3l-1.467,1.793A11.642,11.642,0,0,1,4.806,6.923L6.6,5.456a1.043,1.043,0,0,0,.3-1.214L5.348.634a1.042,1.042,0,0,0-1.191-.6L.8.807A1.033,1.033,0,0,0,0,1.818,15.214,15.214,0,0,0,15.217,17.035a1.039,1.039,0,0,0,1.015-.808L17,12.877a1.038,1.038,0,0,0-.6-1.187ZM15.2,15.97A14.145,14.145,0,0,1,1.067,1.841L4.38,1.076,5.91,4.648,3.489,6.627a12.853,12.853,0,0,0,6.922,6.922l1.979-2.421,3.572,1.53Z" transform="translate(0 -0.005)" fill="#777"/>
</svg>
