<svg xmlns="http://www.w3.org/2000/svg" width="32.4" height="23.49" viewBox="0 0 32.4 23.49">
    <path fill="#977d2e" d="M-.81 18.54v-1.89q9.36-2.43 9.36-9.45a5.652 5.652 0 0 0-3.06-4.95L2.88.63V-.54l1.53-2.43q1.26-1.98 2.52-1.98a4.4 4.4 0 0 1 2.25.63 12.163 12.163 0 0 1 3.33 3.375 9.161 9.161 0 0 1 1.08 4.815q0 3.87-3.6 8.5t-10.8 6.17zm18 0v-1.89q9.36-2.43 9.36-9.45a5.652 5.652 0 0 0-3.06-4.95L20.88.63V-.54l1.53-2.43q1.26-1.98 2.52-1.98a4.4 4.4 0 0 1 2.25.63 12.163 12.163 0 0 1 3.33 3.375 9.161 9.161 0 0 1 1.08 4.815q0 3.87-3.6 8.5t-10.8 6.17z" transform="translate(.81 4.95)"/>
</svg>
