<svg xmlns="http://www.w3.org/2000/svg" width="26.2" height="26.2" viewBox="0 0 26.2 26.2">
    <g>
        <g transform="translate(-1306.4 -928.4) translate(1306.477 928.18)">
            <circle cx="12.5" cy="12.5" r="12.5" fill="none" stroke="#777" stroke-linecap="round" stroke-linejoin="round" stroke-miterlimit="10" stroke-width="1.2px" transform="translate(.523 .82)"/>
        </g>
        <path fill="#777" d="M4 37.841a.762.762 0 1 0 .762.762.76.76 0 0 0-.762-.762zm4.063 0a.762.762 0 1 0 .762.762.76.76 0 0 0-.762-.762zm4.063 0a.762.762 0 1 0 .762.762.76.76 0 0 0-.762-.762zM8.063 32c-4.489 0-8.127 2.956-8.127 6.6a5.836 5.836 0 0 0 1.679 4.01 8.056 8.056 0 0 1-1.473 2.326.762.762 0 0 0 .558 1.286 7.7 7.7 0 0 0 4.416-1.47 9.8 9.8 0 0 0 2.949.454c4.489 0 8.127-2.956 8.127-6.6S12.552 32 8.063 32zm0 12.19a8.756 8.756 0 0 1-2.641-.406l-.483-.152-.413.292a6.85 6.85 0 0 1-3.257 1.257 8.564 8.564 0 0 0 1.3-2.21l.225-.594-.435-.463A4.8 4.8 0 0 1 .952 38.6c0-3.079 3.19-5.587 7.111-5.587s7.111 2.508 7.111 5.587-3.191 5.59-7.111 5.59z" transform="translate(-1306.4 -928.4) translate(1311.986 902)"/>
    </g>
</svg>
