<svg xmlns="http://www.w3.org/2000/svg" width="48" height="48" viewBox="0 0 48 48">
    <g transform="translate(-340.453 -822.453)">
        <circle cx="24" cy="24" r="24" fill="#6f6f6f" opacity="0.2" transform="translate(340.453 822.453)"/>
        <path fill="#fff" d="M13.033 1.151a.71.71 0 0 1 0 1.039L2.51 12.713a.71.71 0 0 1-1.039 0L.342 11.584a.71.71 0 0 1 0-1.039L9.217 1.67.342-7.2a.714.714 0 0 1-.226-.519.714.714 0 0 1 .226-.519l1.129-1.134A.714.714 0 0 1 1.99-9.6a.714.714 0 0 1 .519.226z" transform="rotate(-90 607.882 244.83)"/>
    </g>
</svg>
