<svg xmlns="http://www.w3.org/2000/svg" width="21.139" height="15.312" viewBox="0 0 21.139 15.312">
    <defs>
        <clipPath id="clip-path">
            <path id="Rechteck_380" d="M0 0H21.139V15.312H0z" class="cls-1"/>
        </clipPath>
        <style>
            .cls-1{fill:#777}
        </style>
    </defs>
    <g id="ico_diamond" clip-path="url(#clip-path)">
        <path id="Pfad_134" d="M31.242 18.071l9.866 9.439 9.771-9.439-3.151-4.451H34.461zm9.866 10.213a.32.32 0 0 1-.223-.09l-10.3-9.849a.326.326 0 0 1-.039-.425l3.483-4.815a.32.32 0 0 1 .262-.133H47.9a.326.326 0 0 1 .264.136l3.411 4.815a.322.322 0 0 1-.041.42l-10.2 9.851a.325.325 0 0 1-.226.09" class="cls-1" transform="translate(-30.49 -12.973)"/>
        <path id="Pfad_135" d="M51.306 15.6H30.815a.324.324 0 1 1 0-.648h20.491a.324.324 0 0 1 0 .648" class="cls-1" transform="translate(-30.49 -10.143)"/>
        <path id="Pfad_136" d="M34.706 18.435h-.041a.328.328 0 0 1-.247-.175l-2.458-4.817a.324.324 0 0 1 .577-.294l2.241 4.393 3.99-4.461a.323.323 0 1 1 .483.429l-4.306 4.815a.315.315 0 0 1-.24.109" class="cls-1" transform="translate(-28.443 -12.973)"/>
        <path id="Pfad_137" d="M37.617 25.454a.324.324 0 0 1-.3-.194l-4.354-9.849a.324.324 0 1 1 .592-.262L37.913 25a.324.324 0 0 1-.165.427.361.361 0 0 1-.131.027" class="cls-1" transform="translate(-26.998 -10.143)"/>
        <path id="Pfad_138" d="M39.373 18.435a.324.324 0 0 1-.243-.109l-4.3-4.815a.323.323 0 1 1 .483-.429l3.99 4.461 2.241-4.393a.324.324 0 0 1 .577.294l-2.457 4.815a.327.327 0 0 1-.247.175h-.041" class="cls-1" transform="translate(-24.424 -12.973)"/>
        <path id="Pfad_139" d="M35.057 25.454a.361.361 0 0 1-.131-.027.325.325 0 0 1-.165-.427l4.33-9.849a.323.323 0 1 1 .592.26l-4.33 9.849a.324.324 0 0 1-.3.194" class="cls-1" transform="translate(-24.439 -10.143)"/>
    </g>
</svg>
