<svg xmlns="http://www.w3.org/2000/svg" width="20.394" height="19.37" viewBox="0 0 20.394 19.37">
  <g id="ico_necklace" transform="translate(0 0)">
    <g id="Group_596" data-name="Group 596" transform="translate(0 0)">
      <path id="Path_152" data-name="Path 152" d="M246.509,13.645a.4.4,0,1,1,.39-.321A.4.4,0,0,1,246.509,13.645Z" transform="translate(-236.309 -12.849)" fill="#777"/>
      <path id="Path_153" data-name="Path 153" d="M20.394,27.176a1.777,1.777,0,0,0-1.248-1.694,1.774,1.774,0,0,0-1.574-3.076,1.774,1.774,0,0,0-2.326-2.588,7.929,7.929,0,0,0-3.164-1.589.4.4,0,0,0-.189.774,7.129,7.129,0,0,1,2.774,1.371,1.774,1.774,0,0,0,1.916,2.687,1.785,1.785,0,0,0-.215.376,1.773,1.773,0,0,0,.944,2.323q.082.035.167.061a1.772,1.772,0,0,0,.23,2.875,1.785,1.785,0,0,0-.418.113,1.772,1.772,0,0,0-.841,2.574,1.8,1.8,0,0,0-.3-.024,1.773,1.773,0,0,0-1.72,2.2,1.773,1.773,0,0,0-2.7.727,1.8,1.8,0,0,0-.092.282,1.772,1.772,0,0,0-2.964.115,1.785,1.785,0,0,0-.113-.418,1.773,1.773,0,0,0-2.31-.975,1.794,1.794,0,0,0-.264.134,1.775,1.775,0,0,0-2.176-2.016,1.786,1.786,0,0,0,.214-.374,1.773,1.773,0,0,0-.944-2.323A1.8,1.8,0,0,0,2.8,28.62a1.772,1.772,0,0,0,.026-2.87,1.8,1.8,0,0,0,.277-.087,1.773,1.773,0,0,0,.975-2.31,1.794,1.794,0,0,0-.134-.264,1.788,1.788,0,0,0,.295.024,1.772,1.772,0,0,0,1.487-2.74A7.13,7.13,0,0,1,8.5,19a.4.4,0,1,0-.189-.774,7.93,7.93,0,0,0-3.158,1.588,1.774,1.774,0,0,0-2.418,2.454,1.774,1.774,0,0,0-1.349,3.175A1.773,1.773,0,0,0,1.364,28.9a1.774,1.774,0,0,0,1.459,3.166,1.774,1.774,0,0,0,2.349,2.574,1.774,1.774,0,0,0,3.269,1.207,1.774,1.774,0,0,0,3.481.16,1.774,1.774,0,0,0,3.166-1.459A1.774,1.774,0,0,0,17.663,32.2a1.752,1.752,0,0,0,.294.025,1.774,1.774,0,0,0,.913-3.295A1.776,1.776,0,0,0,20.394,27.176ZM3.55,20.65a.977.977,0,1,1,0,1.381.974.974,0,0,1,0-1.381ZM1.537,23.641a.977.977,0,1,1,.52,1.28.97.97,0,0,1-.52-1.28ZM.8,27.176a.977.977,0,1,1,.977.977A.978.978,0,0,1,.8,27.176ZM2.76,31.251a.977.977,0,1,1,.532-.525.978.978,0,0,1-.532.525Zm.789,2.571a.977.977,0,1,1,1.381,0,.978.978,0,0,1-1.381,0Zm4.27,1.493a.977.977,0,1,1,.005-.748A.978.978,0,0,1,7.82,35.316Zm2.376,1.26a.977.977,0,1,1,.977-.977.978.978,0,0,1-.977.977Zm5.266-14.545a.977.977,0,1,1,1.381,0,.978.978,0,0,1-1.381,0ZM17.1,24.494a.977.977,0,1,1,.525.532A.971.971,0,0,1,17.1,24.494ZM14.267,35.36a.977.977,0,1,1,.005-.748A.97.97,0,0,1,14.267,35.36Zm2.577-1.537a.976.976,0,1,1,0-1.381A.978.978,0,0,1,16.844,33.823Zm2.013-2.991a.977.977,0,1,1,0-.748A.97.97,0,0,1,18.857,30.832Zm-.237-2.679a.977.977,0,1,1,.977-.977A.978.978,0,0,1,18.62,28.153Z" transform="translate(0 -18.003)" fill="#777"/>
    </g>
  </g>
</svg>
