<svg xmlns="http://www.w3.org/2000/svg" width="26.2" height="26.2" viewBox="0 0 26.2 26.2">
    <defs>
        <style>
            .cls-2{fill:none;stroke:#777;stroke-linecap:round;stroke-linejoin:round;stroke-miterlimit:10;stroke-width:.8px}
        </style>
    </defs>
    <g id="ico_ringwidth" transform="translate(-1529.4 -928.4)">
        <g id="ui_interface_user_user_interface_question" transform="translate(1529.477 928.18)">
            <circle id="Ellipse_16" cx="12.5" cy="12.5" r="12.5" fill="none" stroke="#777" stroke-linecap="round" stroke-linejoin="round" stroke-miterlimit="10" stroke-width="1.2px" transform="translate(.523 .82)"/>
        </g>
        <g id="XMLID_1710_" transform="translate(1535.5 932.5)">
            <path id="XMLID_1726_" d="M1.5 1.5v14.223h14.223z" class="cls-2"/>
            <path id="XMLID_1727_" d="M5.5 16.13v-4.973l4.973 4.973z" class="cls-2" transform="translate(-1.291 -3.117)"/>
            <path id="XMLID_1728_" d="M0 1.016L0 0" class="cls-2" transform="translate(3.532 14.707)"/>
            <path id="XMLID_1729_" d="M0 0L0 0" class="cls-2" transform="translate(5.5 15.5)"/>
            <path id="XMLID_1730_" d="M0 1.016L0 0" class="cls-2" transform="translate(7.595 14.707)"/>
            <path id="XMLID_1731_" d="M0 0L0 0" class="cls-2" transform="translate(9.5 15.5)"/>
            <path id="XMLID_1732_" d="M0 1.016L0 0" class="cls-2" transform="translate(11.659 14.707)"/>
            <path id="XMLID_1733_" d="M0 0L0 0" class="cls-2" transform="translate(13.5 15.5)"/>
        </g>
    </g>
</svg>
