<svg xmlns="http://www.w3.org/2000/svg" width="30" height="30" viewBox="0 0 30 30">
    <g>
        <g fill="#fff" stroke="#777">
            <path stroke="none" d="M0 0H30V30H0z" transform="translate(-582 -562) translate(582 562)"/>
            <path fill="none" d="M0.5 0.5H29.5V29.5H0.5z" transform="translate(-582 -562) translate(582 562)"/>
        </g>
        <path fill="#777" d="M9.411 12.334l-2.475 2.475A4.063 4.063 0 0 1 1.19 9.064l2.475-2.476q.054-.054.11-.106a.375.375 0 0 1 .632.259q.009.225.038.45a.377.377 0 0 1-.106.316L1.986 9.859a2.938 2.938 0 0 0 4.155 4.155l2.475-2.475.011-.011a2.938 2.938 0 0 0-.874-4.741.377.377 0 0 1-.223-.365 1.944 1.944 0 0 1 .088-.477.372.372 0 0 1 .5-.228 4.063 4.063 0 0 1 1.3 6.617zM6.589 9.411a4.038 4.038 0 0 0 1.3.871.372.372 0 0 0 .5-.228 1.944 1.944 0 0 0 .088-.477.377.377 0 0 0-.223-.365 2.938 2.938 0 0 1-.874-4.741l.011-.011L9.86 1.985a2.938 2.938 0 0 1 4.155 4.155l-2.353 2.353a.377.377 0 0 0-.106.316q.029.224.038.45a.375.375 0 0 0 .632.259q.056-.052.11-.106l2.474-2.477a4.063 4.063 0 1 0-5.745-5.746L6.589 3.664a4.068 4.068 0 0 0 0 5.746z" transform="translate(-582 -562) translate(589.001 569.002)"/>
    </g>
</svg>
