<svg xmlns="http://www.w3.org/2000/svg" width="32.4" height="23.49" viewBox="0 0 32.4 23.49">
    <path fill="#977d2e" d="M-23.94-44.01a4.4 4.4 0 0 1-2.25-.63 12.163 12.163 0 0 1-3.33-3.375 9.161 9.161 0 0 1-1.08-4.815q0-3.87 3.6-8.505t10.8-6.165v1.89q-9.36 2.43-9.36 9.45a5.652 5.652 0 0 0 3.06 4.95l2.61 1.62v1.17l-1.53 2.43q-1.26 1.98-2.52 1.98zm18 0a4.4 4.4 0 0 1-2.25-.63 12.162 12.162 0 0 1-3.33-3.375 9.161 9.161 0 0 1-1.08-4.815q0-3.87 3.6-8.505T1.8-67.5v1.89q-9.36 2.43-9.36 9.45a5.652 5.652 0 0 0 3.06 4.95l2.61 1.62v1.17l-1.53 2.43q-1.26 1.98-2.52 1.98z" transform="translate(30.6 67.5)"/>
</svg>
