<svg id="info-circle" xmlns="http://www.w3.org/2000/svg" width="18.371" height="18.371" viewBox="0 0 18.371 18.371">
  <path id="info-circle-2" data-name="info-circle" d="M17.186,9.185a8,8,0,1,1-8,8,8,8,0,0,1,8-8m0-1.185a9.186,9.186,0,1,0,9.186,9.186A9.187,9.187,0,0,0,17.186,8ZM15.852,20.741H16.3V16.3h-.444a.444.444,0,0,1-.444-.444v-.3a.444.444,0,0,1,.444-.444H17.63a.444.444,0,0,1,.444.444v5.185h.444a.444.444,0,0,1,.444.444v.3a.444.444,0,0,1-.444.444H15.852a.444.444,0,0,1-.444-.444v-.3A.444.444,0,0,1,15.852,20.741Zm1.333-8.889a1.185,1.185,0,1,0,1.185,1.185A1.185,1.185,0,0,0,17.186,11.852Z" transform="translate(-8 -8)" fill="#757575"/>
</svg>
