<svg xmlns="http://www.w3.org/2000/svg" width="17.51" height="17.506" viewBox="0 0 17.51 17.506">
    <path fill="#757575" d="M41.879-11.992A4.481 4.481 0 0 0 37.391-7.5a4.481 4.481 0 0 0 4.488 4.488A4.481 4.481 0 0 0 46.367-7.5a4.481 4.481 0 0 0-4.488-4.492zm0 7.406A2.923 2.923 0 0 1 38.961-7.5a2.921 2.921 0 0 1 2.918-2.918A2.921 2.921 0 0 1 44.8-7.5a2.923 2.923 0 0 1-2.921 2.914zm5.719-7.59a1.047 1.047 0 0 0-1.047-1.047 1.047 1.047 0 0 0-1.051 1.047 1.044 1.044 0 0 0 1.047 1.047 1.044 1.044 0 0 0 1.053-1.047zm2.973 1.063a5.181 5.181 0 0 0-1.414-3.668 5.215 5.215 0 0 0-3.669-1.419c-1.445-.082-5.777-.082-7.223 0a5.207 5.207 0 0 0-3.668 1.41 5.2 5.2 0 0 0-1.414 3.668c-.082 1.445-.082 5.777 0 7.223A5.181 5.181 0 0 0 34.6-.227a5.221 5.221 0 0 0 3.668 1.414c1.445.082 5.777.082 7.223 0a5.181 5.181 0 0 0 3.665-1.414 5.215 5.215 0 0 0 1.414-3.668c.082-1.445.082-5.773 0-7.218zM48.7-2.344A2.954 2.954 0 0 1 47.039-.68c-1.152.457-3.887.352-5.16.352s-4.012.1-5.16-.352a2.954 2.954 0 0 1-1.664-1.664C34.6-3.5 34.7-6.23 34.7-7.5s-.1-4.012.352-5.16a2.954 2.954 0 0 1 1.664-1.664c1.152-.457 3.887-.352 5.16-.352s4.012-.1 5.16.352a2.954 2.954 0 0 1 1.664 1.66c.457 1.152.352 3.887.352 5.16s.108 4.012-.352 5.16z" transform="translate(-33.122 16.257)"/>
</svg>
