<svg xmlns="http://www.w3.org/2000/svg" width="13.627" height="13.627" viewBox="0 0 13.627 13.627">
    <path fill="#777" d="M8.015 10.5l-2.108 2.111a3.46 3.46 0 0 1-4.893-4.893L3.121 5.61q.046-.046.094-.091a.32.32 0 0 1 .538.221q.008.192.032.383a.321.321 0 0 1-.09.269l-2 2a2.5 2.5 0 0 0 3.538 3.538l2.104-2.104.01-.01A2.5 2.5 0 0 0 6.6 5.779a.321.321 0 0 1-.19-.311 1.655 1.655 0 0 1 .075-.406.317.317 0 0 1 .424-.194 3.46 3.46 0 0 1 1.1 5.635zm-2.4-2.49a3.439 3.439 0 0 0 1.1.742.317.317 0 0 0 .424-.194 1.655 1.655 0 0 0 .075-.406.321.321 0 0 0-.19-.311 2.5 2.5 0 0 1-.744-4.037l.01-.01L8.4 1.69a2.5 2.5 0 1 1 3.538 3.538l-2 2a.321.321 0 0 0-.09.269q.025.191.032.383a.32.32 0 0 0 .538.221q.048-.044.094-.091l2.108-2.108a3.46 3.46 0 0 0-4.901-4.889L5.611 3.12a3.464 3.464 0 0 0 0 4.893z" transform="translate(.001 .002)"/>
</svg>
