<svg xmlns="http://www.w3.org/2000/svg" width="194" height="78" viewBox="0 0 194 78">
    <defs>
        <clipPath id="clip-path">
            <path id="Rechteck_553" fill="none" d="M0 0H194V78H0z" transform="translate(-.019 .254)"/>
        </clipPath>
        <style>
            .cls-2{clip-path:url(#clip-path)}.cls-3{fill:#896a21}.cls-4{fill:#5d5c5c}
        </style>
    </defs>
    <g id="logo_wagner" transform="translate(-.496 -.254)">
        <g id="Gruppe_885" transform="translate(.514)">
            <g id="Gruppe_884" class="cls-2">
                <path id="Pfad_190" d="M49.046 22.044L41.187 0h-5.449L45.8 28.2a.6.6 0 0 0 1.128-.048z" class="cls-3" transform="translate(54.544)"/>
                <path id="Pfad_191" d="M49.149.105L49.111 0h-8.579l3.811 10.693h.005a.594.594 0 0 0 .569.413.588.588 0 0 0 .577-.451z" class="cls-3" transform="translate(62.038)"/>
                <path id="Pfad_192" d="M44.332 22.044L36.474 0h-5.447l10.035 28.144a.6.6 0 0 0 1.135.06z" class="cls-3" transform="translate(47.18)"/>
            </g>
        </g>
        <path id="Pfad_193" d="M76.023 16.278H57.359v37.3h18.664v-5.324h-13.3V37.595h13.3v-5.329h-13.3V21.607h13.3z" class="cls-4" transform="translate(88.963 23.86)"/>
        <g id="Gruppe_887" transform="translate(.514)">
            <g id="Gruppe_886" class="cls-2">
                <path id="Pfad_194" d="M91.152 52.084l-9.35-13.8a11.225 11.225 0 0 0 7.389-10.738c0-6.225-4.757-11.274-10.624-11.274H66.525v36.7h4.944V21.521h7.1a5.865 5.865 0 0 1 5.682 6.03 5.864 5.864 0 0 1-5.682 6.027h-5.075A.51.51 0 0 0 73 34.1a.535.535 0 0 0 .095.306l-.005.005 12.582 18.567H90.8a.51.51 0 0 0 .495-.526.535.535 0 0 0-.144-.368" class="cls-4" transform="translate(102.668 24.483)"/>
                <path id="Pfad_195" d="M45.294 16.594l-9.455 23.657-7.146-17.873-2.12-5.309-.267-.666H26.3a.544.544 0 0 0-1 0h-.005l-.423 1.054-.52 1.3-1.452 3.621-7.141 17.87-9.452-23.654H.514L15.255 53.47a.541.541 0 0 0 1.015-.015l2.384-5.965L25.8 29.623 32.943 47.5l2.389 5.975a.542.542 0 0 0 1.01 0l2.391-5.975 12.352-30.9z" class="cls-4" transform="translate(-.515 24.169)"/>
                <path id="Pfad_196" d="M64.744 16.594v22.865L47.29 16.3l-.005-.005-.013-.018a.507.507 0 0 0-.918.316v36.7h5.111V30.409l17.424 23.116.11.143a.494.494 0 0 0 .346.145.519.519 0 0 0 .51-.523v-36.7z" class="cls-4" transform="translate(71.139 24.169)"/>
                <path id="Pfad_197" d="M56.7 42.994h24.4a14.808 14.808 0 0 1-24.4 0m-20.677-4.718h-6.664l3.332-8.709zm52.039.538a.6.6 0 0 0-.574-.543H71.7h.005-17.036a13.66 13.66 0 0 1-.336-3.02A14.366 14.366 0 0 1 68.908 21.1 14.691 14.691 0 0 1 80.7 26.94h5.38a.534.534 0 0 0 .538-.526.523.523 0 0 0-.067-.25 20.048 20.048 0 0 0-17.642-10.3c-11.032 0-19.974 8.684-19.974 19.4a18.938 18.938 0 0 0 .243 3.02h-7.363L33.2 16.718a.544.544 0 0 0-1 0h-.008l-2.389 5.975L17.44 53.607h5.79l4.24-10.613h10.44l4.242 10.613h5.79L43.7 42.994h6.892a20.243 20.243 0 0 0 34.969 2.95l.049-.058c.031-.045.056-.09.087-.135l.031-.045a13.918 13.918 0 0 0 2.312-6.721c0-.078.031-.105.023-.168" class="cls-4" transform="translate(25.942 23.854)"/>
            </g>
        </g>
    </g>
</svg>
