<svg id="material-icon" xmlns="http://www.w3.org/2000/svg" xmlns:xlink="http://www.w3.org/1999/xlink" width="31.261" height="20.206" viewBox="0 0 31.261 20.206">
  <defs>
    <clipPath id="clip-path">
      <rect id="Rectangle_379" data-name="Rectangle 379" width="31.261" height="20.206" fill="#777"/>
    </clipPath>
  </defs>
  <g id="Group_553" data-name="Group 553" clip-path="url(#clip-path)">
    <path id="Path_116" data-name="Path 116" d="M16,23.167h7.26l-1.954-4.847a.312.312,0,0,0-.289-.194H18.214a.267.267,0,0,0-.248.17Zm7.967.958H15.294a.476.476,0,0,1-.4-.212.49.49,0,0,1-.048-.444l2.231-5.53a1.218,1.218,0,0,1,1.134-.767h2.807a1.262,1.262,0,0,1,1.175.79l2.219,5.506a.479.479,0,0,1-.444.656" transform="translate(-1.887 -3.958)" fill="#777"/>
    <path id="Path_117" data-name="Path 117" d="M23.893,24.124H10.962a.479.479,0,0,1-.444-.656l2.178-5.4a1.422,1.422,0,0,1,1.327-.9H26.813a.477.477,0,1,1,0,.955H14.022a.48.48,0,0,0-.441.3l-1.912,4.743H23.893a.479.479,0,0,1,0,.958" transform="translate(-10.482 -3.958)" fill="#777"/>
    <path id="Path_118" data-name="Path 118" d="M18.923,23.146l7.26.06-1.912-4.862a.307.307,0,0,0-.286-.2l-2.807-.024h0a.269.269,0,0,0-.248.167Zm7.964,1.023h0l-8.677-.075a.474.474,0,0,1-.394-.212.479.479,0,0,1-.045-.447l2.276-5.512a1.215,1.215,0,0,1,1.142-.755l2.807.021a1.265,1.265,0,0,1,1.166.805l2.172,5.521a.477.477,0,0,1-.444.653" transform="translate(3.895 -3.964)" fill="#777"/>
    <path id="Path_119" data-name="Path 119" d="M21.651,18.141h0l-3.675-.027a.479.479,0,1,1,0-.958h0l3.675.027a.479.479,0,0,1,0,.958" transform="translate(3.425 -3.986)" fill="#777"/>
    <path id="Path_120" data-name="Path 120" d="M25.168,22.09a.481.481,0,0,1-.444-.3l-2.216-5.506a.312.312,0,0,0-.289-.194H19.411a.264.264,0,0,0-.248.17l-1.733,4.3a.479.479,0,0,1-.889-.358l1.736-4.3a1.218,1.218,0,0,1,1.134-.767h2.807a1.262,1.262,0,0,1,1.175.79l2.219,5.506a.481.481,0,0,1-.444.656" transform="translate(1.463 -7.991)" fill="#777"/>
    <path id="Path_121" data-name="Path 121" d="M12.676,20.67a.481.481,0,0,1-.444-.656l1.6-3.982a1.431,1.431,0,0,1,1.33-.895H27.955a.477.477,0,1,1,0,.955H15.167a.481.481,0,0,0-.444.3l-1.6,3.982a.481.481,0,0,1-.444.3" transform="translate(-7.081 -7.991)" fill="#777"/>
    <path id="Path_122" data-name="Path 122" d="M20.381,14.777A.477.477,0,0,1,19.9,14.3v-.072a.477.477,0,1,1,.955,0V14.3a.477.477,0,0,1-.477.477" transform="translate(8.2 -10.745)" fill="#777"/>
    <path id="Path_123" data-name="Path 123" d="M20.381,15.621a.477.477,0,0,1-.477-.477v-.072a.477.477,0,1,1,.955,0v.072a.477.477,0,0,1-.477.477" transform="translate(8.2 -9.072)" fill="#777"/>
    <path id="Path_124" data-name="Path 124" d="M20.019,15.14h-.072a.479.479,0,0,1,0-.958h.072a.479.479,0,0,1,0,.958" transform="translate(7.34 -9.885)" fill="#777"/>
    <path id="Path_125" data-name="Path 125" d="M20.863,15.14h-.072a.479.479,0,0,1,0-.958h.072a.479.479,0,0,1,0,.958" transform="translate(9.013 -9.885)" fill="#777"/>
    <path id="Path_126" data-name="Path 126" d="M11.577,15.375A.477.477,0,0,1,11.1,14.9v-.072a.477.477,0,1,1,.955,0V14.9a.477.477,0,0,1-.477.477" transform="translate(-9.257 -9.56)" fill="#777"/>
    <path id="Path_127" data-name="Path 127" d="M11.577,16.219a.477.477,0,0,1-.477-.477V15.67a.477.477,0,1,1,.955,0v.072a.477.477,0,0,1-.477.477" transform="translate(-9.257 -7.886)" fill="#777"/>
    <path id="Path_128" data-name="Path 128" d="M11.215,15.738h-.072a.479.479,0,0,1,0-.958h.072a.479.479,0,0,1,0,.958" transform="translate(-10.118 -8.699)" fill="#777"/>
    <path id="Path_129" data-name="Path 129" d="M12.059,15.738h-.072a.479.479,0,0,1,0-.958h.072a.479.479,0,0,1,0,.958" transform="translate(-8.444 -8.699)" fill="#777"/>
    <path id="Path_130" data-name="Path 130" d="M13.617,13.77a.477.477,0,0,1-.477-.477v-.072a.477.477,0,1,1,.955,0v.072a.477.477,0,0,1-.477.477" transform="translate(-5.212 -12.742)" fill="#777"/>
    <path id="Path_131" data-name="Path 131" d="M13.617,14.614a.477.477,0,0,1-.477-.477v-.072a.477.477,0,1,1,.955,0v.072a.477.477,0,0,1-.477.477" transform="translate(-5.212 -11.069)" fill="#777"/>
    <path id="Path_132" data-name="Path 132" d="M13.255,14.133h-.072a.479.479,0,0,1,0-.958h.072a.479.479,0,0,1,0,.958" transform="translate(-6.073 -11.882)" fill="#777"/>
    <path id="Path_133" data-name="Path 133" d="M14.1,14.133h-.072a.479.479,0,0,1,0-.958H14.1a.479.479,0,0,1,0,.958" transform="translate(-4.399 -11.882)" fill="#777"/>
  </g>
</svg>
