<svg xmlns="http://www.w3.org/2000/svg" width="17.819" height="14.16" viewBox="0 0 17.819 14.16">
    <path fill="#6f6f6f" d="M17.58 79.432H.239A.239.239 0 0 1 0 79.193v-.955A.239.239 0 0 1 .239 78H17.58a.239.239 0 0 1 .239.239v.955a.239.239 0 0 1-.239.239zm0 6.364H.239A.239.239 0 0 1 0 85.557V84.6a.239.239 0 0 1 .239-.239H17.58a.239.239 0 0 1 .239.239v.955a.239.239 0 0 1-.239.239zm0 6.364H.239A.239.239 0 0 1 0 91.921v-.955a.239.239 0 0 1 .239-.239H17.58a.239.239 0 0 1 .239.239v.955a.239.239 0 0 1-.239.239z" transform="translate(0 -78)"/>
</svg>
