<svg xmlns="http://www.w3.org/2000/svg" width="58" height="58" viewBox="0 0 58 58">
    <g fill="none">
        <path d="M29 0A29 29 0 1 1 0 29 29 29 0 0 1 29 0z"/>
        <path fill="#777" d="M29 1c-3.78 0-7.447.74-10.899 2.2-3.334 1.41-6.328 3.43-8.9 6.001-2.572 2.572-4.59 5.566-6.001 8.9C1.74 21.553 1 25.22 1 29c0 3.78.74 7.447 2.2 10.899 1.41 3.334 3.43 6.328 6.001 8.9 2.572 2.572 5.566 4.59 8.9 6.001C21.553 56.26 25.22 57 29 57c3.78 0 7.447-.74 10.899-2.2 3.334-1.41 6.328-3.43 8.9-6.001 2.572-2.572 4.59-5.566 6.001-8.9C56.26 36.447 57 32.78 57 29c0-3.78-.74-7.447-2.2-10.899-1.41-3.334-3.43-6.328-6.001-8.9-2.572-2.572-5.566-4.59-8.9-6.001C36.447 1.74 32.78 1 29 1m0-1c16.016 0 29 12.984 29 29S45.016 58 29 58 0 45.016 0 29 12.984 0 29 0z"/>
    </g>
    <path fill="none" stroke="#777" stroke-miterlimit="10" d="M76.64 68.735h-3.716V48.3h3.716zm0-15.483h8.668v15.483H64.254V53.252h8.67m3.716 0h10.527V48.3H62.4v4.952h10.524m7.934-4.967h-6.077l4.282-3.157.006-.006.253-.191.011-.006.032-.019a1.851 1.851 0 0 1 .566-.217 1.893 1.893 0 0 1 2.242 1.436 1.847 1.847 0 0 1-1.315 2.16zm-6.077 0h-6.075a1.847 1.847 0 0 1-1.315-2.161 1.893 1.893 0 0 1 2.242-1.436 1.851 1.851 0 0 1 .566.217l.032.019.264.2.006.006zm-1.738-5.467l.006.013 1.731 5.454m5.038-3.785a2.194 2.194 0 0 1-.315.3l-.138.1-.032.019-.011.006a1.466 1.466 0 0 0-.253.191l-.006.006-3.4 2.508.838-4.707.064-.2.019-.049a1.791 1.791 0 0 1 .3-.508 1.914 1.914 0 0 1 2.657-.279 1.839 1.839 0 0 1 .277 2.613zm-9.619.4l.032.019.011.006.253.191m2.5-2.41a1.858 1.858 0 0 0-.308-.545 1.914 1.914 0 0 0-2.657-.279 1.842 1.842 0 0 0-.285 2.614 2.19 2.19 0 0 0 .455.4l.032.019.011.006m6.322-2.219a1.8 1.8 0 0 0 .106-.619 1.889 1.889 0 0 0-3.778 0 1.751 1.751 0 0 0 .151.725l.006.013" transform="translate(-45.584 -25.767)"/>
    <path fill="none" d="M0 0h25.706v29.434H0z" transform="translate(16.345 14)"/>
</svg>
