<svg xmlns="http://www.w3.org/2000/svg" id="ico_geschaefte" width="58" height="58" viewBox="0 0 58 58">
    <defs>
        <style>
            .cls-2{fill:#7e7d7d}
        </style>
    </defs>
    <g id="Pfad_148" fill="none" stroke="none">
        <path d="M29 0A29 29 0 1 1 0 29 29 29 0 0 1 29 0z"/>
        <path fill="#777" d="M29 1c-3.78 0-7.447.74-10.899 2.2-3.334 1.41-6.328 3.43-8.9 6.001-2.572 2.572-4.59 5.566-6.001 8.9C1.74 21.553 1 25.22 1 29c0 3.78.74 7.447 2.2 10.899 1.41 3.334 3.43 6.328 6.001 8.9 2.572 2.572 5.566 4.59 8.9 6.001C21.553 56.26 25.22 57 29 57c3.78 0 7.447-.74 10.899-2.2 3.334-1.41 6.328-3.43 8.9-6.001 2.572-2.572 4.59-5.566 6.001-8.9C56.26 36.447 57 32.78 57 29c0-3.78-.74-7.447-2.2-10.899-1.41-3.334-3.43-6.328-6.001-8.9-2.572-2.572-5.566-4.59-8.9-6.001C36.447 1.74 32.78 1 29 1m0-1c16.016 0 29 12.984 29 29S45.016 58 29 58 0 45.016 0 29 12.984 0 29 0z"/>
    </g>
    <path id="Pfad_141" d="M101.578 45.34a5.324 5.324 0 1 0 5.17 5.323 5.253 5.253 0 0 0-5.17-5.323m-.01 23.237c-2.128-2.325-10.327-11.689-10.327-17.922a10.337 10.337 0 1 1 20.662 0c0 6.121-8.209 15.575-10.335 17.922" class="cls-2" transform="translate(-72.551 -25.295)"/>
    <path id="Pfad_142" d="M101.985 55.7a4.636 4.636 0 1 1 4.482-4.632 4.559 4.559 0 0 1-4.482 4.632m0-16a11.2 11.2 0 0 0-11.028 11.361C90.957 58.551 101.98 70 101.98 70S113 58.417 113 51.061A11.2 11.2 0 0 0 101.98 39.7m0 17.377a6.012 6.012 0 1 0-5.858-6.009 5.945 5.945 0 0 0 5.858 6.009m0-16a9.429 9.429 0 0 1 6.8 2.908 10.093 10.093 0 0 1 2.84 7.074c0 2.711-1.809 6.651-5.233 11.393-1.683 2.334-3.382 4.333-4.418 5.5a70.075 70.075 0 0 1-4.405-5.452c-3.421-4.717-5.228-8.674-5.228-11.439a10.091 10.091 0 0 1 2.838-7.074 9.43 9.43 0 0 1 6.806-2.908" class="cls-2" transform="translate(-72.957 -25.7)"/>
</svg>
