<svg xmlns="http://www.w3.org/2000/svg" width="58" height="58" viewBox="0 0 58 58">
    <g fill="none">
        <path d="M29 0A29 29 0 1 1 0 29 29 29 0 0 1 29 0z"/>
        <path fill="#777" d="M29 1c-3.78 0-7.447.74-10.899 2.2-3.334 1.41-6.328 3.43-8.9 6.001-2.572 2.572-4.59 5.566-6.001 8.9C1.74 21.553 1 25.22 1 29c0 3.78.74 7.447 2.2 10.899 1.41 3.334 3.43 6.328 6.001 8.9 2.572 2.572 5.566 4.59 8.9 6.001C21.553 56.26 25.22 57 29 57c3.78 0 7.447-.74 10.899-2.2 3.334-1.41 6.328-3.43 8.9-6.001 2.572-2.572 4.59-5.566 6.001-8.9C56.26 36.447 57 32.78 57 29c0-3.78-.74-7.447-2.2-10.899-1.41-3.334-3.43-6.328-6.001-8.9-2.572-2.572-5.566-4.59-8.9-6.001C36.447 1.74 32.78 1 29 1m0-1c16.016 0 29 12.984 29 29S45.016 58 29 58 0 45.016 0 29 12.984 0 29 0z"/>
    </g>
    <path fill="none" stroke="#777" stroke-miterlimit="10" d="M31.324 54.922h1.49m-17.133 5.214a2.98 2.98 0 1 0-2.981 2.981 2.981 2.981 0 0 0 2.981-2.981zm21.6 0a2.979 2.979 0 1 0-2.981 2.981 2.979 2.979 0 0 0 2.982-2.981zM20.15 42.257v6.705h-5.213v-6.705M9.721 60.136H5.995V42.257h22.347v17.879H17.169M34.3 48.962h-2.232v3.724h4.469V51.2zm2.979 11.174h2.979V51.2l-4.469-4.471h-7.45m0 13.408h2.981" transform="translate(5.487 -23.774)"/>
</svg>
