<svg xmlns="http://www.w3.org/2000/svg" width="34.352" height="16.03" viewBox="0 0 34.352 16.03">
    <path fill="#777" d="M46.2 145.712a38.552 38.552 0 0 0-9.554-1.607 61.069 61.069 0 0 0-6.937 0 38.558 38.558 0 0 0-9.554 1.607C17.4 146.638 16 147.8 16 149.159v5.725c0 1.23 1.152 2.3 3.423 3.183a31.751 31.751 0 0 0 7.97 1.688 59.429 59.429 0 0 0 11.566 0 31.741 31.741 0 0 0 7.969-1.688c2.272-.882 3.424-1.953 3.424-3.183v-5.725c0-1.359-1.398-2.521-4.152-3.447zm-7.354 7.178a58.291 58.291 0 0 1-11.335 0 38.423 38.423 0 0 1-5.246-.869 42.57 42.57 0 0 1 7.512-1.048 59.946 59.946 0 0 1 6.8 0 42.624 42.624 0 0 1 7.512 1.048 38.421 38.421 0 0 1-5.245.869zm-5.1-3.159v-4.576c.771.007 1.537.029 2.29.065v4.58c-1.881-.089-3.845-.089-5.725 0v-4.579c.753-.036 1.52-.058 2.29-.065v4.576zM20.518 146.8a36.379 36.379 0 0 1 8.65-1.51v4.578a37.822 37.822 0 0 0-8.951 1.552c-1.928-.69-3.072-1.528-3.072-2.257 0-.773 1.261-1.656 3.373-2.363zm-3.373 8.087v-3.757a9.986 9.986 0 0 0 2.882 1.436 32.956 32.956 0 0 0 6.851 1.412v4.573a29.425 29.425 0 0 1-7.04-1.551c-1.686-.655-2.693-1.446-2.693-2.116zm10.878 3.78v-4.575c1.661.148 3.391.223 5.153.223s3.492-.075 5.153-.223v4.575c-1.659.15-3.389.228-5.153.228s-3.494-.08-5.153-.231zm21.183-3.78c0 .67-1.007 1.461-2.693 2.116a29.428 29.428 0 0 1-7.04 1.548v-4.573a32.96 32.96 0 0 0 6.851-1.412 9.973 9.973 0 0 0 2.882-1.436zm-3.072-3.468a37.825 37.825 0 0 0-8.951-1.551v-4.577a36.385 36.385 0 0 1 8.65 1.51c2.112.71 3.373 1.593 3.373 2.362 0 .725-1.144 1.563-3.072 2.253z" transform="translate(-16 -144.007)"/>
</svg>
