<svg xmlns="http://www.w3.org/2000/svg" id="ico_necklace" width="30.649" height="29.11" viewBox="0 0 30.649 29.11">
    <defs>
        <style>
            .cls-1{fill:#777}
        </style>
    </defs>
    <g id="Gruppe_596">
        <path id="Pfad_152" d="M246.709 14.045a.6.6 0 1 1 .587-.482.6.6 0 0 1-.587.482z" class="cls-1" transform="translate(-231.379 -12.849)"/>
        <path id="Pfad_153" d="M30.649 31.681a2.67 2.67 0 0 0-1.876-2.546 2.666 2.666 0 0 0-2.366-4.623 2.665 2.665 0 0 0-3.5-3.89 11.917 11.917 0 0 0-4.755-2.388.6.6 0 0 0-.284 1.163 10.714 10.714 0 0 1 4.17 2.061 2.666 2.666 0 0 0 2.883 4.042 2.683 2.683 0 0 0-.324.565 2.665 2.665 0 0 0 1.419 3.492q.124.052.251.092a2.663 2.663 0 0 0 .345 4.321 2.683 2.683 0 0 0-.628.171A2.664 2.664 0 0 0 24.72 38a2.7 2.7 0 0 0-.444-.037 2.664 2.664 0 0 0-2.585 3.313 2.664 2.664 0 0 0-4.057 1.092 2.7 2.7 0 0 0-.139.423 2.663 2.663 0 0 0-4.455.173 2.683 2.683 0 0 0-.171-.628A2.665 2.665 0 0 0 9.4 40.875a2.7 2.7 0 0 0-.4.2 2.668 2.668 0 0 0-3.271-3.03 2.684 2.684 0 0 0 .322-.563 2.665 2.665 0 0 0-1.419-3.492 2.7 2.7 0 0 0-.423-.139 2.663 2.663 0 0 0 .039-4.313 2.7 2.7 0 0 0 .416-.131 2.665 2.665 0 0 0 1.466-3.472 2.7 2.7 0 0 0-.2-.4 2.688 2.688 0 0 0 .443.037 2.664 2.664 0 0 0 2.234-4.117 10.715 10.715 0 0 1 4.161-2.055.6.6 0 1 0-.284-1.163 11.918 11.918 0 0 0-4.746 2.386A2.665 2.665 0 0 0 4.1 24.31a2.666 2.666 0 0 0-2.027 4.772 2.665 2.665 0 0 0-.027 5.193 2.666 2.666 0 0 0 2.192 4.758A2.666 2.666 0 0 0 7.772 42.9a2.665 2.665 0 0 0 4.913 1.814 2.665 2.665 0 0 0 5.232.24 2.666 2.666 0 0 0 4.758-2.192 2.665 2.665 0 0 0 3.869-3.53 2.633 2.633 0 0 0 .442.037 2.666 2.666 0 0 0 1.374-4.949 2.669 2.669 0 0 0 2.289-2.639zM5.335 21.874a1.468 1.468 0 1 1 0 2.076 1.463 1.463 0 0 1 0-2.076zM2.31 26.368a1.468 1.468 0 1 1 .781 1.923 1.458 1.458 0 0 1-.781-1.923zM1.2 31.681a1.468 1.468 0 1 1 1.468 1.468A1.47 1.47 0 0 1 1.2 31.681zm2.951 6.125a1.468 1.468 0 1 1 .8-.789 1.47 1.47 0 0 1-.8.789zm1.186 3.864a1.468 1.468 0 1 1 2.076 0 1.47 1.47 0 0 1-2.076 0zm6.418 2.244a1.468 1.468 0 1 1 .008-1.123 1.47 1.47 0 0 1-.01 1.124zm3.572 1.894a1.468 1.468 0 1 1 1.468-1.468 1.47 1.47 0 0 1-1.468 1.468zm7.914-21.859a1.468 1.468 0 1 1 2.076 0 1.469 1.469 0 0 1-2.076 0zm2.455 3.7a1.468 1.468 0 1 1 .789.8 1.459 1.459 0 0 1-.792-.799zm-4.251 16.33a1.468 1.468 0 1 1 .008-1.124 1.458 1.458 0 0 1-.011 1.126zm3.872-2.31a1.467 1.467 0 1 1 0-2.076 1.469 1.469 0 0 1-.003 2.078zm3.025-4.495a1.468 1.468 0 1 1 .007-1.123 1.458 1.458 0 0 1-.009 1.125zm-.355-4.027a1.468 1.468 0 1 1 1.468-1.468 1.47 1.47 0 0 1-1.471 1.47z" class="cls-1" transform="translate(0 -17.895)"/>
    </g>
</svg>
