<svg xmlns="http://www.w3.org/2000/svg" id="ico_earrings" width="24.472" height="31.358" viewBox="0 0 24.472 31.358">
    <defs>
        <style>
            .cls-1{fill:#777}
        </style>
    </defs>
    <path id="Pfad_154" d="M64.239 53.1v-5.23h-1.967v-2.241a2.89 2.89 0 1 0-3.812-2.739h1.84a1.045 1.045 0 1 1 1.045 1.045h-.922v3.935h-1.964v5.23a3.862 3.862 0 0 0-.586 4.284A13.879 13.879 0 0 0 56 63.549a5.349 5.349 0 0 0 10.7 0 13.878 13.878 0 0 0-1.874-6.162 3.863 3.863 0 0 0-.587-4.287zm-4.919 2.579a2.029 2.029 0 1 1 2.029 2.029 2.031 2.031 0 0 1-2.029-2.029zm3.074-5.964v2.235a3.854 3.854 0 0 0-2.091 0v-2.235zm-.122 17.215v-3.381h-1.845v3.381a3.51 3.51 0 0 1-2.582-3.381 11.99 11.99 0 0 1 1.317-4.676 3.862 3.862 0 0 0 4.376 0 11.99 11.99 0 0 1 1.317 4.676 3.51 3.51 0 0 1-2.583 3.381z" class="cls-1" transform="translate(-56 -37.541)"/>
    <path id="Pfad_155" d="M288.825 17.387a3.862 3.862 0 0 0-.586-4.284V7.87h-1.968V5.629a2.89 2.89 0 1 0-3.812-2.739h1.841a1.045 1.045 0 1 1 1.045 1.045h-.922V7.87h-1.968v5.23a3.862 3.862 0 0 0-.586 4.284A13.878 13.878 0 0 0 280 23.549a5.349 5.349 0 0 0 10.7 0 13.878 13.878 0 0 0-1.875-6.162zm-5.5-1.708a2.029 2.029 0 1 1 2.029 2.029 2.031 2.031 0 0 1-2.029-2.029zm3.074-5.964v2.235a3.853 3.853 0 0 0-2.09 0V9.715zm-.123 17.215v-3.381h-1.845v3.381a3.51 3.51 0 0 1-2.583-3.381 11.989 11.989 0 0 1 1.317-4.676 3.862 3.862 0 0 0 4.376 0 11.989 11.989 0 0 1 1.317 4.676 3.51 3.51 0 0 1-2.586 3.381z" class="cls-1" transform="translate(-266.227)"/>
</svg>
