<svg xmlns="http://www.w3.org/2000/svg" width="18.806" height="15.709" viewBox="0 0 18.806 15.709">
    <defs>
        <style>
            .cls-1{fill:none;stroke:#777;stroke-linecap:round;stroke-linejoin:round;stroke-miterlimit:10}
        </style>
    </defs>
    <g id="ico_service" transform="translate(0 -2)">
        <path id="Pfad_76" d="M3.5 13.468A6.782 6.782 0 0 1 10.08 6.5a6.782 6.782 0 0 1 6.58 6.968" class="cls-1" transform="translate(-.677 -.903)"/>
        <path id="Linie_121" d="M0 0L15 0" class="cls-1" transform="translate(1.307 12.5)"/>
        <path id="Pfad_77" d="M6.4 11.236a4.981 4.981 0 0 1 4.335-2.619" class="cls-1" transform="translate(-1.333 -1.382)"/>
        <path id="Pfad_78" d="M13.1 4.048H10v-.387A1.161 1.161 0 0 1 11.161 2.5h.774A1.161 1.161 0 0 1 13.1 3.661z" class="cls-1" transform="translate(-2.145)"/>
        <path id="Pfad_79" d="M12.274 6.069V4.5H11.5v1.569" class="cls-1" transform="translate(-2.484 -.452)"/>
        <path id="Pfad_80" d="M17.145 18.274h-.387V17.5H2.048v.774h-.387A1.161 1.161 0 0 0 .5 19.435V20.6h17.806v-1.165a1.161 1.161 0 0 0-1.161-1.161z" class="cls-1" transform="translate(0 -3.387)"/>
    </g>
</svg>
