<svg xmlns="http://www.w3.org/2000/svg" width="50" height="50" viewBox="0 0 50 50">
    <g>
        <g fill="#fff" stroke="#6f6f6f" opacity="0.9" transform="translate(-72 -364) translate(72 364)">
            <rect width="50" height="50" stroke="none" rx="3"/>
            <rect width="49" height="49" x=".5" y=".5" fill="none" rx="2.5"/>
        </g>
        <path fill="#898989" d="M20.455 41.718h-1.08a1.075 1.075 0 0 0-.965.594L17.215 44.7l-1.195-2.389a1.075 1.075 0 0 0-.965-.594h-1.08A1.083 1.083 0 0 0 12.9 42.8v7.019a.541.541 0 0 0 .54.54h1.08a.541.541 0 0 0 .54-.54v-4.6l1.674 3.766a.539.539 0 0 0 .965 0l1.674-3.766v4.6a.541.541 0 0 0 .54.54h1.08a.541.541 0 0 0 .54-.54V42.8a1.073 1.073 0 0 0-1.078-1.082zM9.076 44.587a.346.346 0 0 1-.142-.256c0-.209.3-.445.7-.445h.83a.542.542 0 0 0 .54-.54v-1.08a.541.541 0 0 0-.54-.54h-.821a2.744 2.744 0 0 0-2.862 2.604 2.507 2.507 0 0 0 .9 1.9l1.476 1.27a.346.346 0 0 1 .142.256c0 .209-.3.445-.7.445h-.83a.542.542 0 0 0-.54.54v1.08a.541.541 0 0 0 .54.54H8.6a2.744 2.744 0 0 0 2.862-2.605 2.507 2.507 0 0 0-.9-1.9l-1.486-1.269zm16.2 0a.346.346 0 0 1-.142-.256c0-.209.3-.445.7-.445h.83a.541.541 0 0 0 .54-.54v-1.08a.541.541 0 0 0-.54-.54h-.83a2.744 2.744 0 0 0-2.862 2.605 2.507 2.507 0 0 0 .9 1.9l1.476 1.269a.346.346 0 0 1 .142.256c0 .209-.3.445-.7.445h-.823a.542.542 0 0 0-.54.54v1.08a.541.541 0 0 0 .54.54h.83a2.744 2.744 0 0 0 2.862-2.605 2.507 2.507 0 0 0-.9-1.9l-1.485-1.269zM17.215 32C7.672 32-.062 38.283-.062 46.038a12.406 12.406 0 0 0 3.57 8.524A17.126 17.126 0 0 1 .377 59.5a1.62 1.62 0 0 0 1.174 2.733 16.375 16.375 0 0 0 9.388-3.125 20.922 20.922 0 0 0 6.276.965c9.543 0 17.277-6.283 17.277-14.038S26.758 32 17.215 32zm0 25.916a18.615 18.615 0 0 1-5.615-.864l-1.026-.324-.877.621a14.563 14.563 0 0 1-6.924 2.673 18.206 18.206 0 0 0 2.754-4.7l.479-1.262-.925-.985A10.223 10.223 0 0 1 2.1 46.038c0-6.546 6.783-11.878 15.118-11.878S32.34 39.491 32.34 46.038s-6.79 11.878-15.125 11.878z" transform="translate(-72 -364) translate(81.066 340)"/>
    </g>
</svg>
