<svg xmlns="http://www.w3.org/2000/svg" width="16" height="24" viewBox="0 0 16 24">
    <path fill="#7e7d7d" d="M16 12a8.178 8.178 0 0 0-2.8-6.1L12 .4c0-.2-.3-.4-.5-.4h-7a.664.664 0 0 0-.5.4L2.8 5.9A8.178 8.178 0 0 0 0 12a8.178 8.178 0 0 0 2.8 6.1L4 23.6c0 .2.3.4.5.4h7a.664.664 0 0 0 .5-.4l1.2-5.5A8.178 8.178 0 0 0 16 12zM4.9 1h6.2l.9 4.1A8.017 8.017 0 0 0 8 4a8.017 8.017 0 0 0-4 1.1zM1 12a7.109 7.109 0 0 1 2.5-5.4.1.1 0 0 0 .1-.1A7.526 7.526 0 0 1 8 5a7 7 0 0 1 4.3 1.5l.1.1A6.878 6.878 0 0 1 15 12a7.109 7.109 0 0 1-2.5 5.4l-.1.1A7.294 7.294 0 0 1 8 19a7.526 7.526 0 0 1-4.4-1.5l-.1-.1A7.109 7.109 0 0 1 1 12zm10.1 11H4.9L4 18.9A8.017 8.017 0 0 0 8 20a8.017 8.017 0 0 0 4-1.1zM7 12a.792.792 0 0 1 .5-.8V7.5a.5.5 0 0 1 1 0v3.7a.792.792 0 0 1 .5.8v.2l1.9 1.9a.483.483 0 0 1 0 .7.4.4 0 0 1-.4.2.6.6 0 0 1-.4-.1L8.2 13H8a.945.945 0 0 1-1-1z"/>
</svg>
