<svg xmlns="http://www.w3.org/2000/svg" width="50" height="50" viewBox="0 0 50 50">
    <g>
        <g fill="#fff" stroke="#6f6f6f" opacity="0.9" transform="translate(-171.998 -364) translate(171.998 364)">
            <rect width="50" height="50" stroke="none" rx="3"/>
            <rect width="49" height="49" x=".5" y=".5" fill="none" rx="2.5"/>
        </g>
        <path fill="#898989" d="M23.806 36.069A13.879 13.879 0 0 0 1.969 52.813L0 60l7.356-1.931a13.833 13.833 0 0 0 6.631 1.688h.006a13.787 13.787 0 0 0 9.813-23.687zm-9.813 21.35a11.512 11.512 0 0 1-5.875-1.606l-.419-.25-4.362 1.143L4.5 52.45l-.275-.437a11.555 11.555 0 1 1 21.431-6.131 11.661 11.661 0 0 1-11.662 11.537zm6.325-8.638c-.344-.175-2.05-1.013-2.369-1.125s-.55-.175-.781.175-.894 1.125-1.1 1.362-.406.263-.75.088a9.437 9.437 0 0 1-4.718-4.125c-.356-.612.356-.569 1.019-1.894a.642.642 0 0 0-.031-.606c-.087-.175-.781-1.881-1.069-2.575-.281-.675-.569-.581-.781-.594s-.431-.012-.663-.012a1.284 1.284 0 0 0-.925.431A3.9 3.9 0 0 0 6.937 42.8a6.792 6.792 0 0 0 1.413 3.588 15.492 15.492 0 0 0 5.925 5.237c2.2.95 3.062 1.031 4.162.869a3.551 3.551 0 0 0 2.337-1.65 2.9 2.9 0 0 0 .2-1.65c-.08-.156-.312-.244-.655-.413z" transform="translate(-171.998 -364) translate(182.998 343)"/>
    </g>
</svg>
