<svg xmlns="http://www.w3.org/2000/svg" width="16" height="16" viewBox="0 0 16 16">
  <path id="phone" d="M.5-1A.5.5,0,0,0,0-.5V0A1,1,0,0,1-1,1H-6A1,1,0,0,1-7,0V-8A1,1,0,0,1-6-9h3.5A.5.5,0,0,0-2-9.5a.5.5,0,0,0-.5-.5H-6A2,2,0,0,0-8-8V0A2,2,0,0,0-6,2h5A2,2,0,0,0,1,0V-.5A.5.5,0,0,0,.5-1ZM7.706-11.293,5.292-13.707A1,1,0,0,0,4.584-14H1a2,2,0,0,0-2,2v8A2,2,0,0,0,1-2H6A2,2,0,0,0,8-4v-6.584A1,1,0,0,0,7.706-11.293ZM5-12.586,6.584-11H5ZM7-4A1,1,0,0,1,6-3H1A1,1,0,0,1,0-4v-8a1,1,0,0,1,1-1H4v2a1,1,0,0,0,1,1H7Z" transform="translate(8 14)" fill="#977d2e"/>
</svg>
