<?xml version="1.0" standalone="no"?>
<!DOCTYPE svg PUBLIC "-//W3C//DTD SVG 1.1//EN" "http://www.w3.org/Graphics/SVG/1.1/DTD/svg11.dtd" >
<svg xmlns="http://www.w3.org/2000/svg" xmlns:xlink="http://www.w3.org/1999/xlink" version="1.1">
<metadata>
Created by FontForge 20170731 at Thu Dec 24 10:31:18 2020
 By Aleksey,,,
Created by Georg Duffner with FontForge 2.0 (http://fontforge.sf.net)
</metadata>
<defs>
<font id="EBGaramond12-Regular" horiz-adv-x="0" >
  <font-face 
    font-family="EB Garamond 12"
    font-weight="400"
    font-stretch="normal"
    units-per-em="2048"
    panose-1="2 2 5 2 6 2 6 2 4 3"
    ascent="1454"
    descent="-594"
    x-height="829"
    cap-height="1337"
    bbox="-594 -664 5120 2003"
    underline-thickness="102"
    underline-position="-307"
    unicode-range="U+0020-1F44D"
  />
<missing-glyph horiz-adv-x="1024" 
d="M102 0v969h820v-969h-820zM205 102h614v764h-614v-764z" />
    <glyph glyph-name="longs_longs_t" unicode="&#x17f;&#x17f;t" horiz-adv-x="1748" 
d="M553 1278h-10q-25 0 -50 -6t-57.5 -25.5t-57 -51t-43.5 -89t-22 -133.5v-832q5 -67 90 -92q15 -5 23.5 -9t16.5 -11.5t8 -16.5q0 -18 -48 -18q-41 0 -82.5 5t-76.5 5t-77 -5t-83 -5q-47 0 -47 18q0 21 47 37q39 11 63.5 31.5t24.5 58.5q6 170 6 285q0 35 -6 293
q-63 0 -106 4q-6 1 -13 12.5t-8 22.5t6 14q21 6 41 13.5t29.5 12t28 14.5t24.5 13q0 93 19.5 171.5t51.5 132t75 96t86.5 67t89.5 41t81 22t64 5.5q35 0 92 -14.5t94 -36.5q17 -10 25 0q65 72 140.5 106.5t144.5 34.5q62 0 122 -33t87 -67q31 -40 42 -85t11 -122l-6 -291
q0 -13 14 -21t35 -8h241q7 0 12 -15t5 -34t-5 -34t-12 -15h-210q-57 0 -69.5 -4t-12.5 -25v-473q0 -61 43.5 -108t99.5 -47q42 0 73 7.5t45.5 15.5t35.5 24q8 6 14 -4t6 -23q0 -6 -4 -14q-16 -28 -91 -63.5t-147 -35.5q-88 0 -153.5 57.5t-65.5 141.5v520q0 11 -2.5 17.5
t-9 9t-13 3t-19.5 0.5t-23 1q-10 2 -18 23t3 26q53 22 82 51q15 15 15 248q0 30 -1 67.5t-1 39.5q-9 184 -179 184q-97 0 -163 -97t-76 -292v-832q5 -67 90 -92q47 -16 47 -37q0 -18 -47 -18q-41 0 -83 5t-77 5t-77 -5t-83 -5q-47 0 -47 18q0 21 47 37q39 11 63.5 31.5
t24.5 58.5q7 182 7 267q0 146 -11 311q-63 0 -106 4q-6 1 -13 12.5t-8 22.5t6 14q21 6 41 13.5t29.5 12t28 14.5t24.5 13q3 201 66 344q4 11 -2 17q-19 25 -38.5 42.5t-65 34.5t-105.5 17z" />
    <glyph glyph-name="Q_y" unicode="Qy" horiz-adv-x="2547" 
d="M1667 -582q-111 0 -199.5 22.5t-142.5 52t-131 85.5q-13 9 -115.5 82t-177 127t-135.5 102q-31 25 -121 75t-115 56q-49 13 -105.5 46t-116 88.5t-107.5 124.5t-78.5 161t-30.5 189q0 201 93 367t261 263t377 97q109 0 214 -26t199.5 -79.5t166.5 -128.5t114 -179.5
t42 -225.5q0 -139 -41 -261t-104 -204.5t-141.5 -144t-151.5 -93t-136 -39.5q-29 -5 -29 -18q0 -9 9 -18q36 -39 96 -85t151.5 -109t110.5 -77q104 -75 210.5 -123.5t168.5 -48.5q28 0 57 14.5t43.5 27.5t24.5 24q38 47 99 168t104 237q6 18 6 47q0 39 -8 60l-238 600
q-34 83 -92 100q-47 16 -47 37q0 18 41 18q42 0 78 -5t71 -5t74.5 5t81.5 5q15 0 28 -5.5t13 -16.5q0 -14 -19.5 -27t-40.5 -18q-41 -11 -41 -66q0 -17 17 -57l162 -401q6 -15 11 -19t9.5 1t9.5 20l138 364q16 36 16 76q0 62 -41 78q-59 26 -59 49q0 11 13.5 16.5t27.5 5.5
t58 -5t87 -5q42 0 72 5t49 5q41 0 41 -18q0 -21 -47 -37q-31 -9 -66 -48.5t-55 -88.5l-279 -664q-1 -2 -14.5 -37t-33.5 -84t-45 -107.5t-56.5 -123.5t-61.5 -117q-23 -40 -83 -63t-140 -23zM784 1282q-110 0 -204.5 -47t-158.5 -124.5t-100 -178t-36 -207.5
q0 -132 46 -258.5t124 -224t190 -157.5t236 -60q90 0 169 39t135.5 103.5t97.5 147.5t61 172.5t20 176.5q0 117 -44 229t-120 198t-185 138.5t-231 52.5z" />
    <glyph glyph-name="longs_t" unicode="&#x17f;t" horiz-adv-x="1243" 
d="M330 139q0 -40 24 -59t64 -31q47 -16 47 -37q0 -18 -47 -18q-41 0 -83 5t-77 5t-77 -5t-83 -5q-47 0 -47 18q0 21 47 37q25 7 42 15.5t31.5 27.5t14.5 47v578q-63 0 -106 4q-6 1 -12.5 12.5t-7.5 22.5t6 14q21 6 39.5 13t28 12t26.5 14t26 14q1 114 22.5 209.5t57 162
t79.5 116.5t94.5 78.5t98.5 42.5t95 14q133 0 197.5 -83.5t64.5 -223.5l-6 -291q0 -13 14 -21t35 -8h242q16 0 16 -49t-16 -49h-211q-57 0 -69.5 -4t-12.5 -25v-473q0 -61 43.5 -108.5t99.5 -47.5q42 0 73.5 7.5t45 16t35.5 24.5q8 6 14 -4t6 -23q0 -6 -4 -14
q-16 -28 -90.5 -63.5t-146.5 -35.5q-88 0 -154 57.5t-66 141.5v520q0 11 -2.5 17.5t-9 9t-13 3t-19.5 0.5t-23 1q-10 2 -17.5 23t3.5 26q51 21 81 51q15 15 15 248q0 40 -1 66t-5 61t-11.5 57t-22 46t-34.5 37.5t-51 22.5t-70 9q-102 0 -167.5 -100t-65.5 -295v-834z" />
    <glyph glyph-name="q_uniA76B" unicode="q&#xa76b;" horiz-adv-x="1433" 
d="M915 279q0 -25 9 -29.5t34 10.5q4 2 45.5 25.5t69.5 42.5t55 43q36 33 63.5 89.5t27.5 119.5q0 53 -31.5 90t-81.5 37q-67 0 -129 -47t-62 -97v-284zM526 782q-118 0 -202 -96.5t-84 -265.5q0 -78 21.5 -142.5t55 -106t76 -70t84 -40.5t80.5 -12q115 0 176 47
q19 13 28.5 61t11 86.5t1.5 106.5q0 162 -2 213q-3 92 -74 155.5t-172 63.5zM1159 795q81 0 142 -46.5t61 -119.5q0 -80 -46.5 -162.5t-154.5 -144.5q-4 -2 -5.5 -5t0.5 -5.5t7 -2.5q96 0 165 -60.5t69 -150.5q0 -141 -84 -244.5t-219 -170.5q-60 -29 -82 -29q-13 0 -22 8
t-9 21q0 7 14 17.5t38.5 25.5t35.5 24q90 65 136 128.5t46 154.5q0 78 -42.5 137t-110.5 59q-57 0 -120 -36.5t-63 -65.5v-578q0 -13 6 -24t12 -17.5t21 -13t21.5 -9t25 -7.5t21.5 -6q47 -16 47 -37q0 -19 -41 -19q-42 0 -95 5.5t-89 5.5q-35 0 -79.5 -5.5t-86.5 -5.5
q-41 0 -41 19q0 21 47 37q55 16 70 31q18 18 18 46v441q0 61 -12 61q-9 0 -19 -10q-30 -27 -100.5 -48.5t-159.5 -21.5q-109 0 -200.5 44.5t-150 136t-58.5 213.5q0 216 140 349.5t366 133.5q62 0 124.5 -11t99.5 -22.5t38 -11.5q14 0 24 7t15.5 16t13.5 28q8 8 14 8
q10 0 21.5 -6.5t11.5 -13.5t-4.5 -30.5t-11 -58.5t-9.5 -65q111 107 244 107z" />
    <glyph glyph-name="u1F1EC_u1F1E7" unicode="&#x1f1ec;&#x1f1e7;" horiz-adv-x="2629" 
d="M236 603v216h971v431h216v-431h971v-216h-971v-431h-216v431h-971zM236 891v239l478 -239h-478zM236 292v239h478zM1135 172h-657l657 328v-328zM2153 172h-658v328zM2394 531v-239l-478 239h478zM2394 1130v-239h-478zM1495 1250h658l-658 -329v329zM478 1250h657v-329z
" />
    <glyph glyph-name="u1F1EB_u1F1F7" unicode="&#x1f1eb;&#x1f1f7;" horiz-adv-x="2340" 
d="M1046 1332v-498h-810v498h810zM2105 834h-810v498h810v-498zM1295 86v498h810v-498h-810zM1046 86h-810v498h810v-498z" />
    <glyph glyph-name="u1F1EA_u1F1F8" unicode="&#x1f1ea;&#x1f1f8;" horiz-adv-x="2441" 
d="M2144 1302h62v-160l-149 -88l70 -18l-114 -62l-75 16l-108 -58l74 -16l-115 -62l-72 17l-108 -58l73 -18l-116 -62l-70 19l-91 -49l114 -62l70 18l115 -62l-72 -17l108 -59l72 17l114 -62l-74 -16l109 -59l74 16l114 -62l-70 -18l127 -68v-149h-90l-156 85l21 -68
l-122 66l-20 68l-107 57l16 -65l-112 60l-20 67l-107 58l18 -66l-117 63l-19 67l-170 92l-170 -92l-19 -67l-117 -63l19 66l-108 -58l-20 -67l-112 -60l16 65l-106 -57l-21 -68l-122 -66l21 68l-155 -85h-91v149l127 68l-70 18l114 62l74 -16l109 59l-74 16l114 62l72 -17
l109 59l-73 17l115 62l70 -18l115 62l-92 49l-70 -19l-116 62l73 18l-108 58l-72 -17l-115 62l74 16l-108 58l-75 -16l-114 62l70 18l-149 88v160h62l208 -113l-21 68l122 -66l20 -67l107 -58l-17 65l113 -60l19 -68l108 -58l-18 66l116 -63l19 -66l147 -80l147 80l19 66
l116 63l-18 -66l108 58l20 68l112 60l-17 -65l107 58l20 67l122 66l-21 -68z" />
    <glyph glyph-name="u1F1E8_u1F1F3" unicode="&#x1f1e8;&#x1f1f3;" horiz-adv-x="2340" 
d="M934 854q0 -13 14 -21.5t43 -17t35 -11.5q-7 -5 -32 -13q18 -3 21 -3l28 1q2 0 2 -2q0 -1 -4 -5t-10.5 -8t-10.5 -4q-10 0 -18 4q13 -15 23 -15l16 2q1 0 1 -1q0 -2 -22 -17q-23 14 -35 24q-4 3 -11.5 10.5t-11.5 10.5t-13.5 6t-21.5 3q-17 0 -17 -9v-5q12 -5 26.5 -23
t17.5 -20q6 -18 6 -26l-4 -15h-1h-1q-3 4 -7 8l5 -2q-5 7 -18 11t-17 7q-16 9 -25 32h-1l-2 2q-1 1 -1 0q9 -16 14 -38t6 -35v-14q6 29 -11 73q10 -16 19 -21q8 -4 26 -12q1 -3 3 -15q-8 -4 -42 -30q0 1 -1 5t-1.5 5.5t-2 5.5t-2.5 5t-3 4.5t-4 3.5t-5.5 2t-6.5 0
q0 2 -2.5 2.5t-3.5 -1.5q-24 -45 -50 -64q-2 -1 -14 -8.5t-22.5 -16t-23.5 -22t-23 -34t-14 -44.5q-5 -31 7 -55t33 -35.5t38 -17t29 -6.5l68 5q5 1 2 5q-1 1 -3 1q-23 -3 -44 -4l2 2l2 -1v1q7 4 21 15q4 -10 5 -12h1q-1 2 -2.5 6.5t-2.5 6.5q6 5 5 6l-1 -1q-2 -1 -5 -4
q-6 16 -11 33l12 9q2 -29 27 -61q2 -2 4.5 0t0.5 4q-27 34 -27 61q4 3 17 12q8 -9 16 -29q22 -47 25 -50l3 -4q3 -4 7 -8.5t5 -6.5q-1 -1 -4 -3q-4 6 -15 20q-2 2 -10 10.5t-14 18t-9 22.5q-1 5 -5 1q-1 -1 -1 -3q4 -14 10 -24t15 -20l9 -9q23 -29 22 -43q0 -8 -2 -17
t-3 -12t0 -6q-3 1 -3.5 0.5t-6.5 -1.5t-14 -1q-13 0 -74 11q-5 1 -8.5 -4t-2.5 -15.5t9 -23.5q0 11 4 18q-6 4 -6 8q0 2 4 10q54 -10 74 -10q25 2 25 8q1 -1 2.5 1t3 6t2.5 9.5t1.5 11t0.5 11.5q2 1 4 5t3 5q2 -3 5.5 -8t4.5 -7l-2 -5q1 0 1 2t1 2l8 -10q-3 5 -7 11
q10 13 18 24l3 -3q0 2 -2 4q13 19 17 30q8 -12 8.5 -18.5t-2.5 -10t-12 -11.5t-16 -19q-22 -35 -15 -38q2 -1 4.5 3.5t6.5 14t9 17.5q4 6 18.5 20.5t15.5 20.5t-13.5 29t-14.5 26q-2 16 1 35q1 1 0 2q4 22 9 36l16 -26q-7 12 -15 27q0 2 -2.5 5.5t-2.5 4.5q1 3 2.5 12
t2.5 14q11 -20 27 -41l-3 -15q-2 -2 -7.5 -7t-9 -9t-1.5 -6t4 -1q4 4 39.5 40.5t64 64t67 53t63.5 25.5q49 1 90 -26t54 -50q11 -21 17 -29t9 -6q2 2 -22 40q3 0 11 2l5 -16h1q-2 6 -5 16q6 1 14.5 2.5t10.5 1.5q1 -2 13 -29q-3 0 -16 -5q0 1 -0.5 5t-1 6.5t-2.5 2.5
q-6 0 -2 -16l-5 -3q1 0 2.5 1t2.5 1q4 -14 13 -29.5t17 -24t10 -6.5t-4.5 11t-16.5 24t-13 27q12 4 17 5q3 -8 9 -22q-16 0 -16 -2q3 0 9 0.5t8 0.5q2 -5 6 -13q-3 0 -8 0.5t-8 0.5v-1v-1h16q7 -12 16 -19h-1h-3l-1 -1l1 -1h3q1 -4 22 -12q4 -2 5 -2q0 1 -9 7q4 -1 16 -4.5
t19 -5.5h-1l1 -1h5q17 -4 43.5 -9t30.5 -6t15 -3t18 -3.5t16.5 -5t16.5 -8t12 -11.5q7 -10 11 -18t5 -11v-3q-1 -5 -3 -3q0 -2 2.5 -2.5t3.5 1.5q0 19 -15 40q-2 10 -3 13q22 -6 25 -7q7 -13 5 -33l1 -1v1q2 9 -1 24q0 1 -1.5 4t-1.5 4l13 -5q0 2 -14 7q-5 11 -17 29l26 -1
v1q-13 1 -27 2q-2 4 -6 10.5t-6 9.5h2v1q-3 0 -7 6.5t-6 13.5l-3 6q1 -5 12 -26q-2 0 -11.5 0.5t-16.5 0.5q-2 3 -16 21q32 0 32 1l-1 1h-2h-4t-6.5 -0.5t-8.5 -0.5h-11q-1 1 -7 9t-9 13h6l1 1h-1h-7q-16 24 -19 29l41 -1v1q-19 1 -41 2l-9 11q1 -2 3.5 -5.5t3.5 -5.5
q-2 0 -7 0.5t-7 0.5l-1 -1h1q2 0 7 -1t8 -1q3 -5 19 -29q-17 0 -32 -1l-15 21q5 -8 13 -22q-17 0 -27 -1l-6 10q1 -4 5 -10q-5 -1 -15.5 -1.5t-16.5 -0.5l-3 2q0 -1 0.5 -1t0.5 -1q-5 -1 -16 -1.5t-16 -0.5q-10 18 -13 24h6q1 0 1 1t-1 1q-2 -1 -6 -1l-8 13q1 -2 3 -6.5
t3 -6.5q-13 0 -29 -4q-12 27 -13 29l20 6q-8 -1 -21 -4q-2 3 -4.5 8.5t-3.5 8.5q16 4 21 4q0 -1 1 -1q24 -32 27 -34l4.5 -4.5t5 -4.5t5 -4t6 -4t6.5 -3t7.5 -3t8.5 -1.5t11 -0.5q12 0 21.5 3t17.5 11.5t12 14.5t13.5 22t14.5 24q27 44 37 70q-9 -4 -50 -14l13 -24
q0 -3 -12 -3q-9 0 -18 6q-3 -12 -3 -18q0 -5 3.5 -10.5t7 -9t3.5 -4.5t-2 -1q-15 0 -35 10q12 -24 12 -41q0 -1 -2 -1q-1 0 -34 25q-1 -2 -1 -8q0 -2 0.5 -5t0.5 -4q0 -5 -2.5 -10.5t-4.5 -9t-3 -3.5q-2 0 -2 1v10q0 11 -2 17q-26 -13 -30 -13q-1 0 -1 1l1 2l2 4t2 5t1 5
q1 5 1 21l-30 -10h-1q-1 0 -1 2q0 1 6 17.5t7 19.5l-25 5q-4 0 -7 -1t-5 -2l-2 -1q-2 0 -2 1q0 5 8.5 16.5t8.5 15.5q0 3 -5 3t-18 -8l-14 -8q-6 0 -6 17q0 7 12 19q-14 2 -22 2q-5 0 -11.5 -1.5t-10.5 -3.5l-5 -1q-2 0 -2 4q0 17 19 27q-6 0 -18.5 -5t-22.5 -9.5t-11 -4.5
t-1 2l1 39h-4q-12 0 -23.5 -10.5t-14.5 -16.5l-2 1l2 41q-18 -4 -22 -11q-1 -1 -4.5 -10.5t-7 -15t-6.5 -5.5q-4 0 -6.5 14t-2.5 21q0 3 0.5 7t0.5 5q-17 -11 -21 -21l-15 -37q0 -1 -1 -1h-2q-7 10 -7 19q0 3 0.5 8t2 11t1.5 8q-21 -19 -21 -42l1 -10q0 -2 -2 -2l-1 1
q-8 9 -13 15q-3 4 -7 27q-18 -18 -18 -42q0 -4 0.5 -7t0.5 -5l1 -1q0 -1 -1 -1l-12 10q-2 2 -4.5 8.5t-5 12t-3.5 5.5q-4 0 -8 -12t-4 -24l2 -22v-1q0 -1 -1 -1h-1q-6 0 -15.5 7t-13.5 14h3q5 -10 25 -17q-2 8 -2 20t4.5 25.5t10.5 13.5q3 0 8.5 -13t6.5 -14q3 -2 7 -6
q0 1 -0.5 3.5t-0.5 4.5q0 9 5 20.5t10 19t7 7.5t2 -2q2 -24 6 -29q1 -2 3 -4t4.5 -4t3.5 -3q0 1 -0.5 2.5t-0.5 3.5q0 14 10 30.5t16 16.5q1 0 1 -1v-1q-5 -22 -5 -30q0 -7 6 -15l14 35q2 6 9 12t12 9t6 3t1 -1q-2 -10 -2 -16q0 -4 2.5 -17.5t3.5 -13.5q1 1 15 29q2 5 8.5 8
t12.5 4l5 1q2 0 2 -1l-2 -37q5 7 16 15t21 8q7 0 7 -2l-1 -38q36 18 57 18q1 0 1 -1l-6 -4q-6 -5 -12 -11.5t-6 -13.5v-1q18 6 26 6h3l23 -2q1 0 1 -2l-7 -8q-7 -7 -7 -12v-1q2 -10 3 -13q24 16 32 16q7 0 7 -6t-7 -18l-7 -11q9 3 11 3q5 0 12 -1.5t11.5 -3t4.5 -2.5
q0 -2 -2.5 -9t-6 -16.5t-3.5 -10.5l29 9q2 0 2 -2q0 -24 -6 -36q2 1 9 4t12.5 6t6.5 3t1 -1q3 -11 3 -19v-5q6 12 6 17q0 1 -0.5 4t-0.5 5l2 11h2q3 0 33 -24q0 14 -4 21l-10 20v1q0 1 2 1q1 0 15 -5.5t20 -6.5q-12 12 -12 22q0 21 5 21l3 -1q3 -2 7.5 -3.5t8.5 -1.5
q3 0 5.5 0.5t3.5 0.5l-13 23v1q0 2 27.5 8t27.5 14q0 3 -5 10t-6 11l-11 34v1q0 1 1 1l6 -3q5 -4 11.5 -7.5t9.5 -3.5l3 1l-3 8q-3 7 -3 12t1.5 14.5t2.5 16.5t2 7l7 -20q7 -19 12 -19l1 1v3q0 2 -0.5 9.5t-0.5 10.5q0 4 2 14.5t4 19.5l2 9q1 0 1 -2v-18v-12v-1q0 -16 4 -20
q1 2 3 21q1 5 4 13.5t6 15t4 6.5t1 -2q-6 -25 -6 -32v-2q0 -17 5 -17q1 1 1.5 5.5t1 11.5t1.5 12q2 6 7.5 16t10 17t5.5 7t1 -1l-3 -10q-2 -9 -4.5 -19.5t-2.5 -14.5q0 -12 4 -14q1 1 3 12.5t4 15.5q21 48 22 48t1 -1l-3 -11q-4 -10 -7 -22.5t-3 -17.5q0 -19 6 -28
q1 3 2.5 24.5t3.5 28.5l15 45h1q2 0 2 -1q-8 -24 -8 -58q0 -29 3 -35q2 4 5 30.5t4 31.5q15 48 18 48q1 0 1 -1l-5 -25q-4 -26 -4 -33q0 -23 2 -33q8 24 8 58l18 53q0 1 1 1t1 -2l-6 -24q-6 -23 -6 -29q0 -25 3 -33q2 7 6.5 40t11.5 48q2 5 7.5 11.5t9.5 11t5 4.5t1 -1
t-5.5 -15t-11 -32.5t-5.5 -29.5q0 -13 3 -19q5 8 11.5 39t7.5 36q2 7 7.5 17.5t10 18t5.5 7.5t1 -1l-4 -13q-4 -14 -8 -30.5t-4 -23.5q0 -14 1 -18q7 29 21 64.5t27 50.5h1q1 0 1 -1q-16 -48 -16 -70q0 -2 1 -4v-2q1 1 13 24t19 30q6 6 17 11t18.5 7t9.5 2v-1q0 -1 -5 -5
t-11.5 -9t-8.5 -7q-9 -8 -20 -36t-11 -42v-1q1 0 3.5 4t5.5 9.5t5 8.5q10 13 30.5 26.5t34.5 13.5q1 0 1 -1t-5.5 -5.5t-14 -11t-13.5 -11.5q-37 -37 -37 -62q1 0 7 6.5t9 8.5q4 3 12.5 7t11.5 6t7 6.5t7 7.5l3 3q1 0 1 -1q0 -18 -31.5 -40.5t-31.5 -40.5v-2q2 0 9.5 6.5
t17 14.5t14.5 11q13 7 39 7h2q1 0 1 -1l-7 -4q-7 -4 -16 -9t-12 -7t-8 -8t-12 -13.5t-11 -11.5q-3 -3 -11 -10.5t-13 -12t-5 -6.5q0 -3 3 -3q8 0 25.5 9.5t32 19t15.5 9.5t1 -1q0 -2 -7 -9t-23 -19t-36 -21q-31 -15 -60 -15h-8h-3q0 -5 13 -5h2h2q5 0 18.5 -2t17.5 -2h1
l40 8q1 0 1 -1v-1q-14 -8 -32 -15q-23 -9 -63 -9h-1q-5 0 -22 3t-19 3q-24 0 -24 -6q0 -2 25 -7.5t33 -5.5l56 6q1 0 1 -1t-12 -4t-28 -6.5t-25 -3.5h-1q-9 0 -32.5 2.5t-27.5 2.5h-1q2 -10 77 -10q1 0 1 -2q0 -1 -1 -1q-45 -4 -62 -4q-24 0 -49 5q11 -8 34 -8h18q1 0 1 -1
v-1q-15 -6 -32 -6h-2q-7 0 -20 4.5t-21 4.5q-14 0 -22.5 -9t-11.5 -19.5t-7 -27.5t-6 -24q-3 -9 -11 -26t-14 -29.5t-6 -15.5q6 3 13 3q11 0 21.5 -11t16 -21t8.5 -18q1 9 5 16t9 13.5t7 9.5h1q1 0 2.5 -3t3 -8t1.5 -9l23 17q1 0 1 -1q-3 -16 -3 -24q0 -2 -1 -5v-4q6 6 10 6
q3 0 3 -5q0 -10 -3 -17t-6.5 -10t-12.5 -10q0 -6 -1.5 -19t-1.5 -16q0 -7 2 -7h1q4 0 30.5 22t30.5 22h1q5 -1 11.5 -7t6.5 -12q0 -1 -4 -5q11 -40 -7 -42q-7 -3 -8 0l1 1h-2q14 9 1 29q-49 -34 -49 -36q0 -4 13.5 -17.5t13.5 -21.5q0 -10 -6 -19q5 -2 22 0q9 0 9 -1
q-3 -5 -9.5 -10.5t-14.5 -8.5t-15.5 0.5t-11.5 16.5q-2 4 -5 15.5t-6.5 18.5t-9.5 7h-1q-1 -1 -1.5 -11t-1 -21t-1.5 -14q-1 -5 -7 -11q14 -16 22 -17q1 0 1 -1t-1 -1q-16 -7 -33 -2t-14 25q1 6 6 18.5t5 21.5q0 4 -1 4t-3 -2t-5 -4.5t-5 -3.5q-1 -1 -9.5 -9t-12.5 -11
q-2 -8 -1 -17t2.5 -12t-0.5 -4q-26 9 -32 33q-3 15 9 18q4 4 16 7l12 3q4 2 10.5 10.5t6.5 11.5h-3q-3 0 -16.5 -1.5t-18.5 -1.5q-6 0 -11 -4t-8 -5q-2 -2 -23 -34q-4 -4 -4 -3q-8 28 -4.5 41.5t9 18.5t7.5 4q6 4 25 4h27h6h6h4.5t4 0.5l3 1t2 2t0.5 3.5q0 19 -24.5 32.5
t-48.5 16.5q-42 4 -65 15q-24 12 -89 12q-8 0 -9.5 -5t-3.5 -6t-15 -2t-17 -3t-25 -33q24 -3 26 -13v-1q0 -1 -1 -1l-4 1h-8q-6 0 -6 -2q0 -3 2 -8t4 -9l1 -4q0 -1 -1 -1h-1q-9 10 -16 10q-3 0 -8.5 -4t-9.5 -8l-4 -4q-1 0 -1 2q0 9 -1 13t-2.5 5.5t-7 4.5t-11.5 8h-9
q-41 0 -41 -6q0 -7 14 -24q3 -4 17 -11.5t14 -12.5q0 -10 -10 -15v-1q0 -1 -4 -2.5t-11.5 -3.5t-15.5 -2q-24 0 -24 8q0 1 6.5 2.5t15.5 4.5t14 7v3q0 1 -3 1.5t-9 2l-10 2.5q-9 2 -14 18.5t-13 16.5q-3 0 -11.5 -4t-17.5 -8.5t-10 -5.5q-12 -4 -18 -4q-24 -7 -24 -27v-3
q0 -1 -1 -1h-1q-17 14 -17 32q0 11 12 16v2q0 4 5 5.5t14.5 2.5t15.5 3q20 6 20 15q-4 2 -20 2q-4 0 -12.5 -0.5t-11.5 -0.5q-15 0 -20 7q-5 -3 -5 -10t1 -15q0 -1 -1 -1h-1q-12 13 -12 30q0 23 14 23q3 0 5 -2q4 4 6 4q7 0 24.5 -7.5t28.5 -7.5q9 0 11 1q-2 3 -20 18
t-22 20q-8 4 -15 4q-3 0 -6.5 -3t-5.5 -3q-1 0 -1 2q2 17 12.5 27t19.5 10q5 0 9 -9q5 -2 28.5 -26.5t25.5 -26.5q2 6 2 46q-6 19 -21 19h-1q-1 0 -1 1v1q0 2 7.5 4t15.5 3h7q15 0 15 -52q0 -7 -1 -15.5t-2.5 -14t-1.5 -6.5h1l5 1q5 1 9 1q6 0 23 10.5t18 14.5q6 43 15 54
q6 7 21 14.5t16 9.5q-6 6 -14 17q-17 23 -51.5 42.5t-78.5 21.5h-1q-18 0 -45.5 -16.5t-56 -43t-51.5 -49.5t-44 -46l-21 -23q-5 -5 -13 -10.5t-11.5 -8.5t-3.5 -7q0 -9 15 -30q3 2 8.5 8t10 11.5t5.5 5.5t1 -1q-1 -7 -1 -15q0 -3 1 -8v-2q7 7 14 7q4 0 10 -4t10.5 -7.5
t4.5 -4.5v-1q-17 -9 -17 -14v-19q0 -1 -1 -1q-16 0 -31 4q-5 -5 -18 -12l-14 -7q-5 -4 -15.5 -20.5t-10.5 -20.5q2 -2 27 -2h14q4 0 11 5.5t12 5.5t8.5 -5t3.5 -10q0 -1 -0.5 -1t-0.5 -1q5 -15 5 -21q0 -10 -8.5 -19t-16.5 -9q-1 0 -1 1l1 1q10 9 10 25q0 1 -2 7
q-3 -3 -6 -3q-2 0 -5 5t-7 5q-3 0 -12 -6t-13 -7q-34 0 -37 -1q-2 -1 -9.5 -11t-17 -22.5t-14.5 -17.5q4 -14 16 -27v-1q0 -2 -1 -2q-18 0 -35 7q-10 4 -10 19q0 3 1 6.5t1 4.5t-0.5 2t-0.5 2q0 4 5 9.5t11 10.5t7 6l-1 1q-1 0 -3.5 -0.5t-4.5 -0.5h-2q-8 0 -23 -15
q-13 -16 -13 -19v-3q0 -1 -1 -1h-1q-14 14 -14 29q0 21 17 21h1q4 2 14.5 3.5t17.5 4t7 8.5q0 3 -8 7t-16 4q-5 0 -10 -1.5t-9 -4t-5 -2.5q-5 0 -9 3q-4 -10 -4 -15q0 -1 0.5 -3t0.5 -3v-1q0 -1 -1 -1l-1 1q-13 20 -13 33q0 18 14 18q2 0 6 -2q6 4 10 4q6 0 21.5 -4.5
t16.5 -4.5q-2 2 -14.5 11t-22.5 17t-10 11v1l1 1h-1q-5 0 -12 -10l-8 -10h-1q-2 0 -2 14q0 25 25 25q8 0 13 -5l1 1q2 0 6.5 -4t10.5 -10t11 -9q39 -27 42 -27q4 0 4 9q0 17 -10 34.5t-20 24.5q-1 -1 -9.5 -3.5t-28 -5.5t-40.5 -3q-16 0 -30.5 2t-24.5 5.5t-17.5 6.5
t-11.5 5t-5 2q-3 0 -23.5 1.5t-22.5 1.5l-2 -1q-2 -2 -6.5 -4.5t-10.5 -4.5q17 -11 17 -21q0 -1 -2 -1q-3 1 -7 1q-2 0 -4.5 -0.5t-3.5 -0.5q-4 0 -7 3v-5q0 -10 -3.5 -19.5t-6.5 -9.5q-2 0 -2 1q0 2 -7 13.5t-8 13.5q-4 -8 -14 -8q-4 0 -4 25q0 12 2 14q-5 3 -11.5 10.5
t-8.5 9.5q-6 5 -16 21l-11 17q-3 -2 -8.5 -12t-6.5 -17v-1q0 -6 5 -17t5 -13q0 -3 -3 -3h-1l-2 1q-5 -21 -33 -21q-15 0 -15 7l2 1q3 0 7 1.5t8.5 3.5t8.5 6.5t6 9.5q-11 9 -11 17v10q0 5 -0.5 13.5t-0.5 10.5v2q0 2 -4 6.5t-8 4.5t-15.5 -0.5t-13.5 -0.5q-4 0 -13 8.5
t-11 9.5q-3 2 -14.5 5t-14.5 4h-3l-15 -18h-1q-1 0 -2 3l-2.5 7.5t-1.5 8.5q0 8 6.5 18t16.5 10q4 0 6 -1q1 1 2 1q7 0 27 -11.5t31 -11.5q2 0 4 1h3q-1 2 -13 13.5t-14 13.5q-16 27 -16 38q0 1 2 3l-21 4q-1 0 -1 1q7 17 20 17q21 0 31 -22v-1q0 -10 8 -18.5t16 -8.5h1v2
q0 2 -0.5 14t-0.5 19q0 14 2 20l-18 12v1q6 13 16 13q9 0 19.5 -7t11.5 -18l-1 -2q-1 -3 -1 -4q0 -7 -1 -22t-1 -23q0 -12 2 -12t4.5 4t5.5 9.5t5 7.5q1 1 7.5 12t13 20t8.5 9q2 3 2 10q0 4 -1 8.5t-3 6.5l-1 3q0 1 1 1q26 -8 26 -28q0 -13 -4 -23q0 -1 0.5 -1t0.5 -1
q0 -3 -4.5 -8.5t-12 -13.5t-10.5 -12l-28 -35q6 -1 10 -14q2 0 36 -11t39 -12q0 20 10 30q7 7 28 12q0 -1 1 -3v-3q-20 -10 -28 -27.5t-11 -19.5l-2 1q0 -1 0.5 -1t0.5 -1l-1 -1q-1 0 -10.5 5t-20.5 10.5t-23.5 11t-20 7t-9.5 -1.5q-1 -1 0 -2.5t4 -2.5l6 -2t9.5 -3t11.5 -4
q0 -5 -1.5 -12t-2.5 -12v-4l6 28q9 -3 20 -8q-1 -2 -3 -4.5t-6.5 -8.5t-7 -10t-1.5 -4l4 5q3 6 7.5 12.5t6.5 8.5h1q2 -1 10.5 -6t12.5 -7q-9 -6 -10 -7l-8 15q3 -6 7 -16l-3 -2q-2 -2 -5 -4l-6 -4t-5 -4l-1 -2l5 4q5 3 10 7l6 4q4 -8 9 -17.5t6 -10.5l-18 -10q3 1 6 2.5
t6.5 3.5t5.5 3q8 -13 10 -12v1h-1q-1 0 -8 12q10 6 18 12q2 -4 4 -6.5t3.5 -5t2.5 -3.5l-12 -11q3 2 7.5 6t5.5 4l4 -3l1 1h-1l-3 3q12 9 23 23l19 -25q-2 8 -18 26l4 6q6 -12 12 -20t10.5 -11t6.5 -1q1 1 -6.5 9.5t-18 30t-13.5 51.5q6 3 2 6q-1 1 -3 1q0 10 -4 10
q-3 0 -3 -6v2q0 11 2 22q2 17 30 46.5t67 52.5q55 33 55 61q0 1 -0.5 5t-0.5 6q-5 -26 -9 -26h-1q-1 0 -10.5 7.5t-14.5 7.5q-2 0 -2 -4l1 -12q0 -1 -1 -1q-14 0 -20 20q-1 -7 -3 -12l-6 -8l-1 -1q-5 0 -12 8t-10 14q-9 -23 -13 -23h-1q-4 0 -8.5 8.5t-4.5 15.5
q-1 -4 -8 -8.5t-11 -4.5q-1 0 -1 1q0 4 -1 16.5t-1 17.5q-18 -21 -31 -21q-1 0 -1 2v1q12 12 12 18q0 2 -3 17q-8 -21 -16 -21h-1l-4 9q-5 8 -5 13v4q-13 -13 -32 -13h-10q-1 0 -1 1t2.5 2.5t6 3.5t5.5 3q1 1 5 12q-21 -7 -25 -7q-5 0 -12.5 2.5t-7.5 4.5l2 2q15 6 15 21
q0 3 -0.5 8t-0.5 7v2q0 24 9 24h1q7 -12 9.5 -14t13.5 -2q3 0 13.5 2.5t25.5 2.5h3q20 0 48 -22q-13 22 -39 32q-7 2 -26.5 2t-32 3t-12.5 13v1q1 8 49 10h2q25 0 67 -15q5 -2 12 -7.5t18.5 -16t15.5 -14.5v5q0 16 -13 30t-31 24l-18 10q-23 19 -23 35v6q0 4 -6 4h-5h-1
q-20 -36 -63 -38q-27 -1 -53 14t-45 15q-21 0 -58.5 -14t-59.5 -15q-13 -1 -22 0t-15 3t-9 3.5t-7.5 5t-5.5 4.5q-5 4 -9.5 10t-6.5 11l-3 4q40 -28 79 -29q9 0 58 19.5t61 19.5q10 0 43 -10.5t51 -10.5q20 0 29 9.5t10 19.5q-1 0 -3 1q-6 1 -7 3q0 4 14 14t14 12
q0 3 -6.5 7.5t-6.5 6.5q0 3 5.5 9t11.5 8q4 2 8.5 3t7 1.5t2.5 1.5t-6 8t-7 10q0 4 18 4h9q4 0 4.5 1.5t0.5 11.5q0 4 -3 9.5t-6 8.5l-3 4v1q0 1 1 1h1q16 -4 22 -13q3 -4 5.5 -10.5t3.5 -7.5l2 1q2 0 7.5 6t6.5 10q1 9 -16 24q-43 38 -48 44q-25 29 -24 75q1 70 -48 115
q-2 2 1 2q69 -8 69 -112q0 -20 8 -37t15 -24.5t21.5 -18.5t15.5 -12q40 -33 39 -59q-1 -12 -12 -32.5t-12 -23.5v-3v-1v-3q0 -6 16 -32.5t23 -34.5q2 -8 10 -12q4 -2 8 -2t6 1l3 1q-4 3 1 19q6 1 14 5.5t10 4.5t3.5 -3.5t4 -8.5l4.5 -9q-10 4 -12.5 3.5t-13.5 -8.5
q-4 -2 0 -6q2 -1 3 0q12 8 14.5 8t10.5 -7q2 -1 3.5 -0.5t1.5 2.5q16 -11 23 -11q-8 -10 -10 -12q-1 0 -4 -0.5t-7 -1.5t-7 -3q-22 9 -31 3q-3 -2 0 -5q2 -1 4 0q6 4 23 -3q0 -1 -1 -2.5t-2 -2.5q-1 1 -4 1.5t-6.5 1.5t-5.5 0t-2 -4q0 -2 3 -2.5t7 -1t5 -1.5q-4 -5 0 -7
q2 -1 5 3l3 -5q2 -4 4 0t-3 10q12 11 42 -26q-8 0 -22 -4t-20 -4q-3 0 -9 2q-15 2 -14 -1l1 -2q13 -17 16 -25q1 -3 0.5 -9t1.5 -9q-7 -1 -23 1.5t-28.5 5t-12.5 0.5q0 -1 2 -7.5t4.5 -15.5t2.5 -16q0 -5 -1 -14.5t-1 -11.5q-5 3 -18 7.5t-23 9t-14 7.5t-7.5 8.5t-17.5 16.5
q-27 21 -55 21q-3 0 -12.5 -1t-12.5 0t-7 5t-7.5 7t-5.5 1q-3 -3 4 -10t14 -9q2 -1 14 0t13 1q25 0 51 -20q13 -10 16 -15t9 -10t31.5 -16t30.5 -11q7 5 4 31t-6 36q35 -8 66 -8q5 2 -4 11q-1 1 -1 6t-2 11q-3 7 -11 19q10 -2 30.5 2t29.5 3t-8 18q-6 7 -17.5 15t-17.5 9
q2 1 8.5 2.5t9.5 3.5q13 11 15 21q1 4 -3 3t-6 -1t-5 1t-4 1.5t-4.5 3.5t-5.5 4q-2 2 -8.5 15.5t-13.5 14.5q-2 1 -25 -8q-2 6 -9 9q1 3 1 7l1 26q0 2 2 2v-1q7 -6 11 -11q3 -4 6 -18q3 3 14 3q16 0 34.5 -26.5t24.5 -26.5q9 0 19 15t10 22l-7 26q0 1 2 1q1 0 6 -5
t9.5 -12.5t4.5 -12.5t-3 -11q12 4 14 25q0 1 2 1q3 0 3 -19q0 -6 -13 -22q10 4 16 4q5 0 12 -2t12 -4t5 -3q0 -3 -11 -8.5t-18 -6.5q12 -7 33 -7l11 1q1 0 1 -1q0 -5 -17 -22q-8 3 -19.5 7.5t-24 9.5t-16.5 7q-9 3 -12 3q-12 0 -12 -12v-4zM1354 458q-1 -1 -3.5 -5t-4.5 -6
q-2 3 -8 9q5 2 11 8q1 -1 2.5 -3t2.5 -3zM1355 459l-5 5q2 2 6 10q1 -1 3.5 -2.5t3.5 -2.5q-4 -4 -8 -10zM1356 459q2 3 8 9q14 -9 21 -15l-12 -9q-10 8 -17 15zM1382 493q-3 -3 -9 -11l-9 -12q-1 1 -3.5 2.5t-3.5 2.5q8 18 10 29q5 -3 15 -11zM1383 492q8 -7 21 -20
q-8 -9 -18 -18q-3 2 -9.5 7t-11.5 8q3 4 9 11.5t9 11.5zM1417 457q-3 -3 -7 -8t-7 -7q-5 3 -16 11q11 9 18 18q2 -2 3.5 -4t3 -3.5t2.5 -3t2 -2.5zM1432 474q-8 -10 -14 -16q0 1 -2 3l-5 5t-5 6q2 2 5.5 6.5t5.5 6.5q2 -2 15 -11zM1398 510q3 -5 19 -24q-1 -2 -5.5 -6.5
l-6.5 -6.5q-13 13 -21 20q10 12 14 17zM1318 449q15 5 19 7q4 -4 8 -10q-1 -2 -3.5 -4.5t-3.5 -4.5q-4 0 -20 12zM1383 536q9 -18 14 -25q-1 -1 -6 -7t-8 -10q-3 4 -16 11q4 25 16 31zM1373 442q20 -19 22 -17l-3 2q-2 2 -7.5 6.5t-10.5 9.5l12 9q4 -3 8 -5.5t6 -4.5l2 -1
l-8 -9q13 11 39 41l1 1l14 18q-8 -9 -15 -17q-12 8 -15 11l-1 1q-12 14 -18 24l-1 1q-4 7 -14 25q1 0 6.5 1.5t10.5 3t6 3.5q4 -14 16 -27.5t22 -19.5l10 -7q3 -1 4.5 2t-1.5 4q-9 5 -16.5 10.5t-12 11t-8 11t-5 9.5t-3 7.5t-2.5 5t-2 1.5q-3 0 -3 -4h-2q-23 -4 -33.5 -16
t-11 -25t-6 -27t-20.5 -20q-8 -3 -18.5 -6t-15 -5t-4.5 -4q1 -5 21 2q12 -9 21 -12q-1 -1 0 -1l3 2v1q4 4 6 7l1 1q2 2 4.5 6t3.5 6q3 -2 8.5 -7.5t8.5 -7.5l-9 -8q2 1 5.5 4t4.5 3zM1295 352q16 -9 42 0q-9 0 -11 12q-10 -8 -31 -12zM1213 391q-23 0 -23 12q-10 -5 -10 -17
t13 -24q0 19 25 29h-5zM874 372q-12 12 -29 -1q-8 -7 -5 -26q13 20 22 17q1 1 3 3.5t3 3.5l1 -1q10 -12 27.5 -24.5t29.5 -19.5l13 -7q4 -2 4 3q0 2 -1 3q-47 25 -68 49zM1010 514v7q0 -1 1 -2.5t2 -2.5q-3 0 -3 -2zM901 240q-3 -3 1 -5q2 -1 4 1q18 16 42 43q10 13 4 21
q-2 3 -5 1q2 3 -2 5q-2 1 -3 -1q-14 -19 -31.5 -26t-27 -7.5t-9.5 -3.5t4 -3q32 4 44.5 11t24.5 24l1 -6q0 -5 -5 -10q-13 -17 -42 -44zM616 597q6 -3 16 -19q8 32 -17 44q7 -14 1 -25zM527 610q14 -9 18 -11q10 4 21 4q1 0 2 -1q-6 18 -27 18q-7 0 -14 -10zM461 521
q-16 3 -22 -12.5t1 -27.5l13 16h1h2v1l-1 2q0 2 2 10q23 -6 33 -12.5t16 -7.5l46 -2q3 0 3 4q0 3 -3 3q-34 0 -46 1q-3 0 -6 3t-13 7.5t-28 9.5q0 1 0.5 2.5t1.5 2.5zM701 447l13 -13q-12 -14 -23 -23l-10 15q15 13 20 21zM679 469l2 -2q-1 0 -2 -1v3zM680 470q5 16 25 26
q4 -33 15 -55q-1 -1 -5 -7q-2 2 -6 6.5t-7 7.5q3 4 4.5 7t2.5 4.5t0 1.5t-8 -12l-18 18q16 10 17 10h1q0 1 -1 1t-5.5 -2.5t-12.5 -7.5zM668 447l5.5 -11t5.5 -10q-10 -8 -17 -12q-1 2 -15 28q2 2 6 4t5 3q6 -3 10 -2zM664 454zM669 448q4 2 7 9t6 9l18 -18q-5 -8 -20 -21
q-6 11 -11 21zM666 453l-1 2l2 2t2 1q-2 -5 -3 -5zM1627 498h39q3 -4 8.5 -10.5t7.5 -9.5q-10 1 -19 2.5t-26 2.5q-1 2 -2.5 4t-4 5.5t-3.5 5.5zM1594 500q6 0 15.5 -1t16.5 -1q1 -2 3.5 -5.5t4 -5.5t2.5 -4h-30q-10 13 -12 17zM1561 500h32q6 -9 12 -17h-28q-13 13 -16 17z
M1668 498q7 0 16.5 -0.5t11.5 -0.5q2 -3 5.5 -10t5.5 -10q-16 0 -23 1q-2 3 -7.5 9.5t-8.5 10.5zM1559 500q8 -12 16 -17h-5q-6 1 -19.5 4t-20.5 5l-4 8h33zM1614 520h35q3 -4 8.5 -11t7.5 -10q-6 0 -18.5 0.5t-19.5 0.5h-1q-2 2 -5.5 9t-6.5 11zM1582 520h30q3 -4 7.5 -11
t5.5 -9q-7 0 -16.5 0.5t-15.5 0.5q-1 2 -11 19zM1548 520h32q4 -7 12 -19h-32q-4 5 -12 19zM1514 520h32q8 -14 12 -19h-33q-3 5 -11 19zM1647 468q-1 1 -4 6t-5 8q16 -1 25 -2.5t20 -2.5q13 -15 16 -23q-2 0 -5.5 1t-4.5 1v-1q4 -1 10 -3q2 -6 3 -10q-14 17 -55 26z
M1613 521q-4 6 -12 20q30 2 32 2q5 -8 15 -22h-35zM1646 468q-3 0 -9.5 1.5t-9 2t-7 2t-7.5 3.5t-6 5h29q2 -3 5.5 -8t4.5 -6zM1581 521q-6 12 -9 19q10 1 27 1q2 -3 13 -20h-31zM1577 481v1v-1zM1578 481l1 1h27q2 -3 6 -7q-4 1 -15.5 2.5t-18.5 3.5zM1547 521q-3 5 -9 17
q6 0 16.5 0.5t15.5 1.5q2 -4 5.5 -10.5t4.5 -8.5h-33zM1513 521q-2 2 -4.5 7t-3.5 8q5 0 16 0.5t16 1.5q6 -12 9 -17h-33zM1470 535q-6 14 -10 22q17 4 30 4q2 -6 13 -24q-5 -1 -16 -1.5t-17 -0.5zM1470 534q6 0 17 0.5t16 1.5l9 -15h-36q-4 8 -6 13zM1403 624
q-1 1 -5.5 9.5t-7.5 13.5l18 11q3 -5 8 -13t7 -13q-10 -5 -20 -8zM1403 623q15 5 21 8l12 -24q-2 0 -23 -5q-1 3 -4.5 10zM1420 584q-1 2 -2.5 8t-3.5 9q21 5 23 5q2 -3 4.5 -9t3.5 -9q-2 0 -11 -1.5t-14 -2.5zM1836 801l-1 -1q-11 -5 -90 -26q-1 0 -8.5 -2t-11.5 -3.5
t-12 -5.5t-14 -9.5t-13.5 -14t-13 -20.5t-10.5 -27q-1 -3 2 -3.5t4 2.5q7 25 19 42l16 -19h1l-16 20q17 24 47 31q1 -1 1 -3t1 -3q-6 -1 -26 -4v-1h1h3q1 -3 3 -8.5t2 -7.5h-28v-1q14 -2 28 0h1q16 2 23 4q1 -2 3 -5l2 -4l1 -1q-42 -9 -55 -36q0 1 -1 1.5t-3 3.5t-4 5l-4 4
l-3 3l-2 1l2 -3q2 -2 7 -6.5t8 -9.5q-2 -4 -3.5 -9.5t-3 -6.5t-7 -2.5t-17.5 -2.5l-7 8q1 -1 2.5 -4t2.5 -4h-12q3 -1 13 -1h1q6 0 11.5 1t8 1.5t3.5 0.5q-1 -3 -4.5 -11.5t-5.5 -13.5q-14 -7 -28 -9l-9 7l7 -7q-4 -1 -14 -1l-1 -1l1 -1q5 0 15 2q9 -9 18 -21q0 -2 -1 -5
t-2 -5q-20 0 -34 -2l-7 9l6 -9q-16 0 -16 -3l1 -1q6 1 16 3l12 -16t9.5 -12t4.5 -3l-3 4q-4 4 -10.5 12t-11.5 15q13 2 32 2q-10 -30 -7 -31q2 -1 11.5 25t21.5 58t19 42h1q12 4 21.5 6t18 1.5t12.5 -1.5t14 -5t14 -5h2q1 2 -1 3q-23 7 -34 10q-18 5 -45 -5q13 13 35 18
q13 -1 25.5 -5.5t16.5 -4.5l54 -3q0 2 -1 2q-5 3 -14 5q-1 2 -19.5 0.5t-19.5 -1.5q-3 0 -13 3.5t-19 5.5q118 23 146 82q5 11 8.5 30t3.5 30t-1 14q-2 1 -4 -1.5t-7 -12t-10 -17.5q-9 -14 -26 -29t-29 -21zM238 122h1865v1242h-1865v-1242zM1816 780q0 1 -2 2.5t-2 2.5
q18 5 28 10l9 -9q-16 -4 -21 -4q-2 0 -12 -2zM1792 773l-3 6q3 1 11 3t11 3q1 -1 2 -2.5t2 -2.5q-3 -1 -10.5 -3t-12.5 -4zM1793 772q5 2 12.5 4t10.5 3q2 -4 6 -9t5 -6q-4 -1 -12.5 -3t-12.5 -3q-1 1 -4 6t-5 8zM1767 766q-1 1 -1 3.5t-1 3.5q14 4 22 6q1 -1 2.5 -3t1.5 -3
q-1 0 -10 -3t-14 -4zM1800 758q-1 0 -27 -8q-2 8 -5 15q5 1 14 4t10 3q2 -3 4.5 -8t3.5 -6zM1736 765q5 1 12.5 3.5t15.5 4.5q0 -1 1 -3.5t1 -3.5q-4 -1 -13.5 -3.5t-14.5 -3.5q0 1 -1 3t-1 3zM1738 758q6 1 15.5 3.5t13.5 3.5q2 -6 5 -16q-9 -3 -27 -7q-6 11 -7 16z
M1716 754q3 1 10 2.5t11 1.5q1 -5 7 -16q-7 -2 -23 -4q-1 2 -2.5 7.5t-2.5 8.5zM1827 763q2 -3 3.5 -3t-1.5 4l22 6q-10 -2 -23 -5q-1 1 -4.5 5.5t-6.5 8.5q10 2 11 2q4 0 22 4l9 -9q-3 4 -8 9q31 8 31 10l-4 -1q-4 -1 -12 -3.5t-15 -4.5l-10 10q3 2 6.5 5t4.5 4
q3 1 11.5 1.5t12.5 0.5q8 -5 9 -6l-7 6l13 1l-1 1q-6 0 -13 -1q-2 1 -6 3.5t-6 3.5q8 6 12 10q8 0 14 1.5t8.5 3t1.5 2.5l-2 -1q-2 -1 -7.5 -3t-13.5 -2q13 12 29 39q-5 -40 -11 -54q-27 -58 -144 -79l-1 1q-1 1 -2.5 3t-2.5 5q18 4 27 7l3 -6q0 3 -2 7q2 1 12 3.5t15 4.5
l3 -6l2 -2q2 1 0 3q-1 1 -4 5q4 1 12.5 3t12.5 3zM1854 806q6 4 10 8q8 -4 11 -6q-3 0 -10.5 -0.5t-10.5 -1.5zM1666 620q-9 12 -16 20q10 2 26 8q-1 -5 -4.5 -14.5t-5.5 -13.5zM1874 772h-2q-1 -2 1 -3q6 -2 14 -1.5t17.5 2.5t17 4t12.5 4t5 3t-2 1q-5 -2 -13 -4t-27 -6
t-23 0zM1823 744h-2q-1 -2 1 -3q20 -11 43 -9l44 6q1 1 -1 3q-59 -9 -85 3zM851 883q-3 -1 -1.5 -4t4.5 -2q10 4 13.5 3.5t7 -3t5.5 -2.5q3 0 3 3q0 2 -3.5 5t-10.5 4.5t-18 -4.5zM575 518q-3 -3 0 -5q2 -2 4 0q18 14 31 30t17 26t1 11q-2 1 -4 -2.5t-6 -10t-9 -14t-14 -17
t-20 -18.5zM561 593q1 3 -2 3.5t-4 -2.5q-3 -22 -2 -39t3 -28l3 -11q1 -5 5 -2q1 1 1 3q-1 4 -2.5 11t-3.5 27.5t2 37.5zM581 476q0 5 -4 2l-2 -3q1 -12 -1 -20t-5 -14t-4 -10q-1 -6 1.5 -13t6 -10t5.5 -1t-0.5 5t-5 8t-1.5 10q0 2 3.5 8.5t5.5 15.5t1 22zM1900 791
q-1 -1 1 -3q12 3 23.5 12.5t17.5 18t5 9.5t-7.5 -6.5t-17.5 -17.5t-22 -13zM1905 882q1 0 2.5 11t13.5 37t37 55q1 1 0.5 2t-2.5 0q-3 -3 -14 -17.5t-24.5 -40.5t-14.5 -45q0 -2 2 -2zM1876 855q2 0 1.5 10.5t6.5 42t26 71.5v2l-3 -1q-4 -8 -9.5 -22t-15 -47t-8.5 -55
q0 -1 2 -1zM1853 826q1 0 1 1q0 27 6 58t10.5 48t3.5 17q-2 0 -2 -1q-21 -61 -21 -122q0 -1 2 -1zM1828 819q1 -1 3 0q-2 20 4 49.5t11.5 49t4.5 19.5q-2 1 -8 -18.5t-11.5 -49t-3.5 -50.5zM732 931q0 8 -7 8q-8 0 -8 -8t8 -8q7 0 7 8zM838 910q0 -11 -10 -11t-10 11t10 11
t10 -11zM835 852q0 -11 -10 -11t-10 11q0 12 10 12t10 -12zM754 863q4 -1 5 3q0 1 -2 2q-24 10 -35 25q-3 4 -8 15.5t-6 23.5t8 14q3 1 2.5 4t-3.5 3q-11 -2 -12 -16t4 -28t10 -20q15 -18 37 -26zM782 874q0 -5 4 -3q2 0 2 2q1 8 5.5 13t8.5 6h4q3 0 3 3t-3 3q-2 0 -6 -0.5
t-10.5 -6.5t-7.5 -17zM760 882q-1 -3 2 -3.5t4 2.5q1 7 5.5 12.5t9 7.5t8 4t2.5 4q-2 2 -8 1t-13.5 -9t-9.5 -19zM743 900q-2 -3 2 -5q2 -1 3 1q7 9 16 14t13.5 7t4.5 4q-2 2 -7 2t-15 -6.5t-17 -16.5zM1037 297q5 1 2 5q-1 1 -3 1q-13 -2 -30 -0.5t-23.5 2.5t-10.5 -2
q0 -3 3 -3q4 -1 10 -2t23.5 -2t28.5 1zM1293 438q-1 5 -5 1q-1 -1 -1 -3q5 -23 17 -38.5t21.5 -19.5t10.5 0q1 2 -2.5 3.5t-8.5 5.5t-11 9.5t-12 16.5t-9 25zM1194 409q-3 0 -3 -3t3 -3q19 2 32 5.5t19 6.5t16 9.5t17 10.5q3 1 1.5 4t-4.5 2q-22 -11 -31 -19q-10 -9 -50 -13
zM1739 413q-5 -1 -2 -5q1 -1 3 -1q22 5 39 14.5t23.5 17t3.5 9.5q-2 1 -8.5 -4.5t-22.5 -15.5t-36 -15zM1733 401q-3 3 -5 -1q-1 -2 1 -4q7 -6 12.5 -12t9 -11.5t6.5 -11t4.5 -10t2.5 -8.5t2 -6.5t2 -4t2 -1.5q3 0 3 3t-2 11t-12 25t-26 31zM1712 318q-1 -3 2 -3.5t4 2.5
q4 18 6.5 37.5t2.5 31t-2 13.5q-3 0 -4 -12t-3.5 -33t-5.5 -36zM1666 342q-3 -2 -1.5 -5t4.5 -1q12 6 24 17t18.5 20.5t3.5 11.5q-2 2 -9 -6t-18.5 -20t-21.5 -17zM1627 389q-5 -1 -2 -5q1 -1 3 -1l72 7q3 0 3 3.5t-3 3.5q-44 -2 -73 -8zM865 839q-12 1 -16 1q-1 0 -6 15
q-2 5 -8.5 10t-12.5 5q-17 0 -22 -25q9 2 17.5 -9.5t18.5 -11.5q2 0 4.5 -0.5t3.5 0l4 2t6.5 4.5zM730 988q0 -3 3 -3t3 3q-1 10 5 13t12 -0.5t6 -10.5q0 -3 -7 -5q-1 4 -6 4q-8 0 -8 -8t8 -8q2 0 3 1q6 -3 7.5 -13t4.5 -14l7 -7q3 -3 5 0q2 2 0 4q-3 3 -8 16.5t-10 17.5
q11 6 11 12q0 10 -9.5 16t-18.5 1.5t-8 -19.5zM732 499l1 1l2 4t2 3q2 -14 4 -20l-8 -5l8 4q5 -18 9 -29l-5 -3q1 0 5 2l1 1q1 1 9.5 4.5t13.5 6.5q4 -14 11 -35l-18 -9q-51 35 -33 101q0 -3 0.5 -8.5t1.5 -8.5l-4 -8v-1zM757 557q0 10 -2 10v-1q0 -1 0.5 -4.5t0.5 -5.5
q-6 -5 -15 -11q5 12 12.5 23t14 18t15.5 14.5t14 11t14 8.5t10 6q3 -17 4 -19q-8 -6 -22 -16q-2 12 -3 17l-1 -1q1 -5 3 -17q-2 -2 -6.5 -5t-8 -5.5t-6.5 -4.5q0 2 -0.5 6.5t-0.5 8.5l-1 4q-1 -1 -0.5 -8.5t1.5 -11.5q-5 -3 -13 -9t-10 -8zM874 643l-11 26q5 -14 10 -27
q-4 -3 -12.5 -9t-12.5 -9q-3 12 -3 22q14 16 31 48h1q3 -1 5.5 0t5 -1t4 -2.5t3 -3.5t2 -4.5t1.5 -5t1.5 -4.5t1.5 -4.5t1 -4.5q-5 -3 -14 -10.5t-14 -10.5zM944 401q-7 10 -11 18q5 8 14 35q1 -1 4.5 -7t5.5 -10q-1 -2 -5.5 -15t-7.5 -21zM970 470q2 5 5 16t5 15
q7 -9 20 -22v-1q-3 -15 -9 -33q-17 20 -21 25zM992 444q1 3 3 10t3 10q-1 -19 1 -28q-1 1 -3 3.5t-4 4.5zM956 487q2 -2 6 -8t7 -9q-1 -4 -5 -14.5t-6 -16.5q-2 4 -5.5 10t-4.5 7q1 3 8 31zM970 469q13 -16 21 -26q-7 -21 -14 -34q-12 18 -18 28q2 6 6 17t5 15zM992 442
q6 -7 13.5 -20t10.5 -17q-7 -14 -18 -30q-1 1 -12 19q4 7 6.5 14t4 10.5t0.5 3.5l-1 -3q-2 -3 -5 -10l-6 -14q-3 7 -8 13q9 17 15 34zM934 477q4 -9 12 -21q-3 -9 -6.5 -17t-5.5 -12.5t-2 -5.5q-1 2 -5.5 13t-7.5 17q8 12 15 26zM958 436q6 -10 18 -28q-8 -15 -18 -27
q-6 10 -13 19q3 8 7.5 21t5.5 15zM977 406q3 -4 7 -12q-9 -18 -15 -28l-5 7.5t-5 6.5q12 13 18 26zM985 393q11 -18 12 -19q-7 -10 -18 -24q-1 2 -4 7t-5 8q6 10 15 28zM958 379q1 -3 4.5 -7.5t5.5 -6.5l-6 -9q-2 12 -7 20zM878 419l-21 -14q-5 11 -11 32l21 15
q5 -17 11 -33zM867 453l-21 -15q-3 8 -9 26q6 4 24 15q2 -13 6 -26zM738 509q0 3 -1 9.5t-2 9.5q3 11 6 14.5t15 11.5q2 -20 4 -28q-7 -5 -14 -11zM738 508q12 9 23 17q1 -4 2.5 -11.5t2.5 -11.5q-12 -8 -24 -14q-2 6 -4 20zM742 487q18 9 24 13q1 -4 3.5 -14.5t4.5 -16.5
q-5 -3 -13.5 -6.5t-9.5 -4.5q-4 11 -9 29zM757 555q2 2 10 8t13 9l3 -15t3 -13q-3 -2 -24 -17q-4 17 -5 28zM762 526q21 15 24 17l6 -24q-3 -2 -11.5 -8t-13.5 -9q-1 4 -2.5 12t-2.5 12zM767 501q2 1 11.5 7t14.5 9q6 -22 9 -32l-27 -15q-2 6 -4.5 16.5t-3.5 14.5zM775 469
l27 15q8 -24 11 -34q-9 -6 -27 -16q-7 21 -11 35zM785 432l7 -19q-2 7 -6 19q15 8 28 17q2 -5 4.5 -14.5t4.5 -13.5q-9 -7 -21 -14q-21 8 -34 16q5 3 17 9zM781 573q8 7 21 16q2 -9 6 -29l-21 -15q-1 3 -3 13zM787 544q14 10 22 15q1 -4 3 -12.5t3 -12.5q-4 -2 -11.5 -7
l-10.5 -7zM794 518q4 2 10.5 7t10.5 7q1 -6 5 -17t5 -16q-3 -2 -10.5 -6.5t-11.5 -6.5q-2 6 -5 16.5t-4 15.5zM803 485q4 2 11.5 6.5t10.5 6.5q2 -6 6 -17.5t5 -16.5q-14 -8 -22 -13q-3 10 -11 34zM815 450q19 12 21 13q6 -18 9 -26l-21 -15q-2 5 -9 28zM823 420l8 -17
q-2 7 -6 18q6 5 20 15q8 -27 11 -32q-5 0 -5 -3q-29 -1 -48 5q7 4 20 14zM803 589q4 3 11.5 8.5t10.5 8.5q2 -4 5 -13.5t4 -14.5q-3 -2 -11.5 -8t-13.5 -9q-2 10 -6 28zM826 608l-4 18q12 7 22 19q0 -11 3 -22zM826 607l21 15q4 -12 10 -29q-4 -2 -11.5 -7t-10.5 -8
q-8 23 -9 29zM873 641q3 -9 13 -28q-4 -3 -14 -9.5t-14 -9.5q-6 17 -10 29q4 3 12.5 9t12.5 9zM887 614q-10 19 -13 28q5 3 14 10.5t14 10.5q1 -4 5.5 -15t5.5 -16q-4 -3 -12.5 -9t-13.5 -9zM236 120v1246h1869v-1246h-1869zM584 1086q0 -37 -26.5 -63.5t-64.5 -26.5
q-37 0 -63.5 26t-26.5 64t26.5 64t63.5 26q38 0 64.5 -26.5t26.5 -63.5zM1504 500h20q4 -6 5 -8q-13 3 -25 8zM1500 501q-7 4 -9 2q-9 7 -14 17h35q8 -14 11 -19h-23zM508 576h2q-9 13 -24 13q-10 0 -17 -13q20 -4 21 -4h1q2 2 12 4v-3q3 -16 14 -32.5t21 -24.5l9 -8
q3 -2 5 2q1 2 -1 3q-36 28 -42 61q0 2 -1 2zM566 403q-7 -17 -30 -21q11 -7 25.5 -1t16.5 16q-7 2 -12 6zM1045 256q22 12 13 40q-4 -6 -9 -11q2 -6 2 -8q0 -14 -6 -21zM872 273q-10 -2 -12.5 -15.5t11.5 -28.5q0 8 7 15l5 4l-4 -2h-1q-7 0 -7 18q0 7 1 9zM914 220
q-7 0 -14 10q-3 -21 7 -25q6 -3 17 -3.5t13 -1.5q-8 9 -13 24q-6 -4 -10 -4zM1290 536h1q1 0 2 -1q-1 2 -1.5 3.5t-1.5 2.5t-2.5 1h-3t-4 -0.5t-4.5 -1l-6 -1.5t-7 -2q10 -2 16 -15q3 9 5 11q6 -63 -4 -86q-2 -4 2 -5l3 2q11 24 5 90v2zM1220 522q-4 11 -17 5
q-13 -7 -18 -29q8 5 21 1v1q0 7 6 14l26.5 -26.5t30.5 -29.5t12 -7t0 4q-40 40 -65 64q1 1 4 3zM1173 422q0 1 -0.5 4.5t-0.5 5.5q0 7 7 12q-2 6 -2 8v1q0 5 1 8q18 -7 38.5 -11t31.5 -4l11 -1q3 0 3 3t-3 3q-39 1 -80 16h-3h-1q-5 -1 -8.5 -7t-2 -17t8.5 -21zM1063 520
q1 0 3.5 12t2.5 15l11 -10q-4 5 -11 12q1 3 2.5 15t2.5 17q3 -6 16 -25q-2 -10 -2 -13q-5 -5 -13 -13.5t-12 -12.5q-2 4 -14 22q2 24 -2 39q8 -17 21 -30zM1310 679l-15 -21l4 5q4 5 7 10l4 5q11 -18 15 -28q-1 0 -2.5 -1t-2.5 -1q-7 3 -17 4.5t-14 5t-9 14.5q4 13 9 38
q15 -19 21 -31zM1362 632l-2 -3q0 1 1 1t2 1l5 -10q-20 16 -47 26q0 1 2 1q1 0 2 1l3 -3l-2 4q14 9 20 16q5 -10 7 -15l-13 -11q8 6 13 10l5 -10zM1108 563v2q1 2 1 3l2 -3l-1 -1q-2 0 -2 -1zM1108 569q-2 -9 -12 -19q-3 3 -5 6q1 5 3 32q3 -5 8 -11.5t6 -7.5zM1090 544
q0 1 0.5 4.5t0.5 5.5q2 -3 4 -5zM1062 516q-4 -4 -10.5 -11.5t-9.5 -10.5q0 2 1 6t1 6q2 -3 3 -2.5t-2 4.5q2 9 4 28zM1374 617q-4 3 -10 14q6 3 25 16q3 -4 6.5 -12t5.5 -11q-20 -6 -27 -7zM1287 657q-4 1 -11 1l4 12q6 -12 7 -13zM1262 659h-2q-6 0 -20 -4q0 1 -1.5 4
l-4.5 9l-6 12q5 12 9 29l-1 1q0 -2 -9 -28l-13 25q2 -6 6.5 -14.5t6.5 -12.5q-1 -2 -2 -4.5t-3.5 -8t-3.5 -9.5l-1 -4l3 6l4 12l3 6q2 -5 4.5 -9t4 -6.5t2.5 -4.5t1 -3q-23 -6 -58 -31q-1 1 -3 3.5t-5 5.5t-5 6q0 7 2 29q5 -8 9 -14t7 -10t5 -6l2 -1q1 1 -1 2l1 5
q1 6 2.5 15.5t2.5 19.5l18 -30q-6 14 -18 32l4 26q-1 0 -3 -10.5t-2 -13.5l-12 14q2 -3 6 -8t6 -8q-6 -40 -6 -41q-5 6 -21 30l1 22q-2 0 -2 -21l-13 17q2 -4 7 -11t6 -8q-2 -22 -2 -28q-2 3 -9.5 11.5t-10.5 13.5q4 14 3.5 15t-4.5 -13l-7 8q1 -1 3.5 -5t3.5 -5
q-1 -4 -3.5 -15t-3.5 -16q-10 14 -14 21l1 6q-2 0 -2 -5l-5 7q1 -3 5 -9q-2 -12 -6 -30l-2 3q-1 2 -2.5 3.5t-3.5 4.5t-3.5 5.5t-3 4.5t-2.5 3l-1 1l18 -27q-2 -9 -4 -23q-7 10 -16 22q2 11 2.5 17t-0.5 7v-1q-2 -9 -3 -22l-10 10q1 -2 4.5 -6t5.5 -6q0 -4 -1.5 -14
t-2.5 -16l-18 32l-1 -1q1 -1 1 -3l-1 -5v-14.5t-1 -14.5l-11 20l11 -22q0 -2 -5 -33q-8 9 -14 19t-8 15t-3 5q1 0 1 -4l1 -5q1 -4 2.5 -15t0.5 -25v1q-1 1 -3 3.5t-3.5 5t-3.5 5.5l-4 6t-3.5 5t-2.5 3l-1 1l21 -32q-3 -22 -4 -29q-15 20 -27 40q2 6 1 8l-2 -6v-2
q-1 -6 -3.5 -14t-2.5 -11l-9 18q1 -3 4.5 -10.5t4.5 -9.5l-2 -10l-2 -4v-1h1l-1 -1q-4 -18 -6 -26q-13 13 -20 22q9 28 8 28h-1q-1 -9 -7 -27l-10 11l9 -12q-1 -4 -10 -31q-3 3 -6.5 9t-5.5 8l3 18q-4 0 -4 -16l-6 6q1 -2 5 -8q-7 -28 -8 -31q-3 5 -7 12t-5 9l3 9
q0 -1 -1 -2.5t-2 -2.5t-1 -2l-3 3q1 -1 1 -2t0.5 -1.5t0.5 -1.5q-3 -7 -8 -16t-6 -11q-9 19 -16 28v2q-6 -5 -17 -13v15q35 3 72 29.5t64 57.5t60.5 64.5t58.5 47.5q70 39 139 39q38 0 70 -14q56 -25 109 -96q-6 0 -22 -4q-2 4 -6 12.5t-6 12.5l-1 1q-2 4 -7 13t-8 13v1h-1
l-9 11q2 -2 4 -6t4 -6q-1 0 -3 -1.5t-6 -4t-8 -5.5q-7 12 -14 22l-1 1l-16 21q6 -8 16 -22q-9 -9 -21 -18q-1 3 -4 8t-4 7q4 6 7.5 13t4.5 11l1 4l-1 -3q-2 -4 -5 -10.5t-7 -12.5l-17 33q9 -21 16 -35q-7 -9 -19 -16q-4 10 -15 28v1q-4 6 -22 31v2h-1l-3 2l2 -2t1 -2
q-4 -23 -9 -37l-17 39q8 -23 17 -41l-4 -14q-2 0 -5.5 0.5t-5.5 0.5l-10 20q0 3 1 15t2 21v1l-1 -1q-1 -8 -2 -19t-1 -14l-15 25q3 -4 5.5 -9t5 -10.5t3.5 -8.5v-18v-1l1 1q1 5 1 16q2 -5 4.5 -11t3.5 -7zM1167 639v-23h1v21q5 -6 12 -13q-20 -14 -47 -39q0 2 0.5 6t0.5 6
l3 -4q0 1 -3 6q1 14 5 33q17 -23 17 -22.5t-16 24.5q1 8 7 31q14 -18 20 -26zM1125 654q5 -9 13 -20q-1 -5 -2.5 -17t-2.5 -17q-4 8 -14 23q3 15 6 31zM1354 651q12 9 21 18q10 -14 14 -21q-11 -7 -25 -15q-2 3 -5 9t-5 9zM1131 584q-7 -6 -19 -18q-2 1 -3 3q0 1 2 10.5
t3 17.5q4 -7 6 -12t2 -7l1 -1q6 0 -8 22l4 22q2 -3 14 -23q-2 -10 -2 -14zM1098 620q2 -3 15 -22q-1 -8 -3 -16.5t-2 -10.5q-7 9 -13 19q1 16 3 30zM1076 616q15 -24 17 -27q-2 -22 -3 -31q-13 20 -16 25q2 16 2 33zM1407 582q-9 12 -11 14q3 1 8.5 2.5t7.5 1.5q3 -6 7 -16
q-8 -2 -12 -2zM1395 598q-7 8 -20 18q7 1 27 7l5.5 -11t4.5 -10q-2 0 -8 -1.5t-9 -2.5zM1676 301q-4 15 -2 28q-2 -1 -4 -1h-1q-6 0 -11 4.5t-5 10.5v3q-4 -3 -4.5 -11t7 -18.5t20.5 -15.5zM1821 436q-2 -1 -5.5 -4.5t-5.5 -4.5q13 -21 -1 -31q23 3 12 40zM1779 330
q-5 -7 -11 -7h-1q-1 0 -3 1q9 -14 22.5 -9.5t20.5 15.5q-22 -3 -28 0zM1704 310q1 -12 14 -15.5t26 0.5q-6 3 -19 16q-5 -5 -11 -5h-1q-7 0 -9 4zM1624 391q-18 -15 -7 -54q5 15 22 32q-16 0 -16 17v2q0 2 1 3zM703 509v1v-1zM1699 454v-2h2l-1 2h-1zM948 624v2q0 16 -2 22
v1q0 3 9 3q5 0 8 -7v3q0 16 -18 38v-2q0 -8 -1 -11q-10 -35 -56 -79q-52 -49 -52 -75q0 -10 15 -23t31 -13h2l-2 -2v-3q-1 -2 -1.5 -6t-0.5 -9l-12 -9q-4 13 -6 26v1v1h-2v-1q-12 -9 -23 -16q-1 4 -4.5 15.5t-5.5 18.5l9 7q-4 -2 -10 -6l-9 33l25 17q-11 -6 -26 -16
q-1 4 -3 12.5t-3 12.5q4 3 12 8.5t12 8.5l10 -23q-3 10 -8 24l21 15l1 1q3 2 13 8.5t16 10.5l7 -11q-3 5 -6 12l12 9t13 9l3 -6q-1 2 -2 6l16 13q-3 -2 -8.5 -5.5t-7.5 -5.5q-1 5 -5.5 15.5t-5.5 14.5q37 26 42 31v-3q21 -22 21 -43v-9q0 -1 -1 -1h-1q-1 0 -3.5 5.5
t-5.5 5.5q-5 0 -6 -1q2 -8 2 -21q0 -7 -3 -7q-1 0 -2 1l1 -18q0 -1 -1 -1l-7 4q-7 5 -12 5h-3q2 -6 2 -22q0 -6 -3 -15t-5 -9q-6 0 -14 17v-38q0 -2 -2 -2q-1 0 -4 3t-7.5 6.5t-8.5 3.5q-7 1 -21 1q20 -16 28 -16q1 0 1 -1q-14 -22 -19 -25q9 1 19 11.5t12 10.5q1 0 4 -6.5
t6 -13.5t5 -8q0 14 7 34t15 20q1 0 2 -2t3 -6.5t5 -7.5q4 -5 14 -15v12q0 20 1 26t4.5 12t5.5 9l3 3l1 1q1 0 1 -2q1 -11 10 -16q5 -3 11 -6q-2 10 -2 24q0 10 5 20.5t8 10.5q1 0 2.5 -2.5t4.5 -5.5t8 -5q10 -3 14 -3q-3 9 -3 18q0 5 2 15t4 18l2 7q0 1 1 1t3 -4t6.5 -8.5
t9.5 -4.5q6 -1 12 -1q-2 8 -2 32q0 9 1 12h3q-1 -3 -1 -12l2 -34q0 -1 -1 -1q-23 0 -32 16q-7 -28 -7 -36q0 -5 1 -9.5t2 -7.5l1 -3q0 -1 -1 -1q-7 0 -18 4q-10 3 -14 11q-11 -9 -11 -26l3 -27v-1q0 -1 -1 -1t-2 1t-4.5 3t-8.5 4q-7 4 -10 15q-12 -17 -12 -46l1 -15
q0 -2 -2 -2q-3 0 -12.5 13.5t-12.5 19.5q-11 -11 -14 -18l-5 -36q0 -1 -2 -1q-4 0 -16 28q-5 -7 -13 -14q-9 -8 -28 -8q-1 0 -1 1q0 2 1 2q4 0 8.5 4.5t10.5 12.5l6 8q-7 3 -18.5 9.5t-11.5 9.5q0 2 1 2q15 0 25 -1q9 -1 19 -11v41q0 2 1 2q2 0 8 -13l8 -8q5 13 5 19l-2 24
q0 1 1 1q1 1 4 1q7 0 18 -8l-1 21q0 1 1 1q2 0 4 -4zM947 707q-4 4 -5 4v-1q4 -2 5 -3zM945 695v-1v1zM884 483h2q0 2 -2 0zM1459 611q0 -1 0.5 -1t0.5 -1q4 0 2 2h-3zM1728 444v1l-1 1q-1 0 -1 0.5t-1 0.5q0 -1 0.5 -1t0.5 -1l1 -1h1zM1725 447q-3 1 -25 7q-4 10 -15 23
q3 0 11 -0.5t12 -0.5q14 -21 17 -29z" />
    <glyph glyph-name="u1F1F3_u1F1F4" unicode="&#x1f1f3;&#x1f1f4;" horiz-adv-x="2260" 
d="M1060 267l1 -1h1q6 6 21 10q13 -13 18 -10q13 10 22 20q0 -3 -2 -11l-3 -12q0 -12 8 -28t19 -15q-3 23 -3 27l4 2t6 3.5t6.5 5t1.5 4.5q-1 5 -8 23q3 4 14 12q5 2 15 -6t12 -6l2 1l5 5q-5 27 -4.5 41.5t4.5 45.5t5 43q1 2 3.5 4.5t3.5 4.5q3 6 5.5 18.5t-0.5 19.5l-10 14
q-8 22 -10 110l42 -62q34 -48 84 -51q63 0 90 48q12 21 12.5 47t-6.5 46t-16 45.5t-11 40.5l61 30q2 1 0.5 4t-3.5 3l-16 -2l-34 8q-2 1 -7.5 0t-6.5 -1v3q48 21 90 44q1 1 0.5 4t-2.5 3l-18 -1l-36 7q-5 1 -16.5 -2t-12.5 -3q2 4 8.5 8.5t18 9t12.5 5.5l64 30q1 1 1 4t-2 3
q-4 0 -11 -1t-11 -1l-36 6h-1l-11 -1q9 13 31 34.5t29 29.5v1q47 52 47 107q0 42 -22 68.5t-59 30.5q-39 1 -66.5 -23t-25.5 -65q-26 -36 -36 -75l5 -1l2 1q22 25 30 28q2 -8 2 -11q-35 -43 -52 -71q-2 -5 -4.5 -10t-7 -15t-6.5 -16.5t0 -6.5q7 0 8 1q15 22 56 50.5t55 47.5
q5 10 3 30q4 -5 6 -11.5t3 -16.5t2 -16q0 -1 4.5 -1t4.5 1q7 23 9 61q0 7 -6.5 21.5t-12.5 17.5q-5 2 -13.5 3t-11.5 2q-1 3 -1 12q4 30 38 33t51 -17q14 -14 16 -50q0 -48 -54 -91l-80 -61q-44 -35 -57 -58q-26 -46 19 -132l39 -66q1 -1 7 -13t7.5 -15.5t5.5 -13.5t4.5 -16
t0 -14.5t-3.5 -15.5q-18 -31 -53 -33q-18 0 -33 7.5t-26.5 23.5t-17.5 27t-15.5 33.5t-12.5 28.5l-23 50q-12 26 -23 38q0 13 0.5 36.5t0.5 35.5l1 57q0 26 1 40l4 -2q3 -1 5.5 -2t3.5 0q0 24 7 36l28 48q28 53 28 113q15 17 15 34q0 3 -12 9l3 5l8 10t8 10.5t5.5 9.5t0.5 5
q-10 3 -20 0q-16 11 -22 0q-6 -10 4 -18q-2 -2 -8.5 -1.5t-12 3t-4.5 4.5q2 -1 5 0q9 2 8.5 12.5t-8.5 12.5l-3 3q-3 4 -6.5 6.5t-7.5 2.5q-6 0 -11 -5q-2 1 -7 0.5t-7 -2.5q-9 -10 4 -23q-3 -3 -5 -3q-22 3 -22 10q8 -1 11.5 5.5t0.5 12.5q-2 4 -7 5.5t-9 0.5h-4l-5 3
q-5 3 -7.5 4t-3.5 0q0 -8 1 -24.5t1 -24.5q-1 -1 -9 -6.5t-14.5 -11t-6.5 -8.5l2 -23q1 -4 6.5 -11t6.5 -8l-12 -21q0 -5 44 -5q0 -3 -1 -4l-28 -5q-24 -5 -43 -15q-58 -39 -81 -70q-7 4 -20.5 10.5t-24.5 12l-21 10.5q-3 9 -11 10q-9 -2 -18 7q1 1 8.5 9.5t8.5 13.5
q8 33 -1 42q-8 8 -8 5q-1 -15 -7 -24q-1 0 -5 -0.5t-7 -1.5t-4 -3q-2 -3 -4 -9t-2 -7q0 9 0.5 25t0.5 25q11 0 11 2q0 47 -1 47h-9q0 19 -1 19q-26 1 -26 -1v-18q-2 1 -4 1q-12 0 -24.5 2.5t-21 5t-22 10.5t-18.5 11.5t-20.5 15t-18.5 13.5q-1 0 -1.5 -1t-0.5 -3.5
t-0.5 -5.5t-0.5 -6v-4.5v-2.5q0 -78 38 -140q0 -1 1 -1t1 1q1 2 7 9.5t7.5 9t8 8.5t8.5 8t9.5 7.5t10.5 6t11.5 4t13 2.5t14.5 0v-11v-33q-13 6 -32 3.5t-24 -14.5q20 -3 24 -4q1 -1 2.5 -8t3.5 -9q3 -3 7.5 -4t9.5 -1t8 -1v-5q-24 -9 -28 -14q-22 -26 -14 -42q3 0 6 7
q10 8 12 8q12 -8 23 -2l-1 -57v-49l-1 -55q-36 0 -39 -20q0 -1 5.5 0t10.5 1.5t7 -0.5l7 -20q1 -1 5 -1l3 -1q0 -4 -0.5 -14t-0.5 -15q-18 -20 -17 -30q0 -1 3 -7q1 0 13 8v-51q0 -2 25 -2l2 2l1 57l3 -1h3.5h2.5q13 11 28 31q2 -1 7 -3t7 -3t6 -4t3 -6t-1 -9q2 -4 8 -6
q18 25 85 99q1 -2 2.5 -7.5t3.5 -9.5t4 -7t13.5 -14t15.5 -19q9 -40 10 -52q-55 -22 -73 -35v-1q-17 -48 -21 -100q0 -4 5 -19l-54 4l-24 3l-6 24q16 18 18 22q6 11 3.5 32t-14.5 24q-3 -22 -5 -26q-1 0 -5 -0.5t-7.5 -1.5t-3.5 -3q-1 -4 -2 -14t-2 -14q-1 1 -7 11.5
t-10 14.5q-14 11 -22 11l-26 1q-3 0 -6 -5q-2 -2 0 -3l14 -3q7 -4 9 -9q-8 -15 -4 -17t14.5 -6t16.5 -7l-6 -1h-20q-5 -1 -7 -8t-3 -8q-1 0 -6.5 0.5t-9 0.5t-3.5 -1q0 -6 2 -8q19 -10 41 -10q3 0 9 3t9 3q9 -16 9 -22l-5 -5l-5 -5t-2 -5t4 -7h5q4 1 8.5 1.5t5.5 0.5
q16 -3 46.5 -10.5t46.5 -10.5q1 -1 5.5 -5t9 -7t5.5 -3l11 4q12 3 20 6.5t8 6.5q1 23 22 49q40 -38 61 -71q15 -71 11 -132q-15 -8 -17 -4q-1 2 -4 10t-6 14t-7 8q-37 26 -49 11q19 -15 21 -18q-6 -23 -3 -25q5 -3 15.5 -8t15.5 -8q-31 -4 -32 -5q-27 -20 -24 -37z
M1088 1093l34 -4l4 -5q-2 0 -6 0.5t-6 0.5l-32 3q-3 1 -4 1.5t-5.5 2.5t-4.5 3.5t1 3.5q1 1 5 -0.5t8 -3.5t6 -2zM1088 1094q-1 0 -9.5 3.5t-10.5 2.5q-4 -4 3.5 -8.5t10.5 -4.5l32 -3h2q11 -2 11 0l-2 2l-3 4zM236 58v1301h1789v-1301h-1789z" />
    <glyph glyph-name=".notdef" horiz-adv-x="1024" 
d="M102 0v969h820v-969h-820zM205 102h614v764h-614v-764z" />
    <glyph glyph-name=".null" 
 />
    <glyph glyph-name="nonmarkingreturn" horiz-adv-x="682" 
 />
    <glyph glyph-name="space" unicode=" " horiz-adv-x="409" 
 />
    <glyph glyph-name="exclam" unicode="!" horiz-adv-x="583" 
d="M233 1225q0 42 28 73t69 31q40 0 66 -30.5t26 -73.5q0 -126 -62 -725q-9 -80 -36 -80q-29 0 -37 80q-20 185 -37 409t-17 316zM328 217q51 0 87 -36t36 -87t-36 -87t-87 -36t-87 36t-36 87t36 87t87 36z" />
    <glyph glyph-name="quotedbl" unicode="&#x22;" horiz-adv-x="632" 
d="M127 1270q0 37 39 71q28 23 46.5 33t41.5 10q29 0 29 -65q0 -71 -32 -177.5t-65 -180.5q-8 -19 -20 -35.5t-19 -16.5q-14 0 -14 47v117q0 21 -0.5 48.5t-1.5 52.5t-2 47t-1 35zM395 1270q0 37 39 71q28 23 46.5 33t41.5 10q29 0 29 -65q0 -71 -32 -178t-64 -180
q-8 -19 -20 -35.5t-19 -16.5t-11 15.5t-4 31.5v117q0 21 -0.5 48.5t-1.5 52.5t-2 47t-1 35z" />
    <glyph glyph-name="numbersign" unicode="#" horiz-adv-x="958" 
d="M305 545l234 12l67 283l-231 -13zM274 422l-90 -367q-7 -30 -61 -30q-9 0 -15 7.5t-6 16.5v6l91 363l-130 -6q-11 0 -19.5 7t-8.5 17q0 11 2 24.5t6.5 31.5t15 30t25.5 13l137 6l70 282l-131 -6q-11 0 -20 7.5t-9 17.5t2 23.5t6.5 31.5t15 30t25.5 13l142 6l86 350
q7 35 67 35q7 0 12 -7.5t5 -16.5q0 -2 -1.5 -5.5t-1.5 -5.5l-83 -346l231 13l88 356q7 35 68 35q16 0 16 -25q0 -2 -1 -5t-1 -5l-86 -352l121 6q11 0 18.5 -6.5t7.5 -16.5q0 -25 -17 -62t-46 -38l-115 -6l-69 -283l124 6q11 0 19 -7t8 -17q0 -24 -17 -61t-46 -38l-119 -6
l-88 -360q-7 -31 -62 -31q-9 0 -14.5 7.5t-5.5 17.5v6l88 356z" />
    <glyph glyph-name="dollar" unicode="$" horiz-adv-x="937" 
d="M530 1284q-87 -7 -144.5 -75t-57.5 -150q0 -107 145 -217q8 -4 10 -4q9 0 9 8l53 422q0 16 -15 16zM598 752q6 -4 42 -29t51 -36t49 -39t51.5 -47t43 -51t38 -60t22.5 -65t10 -75q0 -51 -14 -103.5t-46.5 -104.5t-80 -91.5t-120.5 -64.5t-161 -25q-16 0 -18 -12l-19 -156
q-3 -31 -51 -31q-12 0 -22.5 9t-10.5 20q3 28 10.5 82.5t10.5 81.5q0 5 -4 9.5t-8 4.5q-43 7 -100.5 25.5t-69.5 21.5q-10 2 -16 5.5t-7.5 5t-3.5 7.5t-2 7q-17 35 -38.5 131t-24.5 152q0 12 12 22t29 10q4 0 16 -24t30.5 -61.5t43 -78.5t61.5 -79.5t78 -59.5q1 0 4 -1t4 -1
q8 0 8 6l68 551q0 17 -25 35q-60 41 -102.5 78t-83 83.5t-61.5 100.5t-21 113q0 47 22 100t64.5 104t115.5 86.5t163 41.5q20 3 20 12l8 53q5 35 60 35q10 0 18 -10t8 -21q-1 -11 -4 -30t-4 -27q0 -12 12 -14q37 -3 68.5 -8.5t59.5 -12.5t34 -8q29 -5 37 -45q2 -9 9.5 -51
t10 -60.5t6 -50.5t3.5 -57q0 -15 -7 -33t-14 -18q-10 0 -29 15t-24 36q-23 81 -73.5 146t-96.5 65q-8 0 -8 -11l-58 -464q-2 -13 2 -19t25 -20zM541 553l-62 -500q0 -20 17 -20q119 8 172 68.5t53 201.5q0 52 -66.5 142t-109.5 120q-1 1 -2 -1q0 -1 -1 -4q0 -4 -1 -7z" />
    <glyph glyph-name="percent" unicode="%" horiz-adv-x="1505" 
d="M279 -23l843 1330q21 34 80 34q10 0 19.5 -8.5t9.5 -17.5q0 -6 -2 -8l-844 -1330q-18 -30 -74 -30q-12 0 -23.5 7.5t-11.5 16.5q0 3 3 6zM397 1290q120 0 188 -104.5t68 -245.5q0 -100 -31.5 -187t-100 -145.5t-161.5 -58.5q-84 0 -144.5 54t-88 135.5t-27.5 179.5
q0 90 34.5 174t104 141t158.5 57zM375 1235q-56 0 -93.5 -92t-37.5 -195q0 -56 9 -116t25.5 -113t44 -87t60.5 -34q32 0 57.5 29t40 75.5t22 98.5t7.5 104q0 72 -15.5 146.5t-47.5 129t-72 54.5zM1149 713q81 0 141 -52.5t87.5 -130.5t27.5 -168q0 -100 -31.5 -187
t-100 -145.5t-161.5 -58.5q-84 0 -144.5 54t-88 135.5t-27.5 179.5q0 90 34.5 174.5t104 141.5t158.5 57zM1126 657q-56 0 -93.5 -91.5t-37.5 -194.5q0 -77 15 -155.5t48.5 -137t76.5 -58.5q32 0 57.5 29.5t40 76t22 98.5t7.5 104q0 71 -16 145.5t-48 129t-72 54.5z" />
    <glyph glyph-name="ampersand" unicode="&#x26;" horiz-adv-x="1613" 
d="M571 770l27 12q113 52 113 228q0 59 -41.5 109t-102.5 50q-57 0 -100 -33t-43 -85q0 -103 112 -240q4 -4 5 -6zM492 684l-43 -16q-55 -21 -94.5 -53t-61 -65t-34 -76t-16 -76.5t-3.5 -75.5q0 -92 70 -156t165 -64q105 0 182.5 40.5t157.5 125.5l19 19l-25 39
q-31 47 -72 94.5t-116.5 126t-104.5 110.5zM1483 844q5 0 14.5 -6.5t9.5 -12.5q0 -11 -18 -24t-33 -15q-83 -5 -149 -63q-12 -10 -103.5 -106.5t-177.5 -187.5l-86 -91l35 -49q73 -106 103 -138q84 -79 194 -81q9 0 16.5 0.5t13.5 1t13 3t11 3t11.5 4.5t10.5 5t11 6t10.5 7
t12.5 8.5t13 8.5q17 10 35 10q20 0 20 -45q0 -10 -37.5 -36.5t-99.5 -51.5t-113 -25q-57 0 -98.5 12.5t-79 46.5t-65 71t-72.5 108l-27 43l-12 -12q-15 -16 -46.5 -51t-46 -50.5t-43.5 -44t-47.5 -42t-48 -32.5t-55 -27.5t-58 -15t-67.5 -6.5q-92 0 -172.5 32t-133 98
t-52.5 153q0 291 344 448l41 19l-31 33q-2 2 -22.5 25t-29 33.5t-26.5 36.5t-27 46.5t-16.5 49.5t-7.5 58q0 102 84.5 164t196.5 62q101 0 176.5 -59t75.5 -152q0 -96 -52.5 -169t-146.5 -108l-29 -10l19 -20q27 -31 122.5 -129.5t143.5 -167.5l24 -37l37 39
q75 79 150.5 181.5t75.5 125.5q0 14 -17 33.5t-41 23.5q-5 2 -14.5 10.5t-9.5 12.5q0 22 45 22q4 0 65.5 -5t79.5 -5q32 0 103 15.5t94 15.5z" />
    <glyph glyph-name="quotesingle" unicode="'" horiz-adv-x="364" 
d="M127 1270q0 37 39 71q28 23 46.5 33t41.5 10q29 0 29 -65q0 -71 -32 -177.5t-65 -180.5q-8 -19 -20 -35.5t-19 -16.5q-14 0 -14 47q2 43 2 117q0 21 -1 48.5t-2 52.5t-2 47t-2 35z" />
    <glyph glyph-name="parenleft" unicode="(" horiz-adv-x="645" 
d="M541 -393q0 -21 -17 -33t-39 -12q-20 0 -34 14q-55 55 -119 165.5t-120 244.5t-93 287.5t-37 277.5q0 163 61.5 345.5t141 314.5t157.5 210q23 23 56 23q12 0 28.5 -10.5t16.5 -22.5q0 -3 -11.5 -19t-15.5 -20q-124 -124 -217.5 -340t-93.5 -457q0 -253 95 -534.5
t208 -394.5q33 -33 33 -39z" />
    <glyph glyph-name="parenright" unicode=")" horiz-adv-x="647" 
d="M545 575q0 -164 -64 -377t-150.5 -380.5t-160.5 -241.5q-12 -12 -35 -12q-22 0 -41.5 11t-19.5 26q0 8 20 28q117 117 222.5 394t105.5 524q0 242 -101 482t-223 362q-16 16 -16 24q0 12 17.5 19.5t37.5 7.5q28 0 49 -21q58 -58 118 -146t115.5 -199t90.5 -244t35 -257z
" />
    <glyph glyph-name="asterisk" unicode="*" horiz-adv-x="696" 
d="M70 1182q0 28 34 28q11 0 17 -2q35 -15 94.5 -38t83.5 -33q-9 87 -12 190q0 45 35 45q13 0 22.5 -11.5t11.5 -25.5l27 -188q39 27 162 102q8 8 22 8t25.5 -7t11.5 -21q0 -17 -18 -35l-150 -119q110 -52 168 -86q10 -4 17.5 -15t7.5 -22q0 -28 -35 -28q-10 0 -16 2
q-35 15 -95 38t-84 33q10 -100 13 -190q0 -45 -35 -45q-13 0 -23 11.5t-12 25.5l-27 188q-45 -32 -161 -102q-8 -8 -23 -8q-14 0 -25.5 7t-11.5 21q0 16 19 35l149 119q-110 52 -168 86q-10 4 -17 15t-7 22z" />
    <glyph glyph-name="plus" unicode="+" horiz-adv-x="1208" 
d="M676 569q0 -12 4 -12h420q11 0 18.5 -5.5t7.5 -14.5q0 -29 -18 -55.5t-45 -26.5h-379q-8 0 -8 -9v-413q0 -15 -12.5 -25.5t-30.5 -15t-31.5 -6.5t-23.5 -2q-9 0 -17 9t-8 19v432q0 11 -8 11h-414q-11 0 -20 7.5t-9 16.5q0 21 13 49.5t37 28.5h387q9 0 11.5 3.5t2.5 12.5
v351q0 29 37 46t57 17q11 0 20 -8t9 -18v-392z" />
    <glyph glyph-name="comma" unicode="," horiz-adv-x="466" 
d="M74 -301q-37 0 -37 22q0 8 8 15t21 10q79 16 137.5 71t58.5 152q0 27 -24 57t-56 33q-44 4 -70 28t-26 58q0 40 34 67.5t79 27.5q74 0 122 -56.5t48 -142.5q0 -73 -31.5 -140t-77.5 -109.5t-96 -67.5t-90 -25z" />
    <glyph glyph-name="hyphen" unicode="-" horiz-adv-x="561" 
d="M72 348q-13 0 -13 12q0 37 9.5 73.5t23.5 37.5q295 40 393 51q17 0 17 -12q0 -106 -43 -111q-293 -43 -387 -51z" />
    <glyph glyph-name="period" unicode="." horiz-adv-x="471" 
d="M236 197q46 0 79 -33.5t33 -79.5t-33 -79.5t-79 -33.5t-79.5 33.5t-33.5 79.5t33.5 79.5t79.5 33.5z" />
    <glyph glyph-name="slash" unicode="/" horiz-adv-x="817" 
d="M61 -96l609 1423q16 35 80 35q11 0 19.5 -8.5t8.5 -18.5q0 -1 -1 -4t-1 -4l-608 -1423q-13 -31 -74 -31q-13 0 -24 7.5t-11 17.5q0 1 1 3t1 3z" />
    <glyph glyph-name="zero" unicode="0" horiz-adv-x="1038" 
d="M516 846q182 0 311 -125.5t129 -304.5q0 -120 -58 -223t-158.5 -163.5t-219.5 -60.5q-183 0 -310.5 132.5t-127.5 316.5q0 178 127.5 303t306.5 125zM530 762q-126 0 -207 -97t-81 -247q0 -90 30 -172t92 -137.5t142 -55.5q133 0 212 89.5t79 273.5q0 88 -30 165.5
t-92.5 129t-144.5 51.5z" />
    <glyph glyph-name="one" unicode="1" horiz-adv-x="591" 
d="M223 139v543q0 18 -4 32t-8 23.5t-15 17.5l-16.5 12t-21 8t-20.5 5t-23 3.5t-21 2.5q-14 0 -14 23q0 22 14 22q67 0 117.5 -3t85.5 -3q34 0 84 3t115 3q16 0 16 -20q0 -22 -16 -25q-7 -2 -24.5 -4.5t-26 -5t-22.5 -7t-21.5 -11t-15.5 -16.5t-11.5 -25t-3.5 -35v-543
q0 -27 7.5 -44t28 -26.5t38.5 -13t55 -8.5q11 -1 16 -2q11 -1 18 -9t7 -18t-7 -17t-18 -7q-62 0 -121 5t-98 5q-41 0 -103 -5t-120 -5q-10 0 -16.5 9t-6.5 20q0 22 23 22q24 2 37.5 3.5t38 7.5t38 15t24.5 26.5t11 41.5z" />
    <glyph glyph-name="two" unicode="2" horiz-adv-x="864" 
d="M743 -8q-1 0 -134.5 4t-215.5 4q-58 0 -138.5 -1.5t-137.5 -3t-58 -1.5q-5 0 -9.5 5t-4.5 11q0 11 14 25q81 81 125 117q26 21 47.5 40t68.5 66.5t79 89.5t58 97t26 102q0 72 -37 116t-96 44q-74 0 -131 -22t-107 -77q-14 -14 -26 -14q-15 0 -15 29q0 7 11.5 30t38.5 56
t64 63.5t96.5 52t127.5 21.5q95 0 154 -75.5t59 -176.5q0 -48 -23 -103t-61 -100q-40 -49 -133.5 -138t-114.5 -103q-12 -8 7 -15l12 -2h317q58 0 110 35t81 94q13 21 39 21q8 0 8 -13q0 -8 -2 -12q-24 -68 -46 -143t-22 -90q0 -13 -12.5 -23t-18.5 -10z" />
    <glyph glyph-name="three" unicode="3" horiz-adv-x="761" 
d="M371 846q100 0 160.5 -58t60.5 -155q0 -29 -8 -61.5t-27.5 -73t-60 -82.5t-97.5 -74q-4 -2 -5.5 -5t0.5 -5t7 -2q67 -1 118 -23t79 -56t41.5 -70t13.5 -72q0 -89 -28.5 -163t-80 -128.5t-105 -92t-122.5 -71.5q-35 -18 -78 -30.5t-63 -12.5t-37.5 7.5t-17.5 21.5
q0 19 18.5 40t36.5 21q98 0 137 20q45 24 73.5 45.5t56.5 57t41.5 88t13.5 123.5q0 23 -3.5 46t-15 50.5t-29.5 48.5t-51.5 35t-76.5 14q-28 0 -57.5 -10.5t-48.5 -20.5t-21 -10q-35 0 -35 19q0 13 21.5 35.5t41.5 33.5q82 49 144 105q33 29 57.5 85.5t24.5 131.5
q0 59 -36.5 97t-95.5 38q-63 0 -105 -25t-91 -77q-13 -17 -33 -17q-14 0 -14 25q0 17 25 50.5t63.5 69t96 61.5t112.5 26z" />
    <glyph glyph-name="four" unicode="4" horiz-adv-x="1007" 
d="M637 772q79 90 82 90q5 0 6.5 -3t0.5 -11t-1 -10q0 -120 -4 -307.5t-4 -307.5q0 -12 10 -12q31 -2 82 -2q31 0 121 4q22 0 22 -14q0 -24 -16 -57t-27 -33q-15 0 -49 1t-51 1q-24 0 -64 -5q-7 -1 -16.5 -5.5t-9.5 -6.5v-366q0 -33 -50.5 -66t-68.5 -33q-31 0 -31 27v428
q0 8 -12.5 13t-17.5 5q-83 0 -222 -6.5t-247 -7.5q-27 0 -27 10q0 9 8 17zM545 213q8 0 16 5t8 11v346q0 5 -7.5 6t-12.5 -3l-311 -347q-4 -4 0 -11t10 -7h297z" />
    <glyph glyph-name="five" unicode="5" horiz-adv-x="735" 
d="M176 -387q-27 0 -48.5 6.5t-21.5 18.5q0 23 68 34q295 52 295 328q0 96 -71 187t-177 155q-57 34 -79.5 60t-22.5 53q0 118 63 256q21 46 74 67q57 22 166 47t135 25q10 0 16.5 -9t6.5 -20q0 -41 -33 -91.5t-72 -57.5q-101 -19 -250 -39q-13 -2 -26 -21t-13 -47
q0 -26 41 -49q157 -87 279 -209q49 -49 88 -124t39 -148q0 -95 -42.5 -176.5t-109.5 -134t-147 -82t-158 -29.5z" />
    <glyph glyph-name="six" unicode="6" horiz-adv-x="1001" 
d="M475 -29q-195 0 -293 115.5t-98 308.5q0 87 18.5 170.5t42 141t61.5 118t59.5 88t53.5 64.5q85 98 233 192t322 140h11q18 0 18 -9q0 -7 -4.5 -13.5t-12 -11.5t-14 -8.5t-14 -6.5t-8.5 -3q-141 -61 -239.5 -137t-174.5 -186q-43 -62 -79.5 -131.5t-69.5 -184.5t-33 -229
q0 -142 70 -227q34 -42 93 -79.5t118 -37.5q82 0 135 43q38 29 63 81t25 122q0 96 -56.5 168.5t-136.5 72.5q-108 0 -164 -30q-18 -9 -21.5 0.5t7.5 21.5q24 27 55 49q30 22 90 45t111 23q107 0 181.5 -71.5t74.5 -180.5q0 -82 -26.5 -156t-77.5 -133t-133.5 -94t-186.5 -35
z" />
    <glyph glyph-name="seven" unicode="7" horiz-adv-x="942" 
d="M705 641q6 7 3 13.5t-24 7.5q-240 6 -422 6h-26q-87 0 -123 -47q-38 -46 -54 -46q-10 0 -10 17q0 5 8 45q25 105 25 172q0 22 20 22q2 0 23.5 -1.5t52.5 -3.5t53 -3q59 -2 220 -2q358 0 421 13q6 0 10.5 -10.5t4.5 -18.5q0 -15 -14 -41t-36.5 -59.5t-27.5 -42.5
l-573 -1002q-29 -55 -39 -55q-24 0 -41 15t-17 38q0 5 43 84z" />
    <glyph glyph-name="eight" unicode="8" horiz-adv-x="925" 
d="M403 535q-38 -31 -57 -48.5t-40 -46t-29.5 -61.5t-8.5 -78q0 -101 60.5 -176.5t154.5 -75.5q86 0 142.5 55.5t56.5 137.5q0 56 -35.5 111.5t-79.5 93.5t-110 83q-24 17 -31 17q-8 0 -23 -12zM586 645q62 -41 99 -69.5t72.5 -68t51.5 -84.5t16 -101q0 -96 -53.5 -177.5
t-138 -126.5t-178.5 -45q-134 0 -232 84.5t-98 212.5q0 48 17.5 92t41 73.5t62 60t64.5 46t65 36.5q11 8 10 11.5t-12 11.5q-3 2 -4 3q-54 44 -86 74.5t-67.5 75t-52 94.5t-16.5 108q0 75 53 133.5t131.5 87.5t164.5 29q119 0 210 -71.5t91 -182.5q0 -61 -27.5 -104.5
t-71.5 -81.5q-33 -29 -102 -80q-24 -18 -25 -24.5t15 -16.5zM543 696q63 51 86.5 115t23.5 156q0 74 -49 132t-119 58q-76 0 -135 -47t-59 -115q0 -36 8.5 -66.5t19.5 -51.5t36.5 -46.5t43.5 -40t57.5 -45.5t61.5 -49q12 -9 25 0z" />
    <glyph glyph-name="nine" unicode="9" horiz-adv-x="954" 
d="M514 848q151 0 254.5 -119t103.5 -299q0 -273 -258 -526q-90 -89 -245 -180t-256 -105h-11q-18 0 -18 10q0 19 29 27q85 27 229.5 141t210.5 203q70 93 113 201.5t43 263.5q0 129 -75.5 219t-187.5 90q-92 0 -144 -71t-52 -156q0 -96 60.5 -176t140.5 -80q30 0 55 5.5
t37.5 11t36.5 18.5t34 18q7 3 12.5 -6.5t2.5 -15.5q-20 -39 -68 -72q-32 -24 -85 -46t-103 -22q-107 0 -185.5 74.5t-78.5 183.5q0 70 29 142t80 131.5t129 97t167 37.5z" />
    <glyph glyph-name="colon" unicode=":" horiz-adv-x="507" 
d="M256 764q46 0 79.5 -33.5t33.5 -79.5t-33.5 -79t-79.5 -33t-79.5 33t-33.5 79t33.5 79.5t79.5 33.5zM256 197q46 0 79.5 -33.5t33.5 -79.5t-33.5 -79.5t-79.5 -33.5t-79.5 33.5t-33.5 79.5t33.5 79.5t79.5 33.5z" />
    <glyph glyph-name="semicolon" unicode=";" horiz-adv-x="466" 
d="M217 764q46 0 79.5 -33.5t33.5 -79.5t-33.5 -79t-79.5 -33t-79.5 33t-33.5 79t33.5 79.5t79.5 33.5zM74 -301q-37 0 -37 22q0 8 8 15t21 10q79 16 137.5 71t58.5 152q0 27 -24 57t-56 33q-44 4 -70 28t-26 58q0 40 34 67.5t79 27.5q74 0 122 -56.5t48 -142.5
q0 -73 -31.5 -140t-77.5 -109.5t-96 -67.5t-90 -25z" />
    <glyph glyph-name="less" unicode="&#x3c;" horiz-adv-x="1208" 
d="M272 469l779 -356q25 -12 37 -44.5t12 -54.5q0 -8 -7 -17t-16 -9q-1 0 -3 1t-3 1l-878 409q-30 14 -57 31t-27 25q0 17 19.5 49.5t47.5 44.5l895 409q1 0 3 1.5t3 1.5q9 0 15 -6t6 -15q0 -23 -18 -57.5t-46 -46.5l-764 -357q-4 -2 -3.5 -5t5.5 -5z" />
    <glyph glyph-name="equal" unicode="=" horiz-adv-x="1208" 
d="M152 745h927q10 0 19.5 -6.5t9.5 -15.5q0 -1 -1 -3t-1 -3q-6 -18 -10 -27t-11.5 -22t-18 -19t-24.5 -6h-911q-10 0 -19.5 8t-9.5 17q0 21 13 49t37 28zM152 395h927q10 0 19.5 -6.5t9.5 -15.5q0 -1 -1 -3t-1 -3q-6 -18 -10 -27t-11.5 -22t-18 -19t-24.5 -6h-911
q-11 0 -20 7.5t-9 16.5q0 21 13 49.5t37 28.5z" />
    <glyph glyph-name="greater" unicode="&#x3e;" horiz-adv-x="1208" 
d="M936 479l-778 357q-25 12 -37 44t-12 54q0 8 7 17.5t15 9.5q1 0 3 -1.5t3 -1.5l879 -409q84 -38 84 -55t-20 -50t-48 -45l-895 -409q-1 0 -3 -1t-3 -1q-9 0 -14.5 6t-5.5 14q0 23 17.5 58t45.5 47l764 356q4 2 3.5 5t-5.5 5z" />
    <glyph glyph-name="question" unicode="?" horiz-adv-x="792" 
d="M287 1354q53 0 112.5 -27t108.5 -76q83 -83 136.5 -198t53.5 -197q0 -124 -86 -172q-100 -54 -176 -104q-39 -25 -51 -63t-14 -99q0 -17 -8.5 -32t-22.5 -15q-11 0 -25 17.5t-20 41.5q-2 7 -10 32t-11.5 40t-7.5 44.5t-4 61.5q0 49 49 89t158 96q49 25 87 64.5t38 80.5
q0 105 -53 170t-154 66q-19 0 -48 -4.5t-48 -4.5q-32 0 -59 36.5t-27 78.5q0 28 27 51t55 23zM369 217q51 0 87 -36t36 -87t-36 -87t-87 -36t-87 36t-36 87t36 87t87 36z" />
    <glyph glyph-name="at" unicode="@" horiz-adv-x="1533" 
d="M805 666q-95 0 -168.5 -83t-73.5 -225q0 -101 50.5 -146.5t119.5 -45.5q59 0 123 45q41 26 55 100l39 211q2 8 2 25q0 56 -40 87.5t-107 31.5zM1008 96q-37 0 -60 19t-33.5 38t-17.5 19q-5 0 -38.5 -19t-88 -38t-111.5 -19q-105 0 -173 59.5t-68 163.5q0 120 61.5 214.5
t159.5 144t211 49.5q83 0 133 -16q40 -13 47 -13q10 0 25.5 19.5t25.5 19.5q20 0 34 -10q5 -3 3 -6q-30 -82 -45 -164l-43 -270q-6 -54 -6 -56q0 -59 37 -59q112 0 193 78t81 201q0 139 -72.5 256t-193.5 183t-262 66q-163 0 -300.5 -68t-222.5 -198.5t-85 -298.5
q0 -159 83 -292.5t222.5 -209t300.5 -75.5q99 0 223 46t201 111q25 21 37 21q28 0 28 -27q0 -19 -50 -57.5t-122.5 -77.5t-167 -68.5t-172.5 -29.5q-182 0 -337 80t-249 227.5t-94 331.5q0 128 40 237t110 187.5t164.5 133.5t204 82t227.5 27q151 0 285.5 -75t216.5 -204
t82 -278q0 -116 -61 -205.5t-156.5 -134.5t-206.5 -45z" />
    <glyph glyph-name="A" unicode="A" horiz-adv-x="1417" 
d="M682 1110l-184 -492q-4 -12 -4 -16q0 -10 9.5 -12t33.5 -2h317h13t8.5 1t6 3t1.5 6t-4 20l-162 490q-12 37 -19 37q-4 0 -16 -35zM1368 -10q-24 0 -129.5 6t-155.5 6q-44 0 -119 -1t-96 -1q-59 0 -59 25q0 27 68 38q124 19 124 93q0 68 -77 321q-4 14 -15.5 18.5
t-40.5 4.5h-391q-22 0 -35 -37q-19 -57 -50.5 -162t-31.5 -123q0 -43 33.5 -73.5t85.5 -43.5q68 -17 68 -41q0 -22 -60 -22q-14 0 -78.5 2t-107.5 2q-48 0 -131.5 -6t-114.5 -6q-59 0 -59 26t67 47q59 17 102.5 52t74.5 106q196 444 383 963q14 38 20 67.5t6.5 40t1.5 11.5
q54 17 74 30q12 8 21 26t13.5 32t8.5 14t7.5 -7.5t7.5 -22.5t5 -19q154 -488 365 -1094q39 -112 86.5 -152.5t120.5 -52.5q33 -6 50 -19t17 -28q0 -20 -59 -20z" />
    <glyph glyph-name="B" unicode="B" horiz-adv-x="1183" 
d="M588 76q80 0 153 40.5t119.5 113t46.5 157.5q0 179 -151 264q-94 51 -213 51q-59 0 -88 -23.5t-29 -49.5v-408q0 -82 39.5 -113.5t122.5 -31.5zM365 0q-51 0 -128.5 -5t-138.5 -5q-59 0 -59 22q0 26 67 37q81 14 120.5 49t39.5 105v921q0 74 -31.5 109t-105.5 41
q-33 3 -50.5 14.5t-17.5 26.5q0 22 60 22q59 0 116.5 -1t96.5 -1q34 0 98 5.5t129 5.5q231 0 343 -71.5t112 -234.5q0 -63 -21.5 -116t-48.5 -80q-35 -33 -62 -51t-75 -37q-8 -3 -8.5 -10.5t8.5 -10.5q39 -12 65 -22.5t64 -29.5t63.5 -43t50 -57.5t36.5 -81t12 -104.5
q0 -64 -15 -117.5t-34.5 -85.5t-53.5 -61t-54.5 -41.5t-55.5 -30.5q-138 -69 -328 -69q-13 0 -80 4t-114 4zM520 760q129 0 228 59q32 18 62 67.5t30 127.5q0 49 -12 92.5t-40.5 85.5t-86.5 67t-140 25q-80 0 -107.5 -21.5t-27.5 -70.5v-356q0 -76 94 -76z" />
    <glyph glyph-name="C" unicode="C" horiz-adv-x="1310" 
d="M1200 281q5 10 15.5 17.5t21.5 13t14 7.5q3 3 4 3q6 0 10.5 -12.5t4.5 -26.5q0 -3 -1 -9t-1 -8q-7 -47 -27 -114t-41 -99q-9 -15 -88 -39q-2 -1 -3.5 -1.5t-4 -1t-4.5 -1.5q-54 -17 -153 -29t-191 -12q-182 0 -335 95t-240 254t-87 344q0 145 61 275.5t163 222t238.5 145
t283.5 53.5q50 0 119.5 -8t97.5 -17q80 -26 155 -37q23 -3 27 -61q14 -109 16 -223q2 -17 -3.5 -32.5t-18.5 -14.5q-18 2 -32.5 21.5t-20.5 53.5q-12 94 -72 150q-12 12 -30.5 25.5t-55.5 33.5t-93.5 32.5t-121.5 12.5q-110 0 -206 -49t-161.5 -129.5t-103 -186.5
t-37.5 -218q0 -100 23 -198.5t68.5 -184.5t107.5 -152t145 -104.5t176 -38.5q81 0 147 23t111 63.5t72 77.5t51 84z" />
    <glyph glyph-name="D" unicode="D" horiz-adv-x="1544" 
d="M428 248q0 -48 17.5 -83.5t45.5 -55.5t70 -32t82.5 -16t91.5 -4q239 0 391 171t152 438q0 142 -49.5 261.5t-131 196.5t-182.5 119.5t-208 42.5q-47 0 -72 -0.5t-60 -3t-53 -7t-39.5 -13.5t-31 -22.5t-16.5 -33t-7 -45.5v-913zM760 -14q-5 0 -167.5 7t-258.5 7
q-38 0 -97.5 -5t-117.5 -5q-60 0 -60 22q0 25 68 37q77 14 107 47.5t30 106.5v921q0 73 -30 104.5t-107 45.5q-68 12 -68 41q0 22 60 22q59 0 116.5 -2t96.5 -2h14q48 0 187.5 8.5t162.5 8.5q162 0 293 -33.5t220.5 -92t149.5 -141t87 -178t27 -205.5q0 -193 -96 -357.5
t-260.5 -260.5t-356.5 -96z" />
    <glyph glyph-name="E" unicode="E" horiz-adv-x="1095" 
d="M430 209q0 -76 32 -106.5t103 -30.5h213q48 0 80 5.5t45.5 12.5t30.5 19q42 33 86 129q11 23 29 20q26 -4 26 -22q0 -27 -12 -98.5t-23 -112.5q-8 -35 -28 -35q-138 0 -356.5 6t-313.5 6q-44 0 -111 -6t-125 -6q-59 0 -59 22q0 25 68 37q79 14 115 48.5t36 105.5v921
q0 73 -30 104.5t-107 45.5q-68 12 -68 41q0 22 60 22q78 0 185 -3t177 -3q82 0 190.5 1.5t184.5 3t80 1.5q34 0 37 -18q31 -173 31 -211q0 -31 -29 -31q-17 0 -23 21q-29 95 -45 112q-51 56 -137 56h-268q-21 0 -47.5 -19.5t-26.5 -46.5v-434q0 -19 11 -32t26 -13h197
q43 0 76 22t48 58q3 8 16.5 21.5t20.5 13.5q9 0 18 -9.5t9 -23.5q0 -7 -3 -51t-3 -62q0 -24 2 -79t2 -60q0 -35 -19 -35q-18 0 -30.5 16t-16.5 31q-14 45 -40 68.5t-54 23.5h-190q-39 0 -54.5 -10t-15.5 -43v-393z" />
    <glyph glyph-name="F" unicode="F" horiz-adv-x="1048" 
d="M993 1114q0 -43 -18 -43q-24 0 -31 25q-23 73 -47 100q-50 55 -137 55h-260q-30 0 -46 -16t-19.5 -34.5t-4.5 -51.5q-2 -51 -2 -193q0 -141 2 -190q0 -45 21 -45q48 0 132.5 3t104.5 3q43 0 76.5 22t48.5 58q3 8 16.5 21.5t20.5 13.5q9 0 18.5 -10.5t8.5 -22.5
q-7 -82 -7 -113q0 -36 7 -139q0 -35 -19 -35q-18 0 -30.5 16t-16.5 31q-25 80 -96 80q-18 0 -52.5 1t-50.5 1q-47 0 -133 -4q-49 -4 -49 -51q0 -254 6 -389q3 -70 32.5 -107.5t102.5 -50.5q68 -12 68 -37q0 -22 -59 -22q-60 0 -113 7t-88 7q-49 0 -125 -7t-133 -7
q-60 0 -60 22q0 25 68 37q77 14 107 47.5t30 108.5v864q0 98 -26 145t-99 60q-67 11 -67 41q0 22 59 22q76 0 179.5 -3t172.5 -3l461 6q34 0 37 -18q10 -59 10 -205z" />
    <glyph glyph-name="G" unicode="G" horiz-adv-x="1492" 
d="M1272 1278q22 -158 22 -229q0 -15 -9 -28t-21 -13q-13 0 -23 9.5t-14.5 19t-9.5 26.5q-21 58 -64 108q-30 37 -114 73t-212 36q-154 0 -277 -86.5t-189 -227t-66 -302.5q0 -141 45.5 -259.5t121 -195.5t171 -119.5t198.5 -42.5q174 0 250 76q62 62 62 158q0 17 2 58t2 60
q0 49 -10 62q-23 30 -90 46.5t-111 16.5q-10 0 -25.5 11t-15.5 24t15.5 24t25.5 11q48 0 124 -4t134 -4q36 0 90.5 4t91.5 4q13 0 28 -7.5t15 -25.5q0 -12 -16 -23.5t-27 -13.5q-43 -12 -61.5 -34.5t-24.5 -65.5q-10 -74 -10 -154v-55q0 -9 12 -33q3 -6 15 -18t12 -17
q0 -34 -29 -38q-10 -1 -57 -23.5t-103.5 -47.5t-147 -46t-179.5 -21q-188 0 -351 86.5t-261.5 240.5t-98.5 339q0 149 61 283.5t163 230t240.5 151.5t289.5 56q86 0 254.5 -29t171.5 -51z" />
    <glyph glyph-name="H" unicode="H" horiz-adv-x="1658" 
d="M1397 205q0 -81 19.5 -112t92.5 -44q68 -12 68 -37q0 -22 -59 -22t-116.5 5t-96.5 5q-40 0 -100.5 -5t-119.5 -5t-59 22q0 25 68 37q139 26 139 150v389v5q0 25 -10 25h-783q-7 0 -8.5 -4t-1.5 -18v-379q0 -64 45.5 -110t116.5 -58q67 -11 67 -37q0 -22 -59 -22
q-58 0 -126.5 5t-113.5 5q-41 0 -104 -5t-121 -5q-59 0 -59 22q0 26 67 37q74 13 98.5 45.5t24.5 108.5v925q0 77 -18 105t-90 41q-68 12 -68 41q0 22 60 22q59 0 116 -3t94 -3q39 0 99 3t119 3t59 -22q0 -29 -68 -41q-75 -13 -107 -48.5t-32 -97.5v-393q0 -18 29 -18h760
q14 0 14 24v389q0 59 -31 95t-104 49q-68 12 -68 41q0 22 60 22q58 0 125.5 -3t111.5 -3q32 0 79 3t107 3t60 -22q0 -29 -68 -41q-70 -12 -89 -44t-19 -100v-925z" />
    <glyph glyph-name="I" unicode="I" horiz-adv-x="696" 
d="M266 1126q0 71 -30 102.5t-107 45.5q-68 12 -68 41q0 22 60 22q58 0 126 -3t113 -3q41 0 103.5 3t120.5 3q59 0 59 -22q0 -29 -68 -41q-79 -14 -112 -46t-33 -102v-925q0 -69 40.5 -103.5t121.5 -48.5q67 -11 67 -37q0 -22 -59 -22q-58 0 -126.5 5t-113.5 5
q-50 0 -127.5 -5t-134.5 -5q-59 0 -59 22q0 26 67 37q81 14 120.5 48.5t39.5 103.5v925z" />
    <glyph glyph-name="J" unicode="J" horiz-adv-x="614" 
d="M131 -324q135 0 135 324v1128q0 69 -30 100.5t-105 45.5q-68 12 -68 41q0 22 60 22q58 0 126 -3t113 -3q34 0 83.5 3t109.5 3q59 0 59 -22q0 -30 -67 -41q-74 -13 -95.5 -42.5t-21.5 -103.5v-837q0 -125 -7 -217.5t-13.5 -142t-26 -96.5t-27 -59t-34.5 -50
q-94 -136 -252 -136q-95 0 -153 26t-58 60q0 42 22.5 77.5t50.5 35.5q39 0 61.5 -12t41.5 -41q40 -60 96 -60z" />
    <glyph glyph-name="K" unicode="K" horiz-adv-x="1394" 
d="M1350 -10q-62 0 -146 5t-139 5q-20 0 -67.5 -1t-98.5 -1q-59 0 -59 22q0 24 55 35q57 14 57 41q0 17 -30 51l-435 480q-35 35 -47 35q-8 0 -8 -44q0 -120 10 -393q3 -74 31.5 -118.5t99.5 -57.5q68 -12 68 -37q0 -22 -59 -22q-60 0 -113 7t-88 7q-49 0 -125 -7t-133 -7
q-60 0 -60 22q0 25 68 37q77 14 107 48t30 110v921q0 70 -30 101t-107 45q-68 12 -68 41q0 22 60 22q58 0 122.5 -2t106.5 -2q35 0 87 2t112 2q59 0 59 -22q0 -30 -67 -41q-71 -12 -91 -45t-20 -101v-383q0 -38 10 -38t27.5 11.5t28.5 24.5l409 418q31 31 31 62q0 38 -39 47
q-35 9 -49 18t-14 23q0 22 59 22h111q70 0 199.5 4t131.5 4q45 0 45 -22q0 -30 -67 -41q-192 -34 -311 -135q-206 -175 -394 -383q-13 -13 11 -37l495 -528q71 -80 106.5 -104t118.5 -42q68 -14 68 -37q0 -22 -59 -22z" />
    <glyph glyph-name="L" unicode="L" horiz-adv-x="1196" 
d="M430 1161v-964q0 -68 31 -96.5t127 -28.5h299q12 0 51 15.5t63 37.5q41 36 61 63.5t46 81.5q7 20 20 41t25 21q11 0 18 -12t7 -25q0 -2 -1 -5.5t-1 -4.5q-48 -176 -56 -260q-4 -35 -28 -35q-146 0 -377.5 5t-325.5 5q-45 0 -114 -2.5t-115 -5.5l-47 -2q-58 0 -58 24
t45 35q84 16 125 49.5t41 98.5v950q0 71 -22.5 92t-102.5 35q-67 11 -67 41q0 22 59 22q58 0 122.5 -3t106.5 -3q49 0 125.5 3t133.5 3q59 0 59 -22q0 -29 -68 -41q-39 -7 -59 -11t-48 -13t-41.5 -20t-23.5 -28.5t-10 -40.5z" />
    <glyph glyph-name="M" unicode="M" horiz-adv-x="1845" 
d="M1505 1163q0 -171 7 -331t20 -354.5t18 -282.5q3 -63 40 -97.5t114 -48.5q68 -12 68 -37q0 -22 -60 -22q-58 0 -126 5t-113 5q-39 0 -98 -5t-118 -5t-59 22q0 28 68 37q59 7 81.5 40.5t22.5 107.5q0 105 -2.5 212t-4.5 163.5t-8.5 193t-8.5 184.5q0 33 -11 33
q-5 0 -22 -33l-455 -921q-22 -49 -35 -49q-11 0 -28 53q-73 220 -153 421t-214 511q-9 22 -16.5 22.5t-10.5 -22.5q-25 -186 -35.5 -272t-20 -219t-9.5 -265q0 -30 11.5 -61t43.5 -61t78 -38q68 -12 68 -37q0 -22 -60 -22t-109 5t-83 5q-32 0 -79.5 -5t-107.5 -5
q-59 0 -59 22q0 26 67 37q35 6 61.5 27.5t39.5 50.5t18 47t8 35q84 633 84 893q0 11 -1 26.5t-1 20.5q0 30 -30 65q-12 13 -27.5 23.5t-37 18t-35 11.5t-39.5 10t-31 7q-29 10 -29 35q0 22 47 22q41 0 178.5 -8t161.5 -8q16 0 29.5 -33t26 -87t18.5 -70l323 -822
q12 -30 25 -30q11 0 23 24l403 840q12 26 20.5 73.5t16 77t20.5 29.5h74q50 0 131 8t96 8h7q43 0 43 -20q0 -15 -19.5 -28.5t-34.5 -18.5q-31 -9 -45.5 -13.5t-43.5 -16t-43 -21.5t-26 -26.5t-12 -35.5z" />
    <glyph glyph-name="N" unicode="N" horiz-adv-x="1576" 
d="M1262 1331q46 0 107.5 3t127.5 3q59 0 59 -22q0 -30 -67 -41q-75 -13 -101 -36t-28 -75q-4 -98 -4 -1147q0 -51 -43 -51q-24 0 -72.5 34t-93.5 95q-24 33 -337.5 417.5t-391.5 479.5q-26 33 -43 33q-19 0 -19 -43q-10 -508 -10 -768q0 -141 131 -164q68 -12 68 -37
q0 -22 -60 -22t-109 5t-83 5q-32 0 -79.5 -5t-107.5 -5q-59 0 -59 22q0 13 15.5 21t52.5 18q105 27 118 168q37 356 37 819q0 101 -49.5 150t-152.5 82q-10 3 -22.5 8.5t-27 17.5t-14.5 23q0 29 47 29q67 -2 151 -6.5t165 -4.5q12 0 22 -6t13 -10t14 -18q27 -37 385 -488.5
t395 -495.5q33 -40 51 -40t21 43q4 132 4 655v178q-1 37 -41.5 71.5t-77.5 41.5q-68 12 -68 41q0 22 60 22h117z" />
    <glyph glyph-name="O" unicode="O" horiz-adv-x="1562" 
d="M92 655q0 112 29 215.5t88 193t142.5 155.5t198.5 103.5t249 37.5q133 0 255 -49.5t214 -136t147 -214t55 -274.5q0 -140 -45.5 -267.5t-129.5 -228t-217 -160t-296 -59.5q-134 0 -260 53t-221 142.5t-152 218t-57 270.5zM768 1280q-88 0 -165.5 -31t-133.5 -84.5
t-97 -125t-61 -154t-20 -168.5q0 -175 65.5 -327t185.5 -245.5t267 -93.5q226 0 344.5 153t118.5 421q0 196 -57 342.5t-171.5 229.5t-275.5 83z" />
    <glyph glyph-name="P" unicode="P" horiz-adv-x="1130" 
d="M903 938q0 180 -92 266t-250 86q-131 0 -131 -86v-977q0 -77 31.5 -121t105.5 -57q68 -12 68 -37q0 -22 -60 -22t-112.5 7t-87.5 7q-51 0 -130.5 -7t-135.5 -7q-60 0 -60 22q0 25 68 37q79 14 114 48.5t35 107.5v864q0 98 -26 145t-99 60q-67 11 -67 41q0 22 59 22
t110.5 -1t90.5 -1q44 0 123 6.5t104 6.5q232 0 379 -98.5t147 -262.5q0 -96 -29.5 -179.5t-85.5 -148t-146.5 -102t-204.5 -37.5q-41 0 -67 12.5t-26 26.5q0 7 11 15t22 8q1 0 31 -5.5t63 -5.5q248 0 248 367z" />
    <glyph glyph-name="Q" unicode="Q" horiz-adv-x="1650" 
d="M766 -111q-31 25 -121 75t-115 56q-49 13 -105.5 46t-116 88.5t-107.5 124.5t-78.5 161t-30.5 189q0 201 93 367t261 263t377 97q109 0 214 -26t199.5 -79.5t166.5 -128.5t114 -179.5t42 -225.5q0 -101 -19.5 -191t-52 -158t-77.5 -127t-93.5 -100t-103 -73.5t-101.5 -52
t-94 -31.5q-29 -7 -29 -19q0 -10 8 -18q57 -61 110 -106t136 -105q102 -73 190 -101t209 -28q84 0 115 14q24 8 39 8q23 0 23 -16q0 -19 -7 -29.5t-30 -23.5q-118 -68 -240 -68q-138 0 -241 38t-211 116q-167 120 -324 243zM784 1282q-110 0 -204.5 -47t-158.5 -124.5
t-100 -178t-36 -207.5q0 -132 46 -258.5t124 -224t190 -157.5t236 -60q90 0 169 39t135.5 103.5t97.5 147.5t61 172.5t20 176.5q0 117 -44 229t-120 198t-185 138.5t-231 52.5z" />
    <glyph glyph-name="R" unicode="R" horiz-adv-x="1460" 
d="M788 666q-14 -6 0 -27q138 -209 200 -289q97 -124 216 -231q50 -43 101 -55.5t135 -12.5q30 0 30 -22q0 -21 -18 -36t-46 -22.5t-53 -10.5t-48 -3q-95 0 -163.5 24.5t-119.5 86.5q-12 14 -55 66.5t-59.5 74t-52.5 69t-69.5 99t-74.5 117.5q-32 52 -88 79q-72 35 -162 45
q-31 3 -31 -40v-353q0 -152 137 -176q68 -12 68 -37q0 -22 -60 -22t-112.5 7t-87.5 7q-51 0 -130.5 -7t-135.5 -7q-60 0 -60 22q0 25 68 37q79 14 114 48.5t35 107.5v864q0 98 -26 145t-99 60q-67 11 -67 41q0 22 59 22t110.5 -1t90.5 -1q34 0 102 5.5t133 5.5
q226 0 343.5 -85t117.5 -251q0 -222 -242 -344zM846 977q0 54 -6.5 96t-24.5 83t-48.5 68t-80.5 43.5t-117 16.5q-77 0 -103 -28t-28 -82q-8 -200 -8 -429q0 -47 24.5 -59t84.5 -12q136 0 221.5 90t85.5 213z" />
    <glyph glyph-name="S" unicode="S" horiz-adv-x="952" 
d="M457 35q114 0 174.5 63t60.5 172q0 172 -311 381q-124 83 -192 168.5t-68 198.5q0 138 116 240t295 102q58 0 114 -10t90.5 -20.5t39.5 -10.5q12 0 21.5 -14.5t13.5 -32.5q1 -4 5.5 -32t8.5 -70t4 -70q0 -51 -14 -51q-28 0 -47.5 16.5t-24.5 40.5q-15 87 -78 136.5
t-151 49.5q-99 0 -167 -60.5t-68 -160.5q0 -44 24.5 -88t67.5 -82.5t81 -66t86 -58.5l4.5 -3t4 -2.5t4.5 -2.5q41 -27 78 -55t82 -72.5t77 -89.5t54 -104t22 -119q0 -65 -24.5 -126.5t-73 -115t-133.5 -86.5t-195 -33q-167 0 -274 49q-35 16 -43 35q-16 33 -26.5 104.5
t-10.5 131.5q0 16 13.5 37.5t29.5 21.5q20 0 61 -135q28 -89 100.5 -132.5t168.5 -43.5z" />
    <glyph glyph-name="T" unicode="T" horiz-adv-x="1372" 
d="M770 209q0 -71 41 -108.5t121 -51.5q67 -11 67 -37q0 -22 -59 -22q-58 0 -126.5 5t-113.5 5q-50 0 -127.5 -5t-134.5 -5q-59 0 -59 22q0 26 67 37q80 14 120 51.5t40 108.5v932q0 81 -37 88q-39 8 -151 8h-96q-53 0 -100 -21t-68 -59q-12 -24 -37.5 -51t-46.5 -27
q-15 0 -15 27q0 19 11 41q44 94 63 227q6 47 35 47q7 0 24 -22.5t27 -42.5q11 -20 53 -30.5t90 -10.5h781q78 0 118 28q15 10 36.5 30.5t37 32t29.5 11.5q6 0 10 -15.5t4 -31.5q0 -3 -1 -9.5t-1 -8.5q-33 -139 -33 -203v-25q0 -22 -9 -43.5t-23 -21.5t-22.5 20t-16.5 64
q-16 94 -189 94h-194q-78 0 -96.5 -15.5t-18.5 -78.5v-934z" />
    <glyph glyph-name="U" unicode="U" horiz-adv-x="1511" 
d="M1321 1120q-6 -106 -10 -208t-6.5 -224.5t-4.5 -175.5q-5 -156 -76 -280t-192 -192.5t-270 -68.5q-269 0 -410 140t-141 381v628q0 67 -27 103t-67 47q-68 17 -68 45q0 22 60 22q29 0 92.5 -3t103.5 -3q34 0 89.5 2t74.5 2q59 0 59 -22q0 -13 -15 -21t-52 -20
q-29 -9 -57.5 -50.5t-28.5 -97.5v-575q0 -237 117 -356t313 -119q204 0 305.5 142t101.5 390q0 125 -8 441q-2 85 -23 148.5t-61 74.5q-67 18 -67 41q0 22 59 22q31 0 78 -1t76 -1q35 0 90 3t76 3q59 0 59 -22q0 -27 -68 -41q-95 -19 -102 -154z" />
    <glyph glyph-name="V" unicode="V" horiz-adv-x="1376" 
d="M1096 1331q43 0 126.5 3t106.5 3q60 0 60 -22q0 -27 -68 -41q-70 -16 -122.5 -66.5t-78.5 -111.5l-385 -934q-1 -4 -9.5 -30t-17.5 -50.5t-20 -51.5t-22 -44t-19 -17q-10 0 -61 146l-375 1005q-47 122 -143 150q-68 21 -68 45q0 22 59 22q28 0 113.5 -3t136.5 -3
q46 0 120 2t89 2q60 0 60 -22q0 -29 -68 -41q-49 -10 -89 -34t-40 -50q0 -12 6.5 -47t11.5 -49l260 -689q20 -57 37 -57q14 0 37 57l289 717q3 6 9.5 33t6.5 33q0 22 -45 46.5t-92 37.5q-67 18 -67 41q0 22 59 22q23 0 92 -1t111 -1z" />
    <glyph glyph-name="W" unicode="W" horiz-adv-x="1875" 
d="M602 1337q30 0 92.5 -3t100.5 -3q33 0 86 2t71 2q60 0 60 -22q0 -12 -13 -22t-29 -16.5t-29 -19t-13 -28.5q0 -5 4 -17q6 -20 42.5 -111.5t49.5 -119.5q12 -27 18 -27q7 0 19 27q45 100 82 231q2 6 2 15q0 16 -12 29t-26 20t-26 17t-12 22q0 22 59 22q32 0 61 -2t46 -2
q23 0 59.5 3t61.5 3q59 0 59 -22q0 -27 -67 -41q-62 -14 -86.5 -32.5t-53.5 -65.5q-37 -63 -108 -252q-15 -38 -15 -64q0 -10 2 -14l211 -543q9 -20 23 12q76 202 250 793q12 37 12 74q0 72 -61 88q-68 19 -68 41t59 22q27 0 74.5 -1t73.5 -1q36 0 98.5 3t85.5 3
q60 0 60 -22q0 -27 -68 -41q-107 -25 -168 -180l-330 -975q-51 -144 -65 -144q-7 0 -18 12.5t-17 26.5q-48 108 -88 208t-85 220t-79 205q-8 17 -14 7l-8 -19q-119 -281 -234 -604q-9 -25 -21.5 -44.5t-23.5 -19.5q-8 0 -29 58l-442 1110q-51 107 -147 135q-68 21 -68 45
q0 22 59 22q31 0 89 -3t94 -3q42 0 108 2t82 2q60 0 60 -22q0 -24 -68 -41q-41 -10 -41 -68q0 -19 4 -41t8 -35l4 -12q159 -406 336 -805q18 -40 31 -2l160 396q12 30 12 47q0 16 -16 59l-117 291q-25 62 -81 106.5t-114 61.5q-67 21 -67 45q0 22 59 22z" />
    <glyph glyph-name="X" unicode="X" horiz-adv-x="1447" 
d="M1133 1331q43 0 126 6t107 6q59 0 59 -22q0 -24 -67 -41q-52 -13 -116 -74t-150 -162l-236 -278q-37 -43 -37 -61q0 -5 8 -21l318 -457q46 -68 103.5 -113.5t115.5 -60.5q68 -17 68 -41q0 -22 -60 -22q-24 0 -132 6t-161 6q-46 0 -118.5 -1t-92.5 -1q-59 0 -59 23
q0 21 68 40q35 10 62.5 36t27.5 61q0 32 -25 67l-213 310q-14 21 -24.5 22.5t-20.5 -12.5l-276 -357q-19 -25 -19 -47q0 -29 25 -51t67 -31q68 -17 68 -41q0 -22 -60 -22q-14 0 -77 2t-105 2q-49 0 -138 -6t-120 -6q-59 0 -59 22q0 24 67 45q63 18 148.5 71.5t144.5 125.5
l256 319q37 50 37 76q0 13 -4 17l-297 417q-69 97 -121.5 135t-116.5 56q-67 21 -67 45q0 22 59 22q30 0 134 -5t159 -5q47 0 118.5 2t84.5 2q59 0 59 -22q0 -13 -14.5 -21.5t-52.5 -19.5q-42 -12 -59.5 -18.5t-31.5 -18t-14 -27.5q0 -32 68 -127l186 -262q22 -31 33 -31
q10 0 29 25l219 289q53 66 53 104q0 47 -92 64q-25 5 -46.5 17t-21.5 24q0 22 60 22q23 0 78.5 -1t87.5 -1z" />
    <glyph glyph-name="Y" unicode="Y" horiz-adv-x="1183" 
d="M541 221v303q0 58 -52 152l-239 393q-115 182 -182 201q-68 21 -68 45q0 22 59 22q26 0 107.5 -3t132.5 -3q34 0 89.5 2t74.5 2q59 0 59 -22q0 -26 -67 -41q-34 -9 -50 -19.5t-16 -31.5q0 -25 27 -74l188 -338q26 -45 38 -61.5t20 -16.5q11 0 23.5 15.5t43.5 62.5
q74 113 172 285q37 62 37 104q0 59 -84 72q-23 3 -45.5 15.5t-22.5 25.5q0 22 60 22q31 0 77.5 -1t75.5 -1q47 0 120.5 3t92.5 3q60 0 60 -22q0 -20 -109 -51q-26 -7 -46.5 -19.5t-44.5 -41.5t-38.5 -50t-50.5 -76q-121 -185 -227 -368q-36 -63 -43.5 -92t-7.5 -93v-303
q0 -69 42 -113.5t119 -58.5q68 -12 68 -37q0 -22 -60 -22q-58 0 -126 5t-113 5q-50 0 -127.5 -5t-134.5 -5q-60 0 -60 22q0 25 68 37q160 28 160 172z" />
    <glyph glyph-name="Z" unicode="Z" horiz-adv-x="1234" 
d="M473 -4q-41 0 -123 -1t-121 -1h-157q-5 0 -9 7t-5 15l-1 7q0 14 39 74.5t80 115.5q33 44 111 150.5t107 146.5t91 125.5t97 136t88.5 127t102.5 149.5t104 156q8 12 8 17q0 13 -39 16q-148 4 -299 4q-158 0 -209 -4q-57 -3 -109.5 -37.5t-78.5 -103.5q-26 -66 -58 -66
q-18 0 -18 23q0 18 14 55q47 146 55 227q2 35 31 35q15 0 51 -29q21 -16 150 -16q106 -2 297 -2q245 0 473 6q9 0 18.5 -15t3.5 -22l-125 -166q-173 -233 -256.5 -347t-198.5 -280.5t-237 -355.5q-6 -9 -6 -24q0 -13 6.5 -23.5t16.5 -11.5q98 -10 231 -10q129 0 289 10
q78 6 145.5 58t108.5 149q5 15 18 29t27 14q18 0 18 -27q0 -19 -30 -133.5t-46 -148.5q-15 -29 -27 -34q-4 -1 -9 -1q-123 0 -328.5 3t-290.5 3z" />
    <glyph glyph-name="bracketleft" unicode="[" horiz-adv-x="763" 
d="M307 1438l338 -2q37 0 37 -27t-53 -31l-221 -12q-24 0 -52 -30t-28 -58v-1493q0 -40 21 -68.5t50 -31.5l230 -27q53 -8 53 -37q0 -31 -53 -31h-336q-38 0 -51 8.5t-13 43.5v1726q0 50 12.5 60t65.5 10z" />
    <glyph glyph-name="backslash" unicode="\" horiz-adv-x="817" 
d="M774 -96q0 -1 1 -3t1 -3q0 -10 -11 -17.5t-24 -7.5q-60 0 -73 31l-609 1423q0 1 -1 4t-1 4q0 10 9 18.5t20 8.5q64 0 80 -35z" />
    <glyph glyph-name="bracketright" unicode="]" horiz-adv-x="763" 
d="M449 1438q52 0 64.5 -10t12.5 -60v-1726q0 -35 -12.5 -43.5t-50.5 -8.5h-336q-53 0 -53 31q0 29 53 37l229 27q29 3 50.5 31.5t21.5 68.5v1493q0 28 -28 58t-52 30l-221 12q-53 4 -53 31t37 27z" />
    <glyph glyph-name="asciicircum" unicode="^" horiz-adv-x="1024" 
d="M512 1235q315 -452 408 -610q6 -9 6 -21q0 -9 -5.5 -15.5t-13.5 -6.5h-4q-57 14 -76 36q-26 28 -73 92.5t-83 117.5t-90 134t-61 91q-8 9 -11 9t-9 -9q-8 -11 -63 -94t-93 -138t-83 -118.5t-64 -84.5q-23 -23 -76 -36h-4q-8 0 -13.5 6.5t-5.5 15.5q0 12 6 21
q52 87 200 306t208 304z" />
    <glyph glyph-name="underscore" unicode="_" horiz-adv-x="1024" 
d="M49 -270h948q10 0 19.5 -7t9.5 -16q0 -1 -1 -3t-1 -3q-9 -25 -13.5 -36.5t-18 -24.5t-31.5 -13h-932q-10 0 -19.5 8t-9.5 17q0 22 12.5 50t36.5 28z" />
    <glyph glyph-name="grave" unicode="`" horiz-adv-x="571" 
d="M82 1303q0 22 22 39.5t50 17.5q68 0 102 -55q46 -75 118 -207t72 -152q0 -26 -26 -26q-23 0 -55 45q-69 96 -142.5 175t-107 113t-33.5 50z" />
    <glyph glyph-name="a" unicode="a" horiz-adv-x="817" 
d="M700 66q50 0 82 28q9 9 21 1.5t12 -19.5q0 -9 -24 -34t-64.5 -48t-75.5 -23q-33 0 -59 11t-40.5 26.5t-24.5 31.5t-16.5 27t-10.5 11q-8 0 -28 -16.5t-45 -36.5t-73.5 -36.5t-105.5 -17.5q-63 0 -119.5 51t-56.5 111q0 123 149 184l209 86q39 17 47 28.5t10 53.5l5 131
q2 54 -32.5 93t-88.5 39q-35 0 -73.5 -21.5t-51.5 -44.5q-8 -13 -8 -39q0 -5 1 -14.5t1 -14.5q0 -20 -58.5 -45.5t-83.5 -25.5q-16 0 -16 18q0 69 82 141q59 54 145 100t160 46q72 0 121 -53.5t47 -128.5l-10 -443q0 -157 73 -157zM236 178q0 -53 32.5 -82.5t67.5 -29.5
q60 0 123 55q22 18 24 82l4 100q3 43 -18 43q-14 0 -29 -6q-109 -37 -156.5 -79.5t-47.5 -82.5z" />
    <glyph glyph-name="b" unicode="b" horiz-adv-x="1054" 
d="M578 35q115 0 183 102.5t68 261.5q0 62 -18 124.5t-51.5 117t-90 89t-126.5 34.5q-50 0 -111 -19t-92 -53q-23 -25 -33 -61t-10 -113v-248q0 -103 84.5 -169t196.5 -66zM154 215v944q0 58 -24 99t-73 51q-16 3 -16 26q0 21 14 25q47 11 86 24.5t85.5 33t60.5 24.5
q1 0 2 1t2 1q4 0 8 -4.5t4 -9.5q0 -1 -1.5 -32t-3 -82t-1.5 -102v-419q0 -20 0.5 -29t2 -19.5t5 -14.5t10.5 -5q70 59 154.5 90t144.5 31q158 0 263.5 -118t105.5 -286q0 -92 -28 -175.5t-82 -150.5t-142.5 -107t-200.5 -40q-56 0 -124 15t-117 30t-58 15q-14 0 -35 -18.5
t-24 -18.5q-12 0 -22.5 7.5t-10.5 16.5q0 1 1.5 11.5t3.5 28.5t4.5 41t4 54.5t1.5 61.5z" />
    <glyph glyph-name="c" unicode="c" horiz-adv-x="772" 
d="M682 653q-30 0 -51 21q-55 60 -88 78t-105 18q-71 0 -124 -46.5t-77 -114.5t-24 -146q0 -99 39.5 -186.5t115.5 -143t171 -55.5q62 0 100 23t80 79q10 10 18 10q9 0 17 -9t8 -19q0 -38 -47 -82.5t-128 -76.5t-165 -32q-101 0 -182 55.5t-124.5 146t-43.5 196.5
q0 126 54.5 235t155 175.5t222.5 66.5q167 0 246 -98q10 -13 10 -25q0 -24 -30 -47t-48 -23z" />
    <glyph glyph-name="d" unicode="d" horiz-adv-x="1036" 
d="M469 776q-27 0 -56.5 -8.5t-64.5 -32.5t-62 -60.5t-45 -98.5t-18 -140q0 -64 12 -118t32 -91.5t47 -67t55 -47t58 -29t54 -16t45 -4.5q84 0 139.5 54t55.5 129v276q0 44 -17.5 88.5t-48.5 81.5t-79.5 60.5t-106.5 23.5zM692 805q15 -19 21 -19q8 0 8 50v323q0 79 -24 109
t-81 41q-16 3 -16 26q0 22 14 25q64 15 121.5 36t87.5 33.5t41 12.5q12 0 15 -12q0 -6 -3.5 -38.5t-7.5 -96t-4 -144.5v-926q0 -68 9.5 -100.5t33.5 -32.5q64 0 94 6q10 2 20.5 -3.5t10.5 -22.5q0 -15 -9 -22t-19 -7q-109 -14 -240 -70q-24 -12 -49 -12q-5 0 -5.5 1t-0.5 4
v3q0 13 5 65t5 70v13q-38 -58 -107 -102t-161 -44q-112 0 -200.5 62t-133.5 156.5t-45 199.5q0 90 32 172.5t90 146.5t146 102t192 38q40 0 95 -16t65 -27z" />
    <glyph glyph-name="e" unicode="e" horiz-adv-x="798" 
d="M436 784q-79 0 -144 -58.5t-65 -104.5q0 -31 39 -31h168q96 0 150 10q20 3 20 57q0 58 -51.5 92.5t-116.5 34.5zM469 848q122 0 195 -59.5t73 -170.5q0 -47 -16 -69.5t-55 -22.5h-426q-28 0 -40 -13.5t-12 -61.5q0 -143 88 -250t222 -107q47 0 103.5 22.5t92.5 69.5
q15 15 23 15q10 0 13 -14.5t-1 -26.5q-18 -65 -106.5 -127t-216.5 -62q-144 0 -244.5 123t-100.5 322q0 114 53 213.5t147.5 159t207.5 59.5z" />
    <glyph glyph-name="f" unicode="f" horiz-adv-x="651" 
d="M791 1241q-17 0 -39 19t-43 41.5t-63.5 41.5t-96.5 19q-101 0 -161 -95.5t-60 -293.5v-109q0 -45 51 -45h246q8 0 8 -22q0 -24 -8.5 -50t-18.5 -26h-196q-51 0 -66.5 -8.5t-15.5 -26.5v-547q0 -64 88 -90q47 -16 47 -37q0 -18 -41 -18q-42 0 -84.5 5t-77.5 5t-81.5 -5
t-88.5 -5q-41 0 -41 18q0 21 47 37q88 26 88 90v578q-63 0 -106 4q-7 2 -18 14.5t-11 22.5q0 5 14 12q28 7 46.5 15t41.5 20.5t33 17.5q0 136 30 246t77 178.5t108.5 115t120 65t115.5 18.5q225 0 225 -123q0 -34 -20.5 -58t-48.5 -24z" />
    <glyph glyph-name="g" unicode="g" horiz-adv-x="890" 
d="M737 604q0 -158 -98.5 -272.5t-235.5 -114.5q-20 0 -54.5 6.5t-55.5 18.5q-90 -69 -90 -101q0 -20 20.5 -36t53.5 -25.5t62.5 -14.5t59.5 -8q221 -21 299 -44q132 -38 153 -128q5 -20 5 -43q0 -108 -71 -211t-177 -164t-209 -61q-55 0 -105.5 7t-101 24t-87 43t-59.5 67
t-23 93q0 64 32 110t68 66q39 25 57.5 38t45 36.5t40.5 46.5q-30 6 -59 17t-58.5 28.5t-48 45.5t-18.5 62q0 39 47 76q12 9 39.5 25t47.5 32t34 37q-12 3 -38 23.5t-56.5 54t-53 85.5t-22.5 105q0 139 106 231.5t250 92.5q53 0 121.5 -24.5t97.5 -30.5q47 -9 109 -9
q18 0 59 3.5t49 3.5q19 0 19 -45q0 -35 -19 -35q-40 0 -65 -2t-32 -5t-14.5 -6t-15.5 -4q-8 -23 -8 -94zM410 791q-81 0 -132 -77.5t-51 -160.5q0 -101 56.5 -182.5t140.5 -81.5q75 0 127.5 76t52.5 178q0 97 -55.5 172.5t-138.5 75.5zM168 -274q0 -104 70.5 -171t189.5 -67
q123 0 213 82t90 207q0 35 -28 64.5t-63 45t-73 23.5q-75 15 -200 20q-4 0 -15 1t-19.5 1t-13.5 -2q-22 -14 -102 -94q-49 -57 -49 -110z" />
    <glyph glyph-name="h" unicode="h" horiz-adv-x="1054" 
d="M877 139q0 -65 84 -90q47 -16 47 -37q0 -18 -41 -18q-42 0 -83.5 5t-76.5 5t-76.5 -5t-83.5 -5q-41 0 -41 18q0 21 47 37q80 23 80 90v418q0 74 -60.5 129t-129.5 55q-43 0 -93 -11.5t-77 -33.5q-33 -27 -44.5 -56t-11.5 -91v-416q1 -38 21 -55.5t57 -28.5q47 -16 47 -37
q0 -18 -41 -18q-42 0 -81 5t-74 5t-79.5 -5t-86.5 -5q-41 0 -41 18q0 21 47 37q26 8 42 15t30.5 25t15.5 44v1026q0 132 -92 150q-16 3 -16 26q0 21 14 25q36 9 72.5 20.5t59 20t56.5 22t49 19.5l5 2q4 0 6 -1.5t5 -6.5l3 -6q0 -5 -5 -30.5t-9.5 -88.5t-4.5 -160v-356
q0 -56 17 -76q173 129 309 129q100 0 167 -79.5t67 -199.5v-430z" />
    <glyph glyph-name="i" unicode="i" horiz-adv-x="501" 
d="M135 1157q0 44 30 74.5t73 30.5q44 0 74 -30.5t30 -74.5q0 -43 -30 -72.5t-74 -29.5q-43 0 -73 29.5t-30 72.5zM332 889q14 0 14 -10q-18 -189 -18 -277v-475q0 -16 6 -28.5t12 -19t22 -14t22 -9t26 -7.5q47 -16 47 -37q0 -18 -41 -18q-40 0 -85.5 5t-80.5 5t-80 -5
t-86 -5t-41 18q0 21 47 37q55 16 71 32q17 18 17 46v444q0 131 -96 150q-16 3 -16 27q0 20 14 24q60 14 118 43.5t90.5 51.5t37.5 22z" />
    <glyph glyph-name="j" unicode="j" horiz-adv-x="434" 
d="M104 1155q0 44 30 74.5t73 30.5q44 0 74 -30.5t30 -74.5q0 -43 -30 -72.5t-74 -29.5q-43 0 -73 29.5t-30 72.5zM295 563v-377q0 -325 -62 -497q-38 -105 -119.5 -191t-142.5 -86q-13 0 -28 6t-15 15q0 10 9 21t14 14q83 20 135 129q59 125 59 544v430q0 131 -94 150
q-16 3 -16 27q0 20 14 24q60 14 118 43.5t90.5 51.5t37.5 22q14 0 14 -10q-14 -147 -14 -316z" />
    <glyph glyph-name="k" unicode="k" horiz-adv-x="960" 
d="M520 18q0 14 14 24t31 14.5t31 14t14 23.5q0 12 -14 29l-258 297q-4 5 -12.5 2t-8.5 -14q-2 -39 -2 -132q0 -96 2 -143q0 -38 18 -56t54 -28q47 -16 47 -37q0 -18 -47 -18q-41 0 -74.5 5t-68.5 5t-77 -5t-83 -5q-47 0 -47 18q0 21 47 37q26 8 42 15t31 25t15 44v1026
q0 72 -21.5 105.5t-72.5 44.5q-17 3 -17 26q0 21 15 25q36 9 74 20.5t59 19.5t59 23t49 19q1 0 2.5 1t2.5 1q4 0 8 -6.5t4 -12.5q0 -8 -5 -41.5t-9.5 -94.5t-4.5 -138v-678q0 -10 3 -13t10 -1q29 6 71 43q79 68 147 136t87 95q2 2 2 6q0 10 -15.5 20t-37.5 15q-25 8 -25 17
q0 11 10.5 18t19 8.5t15.5 1.5h101q44 0 116 12t80 13q5 0 11 -4.5t6 -10.5q0 -12 -13.5 -26t-27.5 -17q-62 -12 -144 -63q-45 -27 -262 -217q-8 -6 -10 -17.5t4 -17.5q73 -89 168 -191.5t133 -136.5q32 -30 83 -59t85 -39q47 -16 47 -37q0 -18 -41 -18q-50 0 -178 5t-195 5
q-47 0 -47 18z" />
    <glyph glyph-name="l" unicode="l" horiz-adv-x="491" 
d="M317 127q0 -19 6 -32t22 -22t24 -12t31 -10q4 -1 6 -2q47 -16 47 -37q0 -18 -41 -18t-86 5t-80 5t-80 -5t-86 -5t-41 18q0 21 47 37q55 16 71 32q17 18 17 46v1032q0 131 -94 150q-17 3 -17 26q0 21 15 25q36 9 72.5 20.5t59 20t56.5 22t49 19.5q1 0 2 1t2 1
q4 0 8.5 -4.5t4.5 -9.5q0 -6 -4 -38.5t-7.5 -96t-3.5 -144.5v-1024z" />
    <glyph glyph-name="m" unicode="m" horiz-adv-x="1593" 
d="M1411 127q0 -16 6 -28.5t12 -19t22 -14t22 -9t26 -7.5q47 -16 47 -37q0 -18 -41 -18q-42 0 -84.5 5t-77.5 5t-81 -5t-88 -5q-41 0 -41 18q0 21 47 37q55 16 71 32q17 18 17 46v430q0 75 -49.5 135t-114.5 60q-108 0 -178 -56q-23 -16 -40.5 -53.5t-17.5 -93.5v-422
q0 -24 14.5 -40t30 -22.5t40.5 -13.5q5 -1 8 -2q47 -16 47 -37q0 -18 -41 -18q-42 0 -87.5 5t-80.5 5t-81.5 -5t-88.5 -5q-41 0 -41 18q0 21 47 37q56 16 72 32q18 18 18 46v430q0 75 -49.5 135t-114.5 60q-108 0 -178 -56q-55 -40 -55 -147v-422q0 -16 6 -28.5t12 -19
t22 -14t22 -9t26 -7.5q47 -16 47 -37q0 -18 -41 -18q-42 0 -86.5 5t-79.5 5t-79.5 -5t-86.5 -5q-41 0 -41 18q0 21 47 37q55 16 71 32q17 18 17 46v440q0 65 -16 101.5t-64 46.5q-16 3 -16 26q0 21 14 25q26 6 50 14.5t40 15.5t38.5 20t32 19t35 23.5t32.5 22.5
q5 0 9.5 -4.5t4.5 -10.5t-5 -57.5t-5 -73.5q0 -20 4 -24q145 137 324 137q73 0 118 -29.5t72 -93.5q10 -22 20.5 -20.5t38.5 28.5q47 45 126 80t169 35q95 0 150 -85t55 -200v-436z" />
    <glyph glyph-name="n" unicode="n" horiz-adv-x="1081" 
d="M571 750q-121 0 -188 -54q-55 -40 -55 -147v-422q0 -16 6 -28.5t12 -19t22 -14t22 -9t26 -7.5q47 -16 47 -37q0 -18 -41 -18q-42 0 -86.5 5t-79.5 5t-79.5 -5t-86.5 -5q-41 0 -41 18q0 21 47 37q55 16 71 32q17 18 17 46v440q0 65 -16 101.5t-64 46.5q-16 3 -16 26
q0 21 14 25q26 6 50 14.5t40 15.5t38.5 20t32 19t35 23.5t32.5 22.5q5 0 9.5 -4.5t4.5 -10.5t-5 -57.5t-5 -73.5q0 -20 4 -24q143 137 330 137q99 0 165 -82t66 -203v-436q0 -16 6 -28.5t12 -19t22 -14t22 -9t26 -7.5q47 -16 47 -37q0 -18 -41 -18q-42 0 -85.5 5t-78.5 5
t-80 -5t-87 -5q-41 0 -41 18q0 21 47 37q55 16 71 32q17 18 17 46v430q0 88 -50.5 139.5t-134.5 53.5z" />
    <glyph glyph-name="o" unicode="o" horiz-adv-x="1013" 
d="M520 848q87 0 166 -33.5t134.5 -89.5t88.5 -131.5t33 -157.5q0 -92 -30 -174.5t-86 -148t-146 -104t-201 -38.5q-173 0 -290 116.5t-117 295.5q0 113 58.5 220t163 176t226.5 69zM485 784q-59 0 -102 -18.5t-78 -63.5q-65 -83 -65 -272q0 -102 35.5 -192.5t101.5 -147.5
t145 -57q154 0 211 112q41 78 41 242q0 99 -35 189t-102.5 149t-151.5 59z" />
    <glyph glyph-name="p" unicode="p" horiz-adv-x="1062" 
d="M561 35q26 0 58.5 10.5t69.5 37.5t67.5 66.5t50.5 103.5t20 142q0 90 -21 158t-51 105.5t-70.5 60.5t-72.5 30t-63 7q-98 0 -176 -60q-49 -36 -54 -145q0 -16 -1 -60.5t-1 -70.5q0 -76 5 -184q6 -109 49 -150q55 -51 190 -51zM174 -451v1039q0 19 -8.5 49t-31.5 62
t-54 38q-7 1 -12 9.5t-5 17.5q0 20 15 24q89 21 237 82q1 0 2 1t2 1q4 0 8.5 -6t4.5 -12q0 -12 -5 -59t-5 -64q0 -16 2 -18q39 39 142 87t189 48q101 0 179.5 -57t117.5 -144t39 -186q0 -122 -60.5 -234.5t-168 -184t-232.5 -71.5q-46 0 -110.5 20t-93.5 46q-4 0 -6.5 -42.5
t-2.5 -62.5v-383q0 -16 7.5 -28t24 -20t27 -12t33.5 -10t27 -7q47 -16 47 -37q0 -19 -45 -19q-41 0 -99 5.5t-93 5.5t-79 -5.5t-85 -5.5q-43 0 -43 19q0 21 47 37q55 16 70 31q18 18 18 46z" />
    <glyph glyph-name="q" unicode="q" horiz-adv-x="1069" 
d="M526 782q-118 0 -202 -96.5t-84 -265.5q0 -78 21.5 -142.5t55 -106t76 -70t84 -40.5t80.5 -12q115 0 176 47q19 13 28.5 61t11 86.5t1.5 106.5q0 162 -2 213q-3 92 -74 155.5t-172 63.5zM840 803q14 0 24 7t15.5 16t13.5 28q8 8 14 8q10 0 21.5 -6.5t11.5 -13.5
q0 -2 -12.5 -85t-12.5 -153v-1055q0 -13 6 -24t12 -17.5t21 -13t21.5 -9t25 -7.5t21.5 -6q47 -16 47 -37q0 -19 -41 -19q-42 0 -95 5.5t-89 5.5q-35 0 -79.5 -5.5t-86.5 -5.5q-41 0 -41 19q0 21 47 37q55 16 70 31q18 18 18 46v441q0 61 -12 61q-9 0 -19 -10
q-30 -27 -100.5 -48.5t-159.5 -21.5q-109 0 -200.5 44.5t-150 136t-58.5 213.5q0 216 140 349.5t366 133.5q62 0 124.5 -11t99.5 -22.5t38 -11.5z" />
    <glyph glyph-name="r" unicode="r" horiz-adv-x="684" 
d="M328 541v-404q1 -19 11.5 -34.5t30 -26t33.5 -16t35 -11.5q47 -16 47 -37q0 -18 -41 -18q-42 0 -92.5 5t-85.5 5t-79.5 -5t-86.5 -5q-41 0 -41 18q0 21 47 37q20 6 30 10t23 12.5t18.5 22t6.5 33.5v440q0 131 -84 148q-8 2 -14 9.5t-6 16.5t6 16t12 9q36 9 73 25t58 27.5
t54.5 33.5t42.5 27q1 0 2 1t2 1q7 0 12 -15q0 -54 -6 -153q0 -4 2 -4q3 0 12 10t20.5 23t16.5 18q45 41 97 64.5t91 23.5q42 0 70.5 -19t28.5 -47q0 -33 -25.5 -69.5t-54.5 -36.5q-17 0 -59.5 18.5t-63.5 18.5q-59 0 -101 -39.5t-42 -132.5z" />
    <glyph glyph-name="s" unicode="s" horiz-adv-x="661" 
d="M360 795q-58 0 -93.5 -37t-35.5 -99q0 -28 15 -54.5t43.5 -50.5t51 -39.5t55.5 -35.5q2 -1 3.5 -2l3 -2t3.5 -2q37 -24 58.5 -39.5t59 -50.5t57 -77t19.5 -89q0 -116 -67.5 -181t-227.5 -65q-77 0 -142 25.5t-75 48.5q-24 49 -27 125q0 18 35 18q28 0 31 -14
q11 -54 69.5 -100.5t120.5 -46.5q71 0 107.5 39.5t36.5 103.5q0 50 -37 89.5t-119 96.5q-92 66 -144 124t-52 126q0 46 15 87.5t46 77t86 56.5t127 21q56 0 96 -14.5t58 -32.5q34 -42 34 -160q0 -8 -12 -8q-16 0 -43 15t-27 28q-2 44 -40.5 81.5t-88.5 37.5z" />
    <glyph glyph-name="t" unicode="t" horiz-adv-x="643" 
d="M387 -29q-99 0 -156 60.5t-57 183.5v475q0 19 -15.5 25t-62.5 6q-6 0 -15 15.5t-9 25.5q0 9 10 14q48 14 97.5 59.5t81 84t38.5 38.5q8 0 15 -1t14 -6t6 -13l-17 -90q-3 -13 13.5 -21t38.5 -8h233q8 0 14.5 -15.5t6.5 -33.5t-6.5 -33.5t-14.5 -15.5h-203
q-55 0 -68.5 -8.5t-13.5 -48.5v-388q0 -104 40 -148t96 -44q102 0 153 39q8 6 14.5 -4t6.5 -23t-32.5 -42t-91.5 -56t-116 -27z" />
    <glyph glyph-name="u" unicode="u" horiz-adv-x="1079" 
d="M885 850h4q14 0 22.5 -12.5t1.5 -24.5q-5 -10 -10.5 -63t-5.5 -82v-435q0 -72 7 -106.5t30 -34.5q64 0 94 6q10 2 20.5 -3.5t10.5 -22.5q0 -15 -9.5 -22t-19.5 -7q-107 -14 -239 -70q-24 -12 -50 -12q-5 0 -5.5 1t-0.5 4v3q0 13 5 65t5 70v13q-78 -77 -159 -111.5
t-178 -34.5q-104 0 -169 64t-65 180v416q0 44 -21 71t-67 46q-27 9 -27 30q0 29 31 35q39 1 69.5 5t46 7t46 11t49.5 12q32 3 29 -29q-13 -102 -13 -157v-400q0 -73 53 -129.5t119 -56.5q63 0 100.5 7t72.5 34q92 68 92 153v375q0 29 -14.5 50.5t-37.5 32t-42.5 15
t-38.5 5.5q-14 0 -31 7.5t-17 26.5q0 16 18 23.5t30 7.5q61 3 99 5.5t63.5 6.5t35.5 6t31 8.5t35 10.5z" />
    <glyph glyph-name="v" unicode="v" horiz-adv-x="897" 
d="M602 774q-47 16 -47 37q0 18 41 18q10 0 59 -5t90 -5q40 0 73 5t48 5q41 0 41 -18q0 -21 -47 -37q-32 -9 -69 -48t-58 -89l-160 -385l-75 -205q-46 -92 -56 -92q-7 0 -20.5 29.5t-20.5 50.5l-249 639q-33 82 -95 100q-47 16 -47 37q0 18 41 18t78 -5t72 -5t73.5 5t79.5 5
t41 -18q0 -21 -47 -37q-41 -11 -41 -84q0 -34 8 -55l152 -408q5 -15 8.5 -20t7.5 -1t9 19l147 379q14 38 14 74q0 37 -14.5 63.5t-36.5 32.5z" />
    <glyph glyph-name="w" unicode="w" horiz-adv-x="1402" 
d="M1257 639l-280 -672q-7 -14 -19 -14q-9 0 -16 14l-213 529q-7 17 -12 17.5t-15 -19.5l-223 -527q-7 -14 -16 -14q-11 0 -14 14l-285 707q-14 38 -44 64t-63 36q-47 16 -47 37q0 18 41 18l150 -10q156 10 170 10q41 0 41 -18q0 -21 -47 -37q-43 -12 -43 -82q0 -26 10 -53
l155 -401q14 -40 31 2l135 329q13 37 13 62q0 53 -33 93t-70 50q-47 12 -47 37q0 18 41 18q14 0 62.5 -5t91.5 -5q42 0 97.5 5t74.5 5q41 0 41 -18q0 -21 -47 -37q-20 -7 -33 -13t-25 -22t-12 -39q0 -26 14 -61l154 -395q6 -15 11 -20t10.5 -1t11.5 19l155 362q15 34 15 64
q0 41 -22.5 69t-49.5 37q-47 16 -47 37q0 18 41 18q28 0 71 -5t82 -5q42 0 71 5t48 5q41 0 41 -18q0 -21 -47 -37q-57 -17 -109 -135z" />
    <glyph glyph-name="x" unicode="x" horiz-adv-x="880" 
d="M451 16q0 16 18 26.5t39 15.5t39 17t18 31q0 16 -12 37l-111 189q-9 16 -16 6l-137 -201q-10 -15 -10 -39q0 -37 28 -45q47 -16 47 -37q0 -18 -47 -18q-10 0 -50 2t-58 2q-43 0 -83.5 -5t-54.5 -5q-41 0 -41 18q0 24 48 37q31 9 61.5 34.5t75.5 82.5l174 217
q13 16 13 24.5t-9 22.5l-166 258q-26 41 -45 59t-49 27q-47 12 -47 37q0 18 47 18q37 0 73 -4t89 -4q25 0 53 2t51 2q47 0 47 -18q0 -12 -12.5 -19t-27.5 -10.5t-27.5 -12t-12.5 -22.5q0 -19 27 -65l82 -127q11 -18 16 -10l101 153q16 22 16 45q0 25 -27 33q-47 16 -47 37
q0 18 47 18q8 0 46.5 -3t56.5 -3q43 0 80 5t49 5q41 0 41 -18q0 -21 -47 -37q-98 -29 -146 -96l-133 -189q-8 -12 2 -26l199 -330q26 -41 45 -59t49 -27q47 -12 47 -37q0 -18 -41 -18q-40 0 -79.5 4t-92.5 4q-25 0 -75.5 -1t-73.5 -1q-47 0 -47 18z" />
    <glyph glyph-name="y" unicode="y" horiz-adv-x="897" 
d="M27 -510q0 61 55 61q16 0 43.5 -6t38.5 -6q25 0 39 23q36 62 90.5 178.5t95.5 226.5q6 18 6 47q0 39 -8 60l-237 600q-34 83 -93 100q-47 16 -47 37q0 18 41 18q42 0 78.5 -5t71.5 -5t74 5t81 5q15 0 28 -5.5t13 -16.5q0 -14 -19.5 -27t-39.5 -18q-41 -11 -41 -66
q0 -20 16 -57l162 -401q17 -40 31 2l137 364q16 36 16 76q0 62 -41 78q-59 26 -59 49q0 11 13.5 16.5t27.5 5.5t58 -5t87 -5q42 0 72 5t49 5q41 0 41 -18q0 -21 -47 -37q-31 -9 -66 -48.5t-55 -88.5l-278 -664q-2 -6 -33.5 -81.5t-79 -190.5t-84.5 -201q-38 -84 -133 -84
q-39 0 -71.5 21t-32.5 53z" />
    <glyph glyph-name="z" unicode="z" horiz-adv-x="772" 
d="M524 72q42 0 82 39.5t94 117.5q1 1 6 11.5t9.5 17.5t12.5 14t17 7q17 0 17 -48q0 -25 -57 -213q-2 -8 -11.5 -18t-17.5 -10q-9 0 -154.5 5t-277.5 5q-31 0 -90 -5t-74 -5q-7 0 -18 13.5t-11 21.5q0 16 76 118q151 218 381 582q15 20 -19 20h-239q-11 0 -21 -5.5t-21 -18
t-19.5 -23t-22.5 -30t-23 -31.5q-1 -1 -9.5 -12.5t-14.5 -18t-15 -13.5t-16 -7q-13 0 -16 16.5t4 28.5q12 30 23.5 88.5t11.5 95.5q0 14 11.5 25.5t18.5 11.5q9 0 31 -18q16 -13 88 -13q17 0 44 1t34 1q194 0 381 6q8 0 13 -9t1 -15q-35 -42 -78 -103l-395 -600
q-7 -11 3.5 -20.5t21.5 -9.5h239z" />
    <glyph glyph-name="braceleft" unicode="{" horiz-adv-x="763" 
d="M184 571q64 -17 140.5 -98t76.5 -172q0 -57 -13 -169.5t-13 -184.5q0 -54 22.5 -95t61 -65t84 -35.5t96.5 -11.5q53 0 53 -25q0 -13 -11.5 -21.5t-25.5 -8.5q-76 0 -146.5 16t-131.5 47t-98 85.5t-37 123.5q0 73 13 188t13 177q0 85 -52.5 144.5t-141.5 92.5
q-23 9 -23 19q0 5 3 7t10 3t10 2q89 33 141.5 92.5t52.5 144.5q0 61 -13 176t-13 189q0 69 37 123.5t98 85.5t131.5 47t146.5 16q14 0 25.5 -8.5t11.5 -21.5q0 -25 -53 -25q-51 0 -96.5 -11.5t-84 -35.5t-61 -65t-22.5 -95q0 -72 13 -184.5t13 -169.5q0 -63 -39 -121
t-86 -92.5t-96 -54.5q-9 -5 4 -9z" />
    <glyph glyph-name="bar" unicode="|" horiz-adv-x="532" 
d="M205 1384q0 29 37.5 46.5t56.5 17.5q11 0 20 -8.5t9 -18.5v-1964q0 -15 -12.5 -25.5t-31 -15t-32 -6.5t-23.5 -2q-9 0 -16.5 9t-7.5 20v1947z" />
    <glyph glyph-name="braceright" unicode="}" horiz-adv-x="763" 
d="M580 571q10 5 4 9q-35 14 -71.5 38t-71.5 57.5t-57 79t-22 93.5q0 57 13.5 169.5t13.5 184.5q0 54 -22.5 95t-61 65t-84 35.5t-96.5 11.5q-53 0 -53 25q0 13 11.5 21.5t25.5 8.5q76 0 146.5 -16t131.5 -47t98 -85.5t37 -123.5q0 -74 -13 -189t-13 -176q0 -85 52 -144.5
t142 -92.5q3 -1 7.5 -2t7.5 -1t5.5 -2.5t2.5 -6.5q0 -10 -23 -19q-90 -33 -142 -92.5t-52 -144.5q0 -62 13 -177t13 -188q0 -69 -37 -123.5t-98 -85.5t-131.5 -47t-146.5 -16q-14 0 -25.5 8.5t-11.5 21.5q0 25 53 25q51 0 96.5 11.5t84 35.5t61 65t22.5 95q0 72 -13.5 184.5
t-13.5 169.5q0 91 77 172t141 98z" />
    <glyph glyph-name="asciitilde" unicode="~" horiz-adv-x="1024" 
d="M901 782q7 0 14 -15.5t7 -25.5q0 -11 -26.5 -45t-63.5 -70.5t-84 -65t-82 -28.5q-47 0 -166 49.5t-176 49.5q-41 0 -86 -24t-74 -48t-31 -24q-11 0 -21 12.5t-10 23.5q0 8 27.5 41t65.5 70.5t84.5 67.5t78.5 30q38 0 93 -24.5t118.5 -49t120.5 -24.5q41 0 91 25t84 50
t36 25z" />
    <glyph glyph-name="uni00A0" unicode="&#xa0;" horiz-adv-x="409" 
 />
    <glyph glyph-name="exclamdown" unicode="&#xa1;" horiz-adv-x="563" 
d="M258 -369q-52 0 -79 43.5t-27 108.5q0 45 5 124.5t10.5 147t16 186.5t15.5 179q3 47 19 83t38 36q14 0 28 -35.5t17 -71.5q4 -41 15 -138t16 -147.5t11.5 -125t9.5 -133t3 -109.5q0 -61 -25 -104.5t-73 -43.5zM256 766q-51 0 -87 36t-36 87t36 87t87 36t87 -36t36 -87
t-36 -87t-87 -36z" />
    <glyph glyph-name="cent" unicode="&#xa2;" horiz-adv-x="843" 
d="M410 109l71 677h-4q-78 0 -141 -51t-95 -126t-32 -154q0 -130 54.5 -220.5t146.5 -125.5zM397 -25q-133 24 -229 142t-96 268q0 176 117.5 309t297.5 150l11 102q1 17 14 26t31 9q12 0 20 -11.5t6 -23.5l-10 -100q146 -7 219 -98q8 -11 8 -25q0 -27 -49 -61
q-18 -9 -26 -9q-33 0 -43 21q-48 84 -117 102l-70 -682q10 -2 31 -2q51 0 89.5 5t80.5 25.5t66 57.5q7 10 18 10q10 0 18.5 -7.5t8.5 -16.5q0 -6 -2 -8q-57 -95 -135 -139.5t-189 -47.5l-10 -104q-1 -13 -13 -22t-26 -9t-24 9t-9 22z" />
    <glyph glyph-name="sterling" unicode="&#xa3;" horiz-adv-x="1003" 
d="M266 698q0 107 28 209.5t81 188.5t140.5 139t195.5 53q207 0 207 -168q0 -38 -32 -76t-55 -38q-14 0 -19 6.5t-5 21.5q0 6 1 21t1 24q-2 52 -46 101t-95 49q-101 0 -161 -141t-61 -388l273 19q10 0 18 -8.5t8 -16.5q0 -13 -21 -33t-42 -20l-240 -16
q-14 -125 -68.5 -252.5t-97.5 -163.5q-5 -3 -3 -11t12 -8q82 0 151.5 -19.5t110 -42.5t100 -42.5t125.5 -19.5q46 0 81.5 33.5t35.5 78.5q0 20 -13 52.5t-14 52.5q0 9 0.5 15t2 13t6 10.5t10.5 2.5q44 -4 70 -35t26 -74q0 -118 -94 -203.5t-219 -85.5q-94 0 -161 29t-167 98
q-32 23 -73.5 41.5t-57.5 18.5q-10 0 -40 -32t-50 -69q-21 -41 -74 -41q-26 0 -43.5 18.5t-17.5 45.5q0 34 61.5 85.5t134.5 65.5q11 2 23 25q25 46 42.5 158.5t22.5 242.5l-172 -12q-10 0 -19.5 8t-9.5 17q0 15 15.5 33.5t34.5 19.5l153 10v10z" />
    <glyph glyph-name="currency" unicode="&#xa4;" horiz-adv-x="989" 
d="M494 850q-121 0 -206 -87.5t-85 -209.5t85 -209.5t206 -87.5t205.5 87.5t84.5 209.5t-84.5 209.5t-205.5 87.5zM84 889q-6 6 -6 14q0 20 21.5 42t41.5 22q11 0 17 -6l92 -93q112 84 244 84q136 0 241 -84l94 95q6 6 17 6q19 0 40 -20.5t21 -41.5q0 -12 -8 -20l-92 -92
q80 -107 80 -242t-80 -242l96 -96q6 -6 6 -14q0 -20 -21.5 -42t-41.5 -22q-11 0 -17 6l-94 95q-105 -84 -241 -84q-137 0 -242 84l-96 -95q-6 -6 -17 -6q-20 0 -40.5 21t-20.5 41q0 10 6 16l96 96q-80 107 -80 242q0 136 80 240z" />
    <glyph glyph-name="yen" unicode="&#xa5;" horiz-adv-x="1267" 
d="M260 1069q-81 120 -122 160q-34 33 -60 41q-68 21 -68 45q0 22 60 22q26 0 107 -3t132 -3q34 0 89.5 2t74.5 2q59 0 59 -22q0 -13 -15 -21t-52 -20q-57 -20 -57 -68q0 -27 18 -57l190 -338q26 -45 39 -62.5t23 -17.5q15 0 55 67q5 9 8 13q115 168 170 285q15 34 15 69
q0 39 -16.5 69.5t-45.5 37.5q-67 18 -67 41q0 22 59 22q31 0 78 -1t76 -1q42 0 109 3t87 3q60 0 60 -22q0 -27 -68 -41q-81 -16 -205 -197q-49 -75 -106.5 -167t-90.5 -146l-32 -55q-31 -49 -37 -64h250q11 0 19 -6.5t8 -15.5q0 -16 -21 -33t-43 -17h-223v-98h258
q26 0 26 -22q0 -16 -20.5 -33t-42.5 -17h-221v-182q0 -69 41.5 -113.5t118.5 -58.5q67 -11 67 -37q0 -22 -59 -22q-58 0 -126.5 5t-113.5 5q-50 0 -127.5 -5t-134.5 -5q-59 0 -59 22q0 26 67 37q160 28 160 172l2 182h-258q-10 0 -19.5 8t-9.5 17q0 15 15 31t34 16h238v49
q0 21 -4 49h-254q-10 0 -19.5 8t-9.5 17q0 15 15 31t34 16h217q-17 29 -18 31z" />
    <glyph glyph-name="brokenbar" unicode="&#xa6;" horiz-adv-x="532" 
d="M299 367q10 0 19.5 -15t9.5 -30v-867q0 -15 -12.5 -25.5t-31 -15t-32 -6.5t-23.5 -2q-9 0 -16.5 9t-7.5 20v884q0 13 40.5 30.5t53.5 17.5zM229 565q-9 0 -16.5 15.5t-7.5 31.5v768q0 29 37.5 46.5t56.5 17.5q11 0 20 -8.5t9 -18.5v-809q0 -13 -40.5 -28t-58.5 -15z" />
    <glyph glyph-name="section" unicode="&#xa7;" horiz-adv-x="819" 
d="M469 1311q38 0 82 -12t61 -27q25 -21 25 -37q0 -14 -25.5 -55t-52.5 -41q-15 0 -27 12q-78 70 -126 70q-58 0 -91.5 -38t-33.5 -91q0 -55 59 -136.5t154 -167.5q124 -111 169.5 -215.5t45.5 -246.5q0 -106 -23 -177t-80 -172q-99 -171 -244 -258q-38 -22 -110 -22
q-54 0 -90.5 18.5t-36.5 46.5q0 21 13 52.5t44 54.5q16 11 45 -12q26 -23 66 -36.5t76 -13.5q52 0 79 44t27 124q0 21 -6.5 43.5t-22 48t-28.5 45t-40.5 50t-42 46t-48.5 50.5t-45 47q-193 196 -193 369q0 126 34.5 211.5t100.5 165.5q26 99 105 179.5t180 80.5zM444 625
q-72 73 -102.5 105t-82 98.5t-66.5 109.5q-3 7 -11 6.5t-10 -6.5q-22 -86 -22 -150q0 -102 43.5 -186t140.5 -184q140 -143 189 -208q47 -62 63 -106q3 -7 10.5 -6.5t9.5 6.5q23 90 23 150q0 102 -44 186.5t-141 184.5z" />
    <glyph glyph-name="dieresis" unicode="&#xa8;" horiz-adv-x="649" 
d="M143 1176q38 0 70.5 -32.5t32.5 -70.5t-32.5 -70t-70.5 -32t-70 32t-32 70t32 70.5t70 32.5zM506 1176q38 0 70 -32.5t32 -70.5t-32 -70t-70 -32t-70.5 32t-32.5 70t32.5 70.5t70.5 32.5z" />
    <glyph glyph-name="copyright" unicode="&#xa9;" horiz-adv-x="1361" 
d="M946 461q7 14 17.5 22.5t17.5 8.5q10 0 10 -27q0 -19 -15 -55.5t-26 -49.5q-45 -45 -215 -45q-143 0 -246.5 109t-103.5 248q0 98 56 177t145.5 121t191.5 42q51 0 109 -13q8 -3 39 -10t39 -10q16 -6 16 -94q0 -31 -2 -47q0 -7 -7 -15.5t-14 -7.5q-12 0 -24 31
q-16 45 -61.5 74.5t-112.5 29.5q-102 0 -167 -78.5t-65 -193.5q0 -122 64.5 -211.5t177.5 -89.5q134 0 176 84zM709 1290q126 0 241 -49t198 -132t132 -198t49 -241q0 -168 -83.5 -311t-227 -226.5t-311.5 -83.5t-310.5 83.5t-225.5 226.5t-83 311t83.5 311t226.5 226
t311 83zM709 1208q-146 0 -270 -72t-196.5 -196t-72.5 -270q0 -110 42 -212t114 -176t171.5 -118.5t209.5 -44.5q148 0 272.5 74.5t196 201.5t71.5 275q0 146 -72 270t-196 196t-270 72z" />
    <glyph glyph-name="ordfeminine" unicode="&#xaa;" horiz-adv-x="552" 
d="M449 549q-26 0 -48 10t-33.5 21.5t-20 21.5t-11.5 10q-5 0 -18 -10t-29.5 -21.5t-48 -21.5t-68.5 -10q-40 0 -80.5 42t-40.5 79q0 42 15.5 66t62.5 42l162 58q26 9 31.5 16.5t5.5 32.5v47q0 32 -20 53t-56 21q-26 0 -54.5 -8.5t-35.5 -20.5q-2 -4 -3 -12t-0.5 -14.5
t1 -14t0.5 -8.5q0 -10 -41.5 -24.5t-50.5 -14.5q-11 0 -11 10q0 14 15.5 41.5t38.5 46.5q36 31 96 58.5t108 27.5t86.5 -33t38.5 -75v-254q0 -18 0.5 -28t4 -24.5t12 -21t22.5 -6.5q16 0 28 5t17 10t6 5q5 0 12 -10.5t7 -22.5q0 -5 -14 -21t-39 -32t-47 -16zM164 700
q0 -32 20.5 -50.5t44.5 -18.5q33 0 82 39q17 13 17 47v59q0 18 -7 23t-24 0q-70 -20 -101.5 -47t-31.5 -52zM100 401h422q10 0 19.5 -6.5t9.5 -15.5q0 -1 -1 -3t-1 -3q-22 -43 -64 -43h-405q-11 0 -20 7.5t-9 16.5q0 15 15 31t34 16z" />
    <glyph glyph-name="guillemotleft" unicode="&#xab;" horiz-adv-x="1384" 
d="M662 76q-194 194 -420 297q-14 7 -25.5 26t-11.5 33q0 11 6 14q167 100 264.5 170t198.5 166q37 37 59 37q12 0 12 -18q0 -43 -101 -154t-220 -203q-12 -9 -12 -14t12 -14q110 -86 213.5 -201t103.5 -152q0 -9 -5.5 -16.5t-12.5 -7.5q-24 0 -61 37zM1096 76
q-194 194 -420 297q-14 7 -25.5 26t-11.5 33q0 11 6 14q167 100 264.5 170t198.5 166q37 37 59 37q13 0 13 -18q0 -43 -101.5 -154t-220.5 -203q-12 -9 -12 -14t12 -14q111 -87 214.5 -201.5t103.5 -151.5q0 -9 -6 -16.5t-13 -7.5q-24 0 -61 37z" />
    <glyph glyph-name="logicalnot" unicode="&#xac;" horiz-adv-x="1228" 
d="M131 659q-10 0 -19.5 8t-9.5 17q0 10 2 23.5t6.5 31.5t15.5 30.5t26 12.5h948q10 0 18 -8.5t8 -19.5v-617q0 -15 -12.5 -25.5t-30.5 -15t-31.5 -6.5t-23.5 -2q-9 0 -16.5 9t-7.5 20v506q0 36 -29 36h-844z" />
    <glyph glyph-name="uni00AD" unicode="&#xad;" horiz-adv-x="561" 
d="M72 348q-13 0 -13 12q0 37 9.5 73.5t23.5 37.5q295 40 393 51q17 0 17 -12q0 -106 -43 -111q-293 -43 -387 -51z" />
    <glyph glyph-name="registered" unicode="&#xae;" horiz-adv-x="1361" 
d="M709 1290q126 0 241 -49t198 -132t132 -198t49 -241q0 -168 -83.5 -311t-227 -226.5t-311.5 -83.5t-310.5 83.5t-225.5 226.5t-83 311t83.5 311t226.5 226t311 83zM709 1208q-146 0 -270 -72t-196.5 -196t-72.5 -270q0 -110 42 -212t114 -176t171.5 -118.5t209.5 -44.5
q148 0 272.5 74.5t196 201.5t71.5 275q0 146 -72 270t-196 196t-270 72zM750 1016q87 0 150 -42.5t63 -119.5q0 -59 -30 -101t-71 -59q-3 -1 -5 -2.5t-3 -3.5t-1.5 -3.5t-0.5 -4t0.5 -4t2 -4t2 -4t2.5 -5t3 -4.5l135 -227q19 -35 64 -35q2 0 8.5 1t11 1t9 -2t4.5 -8
q0 -26 -28.5 -40.5t-61.5 -14.5q-82 0 -119 61l-119 199q-38 61 -111 61q-13 0 -22.5 -6t-9.5 -16l2 -156q0 -21 12 -35t23 -18.5t34 -11.5q15 -5 27 -15.5t12 -21.5q0 -8 -11.5 -15.5t-21.5 -7.5q-34 0 -70 4t-63 4t-59 -4t-66 -4q-10 0 -21 7.5t-11 15.5q0 11 12 21.5
t27 15.5q28 8 39.5 21t11.5 44v387q0 17 -0.5 28t-0.5 19.5t-3.5 14t-3.5 9t-6.5 6t-7.5 3.5t-11.5 3t-13.5 3q-39 11 -39 37q0 13 11 21t30 8h295zM831 846q0 49 -38 79.5t-93 30.5q-43 0 -60 -15.5t-17 -45.5v-133q0 -18 8.5 -27.5t18.5 -11.5t28 -2q63 0 108 33.5
t45 91.5z" />
    <glyph glyph-name="macron" unicode="&#xaf;" horiz-adv-x="614" 
d="M111 1139h415q9 0 18 -8t9 -17q0 -36 -16.5 -62t-47.5 -26h-399q-10 0 -19.5 8t-9.5 17q0 24 12.5 56t37.5 32z" />
    <glyph glyph-name="degree" unicode="&#xb0;" horiz-adv-x="593" 
d="M147 1071q0 -62 44.5 -106.5t105.5 -44.5t105 44.5t44 106.5q0 63 -43.5 107.5t-105.5 44.5t-106 -44.5t-44 -107.5zM297 1321q98 0 172 -71.5t74 -168.5q0 -99 -75 -178.5t-171 -79.5t-171 79.5t-75 178.5q0 97 74 168.5t172 71.5z" />
    <glyph glyph-name="plusminus" unicode="&#xb1;" horiz-adv-x="1208" 
d="M655 834q0 -10 1.5 -11.5t7.5 -1.5h415q10 0 19.5 -6.5t9.5 -15.5q0 -1 -1 -3t-1 -3q-6 -18 -10 -27t-11.5 -22t-18 -19t-24.5 -6h-378q-9 0 -9 -8v-414q0 -24 -27.5 -36.5t-49.5 -12.5q-9 0 -17 9t-8 19v433q0 10 -8 10h-414q-11 0 -20 7.5t-9 16.5q0 21 13 49.5
t37 28.5h387q14 0 14 17v350q0 25 29.5 44t44.5 19q11 0 19.5 -8t8.5 -18v-391zM131 78q-11 0 -20 7.5t-9 16.5q0 21 13 49.5t37 28.5h927q10 0 19.5 -6.5t9.5 -15.5q0 -1 -1 -3t-1 -3q-6 -18 -10 -27t-11.5 -22t-18 -19t-24.5 -6h-911z" />
    <glyph glyph-name="uni00B2" unicode="&#xb2;" horiz-adv-x="614" 
d="M86 1389q-8 -15 -20.5 -11t-12.5 21t18 45.5t48 58.5t77 52t97 22q78 0 132 -56.5t54 -134.5q0 -15 -1.5 -28t-6.5 -26.5t-8 -21.5t-11.5 -22.5t-12 -20t-15 -22t-14.5 -20.5q-20 -30 -67 -77t-90 -86t-46 -42q-5 -5 5 -8.5t19 -3.5h142q45 0 86.5 28t64.5 74
q3 8 12.5 12.5t18.5 3.5q8 0 8 -10q0 -1 -1 -4t-1 -4q-41 -112 -55 -186q-5 -27 -19 -27h-6q-104 6 -172 6q-148 0 -252 -4q-4 -1 -7 2.5t-3 9.5q0 11 10 21l80 82l35 32q35 32 61 60t60 69t53 84t19 80q0 56 -35 92.5t-82 36.5q-55 0 -87 -15.5t-75 -61.5z" />
    <glyph glyph-name="uni00B3" unicode="&#xb3;" horiz-adv-x="614" 
d="M229 889q-135 0 -135 67q0 14 12.5 36t24.5 22q17 0 27 -10q72 -46 133 -46q13 0 30.5 5.5t39.5 19t36.5 44t14.5 71.5q0 52 -39.5 84t-98.5 32q-21 0 -75 -14q-6 -2 -15 1.5t-14 10t0 11.5q14 14 31.5 23t39 16.5t29.5 11.5q62 33 87.5 58.5t25.5 72.5q0 30 -32.5 53
t-63.5 23q-86 0 -148 -62q-12 -12 -16 -12q-5 0 -12.5 8.5t-4.5 14.5q31 59 84 103t127 44q83 0 132 -35.5t49 -109.5q0 -76 -121 -136q-6 -3 -6 -9.5t6 -6.5q60 0 100.5 -45.5t40.5 -108.5q0 -59 -29.5 -106.5t-74.5 -75t-93.5 -41.5t-91.5 -14z" />
    <glyph glyph-name="acute" unicode="&#xb4;" horiz-adv-x="782" 
d="M575 1331q72 0 72 -39q0 -16 -30.5 -47t-101.5 -107.5t-140 -172.5q-10 -15 -27 -30t-29 -15q-26 0 -26 26q0 21 69 150t111 198q16 25 38 31t64 6z" />
    <glyph glyph-name="mu" unicode="&#xb5;" horiz-adv-x="1044" 
d="M860 131q33 0 67 23t56 46t27 23q8 0 15 -5.5t7 -12.5q0 -107 -63.5 -171.5t-137.5 -64.5q-50 0 -78 27t-59 102q-4 12 -13.5 59t-12.5 76q-8 -18 -30 -55.5t-55.5 -86t-75.5 -83.5t-77 -35q-67 0 -111.5 23t-117.5 82q-7 6 -20 19t-22.5 21.5t-15.5 8.5q-20 0 -20 -70
q0 -73 24 -217q12 -69 45.5 -151.5t61 -138.5t27.5 -70q0 -64 -58 -64q-87 0 -129 105q-13 34 -22 192t-9 287q0 14 7.5 82.5t7.5 105.5q0 31 -7.5 237.5t-7.5 254.5q0 74 26 125t81 51q80 0 80 -154q0 -44 -32 -218t-32 -214q0 -47 49 -107.5t111 -60.5q146 0 225 148
q37 71 55 146.5t20.5 127.5t2.5 156q0 67 26 118.5t75 51.5q79 0 79 -129q0 -34 -49 -182t-49 -207q0 -70 33.5 -135.5t95.5 -65.5z" />
    <glyph glyph-name="paragraph" unicode="&#xb6;" horiz-adv-x="1200" 
d="M514 -446q0 -38 28.5 -64.5t69.5 -26.5q70 0 115 48t45 120v562q0 51 -27 51q-124 0 -241 38.5t-208 106.5t-146.5 170.5t-55.5 222.5q0 103 41 192t111 153t162 109.5t196 68t211 22.5q194 0 287 -12q14 -3 22.5 -15t8.5 -26q0 -16 -9 -39t-20 -23q-2 0 -35 8
t-83.5 16.5t-96.5 8.5q-15 0 -26 -11.5t-11 -25.5v-1548q0 -48 -26 -104t-81 -100t-124 -44q-74 0 -127.5 47.5t-53.5 118.5q0 58 42.5 96.5t101.5 38.5q43 0 76.5 -25t33.5 -65q0 -34 -21.5 -61t-49.5 -27q-23 0 -58 19.5t-41 19.5q-10 0 -10 -20z" />
    <glyph glyph-name="periodcentered" unicode="&#xb7;" horiz-adv-x="409" 
d="M205 532q46 0 79 -33t33 -79t-33 -79.5t-79 -33.5t-79.5 33.5t-33.5 79.5t33.5 79t79.5 33z" />
    <glyph glyph-name="cedilla" unicode="&#xb8;" horiz-adv-x="772" 
d="M268 -264q-12 0 -24.5 9t-12.5 22q0 5 11 20l180 229h63l-79 -104q-9 -9 -9 -16q0 -8 8 -15.5t15 -9.5q53 -23 89 -65t36 -91q0 -58 -29.5 -112t-71 -88.5t-84 -55t-71.5 -20.5q-62 0 -62 84q0 19 9.5 29t17.5 10l34 -12q33 -11 74 -11q39 0 59.5 25.5t20.5 66.5
q0 55 -32.5 86t-87.5 31q-15 0 -32 -6t-22 -6z" />
    <glyph glyph-name="uni00B9" unicode="&#xb9;" horiz-adv-x="614" 
d="M365 1606q9 0 14.5 -8.5t3.5 -20.5q-8 -54 -8 -111q0 -50 -1 -143t-1 -117q0 -113 2 -162q3 -59 18 -72t84 -22q12 -1 18.5 -9t6.5 -17q0 -10 -7 -17.5t-18 -7.5q-65 0 -103 5t-65 5t-67 -5t-101 -5q-10 0 -16 9t-6 20q0 22 22 22q26 2 41 5t33.5 11.5t27.5 28t9 49.5
v314q0 58 -111 96q-22 8 -22 27q0 10 6 18t14 10q46 4 99.5 28.5t88.5 46.5t38 22z" />
    <glyph glyph-name="ordmasculine" unicode="&#xba;" horiz-adv-x="632" 
d="M328 1073q100 0 177 -73.5t77 -172.5q0 -115 -74 -196.5t-205 -81.5q-105 0 -178.5 69t-73.5 177q0 114 81.5 196t195.5 82zM305 1006q-65 0 -97 -52.5t-32 -130.5q0 -87 43 -149t109 -62q64 0 96.5 53t32.5 132q0 83 -42.5 146t-109.5 63zM100 401h455q10 0 19.5 -6.5
t9.5 -15.5q0 -1 -1 -3t-1 -3q-22 -43 -64 -43h-438q-11 0 -20 7.5t-9 16.5q0 15 15 31t34 16z" />
    <glyph glyph-name="guillemotright" unicode="&#xbb;" horiz-adv-x="1384" 
d="M723 76q-37 -37 -61 -37q-7 0 -13 7.5t-6 16.5q0 37 103.5 151.5t214.5 201.5q12 9 12 14t-12 14q-119 92 -220.5 203t-101.5 154q0 18 12 18q23 0 60 -37q101 -96 198.5 -166t264.5 -170q6 -3 6 -14q0 -14 -11.5 -33t-25.5 -26q-225 -103 -420 -297zM289 76
q-37 -37 -62 -37q-7 0 -12.5 7.5t-5.5 16.5q0 37 103.5 152t213.5 201q12 9 12 14t-12 14q-119 92 -220 203t-101 154q0 18 12 18q22 0 59 -37q101 -96 198.5 -166t264.5 -170q6 -3 6 -14q0 -14 -11 -33t-25 -26q-225 -103 -420 -297z" />
    <glyph glyph-name="onequarter" unicode="&#xbc;" horiz-adv-x="1312" 
d="M315 1282q12 4 15 4q9 0 14.5 -8.5t3.5 -20.5q-8 -58 -8 -143q0 -48 -1 -123.5t-1 -103.5q0 -32 1 -85.5t1 -76.5q1 -58 16.5 -71.5t85.5 -22.5q11 -1 18 -9t7 -18t-7 -17t-18 -7q-65 0 -103 5t-65 5t-67 -5t-101 -5q-10 0 -16 8.5t-6 19.5q0 23 22 23q27 2 42 5t33.5 12
t27 28t8.5 49v313q0 59 -111 97q-22 8 -22 26q0 10 6 18.5t14 10.5q46 4 91 23.5t82 43.5t38 25zM1196 221q-45 0 -45 -10v-172q0 -20 -38 -39.5t-50 -19.5q-19 0 -19 16v209q0 10 -18 10q-53 0 -146.5 -3.5t-152.5 -4.5q-6 0 -10.5 6.5t-1.5 9.5q53 70 268 336
q25 31 119 133q23 23 31 25q5 1 9.5 -5t4.5 -12q0 -239 4 -391q0 -8 6 -8h37q51 0 84 2q14 0 14 -10q0 -13 -5.5 -31.5t-11.5 -30.5t-9 -12q-12 0 -36 1t-34 1zM1028 303q16 0 16 10v228q0 3 -4.5 4t-7.5 -2q-79 -88 -190 -230q-5 -10 0 -10h186zM248 -23l844 1330
q21 34 79 34q12 0 22.5 -12t4.5 -22l-844 -1330q-18 -30 -73 -30q-15 0 -27.5 10t-5.5 20z" />
    <glyph glyph-name="onehalf" unicode="&#xbd;" horiz-adv-x="1431" 
d="M315 1282q12 4 15 4q9 0 14.5 -8.5t3.5 -20.5q-8 -58 -8 -143q0 -48 -1 -123.5t-1 -103.5q0 -32 1 -85.5t1 -76.5q1 -58 16.5 -71.5t85.5 -22.5q11 -1 18 -9t7 -18t-7 -17t-18 -7q-65 0 -103 5t-65 5t-67 -5t-101 -5q-10 0 -16 8.5t-6 19.5q0 23 22 23q27 2 42 5t33.5 12
t27 28t8.5 49v313q0 59 -111 97q-22 8 -22 26q0 10 6 18.5t14 10.5q46 4 91 23.5t82 43.5t38 25zM248 -23l844 1330q21 34 79 34q10 0 19.5 -8.5t9.5 -17.5q0 -6 -2 -8l-844 -1330q-18 -30 -73 -30q-15 0 -27.5 10t-5.5 20zM907 475q-7 -15 -20 -11t-13 21q0 42 72.5 110.5
t167.5 68.5q78 0 132 -56.5t54 -134.5q0 -15 -1.5 -27.5t-6.5 -27t-7.5 -22t-12.5 -23.5t-11.5 -19t-15 -22t-14.5 -21q-20 -30 -67 -77t-90 -86t-46 -42q-5 -5 5.5 -8.5t19.5 -3.5h141q45 0 87 28.5t65 74.5q3 8 12 12.5t18 3.5q8 0 8 -10q0 -1 -1 -4t-1 -4
q-41 -111 -55 -187q-2 -13 -6.5 -20t-9 -6.5t-8.5 0.5q-104 6 -173 6q-147 0 -251 -4q-7 -1 -9 9q-2 12 9 23l79 82q3 3 28 26t46.5 44t51.5 55t51 65t36 67.5t15 68.5q0 56 -35 92.5t-82 36.5q-55 0 -86.5 -15.5t-75.5 -62.5z" />
    <glyph glyph-name="threequarters" unicode="&#xbe;" horiz-adv-x="1312" 
d="M1196 221q-45 0 -45 -10v-172q0 -20 -38 -39.5t-50 -19.5q-19 0 -19 16v209q0 10 -18 10q-53 0 -146.5 -3.5t-152.5 -4.5q-5 0 -9.5 4.5t-4.5 9.5l2 2q53 70 268 336q25 31 119 133q23 23 31 25h2q4 0 8 -6t4 -11q0 -239 4 -391q0 -8 6 -8h37q51 0 84 2q14 0 14 -10
q0 -13 -5.5 -31.5t-11.5 -30.5t-9 -12q-12 0 -36 1t-34 1zM1028 303q16 0 16 10v228q0 3 -4.5 4t-7.5 -2q-79 -88 -190 -230q-5 -10 0 -10h186zM248 -23l844 1330q21 34 79 34q12 0 22.5 -12t4.5 -22l-844 -1330q-18 -30 -73 -30q-12 0 -23.5 7.5t-11.5 16.5q0 4 2 6z
M248 561q-139 0 -139 68q0 14 12 35.5t24 21.5q17 0 27 -10q70 -45 137 -45q13 0 31 7t39.5 22.5t36 46.5t14.5 73q0 62 -40 109t-97 47q-22 0 -76 -14q-6 -2 -15 1.5t-14 9.5t0 11q18 18 55 31.5t46 19.5q10 6 29 18.5t27.5 18.5t21.5 17t19 20t10.5 23t4.5 30
q0 30 -32.5 53t-63.5 23q-74 0 -147 -61q-15 -15 -21 -13q-7 3 -11 10t-1 13q31 59 84 103t127 44q180 -3 180 -145q0 -37 -32 -73t-89 -64q-6 -3 -6 -7t6 -4q65 -3 103.5 -56t38.5 -124q0 -59 -29.5 -110t-74.5 -82.5t-94 -49.5t-91 -18z" />
    <glyph glyph-name="questiondown" unicode="&#xbf;" horiz-adv-x="757" 
d="M502 -371q-53 0 -112.5 27t-108.5 76q-84 84 -141.5 202.5t-57.5 198.5q0 69 27.5 122t62.5 73q111 60 184 108q40 26 50 50t12 79q0 17 8.5 32t22.5 15q11 0 25 -17.5t20 -41.5q1 -5 9.5 -31.5t11.5 -40.5t7 -44t4 -62q0 -49 -49 -89t-158 -96q-49 -25 -86.5 -64.5
t-37.5 -80.5q0 -105 52.5 -169.5t153.5 -65.5q19 0 48 4t49 4q32 0 59 -36.5t27 -78.5q0 -28 -27 -51t-55 -23zM420 766q-51 0 -87 36t-36 87t36 87t87 36t87 -36t36 -87t-36 -87t-87 -36z" />
    <glyph glyph-name="Agrave" unicode="&#xc0;" horiz-adv-x="1417" 
d="M809 1403q-14 0 -37 18q-165 122 -266 209q-27 24 -27 39q0 19 44.5 33t74.5 14q37 0 55 -26q93 -136 158 -244q10 -17 10 -31q0 -12 -12 -12zM682 1110l-184 -492q-4 -12 -4 -16q0 -10 9.5 -12t33.5 -2h317h13t8.5 1t6 3t1.5 6t-4 20l-162 490q-12 37 -19 37
q-4 0 -16 -35zM1368 -10q-24 0 -129.5 6t-155.5 6q-44 0 -119 -1t-96 -1q-59 0 -59 25q0 27 68 38q124 19 124 93q0 68 -77 321q-4 14 -15.5 18.5t-40.5 4.5h-391q-22 0 -35 -37q-19 -57 -50.5 -162t-31.5 -123q0 -43 33.5 -73.5t85.5 -43.5q68 -17 68 -41q0 -22 -60 -22
q-14 0 -78.5 2t-107.5 2q-48 0 -131.5 -6t-114.5 -6q-59 0 -59 26t67 47q59 17 102.5 52t74.5 106q196 444 383 963q14 38 20 67.5t6.5 40t1.5 11.5q54 17 74 30q12 8 21 26t13.5 32t8.5 14t7.5 -7.5t7.5 -22.5t5 -19q154 -488 365 -1094q39 -112 86.5 -152.5t120.5 -52.5
q33 -6 50 -19t17 -28q0 -20 -59 -20z" />
    <glyph glyph-name="Aacute" unicode="&#xc1;" horiz-adv-x="1417" 
d="M678 1403q-12 0 -12 12q0 14 10 31q65 108 158 244q18 26 55 26q30 0 74.5 -14t44.5 -33q0 -15 -27 -39q-101 -87 -266 -209q-23 -18 -37 -18zM682 1110l-184 -492q-4 -12 -4 -16q0 -10 9.5 -12t33.5 -2h317h13t8.5 1t6 3t1.5 6t-4 20l-162 490q-12 37 -19 37
q-4 0 -16 -35zM1368 -10q-24 0 -129.5 6t-155.5 6q-44 0 -119 -1t-96 -1q-59 0 -59 25q0 27 68 38q124 19 124 93q0 68 -77 321q-4 14 -15.5 18.5t-40.5 4.5h-391q-22 0 -35 -37q-19 -57 -50.5 -162t-31.5 -123q0 -43 33.5 -73.5t85.5 -43.5q68 -17 68 -41q0 -22 -60 -22
q-14 0 -78.5 2t-107.5 2q-48 0 -131.5 -6t-114.5 -6q-59 0 -59 26t67 47q59 17 102.5 52t74.5 106q196 444 383 963q14 38 20 67.5t6.5 40t1.5 11.5q54 17 74 30q12 8 21 26t13.5 32t8.5 14t7.5 -7.5t7.5 -22.5t5 -19q154 -488 365 -1094q39 -112 86.5 -152.5t120.5 -52.5
q33 -6 50 -19t17 -28q0 -20 -59 -20z" />
    <glyph glyph-name="Acircumflex" unicode="&#xc2;" horiz-adv-x="1417" 
d="M475 1395q-31 0 -31 20q0 13 15 25l200 170q31 28 46.5 36.5t37.5 8.5t37.5 -8.5t46.5 -36.5l201 -170q12 -10 12 -25q0 -22 -28 -22q-18 0 -109.5 43t-138.5 71q-14 7 -20.5 7t-20.5 -7q-46 -27 -137.5 -69.5t-110.5 -42.5zM682 1110l-184 -492q-4 -12 -4 -16
q0 -10 9.5 -12t33.5 -2h317h13t8.5 1t6 3t1.5 6t-4 20l-162 490q-12 37 -19 37q-4 0 -16 -35zM1368 -10q-24 0 -129.5 6t-155.5 6q-44 0 -119 -1t-96 -1q-59 0 -59 25q0 27 68 38q124 19 124 93q0 68 -77 321q-4 14 -15.5 18.5t-40.5 4.5h-391q-22 0 -35 -37
q-19 -57 -50.5 -162t-31.5 -123q0 -43 33.5 -73.5t85.5 -43.5q68 -17 68 -41q0 -22 -60 -22q-14 0 -78.5 2t-107.5 2q-48 0 -131.5 -6t-114.5 -6q-59 0 -59 26t67 47q59 17 102.5 52t74.5 106q196 444 383 963q14 38 20 67.5t6.5 40t1.5 11.5q54 17 74 30q12 8 21 26
t13.5 32t8.5 14t7.5 -7.5t7.5 -22.5t5 -19q154 -488 365 -1094q39 -112 86.5 -152.5t120.5 -52.5q33 -6 50 -19t17 -28q0 -20 -59 -20z" />
    <glyph glyph-name="Atilde" unicode="&#xc3;" horiz-adv-x="1417" 
d="M864 1464q-26 0 -127 10.5t-127 10.5q-23 0 -66 -32t-50 -32q-12 0 -22.5 10.5t-10.5 24.5q0 34 66.5 86.5t105.5 52.5q25 0 122 -9t122 -9q31 0 56 15.5t41 31.5t25 16q15 0 25 -9.5t10 -24.5q0 -31 -65 -86.5t-105 -55.5zM682 1110l-184 -492q-4 -12 -4 -16
q0 -10 9.5 -12t33.5 -2h317h13t8.5 1t6 3t1.5 6t-4 20l-162 490q-12 37 -19 37q-4 0 -16 -35zM1368 -10q-24 0 -129.5 6t-155.5 6q-44 0 -119 -1t-96 -1q-59 0 -59 25q0 27 68 38q124 19 124 93q0 68 -77 321q-4 14 -15.5 18.5t-40.5 4.5h-391q-22 0 -35 -37
q-19 -57 -50.5 -162t-31.5 -123q0 -43 33.5 -73.5t85.5 -43.5q68 -17 68 -41q0 -22 -60 -22q-14 0 -78.5 2t-107.5 2q-48 0 -131.5 -6t-114.5 -6q-59 0 -59 26t67 47q59 17 102.5 52t74.5 106q196 444 383 963q14 38 20 67.5t6.5 40t1.5 11.5q54 17 74 30q12 8 21 26
t13.5 32t8.5 14t7.5 -7.5t7.5 -22.5t5 -19q154 -488 365 -1094q39 -112 86.5 -152.5t120.5 -52.5q33 -6 50 -19t17 -28q0 -20 -59 -20z" />
    <glyph glyph-name="Adieresis" unicode="&#xc4;" horiz-adv-x="1417" 
d="M543 1628q43 0 72.5 -29.5t29.5 -72.5t-29.5 -73t-72.5 -30t-73 30t-30 73t30 72.5t73 29.5zM942 1628q43 0 72.5 -29.5t29.5 -72.5t-29.5 -73t-72.5 -30t-72.5 30t-29.5 73t29.5 72.5t72.5 29.5zM682 1110l-184 -492q-4 -12 -4 -16q0 -10 9.5 -12t33.5 -2h317h13t8.5 1
t6 3t1.5 6t-4 20l-162 490q-12 37 -19 37q-4 0 -16 -35zM1368 -10q-24 0 -129.5 6t-155.5 6q-44 0 -119 -1t-96 -1q-59 0 -59 25q0 27 68 38q124 19 124 93q0 68 -77 321q-4 14 -15.5 18.5t-40.5 4.5h-391q-22 0 -35 -37q-19 -57 -50.5 -162t-31.5 -123q0 -43 33.5 -73.5
t85.5 -43.5q68 -17 68 -41q0 -22 -60 -22q-14 0 -78.5 2t-107.5 2q-48 0 -131.5 -6t-114.5 -6q-59 0 -59 26t67 47q59 17 102.5 52t74.5 106q196 444 383 963q14 38 20 67.5t6.5 40t1.5 11.5q54 17 74 30q12 8 21 26t13.5 32t8.5 14t7.5 -7.5t7.5 -22.5t5 -19
q154 -488 365 -1094q39 -112 86.5 -152.5t120.5 -52.5q33 -6 50 -19t17 -28q0 -20 -59 -20z" />
    <glyph glyph-name="Aring" unicode="&#xc5;" horiz-adv-x="1417" 
d="M639 1581q0 -43 29.5 -72.5t72.5 -29.5q37 0 59.5 30.5t22.5 71.5t-28.5 70.5t-69.5 29.5q-38 0 -62 -29.5t-24 -70.5zM739 1729q68 0 119 -38t51 -100q0 -69 -55.5 -113t-130.5 -44q-69 0 -119.5 39t-50.5 102q0 68 56 111t130 43zM682 1110l-184 -492q-4 -12 -4 -16
q0 -10 9.5 -12t33.5 -2h317h13t8.5 1t6 3t1.5 6t-4 20l-162 490q-12 37 -19 37q-4 0 -16 -35zM1368 -10q-24 0 -129.5 6t-155.5 6q-44 0 -119 -1t-96 -1q-59 0 -59 25q0 27 68 38q124 19 124 93q0 68 -77 321q-4 14 -15.5 18.5t-40.5 4.5h-391q-22 0 -35 -37
q-19 -57 -50.5 -162t-31.5 -123q0 -43 33.5 -73.5t85.5 -43.5q68 -17 68 -41q0 -22 -60 -22q-14 0 -78.5 2t-107.5 2q-48 0 -131.5 -6t-114.5 -6q-59 0 -59 26t67 47q59 17 102.5 52t74.5 106q196 444 383 963q14 38 20 67.5t6.5 40t1.5 11.5q54 17 74 30q12 8 21 26
t13.5 32t8.5 14t7.5 -7.5t7.5 -22.5t5 -19q154 -488 365 -1094q39 -112 86.5 -152.5t120.5 -52.5q33 -6 50 -19t17 -28q0 -20 -59 -20z" />
    <glyph glyph-name="AE" unicode="&#xc6;" horiz-adv-x="1773" 
d="M897 1190l-279 -488q-8 -13 -8 -20q0 -10 33 -10h254q24 0 28.5 3.5t4.5 26.5v486q0 37 -6 37q-9 0 -27 -35zM1092 725q0 -18 9.5 -31.5t24.5 -13.5q99 0 197 4q64 3 90 27q24 21 35 49q3 8 16.5 21.5t20.5 13.5q9 0 18 -10.5t8 -22.5q-6 -70 -6 -121q0 -61 6 -149
q0 -35 -18 -35t-30.5 16t-16.5 31q-24 76 -96 80q-86 4 -211 4q-20 0 -33.5 -12t-13.5 -35v-314q0 -64 34 -109.5t99 -45.5h213q16 0 77 12t78 25q42 33 86 129q11 23 29 20q27 -4 27 -22q0 -73 -35 -211q-9 -35 -29 -35q-127 0 -329.5 6t-292.5 6h-41q-44 0 -111 -6
t-125 -6q-59 0 -59 22q0 26 67 37q78 14 114 47t36 101v350q0 18 -8.5 27.5t-36.5 9.5h-289q-37 0 -61 -47q-68 -115 -168 -308q-19 -36 -19 -61q0 -75 133 -107q68 -17 68 -41q0 -22 -60 -22q-14 0 -77 2t-105 2q-49 0 -138 -6t-120 -6q-59 0 -59 22q0 24 67 45
q52 15 111 71t102 130l559 959q7 12 -3.5 22t-30.5 12l-181 31q-20 9 -20 27q0 9 5.5 16.5t14.5 7.5q36 0 159.5 -3t199.5 -3q132 0 361 5t255 5h17q33 0 36 -18q23 -126 25 -211q0 -8 -9.5 -13t-19.5 -5t-14.5 4.5t-7.5 15.5q-23 73 -47 100q-51 56 -137 56h-269
q-22 0 -46.5 -14.5t-24.5 -39.5v-487z" />
    <glyph glyph-name="Ccedilla" unicode="&#xc7;" horiz-adv-x="1310" 
d="M668 -236q0 15 12 31l164 221h63l-84 -127q-7 -9 1.5 -18.5t19.5 -13.5q52 -23 93.5 -70.5t41.5 -112.5q0 -49 -28 -95t-69.5 -76t-86.5 -48t-80 -18q-49 0 -70.5 19t-21.5 46q0 33 9.5 51.5t22.5 18.5q4 0 16 -7t40.5 -13.5t72.5 -6.5q32 0 59 20t27 60q0 44 -23.5 77.5
t-72.5 33.5q-13 0 -29 -3t-24 -3q-24 0 -38.5 11.5t-14.5 22.5zM1200 281q5 10 15.5 17.5t21.5 13t14 7.5q3 3 4 3q6 0 10.5 -12.5t4.5 -26.5q0 -3 -1 -9t-1 -8q-7 -47 -27 -114t-41 -99q-9 -15 -88 -39q-2 -1 -3.5 -1.5t-4 -1t-4.5 -1.5q-54 -17 -153 -29t-191 -12
q-182 0 -335 95t-240 254t-87 344q0 145 61 275.5t163 222t238.5 145t283.5 53.5q50 0 119.5 -8t97.5 -17q80 -26 155 -37q23 -3 27 -61q14 -109 16 -223q2 -17 -3.5 -32.5t-18.5 -14.5q-18 2 -32.5 21.5t-20.5 53.5q-12 94 -72 150q-12 12 -30.5 25.5t-55.5 33.5
t-93.5 32.5t-121.5 12.5q-110 0 -206 -49t-161.5 -129.5t-103 -186.5t-37.5 -218q0 -100 23 -198.5t68.5 -184.5t107.5 -152t145 -104.5t176 -38.5q81 0 147 23t111 63.5t72 77.5t51 84z" />
    <glyph glyph-name="Egrave" unicode="&#xc8;" horiz-adv-x="1095" 
d="M653 1403q-14 0 -37 18q-165 122 -266 209q-26 23 -26 39q0 19 44 33t74 14q38 0 56 -26q86 -124 157 -244q11 -18 11 -31q0 -12 -13 -12zM430 209q0 -76 32 -106.5t103 -30.5h213q48 0 80 5.5t45.5 12.5t30.5 19q42 33 86 129q11 23 29 20q26 -4 26 -22q0 -27 -12 -98.5
t-23 -112.5q-8 -35 -28 -35q-138 0 -356.5 6t-313.5 6q-44 0 -111 -6t-125 -6q-59 0 -59 22q0 25 68 37q79 14 115 48.5t36 105.5v921q0 73 -30 104.5t-107 45.5q-68 12 -68 41q0 22 60 22q78 0 185 -3t177 -3q82 0 190.5 1.5t184.5 3t80 1.5q34 0 37 -18q31 -173 31 -211
q0 -31 -29 -31q-17 0 -23 21q-29 95 -45 112q-51 56 -137 56h-268q-21 0 -47.5 -19.5t-26.5 -46.5v-434q0 -19 11 -32t26 -13h197q43 0 76 22t48 58q3 8 16.5 21.5t20.5 13.5q9 0 18 -9.5t9 -23.5q0 -7 -3 -51t-3 -62q0 -24 2 -79t2 -60q0 -35 -19 -35q-18 0 -30.5 16
t-16.5 31q-14 45 -40 68.5t-54 23.5h-190q-39 0 -54.5 -10t-15.5 -43v-393z" />
    <glyph glyph-name="Eacute" unicode="&#xc9;" horiz-adv-x="1095" 
d="M522 1403q-12 0 -12 12q0 14 10 31q65 108 158 244q18 26 55 26q30 0 74.5 -14t44.5 -33q0 -15 -27 -39q-101 -87 -266 -209q-23 -18 -37 -18zM430 209q0 -76 32 -106.5t103 -30.5h213q48 0 80 5.5t45.5 12.5t30.5 19q42 33 86 129q11 23 29 20q26 -4 26 -22
q0 -27 -12 -98.5t-23 -112.5q-8 -35 -28 -35q-138 0 -356.5 6t-313.5 6q-44 0 -111 -6t-125 -6q-59 0 -59 22q0 25 68 37q79 14 115 48.5t36 105.5v921q0 73 -30 104.5t-107 45.5q-68 12 -68 41q0 22 60 22q78 0 185 -3t177 -3q82 0 190.5 1.5t184.5 3t80 1.5q34 0 37 -18
q31 -173 31 -211q0 -31 -29 -31q-17 0 -23 21q-29 95 -45 112q-51 56 -137 56h-268q-21 0 -47.5 -19.5t-26.5 -46.5v-434q0 -19 11 -32t26 -13h197q43 0 76 22t48 58q3 8 16.5 21.5t20.5 13.5q9 0 18 -9.5t9 -23.5q0 -7 -3 -51t-3 -62q0 -24 2 -79t2 -60q0 -35 -19 -35
q-18 0 -30.5 16t-16.5 31q-14 45 -40 68.5t-54 23.5h-190q-39 0 -54.5 -10t-15.5 -43v-393z" />
    <glyph glyph-name="Ecircumflex" unicode="&#xca;" horiz-adv-x="1095" 
d="M319 1395q-30 0 -30 20q0 14 14 25l201 170q31 28 46.5 36.5t37.5 8.5t37.5 -8.5t46.5 -36.5l200 -170q13 -10 13 -25q0 -9 -8 -15.5t-21 -6.5q-18 0 -109.5 43t-138.5 71q-13 7 -20.5 7t-20.5 -7q-46 -27 -137.5 -69.5t-110.5 -42.5zM430 209q0 -76 32 -106.5t103 -30.5
h213q48 0 80 5.5t45.5 12.5t30.5 19q42 33 86 129q11 23 29 20q26 -4 26 -22q0 -27 -12 -98.5t-23 -112.5q-8 -35 -28 -35q-138 0 -356.5 6t-313.5 6q-44 0 -111 -6t-125 -6q-59 0 -59 22q0 25 68 37q79 14 115 48.5t36 105.5v921q0 73 -30 104.5t-107 45.5q-68 12 -68 41
q0 22 60 22q78 0 185 -3t177 -3q82 0 190.5 1.5t184.5 3t80 1.5q34 0 37 -18q31 -173 31 -211q0 -31 -29 -31q-17 0 -23 21q-29 95 -45 112q-51 56 -137 56h-268q-21 0 -47.5 -19.5t-26.5 -46.5v-434q0 -19 11 -32t26 -13h197q43 0 76 22t48 58q3 8 16.5 21.5t20.5 13.5
q9 0 18 -9.5t9 -23.5q0 -7 -3 -51t-3 -62q0 -24 2 -79t2 -60q0 -35 -19 -35q-18 0 -30.5 16t-16.5 31q-14 45 -40 68.5t-54 23.5h-190q-39 0 -54.5 -10t-15.5 -43v-393z" />
    <glyph glyph-name="Edieresis" unicode="&#xcb;" horiz-adv-x="1095" 
d="M387 1628q43 0 72.5 -29.5t29.5 -72.5t-29.5 -73t-72.5 -30t-72.5 30t-29.5 73t29.5 72.5t72.5 29.5zM786 1628q43 0 73 -29.5t30 -72.5t-30 -73t-73 -30t-72.5 30t-29.5 73t29.5 72.5t72.5 29.5zM430 209q0 -76 32 -106.5t103 -30.5h213q48 0 80 5.5t45.5 12.5t30.5 19
q42 33 86 129q11 23 29 20q26 -4 26 -22q0 -27 -12 -98.5t-23 -112.5q-8 -35 -28 -35q-138 0 -356.5 6t-313.5 6q-44 0 -111 -6t-125 -6q-59 0 -59 22q0 25 68 37q79 14 115 48.5t36 105.5v921q0 73 -30 104.5t-107 45.5q-68 12 -68 41q0 22 60 22q78 0 185 -3t177 -3
q82 0 190.5 1.5t184.5 3t80 1.5q34 0 37 -18q31 -173 31 -211q0 -31 -29 -31q-17 0 -23 21q-29 95 -45 112q-51 56 -137 56h-268q-21 0 -47.5 -19.5t-26.5 -46.5v-434q0 -19 11 -32t26 -13h197q43 0 76 22t48 58q3 8 16.5 21.5t20.5 13.5q9 0 18 -9.5t9 -23.5q0 -7 -3 -51
t-3 -62q0 -24 2 -79t2 -60q0 -35 -19 -35q-18 0 -30.5 16t-16.5 31q-14 45 -40 68.5t-54 23.5h-190q-39 0 -54.5 -10t-15.5 -43v-393z" />
    <glyph glyph-name="Igrave" unicode="&#xcc;" horiz-adv-x="696" 
d="M436 1403q-14 0 -37 18q-165 122 -266 209q-27 24 -27 39q0 19 44.5 33t74.5 14q38 0 56 -26q86 -124 157 -244q11 -18 11 -31q0 -12 -13 -12zM266 1126q0 71 -30 102.5t-107 45.5q-68 12 -68 41q0 22 60 22q58 0 126 -3t113 -3q41 0 103.5 3t120.5 3q59 0 59 -22
q0 -29 -68 -41q-79 -14 -112 -46t-33 -102v-925q0 -69 40.5 -103.5t121.5 -48.5q67 -11 67 -37q0 -22 -59 -22q-58 0 -126.5 5t-113.5 5q-50 0 -127.5 -5t-134.5 -5q-59 0 -59 22q0 26 67 37q81 14 120.5 48.5t39.5 103.5v925z" />
    <glyph glyph-name="Iacute" unicode="&#xcd;" horiz-adv-x="696" 
d="M305 1403q-12 0 -12 12q0 14 10 31q65 108 158 244q18 26 55 26q30 0 74.5 -14t44.5 -33q0 -15 -27 -39q-101 -87 -266 -209q-23 -18 -37 -18zM266 1126q0 71 -30 102.5t-107 45.5q-68 12 -68 41q0 22 60 22q58 0 126 -3t113 -3q41 0 103.5 3t120.5 3q59 0 59 -22
q0 -29 -68 -41q-79 -14 -112 -46t-33 -102v-925q0 -69 40.5 -103.5t121.5 -48.5q67 -11 67 -37q0 -22 -59 -22q-58 0 -126.5 5t-113.5 5q-50 0 -127.5 -5t-134.5 -5q-59 0 -59 22q0 26 67 37q81 14 120.5 48.5t39.5 103.5v925z" />
    <glyph glyph-name="Icircumflex" unicode="&#xce;" horiz-adv-x="696" 
d="M88 1395q-31 0 -31 20q0 13 15 25l200 170q31 28 46.5 36.5t37.5 8.5t37.5 -8.5t46.5 -36.5l201 -170q12 -10 12 -25q0 -22 -28 -22q-18 0 -109.5 43t-138.5 71q-14 7 -20.5 7t-20.5 -7q-46 -27 -137.5 -69.5t-110.5 -42.5zM266 1126q0 71 -30 102.5t-107 45.5
q-68 12 -68 41q0 22 60 22q58 0 126 -3t113 -3q41 0 103.5 3t120.5 3q59 0 59 -22q0 -29 -68 -41q-79 -14 -112 -46t-33 -102v-925q0 -69 40.5 -103.5t121.5 -48.5q67 -11 67 -37q0 -22 -59 -22q-58 0 -126.5 5t-113.5 5q-50 0 -127.5 -5t-134.5 -5q-59 0 -59 22q0 26 67 37
q81 14 120.5 48.5t39.5 103.5v925z" />
    <glyph glyph-name="Idieresis" unicode="&#xcf;" horiz-adv-x="696" 
d="M147 1628q43 0 73 -29.5t30 -72.5t-30 -73t-73 -30t-72.5 30t-29.5 73t29.5 72.5t72.5 29.5zM547 1628q43 0 72.5 -29.5t29.5 -72.5t-29.5 -73t-72.5 -30t-73 30t-30 73t30 72.5t73 29.5zM266 1126q0 71 -30 102.5t-107 45.5q-68 12 -68 41q0 22 60 22q58 0 126 -3
t113 -3q41 0 103.5 3t120.5 3q59 0 59 -22q0 -29 -68 -41q-79 -14 -112 -46t-33 -102v-925q0 -69 40.5 -103.5t121.5 -48.5q67 -11 67 -37q0 -22 -59 -22q-58 0 -126.5 5t-113.5 5q-50 0 -127.5 -5t-134.5 -5q-59 0 -59 22q0 26 67 37q81 14 120.5 48.5t39.5 103.5v925z" />
    <glyph glyph-name="Eth" unicode="&#xd0;" horiz-adv-x="1544" 
d="M760 -14q-5 0 -167.5 7t-258.5 7q-38 0 -97.5 -5t-117.5 -5q-60 0 -60 22q0 25 68 37q77 14 107 47.5t30 106.5v446h-141q-12 0 -20.5 13t-8.5 24q0 14 15 25.5t34 11.5h121v401q0 73 -30 104.5t-107 45.5q-68 12 -68 41q0 22 60 22q59 0 116.5 -2t96.5 -2h14
q48 0 187.5 8.5t162.5 8.5q164 0 290.5 -31t212 -87.5t140.5 -140t79 -183t24 -222.5q0 -141 -52 -269.5t-142 -223.5t-217 -151t-271 -56zM1247 709q0 160 -67 291.5t-191 208.5t-282 77q-47 0 -72 -0.5t-60 -3t-52.5 -7t-38.5 -13.5t-31 -22.5t-16.5 -33t-6.5 -45.5v-438
h342q10 0 19.5 -7t9.5 -16q0 -1 -1 -3t-1 -3q-23 -45 -64 -45h-305v-401q0 -58 17 -87.5t55 -58.5q60 -45 147 -45q17 0 57 2t64 2q113 0 206 57t150.5 150t89 207t31.5 234z" />
    <glyph glyph-name="Ntilde" unicode="&#xd1;" horiz-adv-x="1576" 
d="M963 1464q-25 0 -127 10.5t-127 10.5q-23 0 -66.5 -32t-50.5 -32q-12 0 -22.5 10.5t-10.5 24.5q0 34 66.5 86.5t105.5 52.5q26 0 122.5 -9t121.5 -9q24 0 45.5 10t33.5 21.5t24 21.5t20 10q15 0 25 -9.5t10 -24.5q0 -31 -65 -86.5t-105 -55.5zM1262 1331q46 0 107.5 3
t127.5 3q59 0 59 -22q0 -30 -67 -41q-75 -13 -101 -36t-28 -75q-4 -98 -4 -1147q0 -51 -43 -51q-24 0 -72.5 34t-93.5 95q-24 33 -337.5 417.5t-391.5 479.5q-26 33 -43 33q-19 0 -19 -43q-10 -508 -10 -768q0 -141 131 -164q68 -12 68 -37q0 -22 -60 -22t-109 5t-83 5
q-32 0 -79.5 -5t-107.5 -5q-59 0 -59 22q0 13 15.5 21t52.5 18q105 27 118 168q37 356 37 819q0 101 -49.5 150t-152.5 82q-10 3 -22.5 8.5t-27 17.5t-14.5 23q0 29 47 29q67 -2 151 -6.5t165 -4.5q12 0 22 -6t13 -10t14 -18q27 -37 385 -488.5t395 -495.5q33 -40 51 -40
t21 43q4 132 4 655v178q-1 37 -41.5 71.5t-77.5 41.5q-68 12 -68 41q0 22 60 22h117z" />
    <glyph glyph-name="Ograve" unicode="&#xd2;" horiz-adv-x="1562" 
d="M850 1403q-14 0 -37 18q-165 122 -266 209q-27 24 -27 39q0 19 44.5 33t74.5 14q37 0 55 -26q93 -136 158 -244q10 -17 10 -31q0 -12 -12 -12zM92 655q0 112 29 215.5t88 193t142.5 155.5t198.5 103.5t249 37.5q133 0 255 -49.5t214 -136t147 -214t55 -274.5
q0 -140 -45.5 -267.5t-129.5 -228t-217 -160t-296 -59.5q-134 0 -260 53t-221 142.5t-152 218t-57 270.5zM768 1280q-88 0 -165.5 -31t-133.5 -84.5t-97 -125t-61 -154t-20 -168.5q0 -175 65.5 -327t185.5 -245.5t267 -93.5q226 0 344.5 153t118.5 421q0 196 -57 342.5
t-171.5 229.5t-275.5 83z" />
    <glyph glyph-name="Oacute" unicode="&#xd3;" horiz-adv-x="1562" 
d="M719 1403q-12 0 -12 12q0 14 10 31q71 120 157 244q18 26 56 26q30 0 74.5 -14t44.5 -33q0 -15 -27 -39q-101 -87 -266 -209q-23 -18 -37 -18zM92 655q0 112 29 215.5t88 193t142.5 155.5t198.5 103.5t249 37.5q133 0 255 -49.5t214 -136t147 -214t55 -274.5
q0 -140 -45.5 -267.5t-129.5 -228t-217 -160t-296 -59.5q-134 0 -260 53t-221 142.5t-152 218t-57 270.5zM768 1280q-88 0 -165.5 -31t-133.5 -84.5t-97 -125t-61 -154t-20 -168.5q0 -175 65.5 -327t185.5 -245.5t267 -93.5q226 0 344.5 153t118.5 421q0 196 -57 342.5
t-171.5 229.5t-275.5 83z" />
    <glyph glyph-name="Ocircumflex" unicode="&#xd4;" horiz-adv-x="1562" 
d="M516 1395q-31 0 -31 20q0 13 15 25l200 170q31 28 46.5 36.5t37.5 8.5t37.5 -8.5t46.5 -36.5l201 -170q12 -10 12 -25q0 -22 -28 -22q-18 0 -109.5 43t-138.5 71q-14 7 -21 7t-20 -7q-46 -27 -137.5 -69.5t-110.5 -42.5zM92 655q0 112 29 215.5t88 193t142.5 155.5
t198.5 103.5t249 37.5q133 0 255 -49.5t214 -136t147 -214t55 -274.5q0 -140 -45.5 -267.5t-129.5 -228t-217 -160t-296 -59.5q-134 0 -260 53t-221 142.5t-152 218t-57 270.5zM768 1280q-88 0 -165.5 -31t-133.5 -84.5t-97 -125t-61 -154t-20 -168.5q0 -175 65.5 -327
t185.5 -245.5t267 -93.5q226 0 344.5 153t118.5 421q0 196 -57 342.5t-171.5 229.5t-275.5 83z" />
    <glyph glyph-name="Otilde" unicode="&#xd5;" horiz-adv-x="1562" 
d="M905 1464q-25 0 -127 10.5t-127 10.5q-23 0 -66 -32t-50 -32q-13 0 -23 10.5t-10 24.5q0 34 66.5 86.5t105.5 52.5q26 0 122 -9t122 -9q31 0 56 15.5t41 31.5t25 16q15 0 25 -9.5t10 -24.5q0 -31 -65 -86.5t-105 -55.5zM92 655q0 112 29 215.5t88 193t142.5 155.5
t198.5 103.5t249 37.5q133 0 255 -49.5t214 -136t147 -214t55 -274.5q0 -140 -45.5 -267.5t-129.5 -228t-217 -160t-296 -59.5q-134 0 -260 53t-221 142.5t-152 218t-57 270.5zM768 1280q-88 0 -165.5 -31t-133.5 -84.5t-97 -125t-61 -154t-20 -168.5q0 -175 65.5 -327
t185.5 -245.5t267 -93.5q226 0 344.5 153t118.5 421q0 196 -57 342.5t-171.5 229.5t-275.5 83z" />
    <glyph glyph-name="Odieresis" unicode="&#xd6;" horiz-adv-x="1562" 
d="M584 1628q43 0 72.5 -29.5t29.5 -72.5t-29.5 -73t-72.5 -30t-73 30t-30 73t30 72.5t73 29.5zM983 1628q43 0 72.5 -29.5t29.5 -72.5t-29.5 -73t-72.5 -30t-72.5 30t-29.5 73t29.5 72.5t72.5 29.5zM92 655q0 112 29 215.5t88 193t142.5 155.5t198.5 103.5t249 37.5
q133 0 255 -49.5t214 -136t147 -214t55 -274.5q0 -140 -45.5 -267.5t-129.5 -228t-217 -160t-296 -59.5q-134 0 -260 53t-221 142.5t-152 218t-57 270.5zM768 1280q-88 0 -165.5 -31t-133.5 -84.5t-97 -125t-61 -154t-20 -168.5q0 -175 65.5 -327t185.5 -245.5t267 -93.5
q226 0 344.5 153t118.5 421q0 196 -57 342.5t-171.5 229.5t-275.5 83z" />
    <glyph glyph-name="multiply" unicode="&#xd7;" horiz-adv-x="1228" 
d="M594 612q8 -8 12 -4l2 2l295 293q10 10 21 10t18 -10q3 -6 11 -20t12 -22t8 -19.5t4 -20.5q0 -16 -14 -30l-269 -269q-5 -5 0 -10l293 -293q10 -10 10 -24q0 -27 -21.5 -56.5t-39.5 -29.5q-13 0 -21 8l-305 307q-7 7 -14 0l-293 -293q-7 -7 -19 -7.5t-18 5.5
q-45 45 -45 80q0 14 10 24l275 275q9 9 -2 20l-248 248q-10 10 -10 29q0 40 33 84q7 7 19 7t19 -7z" />
    <glyph glyph-name="Oslash" unicode="&#xd8;" horiz-adv-x="1583" 
d="M1206 1008l-764 -756q71 -93 169 -147t208 -54q226 0 344.5 153t118.5 421q0 228 -76 383zM158 -29q-22 0 -40 13t-18 28q0 20 21 41l153 152q-172 193 -172 450q0 112 29 215.5t88 193t142.5 155.5t198.5 103.5t249 37.5q129 0 247.5 -45t211.5 -129l164 162
q10 11 27.5 7.5t21.5 -16.5q6 -24 6 -30q0 -23 -14 -37l-148 -148q156 -184 156 -438q0 -140 -45.5 -267.5t-129.5 -228t-217 -160t-296 -59.5q-124 0 -241 44.5t-212 125.5l-164 -164q-6 -6 -18 -6zM778 1280q-88 0 -165.5 -31t-133.5 -84.5t-97 -125t-61 -154t-20 -168.5
q0 -223 90 -387l772 753q-132 197 -385 197z" />
    <glyph glyph-name="Ugrave" unicode="&#xd9;" horiz-adv-x="1511" 
d="M864 1403q-14 0 -37 18q-165 122 -266 209q-26 23 -26 39q0 19 44 33t74 14q38 0 56 -26q86 -124 157 -244q11 -18 11 -31q0 -12 -13 -12zM1321 1120q-6 -106 -10 -208t-6.5 -224.5t-4.5 -175.5q-5 -156 -76 -280t-192 -192.5t-270 -68.5q-269 0 -410 140t-141 381v628
q0 67 -27 103t-67 47q-68 17 -68 45q0 22 60 22q29 0 92.5 -3t103.5 -3q34 0 89.5 2t74.5 2q59 0 59 -22q0 -13 -15 -21t-52 -20q-29 -9 -57.5 -50.5t-28.5 -97.5v-575q0 -237 117 -356t313 -119q204 0 305.5 142t101.5 390q0 125 -8 441q-2 85 -23 148.5t-61 74.5
q-67 18 -67 41q0 22 59 22q31 0 78 -1t76 -1q35 0 90 3t76 3q59 0 59 -22q0 -27 -68 -41q-95 -19 -102 -154z" />
    <glyph glyph-name="Uacute" unicode="&#xda;" horiz-adv-x="1511" 
d="M733 1403q-12 0 -12 12q0 14 10 31q65 108 158 244q18 26 55 26q30 0 74.5 -14t44.5 -33q0 -15 -27 -39q-101 -87 -266 -209q-23 -18 -37 -18zM1321 1120q-6 -106 -10 -208t-6.5 -224.5t-4.5 -175.5q-5 -156 -76 -280t-192 -192.5t-270 -68.5q-269 0 -410 140t-141 381
v628q0 67 -27 103t-67 47q-68 17 -68 45q0 22 60 22q29 0 92.5 -3t103.5 -3q34 0 89.5 2t74.5 2q59 0 59 -22q0 -13 -15 -21t-52 -20q-29 -9 -57.5 -50.5t-28.5 -97.5v-575q0 -237 117 -356t313 -119q204 0 305.5 142t101.5 390q0 125 -8 441q-2 85 -23 148.5t-61 74.5
q-67 18 -67 41q0 22 59 22q31 0 78 -1t76 -1q35 0 90 3t76 3q59 0 59 -22q0 -27 -68 -41q-95 -19 -102 -154z" />
    <glyph glyph-name="Ucircumflex" unicode="&#xdb;" horiz-adv-x="1511" 
d="M530 1436q-30 0 -30 20q0 14 14 25l201 170q31 28 46.5 36.5t37.5 8.5t37.5 -8.5t46.5 -36.5l200 -170q13 -10 13 -25q0 -9 -8 -15.5t-21 -6.5q-18 0 -109.5 43t-138.5 71q-13 8 -20.5 8t-20.5 -8q-46 -27 -137.5 -69.5t-110.5 -42.5zM1321 1120q-6 -106 -10 -208
t-6.5 -224.5t-4.5 -175.5q-5 -156 -76 -280t-192 -192.5t-270 -68.5q-269 0 -410 140t-141 381v628q0 67 -27 103t-67 47q-68 17 -68 45q0 22 60 22q29 0 92.5 -3t103.5 -3q34 0 89.5 2t74.5 2q59 0 59 -22q0 -13 -15 -21t-52 -20q-29 -9 -57.5 -50.5t-28.5 -97.5v-575
q0 -237 117 -356t313 -119q204 0 305.5 142t101.5 390q0 125 -8 441q-2 85 -23 148.5t-61 74.5q-67 18 -67 41q0 22 59 22q31 0 78 -1t76 -1q35 0 90 3t76 3q59 0 59 -22q0 -27 -68 -41q-95 -19 -102 -154z" />
    <glyph glyph-name="Udieresis" unicode="&#xdc;" horiz-adv-x="1511" 
d="M598 1628q43 0 72.5 -29.5t29.5 -72.5t-29.5 -73t-72.5 -30t-72.5 30t-29.5 73t29.5 72.5t72.5 29.5zM997 1628q43 0 73 -29.5t30 -72.5t-30 -73t-73 -30t-72.5 30t-29.5 73t29.5 72.5t72.5 29.5zM1321 1120q-6 -106 -10 -208t-6.5 -224.5t-4.5 -175.5q-5 -156 -76 -280
t-192 -192.5t-270 -68.5q-269 0 -410 140t-141 381v628q0 67 -27 103t-67 47q-68 17 -68 45q0 22 60 22q29 0 92.5 -3t103.5 -3q34 0 89.5 2t74.5 2q59 0 59 -22q0 -13 -15 -21t-52 -20q-29 -9 -57.5 -50.5t-28.5 -97.5v-575q0 -237 117 -356t313 -119q204 0 305.5 142
t101.5 390q0 125 -8 441q-2 85 -23 148.5t-61 74.5q-67 18 -67 41q0 22 59 22q31 0 78 -1t76 -1q35 0 90 3t76 3q59 0 59 -22q0 -27 -68 -41q-95 -19 -102 -154z" />
    <glyph glyph-name="Yacute" unicode="&#xdd;" horiz-adv-x="1183" 
d="M590 1403q-12 0 -12 12q0 14 10 31q71 120 157 244q18 26 56 26q30 0 74.5 -14t44.5 -33q0 -15 -27 -39q-101 -87 -266 -209q-23 -18 -37 -18zM541 221v303q0 58 -52 152l-239 393q-115 182 -182 201q-68 21 -68 45q0 22 59 22q26 0 107.5 -3t132.5 -3q34 0 89.5 2
t74.5 2q59 0 59 -22q0 -26 -67 -41q-34 -9 -50 -19.5t-16 -31.5q0 -25 27 -74l188 -338q26 -45 38 -61.5t20 -16.5q11 0 23.5 15.5t43.5 62.5q74 113 172 285q37 62 37 104q0 59 -84 72q-23 3 -45.5 15.5t-22.5 25.5q0 22 60 22q31 0 77.5 -1t75.5 -1q47 0 120.5 3t92.5 3
q60 0 60 -22q0 -20 -109 -51q-26 -7 -46.5 -19.5t-44.5 -41.5t-38.5 -50t-50.5 -76q-121 -185 -227 -368q-36 -63 -43.5 -92t-7.5 -93v-303q0 -69 42 -113.5t119 -58.5q68 -12 68 -37q0 -22 -60 -22q-58 0 -126 5t-113 5q-50 0 -127.5 -5t-134.5 -5q-60 0 -60 22q0 25 68 37
q160 28 160 172z" />
    <glyph glyph-name="Thorn" unicode="&#xde;" horiz-adv-x="1144" 
d="M543 334q128 0 198 53q72 54 101.5 128t29.5 171q0 125 -74 222.5t-186 97.5q-42 0 -79 -7t-66 -25.5t-29 -47.5v-539q0 -24 35.5 -38.5t69.5 -14.5zM524 274q-16 0 -38.5 3.5t-30.5 3.5q-7 0 -12 -5.5t-5 -13.5v-65q0 -119 162 -148q68 -12 68 -37q0 -22 -60 -22
q-58 0 -126 5t-113 5q-50 0 -129 -5t-136 -5q-59 0 -59 22q0 25 68 37q81 14 121 49t40 105v921q0 68 -22.5 102.5t-93.5 47.5q-68 12 -68 41q0 22 60 22q59 0 116 -3t96 -3q45 0 115.5 3t128.5 3q60 0 60 -22q0 -29 -68 -41q-82 -14 -121 -47t-39 -103v-34q0 -41 13 -41
q3 0 25 5l22 5q55 14 147 14q115 0 207 -39t150.5 -122.5t58.5 -200.5q0 -73 -48.5 -176.5t-113.5 -153.5q-66 -51 -174 -79t-201 -28z" />
    <glyph glyph-name="germandbls" unicode="&#xdf;" horiz-adv-x="1034" 
d="M588 541q-43 39 -63.5 71.5t-20.5 75.5t30 80t93 88t92 82q37 38 60.5 92t23.5 107q0 40 -10 75t-34.5 71t-75.5 57.5t-124 21.5q-103 0 -167 -96.5t-64 -292.5v-832q0 -67 86 -92q47 -16 47 -37q0 -18 -47 -18q-41 0 -81 5t-75 5t-77 -5t-83 -5q-47 0 -47 18q0 21 47 37
q86 25 86 92v576q-63 0 -106 4q-6 2 -14.5 13.5t-8.5 21.5t8 14q18 5 32 9.5t27 10.5t20.5 10t21.5 12t20 11q0 136 29.5 246t76 178.5t107.5 115t119 65t115 18.5q128 0 214.5 -82t86.5 -193q0 -49 -16.5 -91.5t-33.5 -64t-44 -46.5l-68 -62q-9 -9 -33.5 -31t-36 -35.5
t-23 -39.5t-11.5 -56q0 -46 39 -83l190 -185q42 -43 60 -87t18 -103q0 -50 -23 -99t-58.5 -86t-67.5 -62.5t-60 -39.5q-34 -17 -61 -21t-89 -4q-30 0 -74 26t-44 58q0 33 17 73t42 40q6 0 18 -8q95 -74 177 -74q46 0 81 27.5t35 83.5q0 27 -7 49t-30 50t-38.5 43.5
t-59.5 57.5z" />
    <glyph glyph-name="agrave" unicode="&#xe0;" horiz-adv-x="817" 
d="M377 979q-67 73 -154.5 178.5t-87.5 124.5q0 23 29.5 35t71.5 12q15 0 30.5 -11t24.5 -26q46 -80 106 -195.5t60 -135.5q0 -10 -1 -15t-5 -8.5t-13 -3.5q-21 0 -61 45zM700 66q50 0 82 28q9 9 21 1.5t12 -19.5q0 -9 -24 -34t-64.5 -48t-75.5 -23q-33 0 -59 11t-40.5 26.5
t-24.5 31.5t-16.5 27t-10.5 11q-8 0 -28 -16.5t-45 -36.5t-73.5 -36.5t-105.5 -17.5q-63 0 -119.5 51t-56.5 111q0 123 149 184l209 86q39 17 47 28.5t10 53.5l5 131q2 54 -32.5 93t-88.5 39q-35 0 -73.5 -21.5t-51.5 -44.5q-8 -13 -8 -39q0 -5 1 -14.5t1 -14.5
q0 -20 -58.5 -45.5t-83.5 -25.5q-16 0 -16 18q0 69 82 141q59 54 145 100t160 46q72 0 121 -53.5t47 -128.5l-10 -443q0 -157 73 -157zM236 178q0 -53 32.5 -82.5t67.5 -29.5q60 0 123 55q22 18 24 82l4 100q3 43 -18 43q-14 0 -29 -6q-109 -37 -156.5 -79.5t-47.5 -82.5z
" />
    <glyph glyph-name="aacute" unicode="&#xe1;" horiz-adv-x="817" 
d="M406 979q-40 -45 -62 -45q-12 0 -15 5.5t-3 21.5q0 20 60 135.5t106 195.5q9 15 24.5 26t30.5 11q42 0 71 -12t29 -35q0 -19 -87.5 -125.5t-153.5 -177.5zM700 66q50 0 82 28q9 9 21 1.5t12 -19.5q0 -9 -24 -34t-64.5 -48t-75.5 -23q-33 0 -59 11t-40.5 26.5t-24.5 31.5
t-16.5 27t-10.5 11q-8 0 -28 -16.5t-45 -36.5t-73.5 -36.5t-105.5 -17.5q-63 0 -119.5 51t-56.5 111q0 123 149 184l209 86q39 17 47 28.5t10 53.5l5 131q2 54 -32.5 93t-88.5 39q-35 0 -73.5 -21.5t-51.5 -44.5q-8 -13 -8 -39q0 -5 1 -14.5t1 -14.5q0 -20 -58.5 -45.5
t-83.5 -25.5q-16 0 -16 18q0 69 82 141q59 54 145 100t160 46q72 0 121 -53.5t47 -128.5l-10 -443q0 -157 73 -157zM236 178q0 -53 32.5 -82.5t67.5 -29.5q60 0 123 55q22 18 24 82l4 100q3 43 -18 43q-14 0 -29 -6q-109 -37 -156.5 -79.5t-47.5 -82.5z" />
    <glyph glyph-name="acircumflex" unicode="&#xe2;" horiz-adv-x="817" 
d="M385 1133q-50 -60 -135 -172q-12 -15 -31.5 -30.5t-30.5 -15.5q-12 0 -15 5.5t-3 21.5q0 20 68 147.5t112 200.5q21 37 41 37t41 -37q46 -76 114 -202t68 -146q0 -11 -0.5 -15.5t-4.5 -8t-13 -3.5q-11 0 -30.5 15t-30.5 31q-36 47 -136 172q-2 3 -3.5 4.5t-3.5 1.5
t-3.5 -1.5t-3.5 -4.5zM700 66q50 0 82 28q9 9 21 1.5t12 -19.5q0 -9 -24 -34t-64.5 -48t-75.5 -23q-33 0 -59 11t-40.5 26.5t-24.5 31.5t-16.5 27t-10.5 11q-8 0 -28 -16.5t-45 -36.5t-73.5 -36.5t-105.5 -17.5q-63 0 -119.5 51t-56.5 111q0 123 149 184l209 86
q39 17 47 28.5t10 53.5l5 131q2 54 -32.5 93t-88.5 39q-35 0 -73.5 -21.5t-51.5 -44.5q-8 -13 -8 -39q0 -5 1 -14.5t1 -14.5q0 -20 -58.5 -45.5t-83.5 -25.5q-16 0 -16 18q0 69 82 141q59 54 145 100t160 46q72 0 121 -53.5t47 -128.5l-10 -443q0 -157 73 -157zM236 178
q0 -53 32.5 -82.5t67.5 -29.5q60 0 123 55q22 18 24 82l4 100q3 43 -18 43q-14 0 -29 -6q-109 -37 -156.5 -79.5t-47.5 -82.5z" />
    <glyph glyph-name="atilde" unicode="&#xe3;" horiz-adv-x="817" 
d="M162 963q-14 0 -21.5 12t-7.5 29q0 19 73 95.5t107 76.5q25 0 109 -8.5t110 -8.5q25 0 46.5 11t33.5 24t22 24t15 11q15 0 24 -10t9 -25q0 -19 -70 -94.5t-104 -75.5q-25 0 -114.5 7t-114.5 7q-22 0 -48 -19t-44.5 -37.5t-24.5 -18.5zM700 66q50 0 82 28q9 9 21 1.5
t12 -19.5q0 -9 -24 -34t-64.5 -48t-75.5 -23q-33 0 -59 11t-40.5 26.5t-24.5 31.5t-16.5 27t-10.5 11q-8 0 -28 -16.5t-45 -36.5t-73.5 -36.5t-105.5 -17.5q-63 0 -119.5 51t-56.5 111q0 123 149 184l209 86q39 17 47 28.5t10 53.5l5 131q2 54 -32.5 93t-88.5 39
q-35 0 -73.5 -21.5t-51.5 -44.5q-8 -13 -8 -39q0 -5 1 -14.5t1 -14.5q0 -20 -58.5 -45.5t-83.5 -25.5q-16 0 -16 18q0 69 82 141q59 54 145 100t160 46q72 0 121 -53.5t47 -128.5l-10 -443q0 -157 73 -157zM236 178q0 -53 32.5 -82.5t67.5 -29.5q60 0 123 55q22 18 24 82
l4 100q3 43 -18 43q-14 0 -29 -6q-109 -37 -156.5 -79.5t-47.5 -82.5z" />
    <glyph glyph-name="adieresis" unicode="&#xe4;" horiz-adv-x="817" 
d="M219 1214q38 0 70.5 -32t32.5 -70t-32.5 -70t-70.5 -32t-70 32t-32 70t32 70t70 32zM582 1214q38 0 70 -32t32 -70t-32 -70t-70 -32t-70.5 32t-32.5 70t32.5 70t70.5 32zM700 66q50 0 82 28q9 9 21 1.5t12 -19.5q0 -9 -24 -34t-64.5 -48t-75.5 -23q-33 0 -59 11
t-40.5 26.5t-24.5 31.5t-16.5 27t-10.5 11q-8 0 -28 -16.5t-45 -36.5t-73.5 -36.5t-105.5 -17.5q-63 0 -119.5 51t-56.5 111q0 123 149 184l209 86q39 17 47 28.5t10 53.5l5 131q2 54 -32.5 93t-88.5 39q-35 0 -73.5 -21.5t-51.5 -44.5q-8 -13 -8 -39q0 -5 1 -14.5t1 -14.5
q0 -20 -58.5 -45.5t-83.5 -25.5q-16 0 -16 18q0 69 82 141q59 54 145 100t160 46q72 0 121 -53.5t47 -128.5l-10 -443q0 -157 73 -157zM236 178q0 -53 32.5 -82.5t67.5 -29.5q60 0 123 55q22 18 24 82l4 100q3 43 -18 43q-14 0 -29 -6q-109 -37 -156.5 -79.5t-47.5 -82.5z
" />
    <glyph glyph-name="aring" unicode="&#xe5;" horiz-adv-x="817" 
d="M305 1163q0 -52 27 -89.5t69 -37.5q80 0 80 115q0 45 -29.5 82t-70.5 37q-76 0 -76 -107zM399 1325q68 0 117 -46.5t49 -113.5q0 -77 -54 -129.5t-124 -52.5q-67 0 -116.5 51t-49.5 119q0 67 55 119.5t123 52.5zM700 66q50 0 82 28q9 9 21 1.5t12 -19.5q0 -9 -24 -34
t-64.5 -48t-75.5 -23q-33 0 -59 11t-40.5 26.5t-24.5 31.5t-16.5 27t-10.5 11q-8 0 -28 -16.5t-45 -36.5t-73.5 -36.5t-105.5 -17.5q-63 0 -119.5 51t-56.5 111q0 123 149 184l209 86q39 17 47 28.5t10 53.5l5 131q2 54 -32.5 93t-88.5 39q-35 0 -73.5 -21.5t-51.5 -44.5
q-8 -13 -8 -39q0 -5 1 -14.5t1 -14.5q0 -20 -58.5 -45.5t-83.5 -25.5q-16 0 -16 18q0 69 82 141q59 54 145 100t160 46q72 0 121 -53.5t47 -128.5l-10 -443q0 -157 73 -157zM236 178q0 -53 32.5 -82.5t67.5 -29.5q60 0 123 55q22 18 24 82l4 100q3 43 -18 43q-14 0 -29 -6
q-109 -37 -156.5 -79.5t-47.5 -82.5z" />
    <glyph glyph-name="ae" unicode="&#xe6;" horiz-adv-x="1114" 
d="M236 178q0 -53 32.5 -82.5t67.5 -29.5q64 0 127 55q9 8 14 14t10 22t5 40v106q0 28 -3 38.5t-14 10.5q-15 0 -51.5 -13t-78.5 -34t-75 -55.5t-34 -71.5zM635 657v-137q0 -14 11 -19t20 -1q58 24 153 58.5t107 39.5q14 5 14 29q0 21 -8 45q-42 102 -144 102
q-20 0 -54.5 -13.5t-66 -42t-32.5 -61.5zM246 680q-8 -13 -8 -39q0 -5 1 -14.5t1 -14.5q0 -20 -58.5 -45.5t-83.5 -25.5q-16 0 -16 18q0 69 82 141q60 54 146 101t159 47q30 0 73.5 -23t55.5 -45q7 -15 25 -2q37 27 103 47.5t116 20.5q90 0 164.5 -51.5t74.5 -143.5
q0 -21 -7 -35t-15.5 -19.5t-26.5 -14.5q-12 -6 -88.5 -39.5t-171.5 -75t-117 -51.5q-8 -4 -15 -16.5t-7 -20.5v-115q0 -93 51 -131.5t129 -38.5q141 0 227 99q8 8 19 8q10 0 18 -7t8 -16q0 -6 -2 -8q-71 -104 -146 -151.5t-187 -47.5q-127 0 -224 82q-25 25 -26 25
q-9 0 -17 -8q-2 -1 -22.5 -18.5t-35.5 -27t-42.5 -24t-61.5 -21.5t-73 -8q-63 0 -119.5 51t-56.5 111q0 63 36 106t113 78l213 97q41 19 50.5 29t9.5 34v135q0 56 -34 96t-89 40q-35 0 -73.5 -22.5t-51.5 -45.5z" />
    <glyph glyph-name="ccedilla" unicode="&#xe7;" horiz-adv-x="772" 
d="M309 -264q-12 0 -24.5 9t-12.5 22q0 5 11 20l145 184h-6q-101 0 -182 55.5t-124.5 146t-43.5 196.5q0 126 54.5 235t155 175.5t222.5 66.5q167 0 246 -98q10 -13 10 -25q0 -24 -30 -47t-48 -23q-30 0 -51 21q-55 60 -88 78t-105 18q-71 0 -124 -46.5t-77 -114.5t-24 -146
q0 -99 39.5 -186.5t115.5 -143t171 -55.5q62 0 100 23t80 79q10 10 18 10q9 0 17 -9t8 -19q0 -51 -79 -108t-185 -77l-52 -65q-8 -8 -8 -16t8 -15.5t15 -9.5q53 -23 89 -65t36 -91q0 -58 -29.5 -112t-71 -88.5t-84 -55t-71.5 -20.5q-62 0 -62 84q0 19 9.5 29t17.5 10l33 -12
q34 -11 75 -11q39 0 59.5 25.5t20.5 66.5q0 55 -33 86t-88 31q-15 0 -31.5 -6t-21.5 -6z" />
    <glyph glyph-name="egrave" unicode="&#xe8;" horiz-adv-x="798" 
d="M418 979q-67 73 -154.5 178.5t-87.5 124.5q0 23 29 35t71 12q15 0 31 -11t25 -26q46 -80 106 -195.5t60 -135.5q0 -15 -3 -21t-16 -6q-21 0 -61 45zM436 784q-79 0 -144 -58.5t-65 -104.5q0 -31 39 -31h168q96 0 150 10q20 3 20 57q0 58 -51.5 92.5t-116.5 34.5zM469 848
q122 0 195 -59.5t73 -170.5q0 -47 -16 -69.5t-55 -22.5h-426q-28 0 -40 -13.5t-12 -61.5q0 -143 88 -250t222 -107q47 0 103.5 22.5t92.5 69.5q15 15 23 15q10 0 13 -14.5t-1 -26.5q-18 -65 -106.5 -127t-216.5 -62q-144 0 -244.5 123t-100.5 322q0 114 53 213.5t147.5 159
t207.5 59.5z" />
    <glyph glyph-name="eacute" unicode="&#xe9;" horiz-adv-x="798" 
d="M446 979q-40 -45 -61 -45q-12 0 -15 5.5t-3 21.5q0 20 60 136.5t105 194.5q9 15 25 26t31 11q42 0 71 -12t29 -35q0 -19 -87.5 -124.5t-154.5 -178.5zM436 784q-79 0 -144 -58.5t-65 -104.5q0 -31 39 -31h168q96 0 150 10q20 3 20 57q0 58 -51.5 92.5t-116.5 34.5z
M469 848q122 0 195 -59.5t73 -170.5q0 -47 -16 -69.5t-55 -22.5h-426q-28 0 -40 -13.5t-12 -61.5q0 -143 88 -250t222 -107q47 0 103.5 22.5t92.5 69.5q15 15 23 15q10 0 13 -14.5t-1 -26.5q-18 -65 -106.5 -127t-216.5 -62q-144 0 -244.5 123t-100.5 322q0 114 53 213.5
t147.5 159t207.5 59.5z" />
    <glyph glyph-name="ecircumflex" unicode="&#xea;" horiz-adv-x="798" 
d="M426 1133q-50 -60 -135 -172q-12 -15 -31.5 -30.5t-30.5 -15.5q-12 0 -15 5.5t-3 21.5q0 20 68 147.5t112 200.5q21 37 41 37t41 -37q46 -76 114 -202t68 -146q0 -11 -0.5 -15.5t-4.5 -8t-13 -3.5q-12 0 -31.5 15t-30.5 31q-52 69 -135 172q-2 3 -3.5 4.5t-3.5 1.5
t-3.5 -1.5t-3.5 -4.5zM436 784q-79 0 -144 -58.5t-65 -104.5q0 -31 39 -31h168q96 0 150 10q20 3 20 57q0 58 -51.5 92.5t-116.5 34.5zM469 848q122 0 195 -59.5t73 -170.5q0 -47 -16 -69.5t-55 -22.5h-426q-28 0 -40 -13.5t-12 -61.5q0 -143 88 -250t222 -107
q47 0 103.5 22.5t92.5 69.5q15 15 23 15q10 0 13 -14.5t-1 -26.5q-18 -65 -106.5 -127t-216.5 -62q-144 0 -244.5 123t-100.5 322q0 114 53 213.5t147.5 159t207.5 59.5z" />
    <glyph glyph-name="edieresis" unicode="&#xeb;" horiz-adv-x="798" 
d="M260 1214q38 0 70 -32t32 -70t-32 -70t-70 -32t-70 32t-32 70t32 70t70 32zM623 1214q38 0 70 -32t32 -70t-32 -70t-70 -32t-70.5 32t-32.5 70t32.5 70t70.5 32zM436 784q-79 0 -144 -58.5t-65 -104.5q0 -31 39 -31h168q96 0 150 10q20 3 20 57q0 58 -51.5 92.5
t-116.5 34.5zM469 848q122 0 195 -59.5t73 -170.5q0 -47 -16 -69.5t-55 -22.5h-426q-28 0 -40 -13.5t-12 -61.5q0 -143 88 -250t222 -107q47 0 103.5 22.5t92.5 69.5q15 15 23 15q10 0 13 -14.5t-1 -26.5q-18 -65 -106.5 -127t-216.5 -62q-144 0 -244.5 123t-100.5 322
q0 114 53 213.5t147.5 159t207.5 59.5z" />
    <glyph glyph-name="igrave" unicode="&#xec;" horiz-adv-x="501" 
d="M221 979q-66 71 -153.5 177.5t-87.5 125.5q0 23 29 35t71 12q15 0 30.5 -11t24.5 -26q46 -80 106 -195.5t60 -135.5q0 -11 -0.5 -15.5t-4.5 -8t-13 -3.5q-22 0 -62 45zM332 889q14 0 14 -10q-18 -189 -18 -277v-475q0 -16 6 -28.5t12 -19t22 -14t22 -9t26 -7.5
q47 -16 47 -37q0 -18 -41 -18q-40 0 -85.5 5t-80.5 5t-80 -5t-86 -5t-41 18q0 21 47 37q55 16 71 32q17 18 17 46v444q0 131 -96 150q-16 3 -16 27q0 20 14 24q60 14 118 43.5t90.5 51.5t37.5 22z" />
    <glyph glyph-name="iacute" unicode="&#xed;" horiz-adv-x="501" 
d="M250 979q-40 -45 -62 -45q-12 0 -15 5.5t-3 21.5q0 20 60 135.5t106 195.5q9 15 24.5 26t30.5 11q42 0 71.5 -12t29.5 -35q0 -19 -87.5 -124.5t-154.5 -178.5zM332 889q14 0 14 -10q-18 -189 -18 -277v-475q0 -16 6 -28.5t12 -19t22 -14t22 -9t26 -7.5q47 -16 47 -37
q0 -18 -41 -18q-40 0 -85.5 5t-80.5 5t-80 -5t-86 -5t-41 18q0 21 47 37q55 16 71 32q17 18 17 46v444q0 131 -96 150q-16 3 -16 27q0 20 14 24q60 14 118 43.5t90.5 51.5t37.5 22z" />
    <glyph glyph-name="icircumflex" unicode="&#xee;" horiz-adv-x="501" 
d="M229 1133q-50 -60 -135 -172q-12 -16 -31 -31t-30 -15q-9 0 -13 3.5t-5 8.5t-1 15q0 20 68 147t113 201q21 37 41 37q19 0 40 -37q47 -79 115 -203.5t68 -144.5q0 -10 -1 -15t-5 -8.5t-13 -3.5q-11 0 -30.5 15t-30.5 31q-52 69 -135 172q-8 10 -15 0zM332 889
q14 0 14 -10q-18 -189 -18 -277v-475q0 -16 6 -28.5t12 -19t22 -14t22 -9t26 -7.5q47 -16 47 -37q0 -18 -41 -18q-40 0 -85.5 5t-80.5 5t-80 -5t-86 -5t-41 18q0 21 47 37q55 16 71 32q17 18 17 46v444q0 131 -96 150q-16 3 -16 27q0 20 14 24q60 14 118 43.5t90.5 51.5
t37.5 22z" />
    <glyph glyph-name="idieresis" unicode="&#xef;" horiz-adv-x="501" 
d="M63 1214q38 0 70.5 -32t32.5 -70t-32.5 -70t-70.5 -32t-70 32t-32 70t32 70t70 32zM426 1214q38 0 70 -32t32 -70t-32 -70t-70 -32t-70 32t-32 70t32 70t70 32zM332 889q14 0 14 -10q-18 -189 -18 -277v-475q0 -16 6 -28.5t12 -19t22 -14t22 -9t26 -7.5q47 -16 47 -37
q0 -18 -41 -18q-40 0 -85.5 5t-80.5 5t-80 -5t-86 -5t-41 18q0 21 47 37q55 16 71 32q17 18 17 46v444q0 131 -96 150q-16 3 -16 27q0 20 14 24q60 14 118 43.5t90.5 51.5t37.5 22z" />
    <glyph glyph-name="eth" unicode="&#xf0;" horiz-adv-x="997" 
d="M934 512q0 -93 -29.5 -186.5t-85 -173.5t-146 -130.5t-200.5 -50.5q-176 0 -299 115t-123 295q0 125 62.5 232.5t169.5 171t231 63.5q102 0 188 -47q13 -6 16.5 -1.5t0.5 19.5q-58 213 -139 311l-318 -163q-11 -6 -20 0.5t-9 15.5q0 63 17 72l270 141q-80 75 -173 124.5
t-175 68.5q-41 10 -41 30q0 25 53 25q95 0 216.5 -51t232.5 -140l207 109q9 5 20.5 8.5t21 1t9.5 -11.5q0 -68 -37 -86l-154 -80q49 -52 87 -110t73 -140t54.5 -192t19.5 -240zM479 778q-63 0 -113.5 -30t-81 -80.5t-47 -111.5t-16.5 -126q0 -101 39 -192t107.5 -148
t148.5 -57q59 0 109 39t82 101t49.5 134t17.5 142q0 154 -83 241.5t-212 87.5z" />
    <glyph glyph-name="ntilde" unicode="&#xf1;" horiz-adv-x="1081" 
d="M299 963q-14 0 -21.5 12t-7.5 29q0 19 73.5 95.5t107.5 76.5q25 0 109 -8.5t110 -8.5q32 0 57 17.5t39.5 35t19.5 17.5q15 0 24 -10t9 -25q0 -19 -70 -94.5t-104 -75.5q-25 0 -114 7t-115 7q-22 0 -48 -19t-44.5 -37.5t-24.5 -18.5zM571 750q-121 0 -188 -54
q-55 -40 -55 -147v-422q0 -16 6 -28.5t12 -19t22 -14t22 -9t26 -7.5q47 -16 47 -37q0 -18 -41 -18q-42 0 -86.5 5t-79.5 5t-79.5 -5t-86.5 -5q-41 0 -41 18q0 21 47 37q55 16 71 32q17 18 17 46v440q0 65 -16 101.5t-64 46.5q-16 3 -16 26q0 21 14 25q26 6 50 14.5t40 15.5
t38.5 20t32 19t35 23.5t32.5 22.5q5 0 9.5 -4.5t4.5 -10.5t-5 -57.5t-5 -73.5q0 -20 4 -24q143 137 330 137q99 0 165 -82t66 -203v-436q0 -16 6 -28.5t12 -19t22 -14t22 -9t26 -7.5q47 -16 47 -37q0 -18 -41 -18q-42 0 -85.5 5t-78.5 5t-80 -5t-87 -5q-41 0 -41 18
q0 21 47 37q55 16 71 32q17 18 17 46v430q0 88 -50.5 139.5t-134.5 53.5z" />
    <glyph glyph-name="ograve" unicode="&#xf2;" horiz-adv-x="1013" 
d="M489 979q-66 71 -153.5 177.5t-87.5 125.5q0 23 29 35t71 12q15 0 30.5 -11t24.5 -26q46 -80 106 -195.5t60 -135.5q0 -11 -0.5 -15.5t-4.5 -8t-13 -3.5q-22 0 -62 45zM520 848q87 0 166 -33.5t134.5 -89.5t88.5 -131.5t33 -157.5q0 -92 -30 -174.5t-86 -148t-146 -104
t-201 -38.5q-173 0 -290 116.5t-117 295.5q0 113 58.5 220t163 176t226.5 69zM485 784q-59 0 -102 -18.5t-78 -63.5q-65 -83 -65 -272q0 -102 35.5 -192.5t101.5 -147.5t145 -57q154 0 211 112q41 78 41 242q0 99 -35 189t-102.5 149t-151.5 59z" />
    <glyph glyph-name="oacute" unicode="&#xf3;" horiz-adv-x="1013" 
d="M518 979q-40 -45 -61 -45q-13 0 -16 6t-3 21q0 20 60 135.5t106 195.5q9 15 24.5 26t30.5 11q42 0 71.5 -12t29.5 -35q0 -19 -87.5 -124.5t-154.5 -178.5zM520 848q87 0 166 -33.5t134.5 -89.5t88.5 -131.5t33 -157.5q0 -92 -30 -174.5t-86 -148t-146 -104t-201 -38.5
q-173 0 -290 116.5t-117 295.5q0 113 58.5 220t163 176t226.5 69zM485 784q-59 0 -102 -18.5t-78 -63.5q-65 -83 -65 -272q0 -102 35.5 -192.5t101.5 -147.5t145 -57q154 0 211 112q41 78 41 242q0 99 -35 189t-102.5 149t-151.5 59z" />
    <glyph glyph-name="ocircumflex" unicode="&#xf4;" horiz-adv-x="1013" 
d="M498 1133q-61 -73 -136 -172q-12 -16 -31 -31t-30 -15q-12 0 -15 5.5t-3 21.5q0 20 68 147.5t112 200.5q21 37 41 37t41 -37q46 -76 114 -202t68 -146q0 -11 -0.5 -15.5t-4.5 -8t-13 -3.5q-12 0 -31.5 15t-30.5 31q-52 69 -135 172q-2 3 -3.5 4.5t-3.5 1.5t-3.5 -1.5
t-3.5 -4.5zM520 848q87 0 166 -33.5t134.5 -89.5t88.5 -131.5t33 -157.5q0 -92 -30 -174.5t-86 -148t-146 -104t-201 -38.5q-173 0 -290 116.5t-117 295.5q0 113 58.5 220t163 176t226.5 69zM485 784q-59 0 -102 -18.5t-78 -63.5q-65 -83 -65 -272q0 -102 35.5 -192.5
t101.5 -147.5t145 -57q154 0 211 112q41 78 41 242q0 99 -35 189t-102.5 149t-151.5 59z" />
    <glyph glyph-name="otilde" unicode="&#xf5;" horiz-adv-x="1013" 
d="M274 963q-28 0 -28 41q0 19 73 95.5t107 76.5q26 0 110 -8.5t109 -8.5t46.5 11t33.5 24t22 24t15 11q15 0 24 -10t9 -25q0 -19 -70 -94.5t-104 -75.5q-25 0 -114.5 7t-115.5 7q-22 0 -48 -19t-44.5 -37.5t-24.5 -18.5zM520 848q87 0 166 -33.5t134.5 -89.5t88.5 -131.5
t33 -157.5q0 -92 -30 -174.5t-86 -148t-146 -104t-201 -38.5q-173 0 -290 116.5t-117 295.5q0 113 58.5 220t163 176t226.5 69zM485 784q-59 0 -102 -18.5t-78 -63.5q-65 -83 -65 -272q0 -102 35.5 -192.5t101.5 -147.5t145 -57q154 0 211 112q41 78 41 242q0 99 -35 189
t-102.5 149t-151.5 59z" />
    <glyph glyph-name="odieresis" unicode="&#xf6;" horiz-adv-x="1013" 
d="M332 1214q38 0 70 -32t32 -70t-32 -70t-70 -32t-70.5 32t-32.5 70t32.5 70t70.5 32zM694 1214q38 0 70.5 -32t32.5 -70t-32.5 -70t-70.5 -32t-70 32t-32 70t32 70t70 32zM520 848q87 0 166 -33.5t134.5 -89.5t88.5 -131.5t33 -157.5q0 -92 -30 -174.5t-86 -148t-146 -104
t-201 -38.5q-173 0 -290 116.5t-117 295.5q0 113 58.5 220t163 176t226.5 69zM485 784q-59 0 -102 -18.5t-78 -63.5q-65 -83 -65 -272q0 -102 35.5 -192.5t101.5 -147.5t145 -57q154 0 211 112q41 78 41 242q0 99 -35 189t-102.5 149t-151.5 59z" />
    <glyph glyph-name="divide" unicode="&#xf7;" horiz-adv-x="1208" 
d="M131 475q-10 0 -19.5 8t-9.5 17q0 21 13 49.5t37 28.5h927q10 0 19.5 -7t9.5 -16q0 -1 -1 -3t-1 -3q-6 -18 -10 -27t-11.5 -22t-18 -19t-24.5 -6h-911zM604 911q38 0 65 -28t27 -66t-28 -66t-66 -28t-66 28t-28 66q0 40 28 67t68 27zM604 330q38 0 66 -28t28 -66
t-28 -66.5t-66 -28.5t-66 28.5t-28 66.5t28 66t66 28z" />
    <glyph glyph-name="oslash" unicode="&#xf8;" horiz-adv-x="993" 
d="M729 575l-422 -413q38 -60 91.5 -94.5t115.5 -34.5q153 0 211 114q39 74 39 240q0 98 -35 188zM100 -31q-18 0 -33.5 13.5t-15.5 27.5q0 24 21 41l82 78q-93 121 -93 252q0 125 59.5 232.5t163.5 171t228 63.5q154 0 276 -109l107 103q8 8 23 8q28 0 28 -31
q0 -34 -22 -53l-82 -80q90 -118 90 -250q0 -92 -29.5 -174.5t-85.5 -148t-145.5 -104t-200.5 -38.5q-139 0 -260 99l-96 -95q-6 -6 -15 -6zM477 778q-54 0 -101 -22t-77 -60q-68 -87 -68 -266q0 -106 37 -190l424 407q-86 131 -215 131z" />
    <glyph glyph-name="ugrave" unicode="&#xf9;" horiz-adv-x="1079" 
d="M500 979q-67 73 -154.5 178.5t-87.5 124.5q0 23 29 35t71 12q15 0 31 -11t25 -26q46 -80 106 -195.5t60 -135.5q0 -15 -3 -21t-16 -6q-21 0 -61 45zM885 850h4q14 0 22.5 -12.5t1.5 -24.5q-5 -10 -10.5 -63t-5.5 -82v-435q0 -72 7 -106.5t30 -34.5q64 0 94 6
q10 2 20.5 -3.5t10.5 -22.5q0 -15 -9.5 -22t-19.5 -7q-107 -14 -239 -70q-24 -12 -50 -12q-5 0 -5.5 1t-0.5 4v3q0 13 5 65t5 70v13q-78 -77 -159 -111.5t-178 -34.5q-104 0 -169 64t-65 180v416q0 44 -21 71t-67 46q-27 9 -27 30q0 29 31 35q39 1 69.5 5t46 7t46 11
t49.5 12q32 3 29 -29q-13 -102 -13 -157v-400q0 -73 53 -129.5t119 -56.5q63 0 100.5 7t72.5 34q92 68 92 153v375q0 29 -14.5 50.5t-37.5 32t-42.5 15t-38.5 5.5q-14 0 -31 7.5t-17 26.5q0 16 18 23.5t30 7.5q61 3 99 5.5t63.5 6.5t35.5 6t31 8.5t35 10.5z" />
    <glyph glyph-name="uacute" unicode="&#xfa;" horiz-adv-x="1079" 
d="M528 979q-40 -45 -61 -45q-12 0 -15 5.5t-3 21.5q0 20 60 136.5t105 194.5q9 15 25 26t31 11q42 0 71 -12t29 -35q0 -19 -87.5 -124.5t-154.5 -178.5zM885 850h4q14 0 22.5 -12.5t1.5 -24.5q-5 -10 -10.5 -63t-5.5 -82v-435q0 -72 7 -106.5t30 -34.5q64 0 94 6
q10 2 20.5 -3.5t10.5 -22.5q0 -15 -9.5 -22t-19.5 -7q-107 -14 -239 -70q-24 -12 -50 -12q-5 0 -5.5 1t-0.5 4v3q0 13 5 65t5 70v13q-78 -77 -159 -111.5t-178 -34.5q-104 0 -169 64t-65 180v416q0 44 -21 71t-67 46q-27 9 -27 30q0 29 31 35q39 1 69.5 5t46 7t46 11
t49.5 12q32 3 29 -29q-13 -102 -13 -157v-400q0 -73 53 -129.5t119 -56.5q63 0 100.5 7t72.5 34q92 68 92 153v375q0 29 -14.5 50.5t-37.5 32t-42.5 15t-38.5 5.5q-14 0 -31 7.5t-17 26.5q0 16 18 23.5t30 7.5q61 3 99 5.5t63.5 6.5t35.5 6t31 8.5t35 10.5z" />
    <glyph glyph-name="ucircumflex" unicode="&#xfb;" horiz-adv-x="1079" 
d="M508 1133q-50 -60 -135 -172q-12 -15 -31.5 -30.5t-30.5 -15.5q-12 0 -15 5.5t-3 21.5q0 20 68 147.5t112 200.5q21 37 41 37t41 -37q46 -76 114 -202t68 -146q0 -11 -0.5 -15.5t-4.5 -8t-13 -3.5q-12 0 -31.5 15t-30.5 31q-52 69 -135 172q-4 6 -7 6t-7 -6zM885 850h4
q14 0 22.5 -12.5t1.5 -24.5q-5 -10 -10.5 -63t-5.5 -82v-435q0 -72 7 -106.5t30 -34.5q64 0 94 6q10 2 20.5 -3.5t10.5 -22.5q0 -15 -9.5 -22t-19.5 -7q-107 -14 -239 -70q-24 -12 -50 -12q-5 0 -5.5 1t-0.5 4v3q0 13 5 65t5 70v13q-78 -77 -159 -111.5t-178 -34.5
q-104 0 -169 64t-65 180v416q0 44 -21 71t-67 46q-27 9 -27 30q0 29 31 35q39 1 69.5 5t46 7t46 11t49.5 12q32 3 29 -29q-13 -102 -13 -157v-400q0 -73 53 -129.5t119 -56.5q63 0 100.5 7t72.5 34q92 68 92 153v375q0 29 -14.5 50.5t-37.5 32t-42.5 15t-38.5 5.5
q-14 0 -31 7.5t-17 26.5q0 16 18 23.5t30 7.5q61 3 99 5.5t63.5 6.5t35.5 6t31 8.5t35 10.5z" />
    <glyph glyph-name="udieresis" unicode="&#xfc;" horiz-adv-x="1079" 
d="M342 1214q38 0 70 -32t32 -70t-32 -70t-70 -32t-70 32t-32 70t32 70t70 32zM705 1214q38 0 70 -32t32 -70t-32 -70t-70 -32t-70.5 32t-32.5 70t32.5 70t70.5 32zM885 850h4q14 0 22.5 -12.5t1.5 -24.5q-5 -10 -10.5 -63t-5.5 -82v-435q0 -72 7 -106.5t30 -34.5q64 0 94 6
q10 2 20.5 -3.5t10.5 -22.5q0 -15 -9.5 -22t-19.5 -7q-107 -14 -239 -70q-24 -12 -50 -12q-5 0 -5.5 1t-0.5 4v3q0 13 5 65t5 70v13q-78 -77 -159 -111.5t-178 -34.5q-104 0 -169 64t-65 180v416q0 44 -21 71t-67 46q-27 9 -27 30q0 29 31 35q39 1 69.5 5t46 7t46 11
t49.5 12q32 3 29 -29q-13 -102 -13 -157v-400q0 -73 53 -129.5t119 -56.5q63 0 100.5 7t72.5 34q92 68 92 153v375q0 29 -14.5 50.5t-37.5 32t-42.5 15t-38.5 5.5q-14 0 -31 7.5t-17 26.5q0 16 18 23.5t30 7.5q61 3 99 5.5t63.5 6.5t35.5 6t31 8.5t35 10.5z" />
    <glyph glyph-name="yacute" unicode="&#xfd;" horiz-adv-x="897" 
d="M494 979q-40 -45 -62 -45q-12 0 -15 5.5t-3 21.5q0 20 60 135.5t106 195.5q9 15 24.5 26t30.5 11q42 0 71 -12t29 -35q0 -19 -87.5 -125.5t-153.5 -177.5zM27 -510q0 61 55 61q16 0 43.5 -6t38.5 -6q25 0 39 23q36 62 90.5 178.5t95.5 226.5q6 18 6 47q0 39 -8 60
l-237 600q-34 83 -93 100q-47 16 -47 37q0 18 41 18q42 0 78.5 -5t71.5 -5t74 5t81 5q15 0 28 -5.5t13 -16.5q0 -14 -19.5 -27t-39.5 -18q-41 -11 -41 -66q0 -20 16 -57l162 -401q17 -40 31 2l137 364q16 36 16 76q0 62 -41 78q-59 26 -59 49q0 11 13.5 16.5t27.5 5.5t58 -5
t87 -5q42 0 72 5t49 5q41 0 41 -18q0 -21 -47 -37q-31 -9 -66 -48.5t-55 -88.5l-278 -664q-2 -6 -33.5 -81.5t-79 -190.5t-84.5 -201q-38 -84 -133 -84q-39 0 -71.5 21t-32.5 53z" />
    <glyph glyph-name="thorn" unicode="&#xfe;" horiz-adv-x="1034" 
d="M555 35q26 0 58.5 10.5t69.5 37.5t67.5 66.5t50.5 103.5t20 142q0 90 -21 158t-51 105.5t-70.5 60.5t-72.5 30t-63 7q-98 0 -176 -60q-50 -37 -50 -145v-315q0 -104 48 -150q55 -51 190 -51zM174 1159q0 56 -23 98t-71 52q-17 3 -17 26q0 21 15 25q36 9 72.5 20.5t59 20
t56.5 22t49 19.5q1 0 2 1t2 1q4 0 8.5 -4.5t4.5 -9.5q0 -7 -3.5 -39t-7 -95.5t-4.5 -144.5v-360q0 -73 5 -78q39 39 140 87t187 48q101 0 179.5 -57t117.5 -144t39 -186q0 -122 -60.5 -234.5t-168 -184t-232.5 -71.5q-45 0 -108 19.5t-92 46.5q-7 0 -7 -105v-381
q0 -20 6 -34t21 -23t24 -12.5t31 -9.5q47 -16 47 -37q0 -19 -47 -19q-41 0 -82.5 5.5t-76.5 5.5t-77 -5.5t-83 -5.5q-47 0 -47 19q0 21 47 37q3 1 12.5 3.5t13 4t12.5 4.5t13 5l11 5.5t10.5 7.5t8.5 9t7.5 11t4 13.5t1.5 15.5v1608z" />
    <glyph glyph-name="ydieresis" unicode="&#xff;" horiz-adv-x="897" 
d="M307 1214q38 0 70.5 -32t32.5 -70t-32.5 -70t-70.5 -32t-70 32t-32 70t32 70t70 32zM670 1214q38 0 70 -32t32 -70t-32 -70t-70 -32t-70.5 32t-32.5 70t32.5 70t70.5 32zM27 -510q0 61 55 61q16 0 43.5 -6t38.5 -6q25 0 39 23q36 62 90.5 178.5t95.5 226.5q6 18 6 47
q0 39 -8 60l-237 600q-34 83 -93 100q-47 16 -47 37q0 18 41 18q42 0 78.5 -5t71.5 -5t74 5t81 5q15 0 28 -5.5t13 -16.5q0 -14 -19.5 -27t-39.5 -18q-41 -11 -41 -66q0 -20 16 -57l162 -401q17 -40 31 2l137 364q16 36 16 76q0 62 -41 78q-59 26 -59 49q0 11 13.5 16.5
t27.5 5.5t58 -5t87 -5q42 0 72 5t49 5q41 0 41 -18q0 -21 -47 -37q-31 -9 -66 -48.5t-55 -88.5l-278 -664q-2 -6 -33.5 -81.5t-79 -190.5t-84.5 -201q-38 -84 -133 -84q-39 0 -71.5 21t-32.5 53z" />
    <glyph glyph-name="Amacron" unicode="&#x100;" horiz-adv-x="1417" 
d="M485 1591h539q9 0 18 -7.5t9 -16.5q0 -31 -20 -58.5t-44 -27.5h-522q-11 0 -20 7.5t-9 16.5q0 24 12 55t37 31zM682 1110l-184 -492q-4 -12 -4 -16q0 -10 9.5 -12t33.5 -2h317h13t8.5 1t6 3t1.5 6t-4 20l-162 490q-12 37 -19 37q-4 0 -16 -35zM1368 -10q-24 0 -129.5 6
t-155.5 6q-44 0 -119 -1t-96 -1q-59 0 -59 25q0 27 68 38q124 19 124 93q0 68 -77 321q-4 14 -15.5 18.5t-40.5 4.5h-391q-22 0 -35 -37q-19 -57 -50.5 -162t-31.5 -123q0 -43 33.5 -73.5t85.5 -43.5q68 -17 68 -41q0 -22 -60 -22q-14 0 -78.5 2t-107.5 2q-48 0 -131.5 -6
t-114.5 -6q-59 0 -59 26t67 47q59 17 102.5 52t74.5 106q196 444 383 963q14 38 20 67.5t6.5 40t1.5 11.5q54 17 74 30q12 8 21 26t13.5 32t8.5 14t7.5 -7.5t7.5 -22.5t5 -19q154 -488 365 -1094q39 -112 86.5 -152.5t120.5 -52.5q33 -6 50 -19t17 -28q0 -20 -59 -20z" />
    <glyph glyph-name="amacron" unicode="&#x101;" horiz-adv-x="817" 
d="M195 1137h415q9 0 18 -8t9 -17q0 -36 -16.5 -62t-47.5 -26h-399q-10 0 -19.5 8t-9.5 17q0 24 12.5 56t37.5 32zM700 66q50 0 82 28q9 9 21 1.5t12 -19.5q0 -9 -24 -34t-64.5 -48t-75.5 -23q-33 0 -59 11t-40.5 26.5t-24.5 31.5t-16.5 27t-10.5 11q-8 0 -28 -16.5
t-45 -36.5t-73.5 -36.5t-105.5 -17.5q-63 0 -119.5 51t-56.5 111q0 123 149 184l209 86q39 17 47 28.5t10 53.5l5 131q2 54 -32.5 93t-88.5 39q-35 0 -73.5 -21.5t-51.5 -44.5q-8 -13 -8 -39q0 -5 1 -14.5t1 -14.5q0 -20 -58.5 -45.5t-83.5 -25.5q-16 0 -16 18q0 69 82 141
q59 54 145 100t160 46q72 0 121 -53.5t47 -128.5l-10 -443q0 -157 73 -157zM236 178q0 -53 32.5 -82.5t67.5 -29.5q60 0 123 55q22 18 24 82l4 100q3 43 -18 43q-14 0 -29 -6q-109 -37 -156.5 -79.5t-47.5 -82.5z" />
    <glyph glyph-name="Abreve" unicode="&#x102;" horiz-adv-x="1417" 
d="M532 1636q80 -96 211 -96t211 96q32 43 50 43q9 0 14 -7.5t5.5 -16t0.5 -25.5q0 -71 -80.5 -142t-200.5 -71t-200 71t-80 142q0 21 5.5 35t14.5 14q4 0 8 -1.5t8.5 -4.5t7.5 -5.5t7 -8t6.5 -8t6.5 -8t5 -7.5zM682 1110l-184 -492q-4 -12 -4 -16q0 -10 9.5 -12t33.5 -2
h317h13t8.5 1t6 3t1.5 6t-4 20l-162 490q-12 37 -19 37q-4 0 -16 -35zM1368 -10q-24 0 -129.5 6t-155.5 6q-44 0 -119 -1t-96 -1q-59 0 -59 25q0 27 68 38q124 19 124 93q0 68 -77 321q-4 14 -15.5 18.5t-40.5 4.5h-391q-22 0 -35 -37q-19 -57 -50.5 -162t-31.5 -123
q0 -43 33.5 -73.5t85.5 -43.5q68 -17 68 -41q0 -22 -60 -22q-14 0 -78.5 2t-107.5 2q-48 0 -131.5 -6t-114.5 -6q-59 0 -59 26t67 47q59 17 102.5 52t74.5 106q196 444 383 963q14 38 20 67.5t6.5 40t1.5 11.5q54 17 74 30q12 8 21 26t13.5 32t8.5 14t7.5 -7.5t7.5 -22.5
t5 -19q154 -488 365 -1094q39 -112 86.5 -152.5t120.5 -52.5q33 -6 50 -19t17 -28q0 -20 -59 -20z" />
    <glyph glyph-name="abreve" unicode="&#x103;" horiz-adv-x="817" 
d="M233 1202q8 -43 47.5 -71.5t110.5 -28.5t110.5 28.5t47.5 71.5q9 43 31 43q30 0 30 -49q0 -84 -59 -150.5t-160 -66.5t-160 66.5t-59 150.5q0 21 8.5 35t22.5 14q21 0 30 -43zM700 66q50 0 82 28q9 9 21 1.5t12 -19.5q0 -9 -24 -34t-64.5 -48t-75.5 -23q-33 0 -59 11
t-40.5 26.5t-24.5 31.5t-16.5 27t-10.5 11q-8 0 -28 -16.5t-45 -36.5t-73.5 -36.5t-105.5 -17.5q-63 0 -119.5 51t-56.5 111q0 123 149 184l209 86q39 17 47 28.5t10 53.5l5 131q2 54 -32.5 93t-88.5 39q-35 0 -73.5 -21.5t-51.5 -44.5q-8 -13 -8 -39q0 -5 1 -14.5t1 -14.5
q0 -20 -58.5 -45.5t-83.5 -25.5q-16 0 -16 18q0 69 82 141q59 54 145 100t160 46q72 0 121 -53.5t47 -128.5l-10 -443q0 -157 73 -157zM236 178q0 -53 32.5 -82.5t67.5 -29.5q60 0 123 55q22 18 24 82l4 100q3 43 -18 43q-14 0 -29 -6q-109 -37 -156.5 -79.5t-47.5 -82.5z
" />
    <glyph glyph-name="Aogonek" unicode="&#x104;" horiz-adv-x="1400" 
d="M1040 -588q-97 0 -165 67.5t-68 164.5q0 54 30 110.5t79.5 104t92.5 81t89 62.5q-47 1 -134.5 -0.5t-95.5 -1.5q-59 0 -59 25q0 27 68 38q124 19 124 93q0 68 -77 321q-4 14 -15.5 18.5t-40.5 4.5h-391q-22 0 -35 -37q-19 -57 -50.5 -162t-31.5 -123q0 -43 33.5 -73.5
t85.5 -43.5q68 -17 68 -41q0 -22 -60 -22q-14 0 -78.5 2t-107.5 2q-48 0 -131.5 -6t-114.5 -6q-59 0 -59 26t67 47q59 17 102.5 52t74.5 106q196 444 383 963q14 38 20 67.5t6.5 40t1.5 11.5q54 17 74 30q12 8 21 21t13.5 21.5t8.5 8.5q11 0 20 -28q154 -488 365 -1094
q39 -112 86.5 -152.5t120.5 -52.5q33 -6 50 -19t17 -28q0 -20 -59 -20q-12 0 -207 10q-42 -36 -78 -76t-69 -107.5t-33 -133.5q0 -53 40 -89t95 -36q25 0 54.5 11.5t49.5 25t40.5 28.5t23.5 17q8 5 16.5 1.5t8.5 -14.5q0 -66 -93 -140.5t-176 -74.5zM682 1110l-184 -492
q-4 -12 -4 -16q0 -10 9.5 -12t33.5 -2h317h13t8.5 1t6 3t1.5 6t-4 20l-162 490q-12 37 -19 37q-4 0 -16 -35z" />
    <glyph glyph-name="aogonek" unicode="&#x105;" horiz-adv-x="817" 
d="M236 178q0 -53 32.5 -82.5t67.5 -29.5q60 0 123 55q22 18 24 82l4 100q3 43 -18 43q-14 0 -29 -6q-109 -37 -156.5 -79.5t-47.5 -82.5zM598 -588q-94 0 -150.5 55.5t-56.5 165.5q0 169 221 342q-37 9 -61.5 34.5t-35.5 47t-15 21.5q-8 0 -28 -16.5t-45 -36.5t-73.5 -36.5
t-105.5 -17.5q-63 0 -119.5 51t-56.5 111q0 123 149 184l209 86q39 17 47 28.5t10 53.5l5 127v4q0 54 -33.5 93t-87.5 39q-35 0 -73.5 -21.5t-51.5 -44.5q-8 -13 -8 -39q0 -5 1 -14.5t1 -14.5q0 -20 -58.5 -45.5t-83.5 -25.5q-16 0 -16 18q0 69 82 141q59 54 145 100t160 46
q72 0 121 -53.5t47 -128.5l-10 -443v-12q0 -145 73 -145q50 0 82 28q9 9 21 1.5t12 -19.5q0 -1 -1 -3t-1 -3q-4 -11 -39 -41.5t-72 -46.5q-159 -129 -159 -293q0 -66 34.5 -104t88.5 -38q32 0 59.5 10.5t43 21.5t17.5 11q17 0 17 -14q0 -38 -64 -101t-141 -63z" />
    <glyph glyph-name="Cacute" unicode="&#x106;" horiz-adv-x="1310" 
d="M715 1403q-13 0 -13 12q0 13 11 31q71 120 157 244q18 26 56 26q30 0 74 -14t44 -33q0 -16 -26 -39q-101 -87 -266 -209q-23 -18 -37 -18zM1200 281q5 10 15.5 17.5t21.5 13t14 7.5q3 3 4 3q6 0 10.5 -12.5t4.5 -26.5q0 -3 -1 -9t-1 -8q-7 -47 -27 -114t-41 -99
q-9 -15 -88 -39q-2 -1 -3.5 -1.5t-4 -1t-4.5 -1.5q-54 -17 -153 -29t-191 -12q-182 0 -335 95t-240 254t-87 344q0 145 61 275.5t163 222t238.5 145t283.5 53.5q50 0 119.5 -8t97.5 -17q80 -26 155 -37q23 -3 27 -61q14 -109 16 -223q2 -17 -3.5 -32.5t-18.5 -14.5
q-18 2 -32.5 21.5t-20.5 53.5q-12 94 -72 150q-12 12 -30.5 25.5t-55.5 33.5t-93.5 32.5t-121.5 12.5q-110 0 -206 -49t-161.5 -129.5t-103 -186.5t-37.5 -218q0 -100 23 -198.5t68.5 -184.5t107.5 -152t145 -104.5t176 -38.5q81 0 147 23t111 63.5t72 77.5t51 84z" />
    <glyph glyph-name="cacute" unicode="&#x107;" horiz-adv-x="772" 
d="M485 979q-40 -45 -61 -45q-12 0 -15 5.5t-3 21.5q0 20 60 136.5t105 194.5q9 15 25 26t31 11q42 0 71 -12t29 -35q0 -19 -87.5 -124.5t-154.5 -178.5zM682 653q-30 0 -51 21q-55 60 -88 78t-105 18q-71 0 -124 -46.5t-77 -114.5t-24 -146q0 -99 39.5 -186.5t115.5 -143
t171 -55.5q62 0 100 23t80 79q10 10 18 10q9 0 17 -9t8 -19q0 -38 -47 -82.5t-128 -76.5t-165 -32q-101 0 -182 55.5t-124.5 146t-43.5 196.5q0 126 54.5 235t155 175.5t222.5 66.5q167 0 246 -98q10 -13 10 -25q0 -24 -30 -47t-48 -23z" />
    <glyph glyph-name="Ccircumflex" unicode="&#x108;" horiz-adv-x="1310" 
d="M512 1395q-31 0 -31 20q0 13 15 25l200 170q31 28 46.5 36.5t37.5 8.5t37.5 -8.5t46.5 -36.5l201 -170q12 -10 12 -25q0 -22 -28 -22q-18 0 -109.5 43t-138.5 71q-13 7 -20.5 7t-20.5 -7q-46 -27 -137.5 -69.5t-110.5 -42.5zM1200 281q5 10 15.5 17.5t21.5 13t14 7.5
q3 3 4 3q6 0 10.5 -12.5t4.5 -26.5q0 -3 -1 -9t-1 -8q-7 -47 -27 -114t-41 -99q-9 -15 -88 -39q-2 -1 -3.5 -1.5t-4 -1t-4.5 -1.5q-54 -17 -153 -29t-191 -12q-182 0 -335 95t-240 254t-87 344q0 145 61 275.5t163 222t238.5 145t283.5 53.5q50 0 119.5 -8t97.5 -17
q80 -26 155 -37q23 -3 27 -61q14 -109 16 -223q2 -17 -3.5 -32.5t-18.5 -14.5q-18 2 -32.5 21.5t-20.5 53.5q-12 94 -72 150q-12 12 -30.5 25.5t-55.5 33.5t-93.5 32.5t-121.5 12.5q-110 0 -206 -49t-161.5 -129.5t-103 -186.5t-37.5 -218q0 -100 23 -198.5t68.5 -184.5
t107.5 -152t145 -104.5t176 -38.5q81 0 147 23t111 63.5t72 77.5t51 84z" />
    <glyph glyph-name="ccircumflex" unicode="&#x109;" horiz-adv-x="772" 
d="M465 1133q-50 -60 -135 -172q-12 -15 -31.5 -30.5t-30.5 -15.5q-12 0 -15 5.5t-3 21.5q0 20 68 147.5t112 200.5q21 37 41 37t41 -37q46 -76 114 -202t68 -146q0 -11 -0.5 -15.5t-4.5 -8t-13 -3.5q-12 0 -31.5 15t-30.5 31q-52 69 -135 172q-5 6 -7 6t-7 -6zM682 653
q-30 0 -51 21q-55 60 -88 78t-105 18q-71 0 -124 -46.5t-77 -114.5t-24 -146q0 -99 39.5 -186.5t115.5 -143t171 -55.5q62 0 100 23t80 79q10 10 18 10q9 0 17 -9t8 -19q0 -38 -47 -82.5t-128 -76.5t-165 -32q-101 0 -182 55.5t-124.5 146t-43.5 196.5q0 126 54.5 235
t155 175.5t222.5 66.5q167 0 246 -98q10 -13 10 -25q0 -24 -30 -47t-48 -23z" />
    <glyph glyph-name="Cdotaccent" unicode="&#x10a;" horiz-adv-x="1310" 
d="M780 1649q46 0 79.5 -33.5t33.5 -79.5t-33.5 -79.5t-79.5 -33.5t-79 33.5t-33 79.5t33 79.5t79 33.5zM1200 281q5 10 15.5 17.5t21.5 13t14 7.5q3 3 4 3q6 0 10.5 -12.5t4.5 -26.5q0 -3 -1 -9t-1 -8q-7 -47 -27 -114t-41 -99q-9 -15 -88 -39q-2 -1 -3.5 -1.5t-4 -1
t-4.5 -1.5q-54 -17 -153 -29t-191 -12q-182 0 -335 95t-240 254t-87 344q0 145 61 275.5t163 222t238.5 145t283.5 53.5q50 0 119.5 -8t97.5 -17q80 -26 155 -37q23 -3 27 -61q14 -109 16 -223q2 -17 -3.5 -32.5t-18.5 -14.5q-18 2 -32.5 21.5t-20.5 53.5q-12 94 -72 150
q-12 12 -30.5 25.5t-55.5 33.5t-93.5 32.5t-121.5 12.5q-110 0 -206 -49t-161.5 -129.5t-103 -186.5t-37.5 -218q0 -100 23 -198.5t68.5 -184.5t107.5 -152t145 -104.5t176 -38.5q81 0 147 23t111 63.5t72 77.5t51 84z" />
    <glyph glyph-name="cdotaccent" unicode="&#x10b;" horiz-adv-x="772" 
d="M371 1112q0 44 29.5 74.5t72.5 30.5q44 0 74.5 -30.5t30.5 -74.5q0 -43 -30.5 -72.5t-74.5 -29.5q-43 0 -72.5 29.5t-29.5 72.5zM682 653q-30 0 -51 21q-55 60 -88 78t-105 18q-71 0 -124 -46.5t-77 -114.5t-24 -146q0 -99 39.5 -186.5t115.5 -143t171 -55.5q62 0 100 23
t80 79q10 10 18 10q9 0 17 -9t8 -19q0 -38 -47 -82.5t-128 -76.5t-165 -32q-101 0 -182 55.5t-124.5 146t-43.5 196.5q0 126 54.5 235t155 175.5t222.5 66.5q167 0 246 -98q10 -13 10 -25q0 -24 -30 -47t-48 -23z" />
    <glyph glyph-name="Ccaron" unicode="&#x10c;" horiz-adv-x="1310" 
d="M512 1683q19 0 110.5 -42.5t137.5 -69.5q13 -7 20.5 -7t20.5 7q48 28 139 71.5t109 43.5q13 0 20.5 -6.5t7.5 -16.5q0 -15 -12 -25l-201 -159q-46 -37 -60 -42q-10 -3 -24 -3q-20 0 -33 7t-41 30q-3 3 -5.5 4.5t-4.5 3.5l-200 159q-15 12 -15 25q0 20 31 20zM1200 281
q5 10 15.5 17.5t21.5 13t14 7.5q3 3 4 3q6 0 10.5 -12.5t4.5 -26.5q0 -3 -1 -9t-1 -8q-7 -47 -27 -114t-41 -99q-9 -15 -88 -39q-2 -1 -3.5 -1.5t-4 -1t-4.5 -1.5q-54 -17 -153 -29t-191 -12q-182 0 -335 95t-240 254t-87 344q0 145 61 275.5t163 222t238.5 145t283.5 53.5
q50 0 119.5 -8t97.5 -17q80 -26 155 -37q23 -3 27 -61q14 -109 16 -223q2 -17 -3.5 -32.5t-18.5 -14.5q-18 2 -32.5 21.5t-20.5 53.5q-12 94 -72 150q-12 12 -30.5 25.5t-55.5 33.5t-93.5 32.5t-121.5 12.5q-110 0 -206 -49t-161.5 -129.5t-103 -186.5t-37.5 -218
q0 -100 23 -198.5t68.5 -184.5t107.5 -152t145 -104.5t176 -38.5q81 0 147 23t111 63.5t72 77.5t51 84z" />
    <glyph glyph-name="ccaron" unicode="&#x10d;" horiz-adv-x="772" 
d="M463 1126q2 -3 3.5 -4.5t3.5 -1.5t3.5 1.5t3.5 4.5q92 124 135 174q41 46 60 46q12 0 15 -5.5t3 -21.5q0 -18 -66.5 -130t-113.5 -185q-23 -37 -41 -37t-41 37q-47 73 -113.5 185t-66.5 130q0 11 0.5 15.5t4.5 8t13 3.5q21 0 62 -46q43 -50 135 -174zM682 653
q-30 0 -51 21q-55 60 -88 78t-105 18q-71 0 -124 -46.5t-77 -114.5t-24 -146q0 -99 39.5 -186.5t115.5 -143t171 -55.5q62 0 100 23t80 79q10 10 18 10q9 0 17 -9t8 -19q0 -38 -47 -82.5t-128 -76.5t-165 -32q-101 0 -182 55.5t-124.5 146t-43.5 196.5q0 126 54.5 235
t155 175.5t222.5 66.5q167 0 246 -98q10 -13 10 -25q0 -24 -30 -47t-48 -23z" />
    <glyph glyph-name="Dcaron" unicode="&#x10e;" horiz-adv-x="1544" 
d="M432 1683q19 0 110.5 -42.5t137.5 -69.5q14 -7 21 -7t20 7q48 28 139 71.5t109 43.5q13 0 20.5 -6.5t7.5 -16.5q0 -15 -12 -25l-201 -159q-46 -37 -60 -42q-10 -3 -24 -3q-20 0 -33 7t-41 30q-3 3 -5.5 4.5t-4.5 3.5l-200 159q-15 12 -15 25q0 20 31 20zM428 248
q0 -48 17.5 -83.5t45.5 -55.5t70 -32t82.5 -16t91.5 -4q239 0 391 171t152 438q0 142 -49.5 261.5t-131 196.5t-182.5 119.5t-208 42.5q-47 0 -72 -0.5t-60 -3t-53 -7t-39.5 -13.5t-31 -22.5t-16.5 -33t-7 -45.5v-913zM760 -14q-5 0 -167.5 7t-258.5 7q-38 0 -97.5 -5
t-117.5 -5q-60 0 -60 22q0 25 68 37q77 14 107 47.5t30 106.5v921q0 73 -30 104.5t-107 45.5q-68 12 -68 41q0 22 60 22q59 0 116.5 -2t96.5 -2h14q48 0 187.5 8.5t162.5 8.5q162 0 293 -33.5t220.5 -92t149.5 -141t87 -178t27 -205.5q0 -193 -96 -357.5t-260.5 -260.5
t-356.5 -96z" />
    <glyph glyph-name="dcaron" unicode="&#x10f;" horiz-adv-x="1036" 
d="M940 1346q0 32 34.5 65t67.5 33q17 0 22 -16t5 -46q0 -57 -20 -141t-48 -141q-23 -51 -43 -51q-14 0 -14 47q0 2 3 42t3 58q0 43 -5 91t-5 59zM469 776q-27 0 -56.5 -8.5t-64.5 -32.5t-62 -60.5t-45 -98.5t-18 -140q0 -64 12 -118t32 -91.5t47 -67t55 -47t58 -29t54 -16
t45 -4.5q84 0 139.5 54t55.5 129v276q0 44 -17.5 88.5t-48.5 81.5t-79.5 60.5t-106.5 23.5zM692 805q15 -19 21 -19q8 0 8 50v323q0 79 -24 109t-81 41q-16 3 -16 26q0 22 14 25q64 15 121.5 36t87.5 33.5t41 12.5q12 0 15 -12q0 -6 -3.5 -38.5t-7.5 -96t-4 -144.5v-926
q0 -68 9.5 -100.5t33.5 -32.5q64 0 94 6q10 2 20.5 -3.5t10.5 -22.5q0 -15 -9 -22t-19 -7q-109 -14 -240 -70q-24 -12 -49 -12q-5 0 -5.5 1t-0.5 4v3q0 13 5 65t5 70v13q-38 -58 -107 -102t-161 -44q-112 0 -200.5 62t-133.5 156.5t-45 199.5q0 90 32 172.5t90 146.5
t146 102t192 38q40 0 95 -16t65 -27z" />
    <glyph glyph-name="Dcroat" unicode="&#x110;" horiz-adv-x="1544" 
d="M760 -14q-5 0 -167.5 7t-258.5 7q-38 0 -97.5 -5t-117.5 -5q-60 0 -60 22q0 25 68 37q77 14 107 47.5t30 106.5v446h-141q-12 0 -20.5 13t-8.5 24q0 14 15 25.5t34 11.5h121v401q0 73 -30 104.5t-107 45.5q-68 12 -68 41q0 22 60 22q59 0 116.5 -2t96.5 -2h14
q48 0 187.5 8.5t162.5 8.5q164 0 290.5 -31t212 -87.5t140.5 -140t79 -183t24 -222.5q0 -141 -52 -269.5t-142 -223.5t-217 -151t-271 -56zM1247 709q0 160 -67 291.5t-191 208.5t-282 77q-47 0 -72 -0.5t-60 -3t-52.5 -7t-38.5 -13.5t-31 -22.5t-16.5 -33t-6.5 -45.5v-438
h342q10 0 19.5 -7t9.5 -16q0 -1 -1 -3t-1 -3q-23 -45 -64 -45h-305v-401q0 -58 17 -87.5t55 -58.5q60 -45 147 -45q17 0 57 2t64 2q113 0 206 57t150.5 150t89 207t31.5 234z" />
    <glyph glyph-name="dcroat" unicode="&#x111;" horiz-adv-x="1036" 
d="M692 805q15 -19 21 -19q8 0 8 50v260h-283q-12 0 -20 13t-8 24q0 14 15 25t34 11h262q-1 72 -25.5 100.5t-79.5 39.5q-16 3 -16 26q0 22 14 25q64 15 121.5 36t87.5 33.5t41 12.5q12 0 15 -12q0 -6 -3.5 -37t-7.5 -90t-4 -134h166q10 0 19.5 -6.5t9.5 -15.5q0 -1 -1 -3
t-1 -3q-23 -45 -64 -45h-129v-871q0 -68 9.5 -100.5t33.5 -32.5q64 0 94 6q10 2 20.5 -3.5t10.5 -22.5q0 -15 -9 -22t-19 -7q-109 -14 -240 -70q-24 -12 -49 -12q-5 0 -5.5 1t-0.5 4v3q0 13 5 65t5 70v13q-38 -58 -107 -102t-161 -44q-112 0 -200.5 62t-133.5 156.5
t-45 199.5q0 90 32 172.5t90 146.5t146 102t192 38q40 0 95 -16t65 -27zM469 776q-27 0 -56.5 -8.5t-64.5 -32.5t-62 -60.5t-45 -98.5t-18 -140q0 -64 12 -118t32 -91.5t47 -67t55 -47t58 -29t54 -16t45 -4.5q84 0 139.5 54t55.5 129v276q0 44 -17.5 88.5t-48.5 81.5
t-79.5 60.5t-106.5 23.5z" />
    <glyph glyph-name="Emacron" unicode="&#x112;" horiz-adv-x="1095" 
d="M330 1591h538q9 0 18 -7.5t9 -16.5q0 -31 -20 -58.5t-44 -27.5h-522q-11 0 -19.5 7.5t-8.5 16.5q0 24 12 55t37 31zM430 209q0 -76 32 -106.5t103 -30.5h213q48 0 80 5.5t45.5 12.5t30.5 19q42 33 86 129q11 23 29 20q26 -4 26 -22q0 -27 -12 -98.5t-23 -112.5
q-8 -35 -28 -35q-138 0 -356.5 6t-313.5 6q-44 0 -111 -6t-125 -6q-59 0 -59 22q0 25 68 37q79 14 115 48.5t36 105.5v921q0 73 -30 104.5t-107 45.5q-68 12 -68 41q0 22 60 22q78 0 185 -3t177 -3q82 0 190.5 1.5t184.5 3t80 1.5q34 0 37 -18q31 -173 31 -211
q0 -31 -29 -31q-17 0 -23 21q-29 95 -45 112q-51 56 -137 56h-268q-21 0 -47.5 -19.5t-26.5 -46.5v-434q0 -19 11 -32t26 -13h197q43 0 76 22t48 58q3 8 16.5 21.5t20.5 13.5q9 0 18 -9.5t9 -23.5q0 -7 -3 -51t-3 -62q0 -24 2 -79t2 -60q0 -35 -19 -35q-18 0 -30.5 16
t-16.5 31q-14 45 -40 68.5t-54 23.5h-190q-39 0 -54.5 -10t-15.5 -43v-393z" />
    <glyph glyph-name="emacron" unicode="&#x113;" horiz-adv-x="798" 
d="M236 1137h415q9 0 18 -8t9 -17q0 -36 -16.5 -62t-47.5 -26h-399q-10 0 -19.5 8t-9.5 17q0 24 12.5 56t37.5 32zM436 784q-79 0 -144 -58.5t-65 -104.5q0 -31 39 -31h168q96 0 150 10q20 3 20 57q0 58 -51.5 92.5t-116.5 34.5zM469 848q122 0 195 -59.5t73 -170.5
q0 -47 -16 -69.5t-55 -22.5h-426q-28 0 -40 -13.5t-12 -61.5q0 -143 88 -250t222 -107q47 0 103.5 22.5t92.5 69.5q15 15 23 15q10 0 13 -14.5t-1 -26.5q-18 -65 -106.5 -127t-216.5 -62q-144 0 -244.5 123t-100.5 322q0 114 53 213.5t147.5 159t207.5 59.5z" />
    <glyph glyph-name="Ebreve" unicode="&#x114;" horiz-adv-x="1095" 
d="M377 1636q80 -96 211 -96t211 96q1 2 5 7.5t6.5 8t6.5 8t7 8t7.5 5.5t8.5 4.5t8 1.5q9 0 14 -7.5t5.5 -16t0.5 -25.5q0 -71 -80 -142t-200 -71t-200.5 71t-80.5 142q0 20 6 34.5t15 14.5q4 0 8 -1.5t8.5 -4.5t7.5 -5.5t7 -8t6.5 -8t6.5 -8t5 -7.5zM430 209
q0 -76 32 -106.5t103 -30.5h213q48 0 80 5.5t45.5 12.5t30.5 19q42 33 86 129q11 23 29 20q26 -4 26 -22q0 -27 -12 -98.5t-23 -112.5q-8 -35 -28 -35q-138 0 -356.5 6t-313.5 6q-44 0 -111 -6t-125 -6q-59 0 -59 22q0 25 68 37q79 14 115 48.5t36 105.5v921q0 73 -30 104.5
t-107 45.5q-68 12 -68 41q0 22 60 22q78 0 185 -3t177 -3q82 0 190.5 1.5t184.5 3t80 1.5q34 0 37 -18q31 -173 31 -211q0 -31 -29 -31q-17 0 -23 21q-29 95 -45 112q-51 56 -137 56h-268q-21 0 -47.5 -19.5t-26.5 -46.5v-434q0 -19 11 -32t26 -13h197q43 0 76 22t48 58
q3 8 16.5 21.5t20.5 13.5q9 0 18 -9.5t9 -23.5q0 -7 -3 -51t-3 -62q0 -24 2 -79t2 -60q0 -35 -19 -35q-18 0 -30.5 16t-16.5 31q-14 45 -40 68.5t-54 23.5h-190q-39 0 -54.5 -10t-15.5 -43v-393z" />
    <glyph glyph-name="ebreve" unicode="&#x115;" horiz-adv-x="798" 
d="M274 1202q8 -43 47.5 -71.5t110.5 -28.5t110.5 28.5t47.5 71.5q9 43 31 43q30 0 30 -49q0 -84 -59 -150.5t-160 -66.5t-160 66.5t-59 150.5q0 21 8.5 35t22.5 14q21 0 30 -43zM436 784q-79 0 -144 -58.5t-65 -104.5q0 -31 39 -31h168q96 0 150 10q20 3 20 57
q0 58 -51.5 92.5t-116.5 34.5zM469 848q122 0 195 -59.5t73 -170.5q0 -47 -16 -69.5t-55 -22.5h-426q-28 0 -40 -13.5t-12 -61.5q0 -143 88 -250t222 -107q47 0 103.5 22.5t92.5 69.5q15 15 23 15q10 0 13 -14.5t-1 -26.5q-18 -65 -106.5 -127t-216.5 -62q-144 0 -244.5 123
t-100.5 322q0 114 53 213.5t147.5 159t207.5 59.5z" />
    <glyph glyph-name="Edotaccent" unicode="&#x116;" horiz-adv-x="1095" 
d="M588 1649q46 0 79 -33.5t33 -79.5t-33 -79.5t-79 -33.5t-79.5 33.5t-33.5 79.5t33.5 79.5t79.5 33.5zM430 209q0 -76 32 -106.5t103 -30.5h213q48 0 80 5.5t45.5 12.5t30.5 19q42 33 86 129q11 23 29 20q26 -4 26 -22q0 -27 -12 -98.5t-23 -112.5q-8 -35 -28 -35
q-138 0 -356.5 6t-313.5 6q-44 0 -111 -6t-125 -6q-59 0 -59 22q0 25 68 37q79 14 115 48.5t36 105.5v921q0 73 -30 104.5t-107 45.5q-68 12 -68 41q0 22 60 22q78 0 185 -3t177 -3q82 0 190.5 1.5t184.5 3t80 1.5q34 0 37 -18q31 -173 31 -211q0 -31 -29 -31q-17 0 -23 21
q-29 95 -45 112q-51 56 -137 56h-268q-21 0 -47.5 -19.5t-26.5 -46.5v-434q0 -19 11 -32t26 -13h197q43 0 76 22t48 58q3 8 16.5 21.5t20.5 13.5q9 0 18 -9.5t9 -23.5q0 -7 -3 -51t-3 -62q0 -24 2 -79t2 -60q0 -35 -19 -35q-18 0 -30.5 16t-16.5 31q-14 45 -40 68.5
t-54 23.5h-190q-39 0 -54.5 -10t-15.5 -43v-393z" />
    <glyph glyph-name="edotaccent" unicode="&#x117;" horiz-adv-x="798" 
d="M332 1112q0 44 29.5 74.5t72.5 30.5q44 0 74.5 -30.5t30.5 -74.5q0 -43 -30.5 -72.5t-74.5 -29.5q-43 0 -72.5 29.5t-29.5 72.5zM436 784q-79 0 -144 -58.5t-65 -104.5q0 -31 39 -31h168q96 0 150 10q20 3 20 57q0 58 -51.5 92.5t-116.5 34.5zM469 848q122 0 195 -59.5
t73 -170.5q0 -47 -16 -69.5t-55 -22.5h-426q-28 0 -40 -13.5t-12 -61.5q0 -143 88 -250t222 -107q47 0 103.5 22.5t92.5 69.5q15 15 23 15q10 0 13 -14.5t-1 -26.5q-18 -65 -106.5 -127t-216.5 -62q-144 0 -244.5 123t-100.5 322q0 114 53 213.5t147.5 159t207.5 59.5z" />
    <glyph glyph-name="Eogonek" unicode="&#x118;" horiz-adv-x="1095" 
d="M780 -588q-97 0 -165 67.5t-68 164.5q0 51 27.5 104.5t73.5 100t87 79.5t88 64q-440 10 -481 10q-44 0 -111 -6t-125 -6q-59 0 -59 22q0 25 68 37q79 14 115 48.5t36 105.5v921q0 73 -30 104.5t-107 45.5q-68 12 -68 41q0 22 60 22q78 0 185 -3t177 -3q82 0 190.5 1.5
t184.5 3t80 1.5q34 0 37 -18q31 -173 31 -211q0 -31 -29 -31q-17 0 -23 21q-29 95 -45 112q-51 56 -137 56h-268q-21 0 -47.5 -19.5t-26.5 -46.5v-434q0 -19 11 -32t26 -13h197q43 0 76 22t48 58q3 8 16.5 21.5t20.5 13.5q9 0 18 -9.5t9 -23.5q0 -7 -3 -51t-3 -62
q0 -24 2 -79t2 -60q0 -35 -19 -35q-18 0 -30.5 16t-16.5 31q-14 45 -40 68.5t-54 23.5h-190q-39 0 -54.5 -10t-15.5 -43v-393q0 -76 32 -106.5t103 -30.5h213q48 0 80 5.5t45.5 12.5t30.5 19q42 33 86 129q11 23 29 20q26 -4 26 -22q0 -27 -12 -98.5t-23 -112.5
q-8 -35 -28 -35h-121q-170 -147 -170 -307q0 -53 40 -89t95 -36q25 0 54.5 11.5t49.5 25t40.5 28.5t23.5 17q8 5 16.5 1.5t8.5 -14.5q0 -66 -93 -140.5t-176 -74.5z" />
    <glyph glyph-name="eogonek" unicode="&#x119;" horiz-adv-x="794" 
d="M436 784q-79 0 -144 -58.5t-65 -104.5q0 -31 39 -31h168q96 0 150 10q20 3 20 57q0 58 -51.5 92.5t-116.5 34.5zM498 -588q-94 0 -150.5 55.5t-56.5 165.5q0 68 37.5 140.5t80 119t93.5 89.5q-53 -11 -96 -11q-144 0 -244.5 123t-100.5 322q0 114 53 213.5t147.5 159
t207.5 59.5q123 0 193.5 -51.5t70.5 -134.5q0 -92 -43 -113q-48 -23 -115 -23h-335q-28 0 -40 -13.5t-12 -61.5q0 -143 88 -250t222 -107q48 0 102 21.5t90 68.5q15 15 23 15q10 0 13 -14.5t-1 -26.5q-18 -66 -104 -125q-21 -16 -43.5 -38.5t-57 -66.5t-56.5 -107t-22 -132
q0 -66 34.5 -104t88.5 -38q32 0 59.5 10.5t43.5 21.5t18 11q16 0 16 -14q0 -15 -16 -42t-42 -54.5t-66 -47.5t-80 -20z" />
    <glyph glyph-name="Ecaron" unicode="&#x11a;" horiz-adv-x="1095" 
d="M319 1683q19 0 110.5 -42.5t137.5 -69.5q13 -7 20.5 -7t20.5 7q48 28 139 71.5t109 43.5q13 0 21 -7t8 -16q0 -15 -13 -25l-200 -159q-46 -37 -60 -42q-10 -3 -24 -3q-20 0 -33 7t-41 30q-3 3 -5.5 4.5t-4.5 3.5l-201 159q-14 11 -14 25q0 20 30 20zM430 209
q0 -76 32 -106.5t103 -30.5h213q48 0 80 5.5t45.5 12.5t30.5 19q42 33 86 129q11 23 29 20q26 -4 26 -22q0 -27 -12 -98.5t-23 -112.5q-8 -35 -28 -35q-138 0 -356.5 6t-313.5 6q-44 0 -111 -6t-125 -6q-59 0 -59 22q0 25 68 37q79 14 115 48.5t36 105.5v921q0 73 -30 104.5
t-107 45.5q-68 12 -68 41q0 22 60 22q78 0 185 -3t177 -3q82 0 190.5 1.5t184.5 3t80 1.5q34 0 37 -18q31 -173 31 -211q0 -31 -29 -31q-17 0 -23 21q-29 95 -45 112q-51 56 -137 56h-268q-21 0 -47.5 -19.5t-26.5 -46.5v-434q0 -19 11 -32t26 -13h197q43 0 76 22t48 58
q3 8 16.5 21.5t20.5 13.5q9 0 18 -9.5t9 -23.5q0 -7 -3 -51t-3 -62q0 -24 2 -79t2 -60q0 -35 -19 -35q-18 0 -30.5 16t-16.5 31q-14 45 -40 68.5t-54 23.5h-190q-39 0 -54.5 -10t-15.5 -43v-393z" />
    <glyph glyph-name="ecaron" unicode="&#x11b;" horiz-adv-x="798" 
d="M424 1126q4 -6 7 -6t7 6q92 124 135 174q41 46 60 46q12 0 15 -5.5t3 -21.5q0 -18 -66.5 -130t-113.5 -185q-23 -37 -41 -37t-41 37q-47 73 -113.5 185t-66.5 130q0 11 0.5 15.5t4.5 8t13 3.5q21 0 62 -46q43 -50 135 -174zM436 784q-79 0 -144 -58.5t-65 -104.5
q0 -31 39 -31h168q96 0 150 10q20 3 20 57q0 58 -51.5 92.5t-116.5 34.5zM469 848q122 0 195 -59.5t73 -170.5q0 -47 -16 -69.5t-55 -22.5h-426q-28 0 -40 -13.5t-12 -61.5q0 -143 88 -250t222 -107q47 0 103.5 22.5t92.5 69.5q15 15 23 15q10 0 13 -14.5t-1 -26.5
q-18 -65 -106.5 -127t-216.5 -62q-144 0 -244.5 123t-100.5 322q0 114 53 213.5t147.5 159t207.5 59.5z" />
    <glyph glyph-name="Gcircumflex" unicode="&#x11c;" horiz-adv-x="1492" 
d="M551 1395q-31 0 -31 20q0 13 15 25l200 170q31 28 46.5 36.5t37.5 8.5t37.5 -8.5t46.5 -36.5l201 -170q12 -10 12 -25q0 -9 -8 -15.5t-21 -6.5q-18 0 -108.5 43t-138.5 71q-13 7 -20.5 7t-20.5 -7q-46 -27 -137.5 -69.5t-110.5 -42.5zM1272 1278q22 -158 22 -229
q0 -15 -9 -28t-21 -13q-13 0 -23 9.5t-14.5 19t-9.5 26.5q-21 58 -64 108q-30 37 -114 73t-212 36q-154 0 -277 -86.5t-189 -227t-66 -302.5q0 -141 45.5 -259.5t121 -195.5t171 -119.5t198.5 -42.5q174 0 250 76q62 62 62 158q0 17 2 58t2 60q0 49 -10 62q-23 30 -90 46.5
t-111 16.5q-10 0 -25.5 11t-15.5 24t15.5 24t25.5 11q48 0 124 -4t134 -4q36 0 90.5 4t91.5 4q13 0 28 -7.5t15 -25.5q0 -12 -16 -23.5t-27 -13.5q-43 -12 -61.5 -34.5t-24.5 -65.5q-10 -74 -10 -154v-55q0 -9 12 -33q3 -6 15 -18t12 -17q0 -34 -29 -38q-10 -1 -57 -23.5
t-103.5 -47.5t-147 -46t-179.5 -21q-188 0 -351 86.5t-261.5 240.5t-98.5 339q0 149 61 283.5t163 230t240.5 151.5t289.5 56q86 0 254.5 -29t171.5 -51z" />
    <glyph glyph-name="gcircumflex" unicode="&#x11d;" horiz-adv-x="890" 
d="M416 1133q-50 -60 -135 -172q-12 -15 -31.5 -30.5t-30.5 -15.5q-12 0 -15 5.5t-3 21.5q0 20 68 147.5t112 200.5q21 37 41 37t41 -37q46 -76 114 -202t68 -146q0 -11 -0.5 -15.5t-4.5 -8t-13 -3.5q-12 0 -31.5 15t-30.5 31q-52 69 -135 172q-2 3 -3.5 4.5t-3.5 1.5
t-3.5 -1.5t-3.5 -4.5zM737 604q0 -158 -98.5 -272.5t-235.5 -114.5q-20 0 -54.5 6.5t-55.5 18.5q-90 -69 -90 -101q0 -20 20.5 -36t53.5 -25.5t62.5 -14.5t59.5 -8q221 -21 299 -44q132 -38 153 -128q5 -20 5 -43q0 -108 -71 -211t-177 -164t-209 -61q-55 0 -105.5 7
t-101 24t-87 43t-59.5 67t-23 93q0 64 32 110t68 66q39 25 57.5 38t45 36.5t40.5 46.5q-30 6 -59 17t-58.5 28.5t-48 45.5t-18.5 62q0 39 47 76q12 9 39.5 25t47.5 32t34 37q-12 3 -38 23.5t-56.5 54t-53 85.5t-22.5 105q0 139 106 231.5t250 92.5q53 0 121.5 -24.5
t97.5 -30.5q47 -9 109 -9q18 0 59 3.5t49 3.5q19 0 19 -45q0 -35 -19 -35q-40 0 -65 -2t-32 -5t-14.5 -6t-15.5 -4q-8 -23 -8 -94zM410 791q-81 0 -132 -77.5t-51 -160.5q0 -101 56.5 -182.5t140.5 -81.5q75 0 127.5 76t52.5 178q0 97 -55.5 172.5t-138.5 75.5zM168 -274
q0 -104 70.5 -171t189.5 -67q123 0 213 82t90 207q0 35 -28 64.5t-63 45t-73 23.5q-75 15 -200 20q-4 0 -15 1t-19.5 1t-13.5 -2q-22 -14 -102 -94q-49 -57 -49 -110z" />
    <glyph glyph-name="Gbreve" unicode="&#x11e;" horiz-adv-x="1492" 
d="M608 1636q80 -96 211 -96t211 96q1 2 5 7.5t6.5 8t6.5 8t7 8t7.5 5.5t8.5 4.5t8 1.5q14 0 17.5 -12t3.5 -37q0 -71 -80.5 -142t-200.5 -71t-200 71t-80 142q0 21 5.5 35t14.5 14q4 0 8 -1.5t8.5 -4.5t7.5 -5.5t7 -8t6.5 -8t6.5 -8t5 -7.5zM1272 1278q22 -158 22 -229
q0 -15 -9 -28t-21 -13q-13 0 -23 9.5t-14.5 19t-9.5 26.5q-21 58 -64 108q-30 37 -114 73t-212 36q-154 0 -277 -86.5t-189 -227t-66 -302.5q0 -141 45.5 -259.5t121 -195.5t171 -119.5t198.5 -42.5q174 0 250 76q62 62 62 158q0 17 2 58t2 60q0 49 -10 62q-23 30 -90 46.5
t-111 16.5q-10 0 -25.5 11t-15.5 24t15.5 24t25.5 11q48 0 124 -4t134 -4q36 0 90.5 4t91.5 4q13 0 28 -7.5t15 -25.5q0 -12 -16 -23.5t-27 -13.5q-43 -12 -61.5 -34.5t-24.5 -65.5q-10 -74 -10 -154v-55q0 -9 12 -33q3 -6 15 -18t12 -17q0 -34 -29 -38q-10 -1 -57 -23.5
t-103.5 -47.5t-147 -46t-179.5 -21q-188 0 -351 86.5t-261.5 240.5t-98.5 339q0 149 61 283.5t163 230t240.5 151.5t289.5 56q86 0 254.5 -29t171.5 -51z" />
    <glyph glyph-name="gbreve" unicode="&#x11f;" horiz-adv-x="890" 
d="M264 1202q8 -43 47.5 -71.5t110.5 -28.5t110.5 28.5t47.5 71.5q9 43 30 43q14 0 22.5 -14t8.5 -35q0 -84 -59 -150.5t-160 -66.5t-160 66.5t-59 150.5q0 49 30 49q22 0 31 -43zM737 604q0 -158 -98.5 -272.5t-235.5 -114.5q-20 0 -54.5 6.5t-55.5 18.5q-90 -69 -90 -101
q0 -20 20.5 -36t53.5 -25.5t62.5 -14.5t59.5 -8q221 -21 299 -44q132 -38 153 -128q5 -20 5 -43q0 -108 -71 -211t-177 -164t-209 -61q-55 0 -105.5 7t-101 24t-87 43t-59.5 67t-23 93q0 64 32 110t68 66q39 25 57.5 38t45 36.5t40.5 46.5q-30 6 -59 17t-58.5 28.5t-48 45.5
t-18.5 62q0 39 47 76q12 9 39.5 25t47.5 32t34 37q-12 3 -38 23.5t-56.5 54t-53 85.5t-22.5 105q0 139 106 231.5t250 92.5q53 0 121.5 -24.5t97.5 -30.5q47 -9 109 -9q18 0 59 3.5t49 3.5q19 0 19 -45q0 -35 -19 -35q-40 0 -65 -2t-32 -5t-14.5 -6t-15.5 -4q-8 -23 -8 -94z
M410 791q-81 0 -132 -77.5t-51 -160.5q0 -101 56.5 -182.5t140.5 -81.5q75 0 127.5 76t52.5 178q0 97 -55.5 172.5t-138.5 75.5zM168 -274q0 -104 70.5 -171t189.5 -67q123 0 213 82t90 207q0 35 -28 64.5t-63 45t-73 23.5q-75 15 -200 20q-4 0 -15 1t-19.5 1t-13.5 -2
q-22 -14 -102 -94q-49 -57 -49 -110z" />
    <glyph glyph-name="Gdotaccent" unicode="&#x120;" horiz-adv-x="1492" 
d="M819 1649q46 0 79.5 -33.5t33.5 -79.5t-33.5 -79.5t-79.5 -33.5t-79 33.5t-33 79.5t33 79.5t79 33.5zM1272 1278q22 -158 22 -229q0 -15 -9 -28t-21 -13q-13 0 -23 9.5t-14.5 19t-9.5 26.5q-21 58 -64 108q-30 37 -114 73t-212 36q-154 0 -277 -86.5t-189 -227
t-66 -302.5q0 -141 45.5 -259.5t121 -195.5t171 -119.5t198.5 -42.5q174 0 250 76q62 62 62 158q0 17 2 58t2 60q0 49 -10 62q-23 30 -90 46.5t-111 16.5q-10 0 -25.5 11t-15.5 24t15.5 24t25.5 11q48 0 124 -4t134 -4q36 0 90.5 4t91.5 4q13 0 28 -7.5t15 -25.5
q0 -12 -16 -23.5t-27 -13.5q-43 -12 -61.5 -34.5t-24.5 -65.5q-10 -74 -10 -154v-55q0 -9 12 -33q3 -6 15 -18t12 -17q0 -34 -29 -38q-10 -1 -57 -23.5t-103.5 -47.5t-147 -46t-179.5 -21q-188 0 -351 86.5t-261.5 240.5t-98.5 339q0 149 61 283.5t163 230t240.5 151.5
t289.5 56q86 0 254.5 -29t171.5 -51z" />
    <glyph glyph-name="gdotaccent" unicode="&#x121;" horiz-adv-x="890" 
d="M322 1112q0 44 29.5 74.5t72.5 30.5q44 0 74 -30.5t30 -74.5q0 -43 -30 -72.5t-74 -29.5q-43 0 -72.5 29.5t-29.5 72.5zM737 604q0 -158 -98.5 -272.5t-235.5 -114.5q-20 0 -54.5 6.5t-55.5 18.5q-90 -69 -90 -101q0 -20 20.5 -36t53.5 -25.5t62.5 -14.5t59.5 -8
q221 -21 299 -44q132 -38 153 -128q5 -20 5 -43q0 -108 -71 -211t-177 -164t-209 -61q-55 0 -105.5 7t-101 24t-87 43t-59.5 67t-23 93q0 64 32 110t68 66q39 25 57.5 38t45 36.5t40.5 46.5q-30 6 -59 17t-58.5 28.5t-48 45.5t-18.5 62q0 39 47 76q12 9 39.5 25t47.5 32
t34 37q-12 3 -38 23.5t-56.5 54t-53 85.5t-22.5 105q0 139 106 231.5t250 92.5q53 0 121.5 -24.5t97.5 -30.5q47 -9 109 -9q18 0 59 3.5t49 3.5q19 0 19 -45q0 -35 -19 -35q-40 0 -65 -2t-32 -5t-14.5 -6t-15.5 -4q-8 -23 -8 -94zM410 791q-81 0 -132 -77.5t-51 -160.5
q0 -101 56.5 -182.5t140.5 -81.5q75 0 127.5 76t52.5 178q0 97 -55.5 172.5t-138.5 75.5zM168 -274q0 -104 70.5 -171t189.5 -67q123 0 213 82t90 207q0 35 -28 64.5t-63 45t-73 23.5q-75 15 -200 20q-4 0 -15 1t-19.5 1t-13.5 -2q-22 -14 -102 -94q-49 -57 -49 -110z" />
    <glyph glyph-name="uni0122" unicode="&#x122;" horiz-adv-x="1492" 
d="M735 -563q-26 0 -26 18t28 27q55 20 82 66.5t27 95.5q0 46 -62 59q-39 8 -70.5 34t-31.5 58q0 38 25.5 63t68.5 25q75 0 127.5 -56.5t52.5 -141.5q0 -61 -27 -111.5t-65 -78.5t-72.5 -43t-56.5 -15zM1272 1278q22 -158 22 -229q0 -15 -9 -28t-21 -13q-13 0 -23 9.5
t-14.5 19t-9.5 26.5q-21 58 -64 108q-30 37 -114 73t-212 36q-154 0 -277 -86.5t-189 -227t-66 -302.5q0 -141 45.5 -259.5t121 -195.5t171 -119.5t198.5 -42.5q174 0 250 76q62 62 62 158q0 17 2 58t2 60q0 49 -10 62q-23 30 -90 46.5t-111 16.5q-10 0 -25.5 11t-15.5 24
t15.5 24t25.5 11q48 0 124 -4t134 -4q36 0 90.5 4t91.5 4q13 0 28 -7.5t15 -25.5q0 -12 -16 -23.5t-27 -13.5q-43 -12 -61.5 -34.5t-24.5 -65.5q-10 -74 -10 -154v-55q0 -9 12 -33q3 -6 15 -18t12 -17q0 -34 -29 -38q-10 -1 -57 -23.5t-103.5 -47.5t-147 -46t-179.5 -21
q-188 0 -351 86.5t-261.5 240.5t-98.5 339q0 149 61 283.5t163 230t240.5 151.5t289.5 56q86 0 254.5 -29t171.5 -51z" />
    <glyph glyph-name="uni0123" unicode="&#x123;" horiz-adv-x="890" 
d="M438 1120q43 0 70 -25.5t27 -60.5q0 -27 -27.5 -50t-69.5 -23q-74 0 -122 56t-48 142q0 94 87 173t171 79q37 0 37 -20q0 -7 -7.5 -13.5t-20.5 -9.5q-68 -14 -114 -59t-46 -97q0 -35 17.5 -63.5t45.5 -28.5zM737 604q0 -158 -98.5 -272.5t-235.5 -114.5q-20 0 -54.5 6.5
t-55.5 18.5q-90 -69 -90 -101q0 -20 20.5 -36t53.5 -25.5t62.5 -14.5t59.5 -8q221 -21 299 -44q132 -38 153 -128q5 -20 5 -43q0 -108 -71 -211t-177 -164t-209 -61q-55 0 -105.5 7t-101 24t-87 43t-59.5 67t-23 93q0 64 32 110t68 66q39 25 57.5 38t45 36.5t40.5 46.5
q-30 6 -59 17t-58.5 28.5t-48 45.5t-18.5 62q0 39 47 76q12 9 39.5 25t47.5 32t34 37q-12 3 -38 23.5t-56.5 54t-53 85.5t-22.5 105q0 139 106 231.5t250 92.5q53 0 121.5 -24.5t97.5 -30.5q47 -9 109 -9q18 0 59 3.5t49 3.5q19 0 19 -45q0 -35 -19 -35q-40 0 -65 -2t-32 -5
t-14.5 -6t-15.5 -4q-8 -23 -8 -94zM410 791q-81 0 -132 -77.5t-51 -160.5q0 -101 56.5 -182.5t140.5 -81.5q75 0 127.5 76t52.5 178q0 97 -55.5 172.5t-138.5 75.5zM168 -274q0 -104 70.5 -171t189.5 -67q123 0 213 82t90 207q0 35 -28 64.5t-63 45t-73 23.5q-75 15 -200 20
q-4 0 -15 1t-19.5 1t-13.5 -2q-22 -14 -102 -94q-49 -57 -49 -110z" />
    <glyph glyph-name="Hcircumflex" unicode="&#x124;" horiz-adv-x="1658" 
d="M563 1395q-31 0 -31 20q0 13 15 25l201 170q31 28 46 36.5t37 8.5t37.5 -8.5t46.5 -36.5l201 -170q12 -10 12 -25q0 -22 -28 -22q-18 0 -109.5 43t-138.5 71q-13 7 -20 7t-21 -7q-46 -27 -137.5 -69.5t-110.5 -42.5zM1397 205q0 -81 19.5 -112t92.5 -44q68 -12 68 -37
q0 -22 -59 -22t-116.5 5t-96.5 5q-40 0 -100.5 -5t-119.5 -5t-59 22q0 25 68 37q139 26 139 150v389v5q0 25 -10 25h-783q-7 0 -8.5 -4t-1.5 -18v-379q0 -64 45.5 -110t116.5 -58q67 -11 67 -37q0 -22 -59 -22q-58 0 -126.5 5t-113.5 5q-41 0 -104 -5t-121 -5q-59 0 -59 22
q0 26 67 37q74 13 98.5 45.5t24.5 108.5v925q0 77 -18 105t-90 41q-68 12 -68 41q0 22 60 22q59 0 116 -3t94 -3q39 0 99 3t119 3t59 -22q0 -29 -68 -41q-75 -13 -107 -48.5t-32 -97.5v-393q0 -18 29 -18h760q14 0 14 24v389q0 59 -31 95t-104 49q-68 12 -68 41q0 22 60 22
q58 0 125.5 -3t111.5 -3q32 0 79 3t107 3t60 -22q0 -29 -68 -41q-70 -12 -89 -44t-19 -100v-925z" />
    <glyph glyph-name="hcircumflex" unicode="&#x125;" horiz-adv-x="1054" 
d="M516 1645q-20 10 -41 0l-110 -56q-79 -35 -107 -35q-13 0 -22 6t-9 15q0 12 15 24l176 138q4 3 19 14t22 16t18 10t19 5t19 -5t18 -10t21 -16t19 -14l177 -135q12 -10 12 -25q0 -9 -8 -16t-21 -7q-39 0 -106 35zM877 139q0 -65 84 -90q47 -16 47 -37q0 -18 -41 -18
q-42 0 -83.5 5t-76.5 5t-76.5 -5t-83.5 -5q-41 0 -41 18q0 21 47 37q80 23 80 90v418q0 74 -60.5 129t-129.5 55q-43 0 -93 -11.5t-77 -33.5q-33 -27 -44.5 -56t-11.5 -91v-416q1 -38 21 -55.5t57 -28.5q47 -16 47 -37q0 -18 -41 -18q-42 0 -81 5t-74 5t-79.5 -5t-86.5 -5
q-41 0 -41 18q0 21 47 37q26 8 42 15t30.5 25t15.5 44v1026q0 132 -92 150q-16 3 -16 26q0 21 14 25q36 9 72.5 20.5t59 20t56.5 22t49 19.5l5 2q4 0 6 -1.5t5 -6.5l3 -6q0 -5 -5 -30.5t-9.5 -88.5t-4.5 -160v-356q0 -56 17 -76q173 129 309 129q100 0 167 -79.5t67 -199.5
v-430z" />
    <glyph glyph-name="Hbar" unicode="&#x126;" horiz-adv-x="1658" 
d="M1233 934h-803v-199q0 -18 29 -18h760q14 0 14 24v113v80zM1397 205q0 -81 19.5 -112t92.5 -44q68 -12 68 -37q0 -22 -59 -22t-116.5 5t-96.5 5q-40 0 -100.5 -5t-119.5 -5t-59 22q0 25 68 37q139 26 139 150v389v5q0 25 -10 25h-783q-7 0 -8.5 -4t-1.5 -18v-379
q0 -64 45.5 -110t116.5 -58q67 -11 67 -37q0 -22 -59 -22q-58 0 -126.5 5t-113.5 5q-41 0 -104 -5t-121 -5q-59 0 -59 22q0 26 67 37q74 13 98.5 45.5t24.5 108.5v731h-131q-12 0 -20.5 13t-8.5 24q0 14 15.5 25.5t34.5 11.5h110v120q0 77 -18 105t-90 41q-68 12 -68 41
q0 22 60 22q59 0 116 -3t94 -3q39 0 99 3t119 3t59 -22q0 -29 -68 -41q-75 -13 -107 -48.5t-32 -97.5v-120h803v122q0 59 -31 95t-104 49q-68 12 -68 41q0 22 60 22q58 0 125.5 -3t111.5 -3q32 0 79 3t107 3t60 -22q0 -29 -68 -41q-70 -12 -89 -44t-19 -100v-122h137
q11 0 21 -9.5t6 -19.5q-23 -45 -64 -45h-100v-729z" />
    <glyph glyph-name="hbar" unicode="&#x127;" horiz-adv-x="1017" 
d="M874 139q0 -64 89 -90q47 -16 47 -37q0 -18 -41 -18h-6q-41 0 -83 5t-77 5t-73 -5t-79 -5h-6q-41 0 -41 18q0 21 47 37q80 23 80 90v418q0 75 -61 129.5t-131 54.5q-43 0 -93 -11.5t-77 -33.5q-33 -27 -44.5 -56t-11.5 -91v-416q1 -38 21 -55.5t57 -28.5q47 -16 47 -37
q0 -18 -41 -18h-6q-41 0 -77.5 5t-71.5 5t-77 -5t-83 -5h-6q-41 0 -41 18q0 21 47 37q26 8 42 15t31 25t15 44v969h-111q-12 0 -20 10.5t-8 20.5q0 14 15 25t34 11h90q-3 121 -92 140q-17 3 -17 26q0 21 15 25q36 9 72.5 20.5t59 20t56.5 22t49 19.5l4 2q6 0 15 -14
q0 -6 -4.5 -30t-9 -83t-5.5 -148h287q11 0 21 -9t6 -19q-20 -39 -64 -39h-250v-307q0 -56 17 -76q173 129 309 129q103 0 169 -65t66 -181v-463z" />
    <glyph glyph-name="Itilde" unicode="&#x128;" horiz-adv-x="696" 
d="M473 1464q-25 0 -126.5 10.5t-127.5 10.5q-23 0 -66.5 -32t-50.5 -32q-12 0 -22 10t-10 25q0 34 66.5 86.5t105.5 52.5q26 0 122 -9t121 -9q24 0 45.5 10t33.5 21.5t24 21.5t20 10q15 0 25 -9.5t10 -24.5q0 -31 -65 -86.5t-105 -55.5zM266 1126q0 71 -30 102.5t-107 45.5
q-68 12 -68 41q0 22 60 22q58 0 126 -3t113 -3q41 0 103.5 3t120.5 3q59 0 59 -22q0 -29 -68 -41q-79 -14 -112 -46t-33 -102v-925q0 -69 40.5 -103.5t121.5 -48.5q67 -11 67 -37q0 -22 -59 -22q-58 0 -126.5 5t-113.5 5q-50 0 -127.5 -5t-134.5 -5q-59 0 -59 22q0 26 67 37
q81 14 120.5 48.5t39.5 103.5v925z" />
    <glyph glyph-name="itilde" unicode="&#x129;" horiz-adv-x="501" 
d="M6 963q-14 0 -21.5 12t-7.5 29q0 19 73.5 95.5t107.5 76.5q25 0 109.5 -8.5t109.5 -8.5t46.5 11t33.5 24t22 24t15 11q15 0 23.5 -10t8.5 -25q0 -19 -70 -94.5t-104 -75.5q-26 0 -115 7t-114 7q-22 0 -48 -19t-44.5 -37.5t-24.5 -18.5zM332 889q14 0 14 -10
q-18 -189 -18 -277v-475q0 -16 6 -28.5t12 -19t22 -14t22 -9t26 -7.5q47 -16 47 -37q0 -18 -41 -18q-40 0 -85.5 5t-80.5 5t-80 -5t-86 -5t-41 18q0 21 47 37q55 16 71 32q17 18 17 46v444q0 131 -96 150q-16 3 -16 27q0 20 14 24q60 14 118 43.5t90.5 51.5t37.5 22z" />
    <glyph glyph-name="Imacron" unicode="&#x12a;" horiz-adv-x="696" 
d="M96 1591h539q9 0 18 -7.5t9 -16.5q0 -31 -20 -58.5t-44 -27.5h-522q-11 0 -20 7.5t-9 16.5q0 24 12 55t37 31zM266 1126q0 71 -30 102.5t-107 45.5q-68 12 -68 41q0 22 60 22q58 0 126 -3t113 -3q41 0 103.5 3t120.5 3q59 0 59 -22q0 -29 -68 -41q-79 -14 -112 -46
t-33 -102v-925q0 -69 40.5 -103.5t121.5 -48.5q67 -11 67 -37q0 -22 -59 -22q-58 0 -126.5 5t-113.5 5q-50 0 -127.5 -5t-134.5 -5q-59 0 -59 22q0 26 67 37q81 14 120.5 48.5t39.5 103.5v925z" />
    <glyph glyph-name="imacron" unicode="&#x12b;" horiz-adv-x="501" 
d="M39 1137h416q9 0 17.5 -8t8.5 -17q0 -37 -16.5 -62.5t-46.5 -25.5h-400q-10 0 -19 8t-9 17q0 24 12 56t37 32zM332 889q14 0 14 -10q-18 -189 -18 -277v-475q0 -16 6 -28.5t12 -19t22 -14t22 -9t26 -7.5q47 -16 47 -37q0 -18 -41 -18q-40 0 -85.5 5t-80.5 5t-80 -5
t-86 -5t-41 18q0 21 47 37q55 16 71 32q17 18 17 46v444q0 131 -96 150q-16 3 -16 27q0 20 14 24q60 14 118 43.5t90.5 51.5t37.5 22z" />
    <glyph glyph-name="Ibreve" unicode="&#x12c;" horiz-adv-x="696" 
d="M143 1636q80 -96 211 -96t211 96q1 2 5 7.5t6.5 8t6.5 8t7 8t7.5 5.5t8.5 4.5t8 1.5q14 0 17.5 -12t3.5 -37q0 -71 -80.5 -142t-200.5 -71t-200 71t-80 142q0 21 5.5 35t14.5 14q4 0 8 -1.5t8.5 -4.5t7.5 -5.5t7 -8t6.5 -8t6.5 -8t5 -7.5zM266 1126q0 71 -30 102.5
t-107 45.5q-68 12 -68 41q0 22 60 22q58 0 126 -3t113 -3q41 0 103.5 3t120.5 3q59 0 59 -22q0 -29 -68 -41q-79 -14 -112 -46t-33 -102v-925q0 -69 40.5 -103.5t121.5 -48.5q67 -11 67 -37q0 -22 -59 -22q-58 0 -126.5 5t-113.5 5q-50 0 -127.5 -5t-134.5 -5q-59 0 -59 22
q0 26 67 37q81 14 120.5 48.5t39.5 103.5v925z" />
    <glyph glyph-name="ibreve" unicode="&#x12d;" horiz-adv-x="501" 
d="M78 1202q8 -43 47.5 -71.5t110.5 -28.5t110 28.5t47 71.5q9 43 31 43q14 0 22.5 -14t8.5 -35q0 -84 -59 -150.5t-160 -66.5t-160.5 66.5t-59.5 150.5q0 21 8.5 35t22.5 14q22 0 31 -43zM332 889q14 0 14 -10q-18 -189 -18 -277v-475q0 -16 6 -28.5t12 -19t22 -14t22 -9
t26 -7.5q47 -16 47 -37q0 -18 -41 -18q-40 0 -85.5 5t-80.5 5t-80 -5t-86 -5t-41 18q0 21 47 37q55 16 71 32q17 18 17 46v444q0 131 -96 150q-16 3 -16 27q0 20 14 24q60 14 118 43.5t90.5 51.5t37.5 22z" />
    <glyph glyph-name="Iogonek" unicode="&#x12e;" horiz-adv-x="696" 
d="M311 -588q-97 0 -165 67.5t-68 164.5q0 54 29.5 109.5t78.5 103t92 81t89 62.5h-7q-50 0 -127.5 -5t-134.5 -5q-59 0 -59 22q0 26 67 37q81 14 120.5 48.5t39.5 103.5v925q0 71 -30 102.5t-107 45.5q-68 12 -68 41q0 22 60 22q58 0 126 -3t113 -3q41 0 103.5 3t120.5 3
q59 0 59 -22q0 -29 -68 -41q-79 -14 -112 -46t-33 -102v-925q0 -69 40.5 -103.5t121.5 -48.5q67 -11 67 -37q0 -22 -59 -22q-46 0 -104 4t-66 4q-42 -35 -77.5 -75t-68 -107t-32.5 -133q0 -53 40 -89t95 -36q25 0 54.5 11.5t49.5 25t40.5 28.5t23.5 17q7 5 16 1.5t9 -14.5
q0 -66 -93 -140.5t-176 -74.5z" />
    <glyph glyph-name="iogonek" unicode="&#x12f;" horiz-adv-x="501" 
d="M139 1153q0 44 30 74t73 30q44 0 74 -30t30 -74q0 -43 -30 -72.5t-74 -29.5q-43 0 -73 29.5t-30 72.5zM248 -588q-94 0 -150.5 55.5t-56.5 165.5q0 180 201 362q9 8 10 9q-33 0 -77.5 -5t-84.5 -5q-41 0 -41 18q0 21 47 37q55 16 71 32q17 18 17 46v444q0 131 -96 150
q-16 3 -16 27q0 20 14 24q60 14 118 43.5t90.5 51.5t37.5 22q14 0 14 -10q-18 -189 -18 -277v-475q0 -16 6 -28.5t12 -19t22 -14t22 -9t26 -7.5q47 -16 47 -37q0 -18 -41 -18q-32 0 -70.5 4t-44.5 4q-16 -19 -24.5 -30t-28.5 -43.5t-31 -62.5t-20.5 -77.5t-9.5 -99.5
q0 -66 34 -104t88 -38q32 0 59.5 10.5t43.5 21.5t18 11q17 0 17 -14q0 -38 -64 -101t-141 -63z" />
    <glyph glyph-name="Idotaccent" unicode="&#x130;" horiz-adv-x="696" 
d="M344 1649q46 0 79.5 -33.5t33.5 -79.5t-33.5 -79.5t-79.5 -33.5t-79.5 33.5t-33.5 79.5t33.5 79.5t79.5 33.5zM266 1126q0 71 -30 102.5t-107 45.5q-68 12 -68 41q0 22 60 22q58 0 126 -3t113 -3q41 0 103.5 3t120.5 3q59 0 59 -22q0 -29 -68 -41q-79 -14 -112 -46
t-33 -102v-925q0 -69 40.5 -103.5t121.5 -48.5q67 -11 67 -37q0 -22 -59 -22q-58 0 -126.5 5t-113.5 5q-50 0 -127.5 -5t-134.5 -5q-59 0 -59 22q0 26 67 37q81 14 120.5 48.5t39.5 103.5v925z" />
    <glyph glyph-name="dotlessi" unicode="&#x131;" horiz-adv-x="501" 
d="M332 889q14 0 14 -10q-18 -189 -18 -277v-475q0 -16 6 -28.5t12 -19t22 -14t22 -9t26 -7.5q47 -16 47 -37q0 -18 -41 -18q-40 0 -85.5 5t-80.5 5t-80 -5t-86 -5t-41 18q0 21 47 37q55 16 71 32q17 18 17 46v444q0 131 -96 150q-16 3 -16 27q0 20 14 24q60 14 118 43.5
t90.5 51.5t37.5 22z" />
    <glyph glyph-name="IJ" unicode="&#x132;" horiz-adv-x="1370" 
d="M854 -324q135 0 135 324v1128q0 69 -30 100.5t-105 45.5q-68 12 -68 41q0 22 60 22q58 0 126 -3t113 -3q34 0 83.5 3t109.5 3q59 0 59 -22q0 -30 -67 -41q-74 -13 -95.5 -42.5t-21.5 -103.5v-837q0 -147 -7.5 -246.5t-24 -158t-30 -86t-39.5 -63.5q-5 -7 -8 -11
q-94 -136 -251 -136q-95 0 -153 26t-58 60q0 42 22.5 77.5t50.5 35.5q39 0 61.5 -12t41.5 -41q40 -60 96 -60zM266 1126q0 71 -30 102.5t-107 45.5q-68 12 -68 41q0 22 60 22q58 0 126 -3t113 -3q41 0 103.5 3t120.5 3q59 0 59 -22q0 -29 -68 -41q-79 -14 -112 -46t-33 -102
v-925q0 -69 40.5 -103.5t121.5 -48.5q67 -11 67 -37q0 -22 -59 -22q-58 0 -126.5 5t-113.5 5q-50 0 -127.5 -5t-134.5 -5q-59 0 -59 22q0 26 67 37q81 14 120.5 48.5t39.5 103.5v925z" />
    <glyph glyph-name="ij" unicode="&#x133;" horiz-adv-x="874" 
d="M592 1155q0 44 29.5 74.5t72.5 30.5q44 0 74.5 -30.5t30.5 -74.5q0 -43 -30.5 -72.5t-74.5 -29.5q-43 0 -72.5 29.5t-29.5 72.5zM782 563v-377q0 -327 -61 -497q-38 -105 -119.5 -191t-142.5 -86q-13 0 -28 6t-15 15q0 10 8.5 21.5t13.5 13.5q83 20 135 129
q60 127 60 544v430q0 131 -94 150q-7 1 -12 9.5t-5 17.5q0 20 15 24q60 14 118 43.5t90 51.5t37 22q15 0 15 -10q-15 -158 -15 -316zM135 1157q0 44 30 74.5t73 30.5q44 0 74 -30.5t30 -74.5q0 -43 -30 -72.5t-74 -29.5q-43 0 -73 29.5t-30 72.5zM332 889q14 0 14 -10
q-18 -189 -18 -277v-475q0 -16 6 -28.5t12 -19t22 -14t22 -9t26 -7.5q47 -16 47 -37q0 -18 -41 -18q-40 0 -85.5 5t-80.5 5t-80 -5t-86 -5t-41 18q0 21 47 37q55 16 71 32q17 18 17 46v444q0 131 -96 150q-16 3 -16 27q0 20 14 24q60 14 118 43.5t90.5 51.5t37.5 22z" />
    <glyph glyph-name="Jcircumflex" unicode="&#x134;" horiz-adv-x="614" 
d="M68 1436q-31 0 -31 20q0 14 14 25l201 170q31 28 46.5 36.5t37.5 8.5t37.5 -8.5t46.5 -36.5l201 -170q12 -10 12 -25q0 -9 -8 -15.5t-21 -6.5q-18 0 -109.5 43t-138.5 71q-13 8 -20.5 8t-20.5 -8q-46 -27 -137 -69.5t-110 -42.5zM131 -324q135 0 135 324v1128
q0 69 -30 100.5t-105 45.5q-68 12 -68 41q0 22 60 22q58 0 126 -3t113 -3q34 0 83.5 3t109.5 3q59 0 59 -22q0 -30 -67 -41q-74 -13 -95.5 -42.5t-21.5 -103.5v-837q0 -125 -7 -217.5t-13.5 -142t-26 -96.5t-27 -59t-34.5 -50q-94 -136 -252 -136q-95 0 -153 26t-58 60
q0 42 22.5 77.5t50.5 35.5q39 0 61.5 -12t41.5 -41q40 -60 96 -60z" />
    </font>
</defs>
</svg>
